<svg width="87" height="55" viewBox="0 0 87 55" fill="none" xmlns="http://www.w3.org/2000/svg">
<path d="M84.9675 52.1015H83.5305V23.6626C83.5305 22.965 82.965 22.3994 82.2673 22.3994C81.5697 22.3994 81.0042 22.965 81.0042 23.6626V52.1015H75.4301V31.7635C75.4301 31.0659 74.8646 30.5003 74.167 30.5003H47.1654C46.4678 30.5003 45.9022 31.0659 45.9022 31.7635V52.1015H40.328V31.7635C40.328 31.0659 39.7624 30.5003 39.0648 30.5003H12.0636C11.366 30.5003 10.8004 31.0659 10.8004 31.7635V52.1015H5.22636V50.6643C5.22636 49.9667 4.66081 49.4012 3.96321 49.4012C3.26561 49.4012 2.70005 49.9667 2.70005 50.6643V52.1015H1.26291C0.565314 52.1015 -0.000244141 52.667 -0.000244141 53.3646C-0.000244141 54.0622 0.565314 54.6278 1.26291 54.6278H84.9675C85.6651 54.6278 86.2306 54.0622 86.2306 53.3646C86.2306 52.667 85.6651 52.1015 84.9675 52.1015ZM37.802 52.1013H13.3267V49.2274H37.802V52.1013ZM37.802 46.7012H13.3267V43.8273H37.802V46.7012ZM37.802 41.301H13.3267V38.427H37.802V41.301ZM37.802 35.9005H13.3267V33.0266H37.802V35.9005ZM72.9038 52.1013H48.4285V49.2274H72.9038V52.1013ZM72.9038 46.7012H48.4285V43.8273H72.9038V46.7012ZM72.9038 41.301H48.4285V38.427H72.9038V41.301ZM72.9038 35.9005H48.4285V33.0266H72.9038V35.9005Z" fill="#9B9B9B"/>
<path d="M39.0629 19.6992H12.0615C11.3639 19.6992 10.7983 20.2648 10.7983 20.9624V26.3626C10.7983 27.0602 11.3639 27.6258 12.0615 27.6258H39.0631C39.7607 27.6258 40.3262 27.0602 40.3262 26.3626V20.9624C40.3261 20.2648 39.7605 19.6992 39.0629 19.6992ZM18.8987 25.0995H13.3247V22.2255H18.8989V25.0995H18.8987ZM29.6994 25.0995H21.425V22.2255H29.6994V25.0995ZM37.7999 25.0995H32.2257V22.2255H37.7999V25.0995Z" fill="#9B9B9B"/>
<path d="M74.1671 19.6992H47.1655C46.4679 19.6992 45.9023 20.2648 45.9023 20.9624V26.3626C45.9023 27.0602 46.4679 27.6258 47.1655 27.6258H74.1671C74.8647 27.6258 75.4302 27.0602 75.4302 26.3626V20.9624C75.4302 20.2648 74.8647 19.6992 74.1671 19.6992ZM54.0029 25.0995H48.4287V22.2255H54.0029V25.0995ZM64.8034 25.0995H56.529V22.2255H64.8034V25.0995ZM72.9039 25.0995H67.3297V22.2255H72.9039V25.0995Z" fill="#9B9B9B"/>
<path d="M85.3556 14.3606L43.5033 0.859839C43.2512 0.778491 42.9799 0.778491 42.7277 0.859839L0.875437 14.3606C0.211522 14.5747 -0.15311 15.2866 0.0611217 15.9505C0.275353 16.6144 0.986764 16.9791 1.65118 16.7648L2.70045 16.4263V45.2644C2.70045 45.962 3.26601 46.5275 3.96361 46.5275C4.6612 46.5275 5.22676 45.962 5.22676 45.2644V15.6115L43.1156 3.38918L81.0046 15.6115V18.2635C81.0046 18.9611 81.5702 19.5266 82.2678 19.5266C82.9654 19.5266 83.5309 18.9611 83.5309 18.2635V16.4265L84.58 16.7648C84.709 16.8064 84.8395 16.8261 84.968 16.8261C85.5014 16.8261 85.9974 16.4854 86.1699 15.9505C86.3841 15.2866 86.0195 14.5747 85.3556 14.3606Z" fill="#9B9B9B"/>
</svg>
