<svg width="121" height="121" viewBox="0 0 121 121" fill="none" xmlns="http://www.w3.org/2000/svg">
<circle cx="60.5" cy="60.5" r="60.5" fill="#353535"/>
<g clip-path="url(#clip0_313_11372)">
<path d="M52.2198 72.9205L30.9966 94.1435C29.8535 95.2866 28.0004 95.2866 26.8573 94.1435C25.7142 93.0004 25.7143 91.1473 26.8573 90.0042L48.0803 68.7812C49.2234 67.6381 51.0765 67.6381 52.2196 68.7812C53.3627 69.9241 53.3627 71.7774 52.2198 72.9205Z" fill="url(#paint0_linear_313_11372)"/>
<path d="M53.0781 70.8493C53.0781 71.5988 52.7913 72.3484 52.2203 72.9193L36.6615 88.4781L32.5215 84.3381L48.0803 68.7793C49.2235 67.6361 51.0771 67.6361 52.2203 68.7793C52.7913 69.3502 53.0781 70.0998 53.0781 70.8493Z" fill="url(#paint1_linear_313_11372)"/>
<path d="M93.3723 28.5436C93.4067 28.4869 93.4406 28.4303 93.4742 28.3741C93.8023 27.8227 93.1778 27.1984 92.6266 27.5264C92.5703 27.56 92.5139 27.5938 92.4571 27.6283C90.6935 28.6976 88.7162 29.3639 86.6616 29.5427C83.4707 29.8204 80.4739 31.097 78.162 33.4089C75.1191 36.4518 73.8682 40.681 74.3293 44.9778C74.4248 45.8685 75.1322 46.5759 76.0229 46.6714C80.3196 47.1325 84.5488 45.8815 87.5917 42.8386C89.9037 40.5267 91.1803 37.53 91.4579 34.339C91.6366 32.2845 92.3031 30.3071 93.3723 28.5436Z" fill="url(#paint2_linear_313_11372)"/>
<path d="M87.5917 42.8392C89.9036 40.5273 91.1802 37.5306 91.4578 34.3397C91.6367 32.2851 92.303 30.3078 93.3722 28.5442C93.4066 28.4875 93.4406 28.431 93.4741 28.3747C93.6382 28.0991 93.5641 27.8051 93.3801 27.6211L74.8779 46.1232C75.178 46.4233 75.5775 46.6241 76.0229 46.6719C80.3196 47.1331 84.5489 45.882 87.5917 42.8392Z" fill="url(#paint3_linear_313_11372)"/>
<path d="M77.7102 33.8867C74.9968 36.8863 73.8917 40.9017 74.3292 44.9787C74.4247 45.8694 75.1322 46.5768 76.0228 46.6723C80.0998 47.1098 84.1152 46.0047 87.1147 43.2913L77.7102 33.8867Z" fill="url(#paint4_linear_313_11372)"/>
<path d="M94.4542 47.4729C94.515 47.4461 94.5752 47.4193 94.6348 47.3924C95.2199 47.129 95.0664 46.2593 94.4266 46.2118C94.3613 46.207 94.2955 46.2024 94.2294 46.198C92.1715 46.0623 90.1696 45.4741 88.384 44.4421C85.6109 42.8394 82.4239 42.1661 79.204 42.7338C74.9662 43.4811 71.5157 46.2279 69.4289 50.0121C68.9963 50.7966 69.1699 51.7818 69.8448 52.3708C73.1 55.2131 77.2819 56.6141 81.5197 55.8668C84.7396 55.2991 87.5042 53.5764 89.5619 51.1219C90.8869 49.5417 92.5669 48.3043 94.4542 47.4729Z" fill="url(#paint5_linear_313_11372)"/>
<path d="M94.4542 47.4729C94.515 47.4461 94.5752 47.4193 94.6348 47.3924C95.2199 47.129 95.0664 46.2593 94.4266 46.2118C94.3613 46.207 94.2955 46.2024 94.2294 46.198C92.1715 46.0623 90.1696 45.4741 88.384 44.4421C85.6109 42.8394 82.4239 42.1661 79.204 42.7338C74.9662 43.4811 71.5157 46.2279 69.4289 50.0121C68.9963 50.7966 69.1699 51.7818 69.8448 52.3708C73.1 55.2131 77.2819 56.6141 81.5197 55.8668C84.7396 55.2991 87.5042 53.5764 89.5619 51.1219C90.8869 49.5417 92.5669 48.3043 94.4542 47.4729Z" fill="url(#paint6_linear_313_11372)"/>
<path d="M81.5198 55.8667C84.7396 55.299 87.5042 53.5763 89.5619 51.1218C90.8869 49.5413 92.5668 48.3039 94.4543 47.4725C94.5151 47.4457 94.5753 47.419 94.6349 47.392C94.9274 47.2604 95.0354 46.9771 94.9902 46.7207L69.2217 51.2644C69.2954 51.6823 69.5076 52.076 69.845 52.3706C73.0999 55.2128 77.2818 56.614 81.5198 55.8667Z" fill="url(#paint7_linear_313_11372)"/>
<path d="M78.5605 42.8652C74.6173 43.766 71.409 46.4214 69.4289 50.0119C68.9963 50.7963 69.17 51.7814 69.8448 52.3706C72.9335 55.0674 76.8566 56.4653 80.8701 55.9631L78.5605 42.8652Z" fill="url(#paint8_linear_313_11372)"/>
<path d="M73.5273 26.5457C73.5541 26.485 73.5809 26.4248 73.6078 26.3651C73.8712 25.7801 74.7409 25.9335 74.7884 26.5733C74.7933 26.6387 74.7979 26.7044 74.8022 26.7706C74.9379 28.8284 75.5261 30.8304 76.5582 32.616C78.1609 35.3891 78.8341 38.5761 78.2664 41.7959C77.5192 46.0338 74.7723 49.4843 70.9881 51.5711C70.2037 52.0036 69.2185 51.83 68.6294 51.1552C65.7871 47.9 64.3862 43.7181 65.1334 39.4803C65.7011 36.2604 67.4238 33.4958 69.8783 31.4381C71.4585 30.113 72.6959 28.4331 73.5273 26.5457Z" fill="url(#paint9_linear_313_11372)"/>
<path d="M65.1334 39.4803C65.7011 36.2605 67.4238 33.4959 69.8783 31.4382C71.4588 30.1132 72.6962 28.4333 73.5276 26.5458C73.5544 26.4851 73.5811 26.4248 73.6081 26.3652C73.7398 26.0727 74.023 25.9647 74.2794 26.0099L69.7357 51.7784C69.3178 51.7047 68.9241 51.4925 68.6295 51.1551C65.7873 47.9002 64.3862 43.7183 65.1334 39.4803Z" fill="url(#paint10_linear_313_11372)"/>
<path d="M78.1348 42.4405C77.2341 46.3836 74.5786 49.592 70.9882 51.572C70.2038 52.0047 69.2186 51.831 68.6295 51.1561C65.9327 48.0675 64.5348 44.1444 65.037 40.1309L78.1348 42.4405Z" fill="url(#paint11_linear_313_11372)"/>
<path d="M65.062 35.0106C65.0888 34.9498 65.1156 34.8896 65.1425 34.83C65.4059 34.2449 66.2756 34.3984 66.3231 35.0382C66.3279 35.1035 66.3325 35.1693 66.3369 35.2354C66.4726 37.2933 67.0608 39.2952 68.0928 41.0808C69.6955 43.8539 70.3688 47.0409 69.8011 50.2608C69.0538 54.4986 66.307 57.9492 62.5228 60.0359C61.7383 60.4685 60.7531 60.2949 60.1641 59.62C57.3218 56.3649 55.9208 52.1829 56.6681 47.9451C57.2358 44.7252 58.9585 41.9606 61.413 39.9029C62.9932 38.5779 64.2307 36.8979 65.062 35.0106Z" fill="url(#paint12_linear_313_11372)"/>
<path d="M65.062 35.0106C65.0888 34.9498 65.1156 34.8896 65.1425 34.83C65.4059 34.2449 66.2756 34.3984 66.3231 35.0382C66.3279 35.1035 66.3325 35.1693 66.3369 35.2354C66.4726 37.2933 67.0608 39.2952 68.0928 41.0808C69.6955 43.8539 70.3688 47.0409 69.8011 50.2608C69.0538 54.4986 66.307 57.9492 62.5228 60.0359C61.7383 60.4685 60.7531 60.2949 60.1641 59.62C57.3218 56.3649 55.9208 52.1829 56.6681 47.9451C57.2358 44.7252 58.9585 41.9606 61.413 39.9029C62.9932 38.5779 64.2307 36.8979 65.062 35.0106Z" fill="url(#paint13_linear_313_11372)"/>
<path d="M56.6681 47.9452C57.2357 44.7253 58.9584 41.9607 61.413 39.903C62.9935 38.5781 64.2309 36.8981 65.0622 35.0106C65.089 34.9499 65.1158 34.8897 65.1427 34.83C65.2745 34.5375 65.5577 34.4296 65.8141 34.4747L61.2704 60.2433C60.8524 60.1695 60.4587 59.9574 60.1642 59.62C57.3219 56.3651 55.9208 52.1831 56.6681 47.9452Z" fill="url(#paint14_linear_313_11372)"/>
<path d="M69.6695 50.9053C68.7687 54.8485 66.1133 58.0568 62.5229 60.0369C61.7384 60.4695 60.7532 60.2958 60.1642 59.621C57.4673 56.5323 56.0695 52.6092 56.5717 48.5957L69.6695 50.9053Z" fill="url(#paint15_linear_313_11372)"/>
<path d="M85.9889 55.9378C86.0496 55.911 86.1099 55.8842 86.1695 55.8573C86.7545 55.5938 86.6011 54.7242 85.9613 54.6767C85.896 54.6718 85.8302 54.6672 85.764 54.6629C83.7062 54.5272 81.7043 53.9389 79.9187 52.9069C77.1455 51.3042 73.9585 50.631 70.7387 51.1987C66.5009 51.9459 63.0503 54.6928 60.9635 58.477C60.531 59.2614 60.7046 60.2466 61.3794 60.8357C64.6346 63.6779 68.8166 65.0789 73.0544 64.3317C76.2742 63.764 79.0388 62.0413 81.0965 59.5868C82.4216 58.0065 84.1015 56.769 85.9889 55.9378Z" fill="url(#paint16_linear_313_11372)"/>
<path d="M73.0545 64.3316C76.2743 63.7639 79.0389 62.0412 81.0966 59.5867C82.4215 58.0062 84.1015 56.7688 85.989 55.9374C86.0497 55.9106 86.1099 55.8838 86.1696 55.8569C86.4621 55.7251 86.5701 55.4419 86.5249 55.1855L60.7563 59.7293C60.8301 60.1472 61.0422 60.5409 61.3797 60.8354C64.6346 63.6777 68.8165 65.0788 73.0545 64.3316Z" fill="url(#paint17_linear_313_11372)"/>
<path d="M70.0951 51.3301C66.152 52.2309 62.9436 54.8863 60.9636 58.4767C60.5309 59.2612 60.7047 60.2464 61.3795 60.8354C64.4681 63.5323 68.3913 64.9301 72.4048 64.4279L70.0951 51.3301Z" fill="url(#paint18_linear_313_11372)"/>
<path d="M77.5236 64.4046C77.5843 64.3778 77.6445 64.351 77.7042 64.3241C78.2892 64.0606 78.1358 63.191 77.496 63.1435C77.4306 63.1386 77.3649 63.134 77.2987 63.1297C75.2409 62.994 73.2389 62.4057 71.4533 61.3737C68.6802 59.771 65.4932 59.0978 62.2734 59.6655C58.0355 60.4127 54.585 63.1596 52.4982 66.9438C52.0657 67.7282 52.2393 68.7134 52.9141 69.3025C56.1693 72.1447 60.3512 73.5457 64.589 72.7985C67.8089 72.2308 70.5735 70.5081 72.6312 68.0536C73.9561 66.4733 75.6361 65.2358 77.5236 64.4046Z" fill="url(#paint19_linear_313_11372)"/>
<path d="M77.5236 64.4046C77.5843 64.3778 77.6445 64.351 77.7042 64.3241C78.2892 64.0606 78.1358 63.191 77.496 63.1435C77.4306 63.1386 77.3649 63.134 77.2987 63.1297C75.2409 62.994 73.2389 62.4057 71.4533 61.3737C68.6802 59.771 65.4932 59.0978 62.2734 59.6655C58.0355 60.4127 54.585 63.1596 52.4982 66.9438C52.0657 67.7282 52.2393 68.7134 52.9141 69.3025C56.1693 72.1447 60.3512 73.5457 64.589 72.7985C67.8089 72.2308 70.5735 70.5081 72.6312 68.0536C73.9561 66.4733 75.6361 65.2358 77.5236 64.4046Z" fill="url(#paint20_linear_313_11372)"/>
<path d="M64.5891 72.7984C67.809 72.2307 70.5736 70.508 72.6313 68.0535C73.9562 66.473 75.6362 65.2356 77.5236 64.4042C77.5844 64.3774 77.6446 64.3506 77.7043 64.3237C77.9968 64.1919 78.1047 63.9087 78.0595 63.6523L52.291 68.1961C52.3648 68.614 52.5769 69.0077 52.9143 69.3022C56.1694 72.1445 60.3513 73.5456 64.5891 72.7984Z" fill="url(#paint21_linear_313_11372)"/>
<path d="M61.6298 59.7969C57.6866 60.6977 54.4782 63.3531 52.4982 66.9435C52.0657 67.728 52.2393 68.7132 52.9141 69.3022C56.0027 71.9991 59.9259 73.3969 63.9394 72.8947L61.6298 59.7969Z" fill="url(#paint22_linear_313_11372)"/>
<path d="M56.5966 43.4774C56.6234 43.4166 56.6502 43.3564 56.6771 43.2967C56.9406 42.7117 57.8102 42.8652 57.8577 43.505C57.8626 43.5703 57.8672 43.6361 57.8715 43.7022C58.0072 45.7601 58.5955 47.762 59.6275 49.5476C61.2302 52.3207 61.9034 55.5077 61.3357 58.7276C60.5885 62.9654 57.8416 66.4159 54.0574 68.5027C53.273 68.9353 52.2878 68.7617 51.6987 68.0868C48.8565 64.8317 47.4555 60.6497 48.2027 56.4119C48.7704 53.192 50.4931 50.4274 52.9476 48.3697C54.5279 47.0448 55.7654 45.3649 56.5966 43.4774Z" fill="url(#paint23_linear_313_11372)"/>
<path d="M48.2027 56.412C48.7704 53.1921 50.4931 50.4275 52.9476 48.3698C54.5281 47.0449 55.7655 45.3649 56.5969 43.4774C56.6237 43.4167 56.6505 43.3565 56.6774 43.2968C56.809 43.0043 57.0924 42.8964 57.3487 42.9415L52.805 68.7101C52.3871 68.6363 51.9934 68.4242 51.6989 68.0868C48.8566 64.8317 47.4555 60.6498 48.2027 56.412Z" fill="url(#paint24_linear_313_11372)"/>
<path d="M61.2042 59.3721C60.3034 63.3153 57.648 66.5236 54.0575 68.5036C53.2731 68.9363 52.2879 68.7626 51.6988 68.0878C49.002 64.9991 47.6041 61.076 48.1064 57.0625L61.2042 59.3721Z" fill="url(#paint25_linear_313_11372)"/>
<path d="M48.1318 51.9422C48.1586 51.8815 48.1854 51.8213 48.2123 51.7616C48.4757 51.1766 49.3454 51.33 49.3929 51.9698C49.3978 52.0352 49.4024 52.1009 49.4067 52.1671C49.5424 54.2249 50.1306 56.2268 51.1627 58.0125C52.7654 60.7856 53.4386 63.9726 52.8709 67.1924C52.1237 71.4302 49.3768 74.8808 45.5926 76.9676C44.8082 77.4001 43.823 77.2265 43.2339 76.5517C40.3916 73.2965 38.9907 69.1146 39.7379 64.8767C40.3056 61.6569 42.0283 58.8923 44.4828 56.8346C46.063 55.5096 47.3006 53.8296 48.1318 51.9422Z" fill="url(#paint26_linear_313_11372)"/>
<path d="M48.1318 51.9422C48.1586 51.8815 48.1854 51.8213 48.2123 51.7616C48.4757 51.1766 49.3454 51.33 49.3929 51.9698C49.3978 52.0352 49.4024 52.1009 49.4067 52.1671C49.5424 54.2249 50.1306 56.2268 51.1627 58.0125C52.7654 60.7856 53.4386 63.9726 52.8709 67.1924C52.1237 71.4302 49.3768 74.8808 45.5926 76.9676C44.8082 77.4001 43.823 77.2265 43.2339 76.5517C40.3916 73.2965 38.9907 69.1146 39.7379 64.8767C40.3056 61.6569 42.0283 58.8923 44.4828 56.8346C46.063 55.5096 47.3006 53.8296 48.1318 51.9422Z" fill="url(#paint27_linear_313_11372)"/>
<path d="M39.7374 64.8768C40.3051 61.6569 42.0278 58.8923 44.4823 56.8347C46.0629 55.5097 47.3003 53.8298 48.1316 51.9423C48.1584 51.8815 48.1852 51.8213 48.2121 51.7617C48.3438 51.4692 48.6271 51.3612 48.8835 51.4064L44.3397 77.1749C43.9218 77.1012 43.5281 76.889 43.2336 76.5516C40.3912 73.2966 38.9901 69.1146 39.7374 64.8768Z" fill="url(#paint28_linear_313_11372)"/>
<path d="M52.7389 67.8369C51.8381 71.7801 49.1826 74.9885 45.5922 76.9685C44.8078 77.4012 43.8226 77.2274 43.2335 76.5526C40.5367 73.464 39.1388 69.5408 39.641 65.5273L52.7389 67.8369Z" fill="url(#paint29_linear_313_11372)"/>
<path d="M69.0582 72.8694C69.119 72.8426 69.1792 72.8158 69.2389 72.7889C69.8239 72.5255 69.6704 71.6558 69.0306 71.6083C68.9653 71.6035 68.8995 71.5989 68.8334 71.5945C66.7756 71.4588 64.7736 70.8706 62.988 69.8385C60.2149 68.2358 57.0279 67.5626 53.808 68.1303C49.5702 68.8775 46.1197 71.6244 44.0329 75.4086C43.6003 76.193 43.7739 77.1783 44.4488 77.7673C47.704 80.6096 51.8859 82.0106 56.1237 81.2633C59.3436 80.6956 62.1082 78.9729 64.1659 76.5184C65.4908 74.9382 67.1709 73.7007 69.0582 72.8694Z" fill="url(#paint30_linear_313_11372)"/>
<path d="M56.1238 81.2632C59.3436 80.6955 62.1082 78.9728 64.1659 76.5183C65.4909 74.9378 67.1708 73.7004 69.0583 72.869C69.1191 72.8422 69.1793 72.8154 69.2389 72.7885C69.5314 72.6567 69.6394 72.3736 69.5942 72.1172L43.8257 76.6609C43.8994 77.0788 44.1116 77.4725 44.449 77.7671C47.704 80.6095 51.886 82.0106 56.1238 81.2632Z" fill="url(#paint31_linear_313_11372)"/>
<path d="M53.1644 68.2617C49.2213 69.1625 46.0129 71.8179 44.0329 75.4084C43.6003 76.1928 43.7739 77.1779 44.4488 77.7671C47.5374 80.4639 51.4605 81.8618 55.474 81.3595L53.1644 68.2617Z" fill="url(#paint32_linear_313_11372)"/>
</g>
<defs>
<linearGradient id="paint0_linear_313_11372" x1="37.5778" y1="79.5062" x2="41.8563" y2="83.7846" gradientUnits="userSpaceOnUse">
<stop stop-color="#FEE97D"/>
<stop offset="1" stop-color="#FE860A"/>
</linearGradient>
<linearGradient id="paint1_linear_313_11372" x1="37.7709" y1="83.2287" x2="44.2006" y2="76.799" gradientUnits="userSpaceOnUse">
<stop stop-color="#FE7701" stop-opacity="0"/>
<stop offset="0.193" stop-color="#F87105" stop-opacity="0.193"/>
<stop offset="0.447" stop-color="#E76010" stop-opacity="0.447"/>
<stop offset="0.7336" stop-color="#CC4522" stop-opacity="0.734"/>
<stop offset="1" stop-color="#AC2538"/>
</linearGradient>
<linearGradient id="paint2_linear_313_11372" x1="84.0134" y1="34.1477" x2="82.2278" y2="51.2187" gradientUnits="userSpaceOnUse">
<stop stop-color="#FEE97D"/>
<stop offset="1" stop-color="#FE860A"/>
</linearGradient>
<linearGradient id="paint3_linear_313_11372" x1="91.9876" y1="38.2998" x2="69.9167" y2="34.7999" gradientUnits="userSpaceOnUse">
<stop stop-color="#FE7701" stop-opacity="0"/>
<stop offset="0.193" stop-color="#F87105" stop-opacity="0.193"/>
<stop offset="0.447" stop-color="#E76010" stop-opacity="0.447"/>
<stop offset="0.7336" stop-color="#CC4522" stop-opacity="0.734"/>
<stop offset="1" stop-color="#AC2538"/>
</linearGradient>
<linearGradient id="paint4_linear_313_11372" x1="79.9092" y1="41.0848" x2="75.0266" y2="45.9674" gradientUnits="userSpaceOnUse">
<stop stop-color="#FE7701" stop-opacity="0"/>
<stop offset="0.193" stop-color="#F87105" stop-opacity="0.193"/>
<stop offset="0.447" stop-color="#E76010" stop-opacity="0.447"/>
<stop offset="0.7336" stop-color="#CC4522" stop-opacity="0.734"/>
<stop offset="1" stop-color="#AC2538"/>
</linearGradient>
<linearGradient id="paint5_linear_313_11372" x1="83.5868" y1="46.7094" x2="72.3321" y2="59.6776" gradientUnits="userSpaceOnUse">
<stop stop-color="#FEE97D"/>
<stop offset="1" stop-color="#FE860A"/>
</linearGradient>
<linearGradient id="paint6_linear_313_11372" x1="83.2987" y1="49.1656" x2="73.549" y2="49.5942" gradientUnits="userSpaceOnUse">
<stop stop-color="#FE7701" stop-opacity="0"/>
<stop offset="0.193" stop-color="#F87105" stop-opacity="0.193"/>
<stop offset="0.447" stop-color="#E76010" stop-opacity="0.447"/>
<stop offset="0.7336" stop-color="#CC4522" stop-opacity="0.734"/>
<stop offset="1" stop-color="#AC2538"/>
</linearGradient>
<linearGradient id="paint7_linear_313_11372" x1="87.7417" y1="54.6852" x2="71.6585" y2="39.1577" gradientUnits="userSpaceOnUse">
<stop stop-color="#FE7701" stop-opacity="0"/>
<stop offset="0.193" stop-color="#F87105" stop-opacity="0.193"/>
<stop offset="0.447" stop-color="#E76010" stop-opacity="0.447"/>
<stop offset="0.7336" stop-color="#CC4522" stop-opacity="0.734"/>
<stop offset="1" stop-color="#AC2538"/>
</linearGradient>
<linearGradient id="paint8_linear_313_11372" x1="76.2444" y1="50.0402" x2="69.4419" y2="51.2418" gradientUnits="userSpaceOnUse">
<stop stop-color="#FE7701" stop-opacity="0"/>
<stop offset="0.193" stop-color="#F87105" stop-opacity="0.193"/>
<stop offset="0.447" stop-color="#E76010" stop-opacity="0.447"/>
<stop offset="0.7336" stop-color="#CC4522" stop-opacity="0.734"/>
<stop offset="1" stop-color="#AC2538"/>
</linearGradient>
<linearGradient id="paint9_linear_313_11372" x1="74.2913" y1="37.4081" x2="61.3232" y2="48.6629" gradientUnits="userSpaceOnUse">
<stop stop-color="#FEE97D"/>
<stop offset="1" stop-color="#FE860A"/>
</linearGradient>
<linearGradient id="paint10_linear_313_11372" x1="66.3154" y1="33.2534" x2="81.8428" y2="49.3366" gradientUnits="userSpaceOnUse">
<stop stop-color="#FE7701" stop-opacity="0"/>
<stop offset="0.193" stop-color="#F87105" stop-opacity="0.193"/>
<stop offset="0.447" stop-color="#E76010" stop-opacity="0.447"/>
<stop offset="0.7336" stop-color="#CC4522" stop-opacity="0.734"/>
<stop offset="1" stop-color="#AC2538"/>
</linearGradient>
<linearGradient id="paint11_linear_313_11372" x1="70.9604" y1="44.7516" x2="69.7587" y2="51.5542" gradientUnits="userSpaceOnUse">
<stop stop-color="#FE7701" stop-opacity="0"/>
<stop offset="0.193" stop-color="#F87105" stop-opacity="0.193"/>
<stop offset="0.447" stop-color="#E76010" stop-opacity="0.447"/>
<stop offset="0.7336" stop-color="#CC4522" stop-opacity="0.734"/>
<stop offset="1" stop-color="#AC2538"/>
</linearGradient>
<linearGradient id="paint12_linear_313_11372" x1="65.8206" y1="45.8782" x2="52.8524" y2="57.1329" gradientUnits="userSpaceOnUse">
<stop stop-color="#FEE97D"/>
<stop offset="1" stop-color="#FE860A"/>
</linearGradient>
<linearGradient id="paint13_linear_313_11372" x1="65.0707" y1="44.463" x2="59.2316" y2="59.1948" gradientUnits="userSpaceOnUse">
<stop stop-color="#FE7701" stop-opacity="0"/>
<stop offset="0.193" stop-color="#F87105" stop-opacity="0.193"/>
<stop offset="0.447" stop-color="#E76010" stop-opacity="0.447"/>
<stop offset="0.7336" stop-color="#CC4522" stop-opacity="0.734"/>
<stop offset="1" stop-color="#AC2538"/>
</linearGradient>
<linearGradient id="paint14_linear_313_11372" x1="57.8446" y1="41.7234" x2="73.372" y2="57.8067" gradientUnits="userSpaceOnUse">
<stop stop-color="#FE7701" stop-opacity="0"/>
<stop offset="0.193" stop-color="#F87105" stop-opacity="0.193"/>
<stop offset="0.447" stop-color="#E76010" stop-opacity="0.447"/>
<stop offset="0.7336" stop-color="#CC4522" stop-opacity="0.734"/>
<stop offset="1" stop-color="#AC2538"/>
</linearGradient>
<linearGradient id="paint15_linear_313_11372" x1="62.4896" y1="53.2216" x2="61.2879" y2="60.0241" gradientUnits="userSpaceOnUse">
<stop stop-color="#FE7701" stop-opacity="0"/>
<stop offset="0.193" stop-color="#F87105" stop-opacity="0.193"/>
<stop offset="0.447" stop-color="#E76010" stop-opacity="0.447"/>
<stop offset="0.7336" stop-color="#CC4522" stop-opacity="0.734"/>
<stop offset="1" stop-color="#AC2538"/>
</linearGradient>
<linearGradient id="paint16_linear_313_11372" x1="75.1278" y1="55.1783" x2="63.8731" y2="68.1466" gradientUnits="userSpaceOnUse">
<stop stop-color="#FEE97D"/>
<stop offset="1" stop-color="#FE860A"/>
</linearGradient>
<linearGradient id="paint17_linear_313_11372" x1="79.2827" y1="63.1541" x2="63.1994" y2="47.6267" gradientUnits="userSpaceOnUse">
<stop stop-color="#FE7701" stop-opacity="0"/>
<stop offset="0.193" stop-color="#F87105" stop-opacity="0.193"/>
<stop offset="0.447" stop-color="#E76010" stop-opacity="0.447"/>
<stop offset="0.7336" stop-color="#CC4522" stop-opacity="0.734"/>
<stop offset="1" stop-color="#AC2538"/>
</linearGradient>
<linearGradient id="paint18_linear_313_11372" x1="67.7853" y1="58.5091" x2="60.9828" y2="59.7108" gradientUnits="userSpaceOnUse">
<stop stop-color="#FE7701" stop-opacity="0"/>
<stop offset="0.193" stop-color="#F87105" stop-opacity="0.193"/>
<stop offset="0.447" stop-color="#E76010" stop-opacity="0.447"/>
<stop offset="0.7336" stop-color="#CC4522" stop-opacity="0.734"/>
<stop offset="1" stop-color="#AC2538"/>
</linearGradient>
<linearGradient id="paint19_linear_313_11372" x1="66.6571" y1="63.6505" x2="55.4024" y2="76.6188" gradientUnits="userSpaceOnUse">
<stop stop-color="#FEE97D"/>
<stop offset="1" stop-color="#FE860A"/>
</linearGradient>
<linearGradient id="paint20_linear_313_11372" x1="67.8182" y1="65.9508" x2="54.9078" y2="66.7544" gradientUnits="userSpaceOnUse">
<stop stop-color="#FE7701" stop-opacity="0"/>
<stop offset="0.193" stop-color="#F87105" stop-opacity="0.193"/>
<stop offset="0.447" stop-color="#E76010" stop-opacity="0.447"/>
<stop offset="0.7336" stop-color="#CC4522" stop-opacity="0.734"/>
<stop offset="1" stop-color="#AC2538"/>
</linearGradient>
<linearGradient id="paint21_linear_313_11372" x1="70.8122" y1="71.6264" x2="54.7289" y2="56.099" gradientUnits="userSpaceOnUse">
<stop stop-color="#FE7701" stop-opacity="0"/>
<stop offset="0.193" stop-color="#F87105" stop-opacity="0.193"/>
<stop offset="0.447" stop-color="#E76010" stop-opacity="0.447"/>
<stop offset="0.7336" stop-color="#CC4522" stop-opacity="0.734"/>
<stop offset="1" stop-color="#AC2538"/>
</linearGradient>
<linearGradient id="paint22_linear_313_11372" x1="59.3149" y1="66.9814" x2="52.5122" y2="68.1831" gradientUnits="userSpaceOnUse">
<stop stop-color="#FE7701" stop-opacity="0"/>
<stop offset="0.193" stop-color="#F87105" stop-opacity="0.193"/>
<stop offset="0.447" stop-color="#E76010" stop-opacity="0.447"/>
<stop offset="0.7336" stop-color="#CC4522" stop-opacity="0.734"/>
<stop offset="1" stop-color="#AC2538"/>
</linearGradient>
<linearGradient id="paint23_linear_313_11372" x1="57.3512" y1="54.3388" x2="44.3829" y2="65.5935" gradientUnits="userSpaceOnUse">
<stop stop-color="#FEE97D"/>
<stop offset="1" stop-color="#FE860A"/>
</linearGradient>
<linearGradient id="paint24_linear_313_11372" x1="49.3753" y1="50.1839" x2="64.9027" y2="66.2672" gradientUnits="userSpaceOnUse">
<stop stop-color="#FE7701" stop-opacity="0"/>
<stop offset="0.193" stop-color="#F87105" stop-opacity="0.193"/>
<stop offset="0.447" stop-color="#E76010" stop-opacity="0.447"/>
<stop offset="0.7336" stop-color="#CC4522" stop-opacity="0.734"/>
<stop offset="1" stop-color="#AC2538"/>
</linearGradient>
<linearGradient id="paint25_linear_313_11372" x1="54.0203" y1="61.6821" x2="52.8186" y2="68.4846" gradientUnits="userSpaceOnUse">
<stop stop-color="#FE7701" stop-opacity="0"/>
<stop offset="0.193" stop-color="#F87105" stop-opacity="0.193"/>
<stop offset="0.447" stop-color="#E76010" stop-opacity="0.447"/>
<stop offset="0.7336" stop-color="#CC4522" stop-opacity="0.734"/>
<stop offset="1" stop-color="#AC2538"/>
</linearGradient>
<linearGradient id="paint26_linear_313_11372" x1="48.881" y1="62.8089" x2="35.9127" y2="74.0636" gradientUnits="userSpaceOnUse">
<stop stop-color="#FEE97D"/>
<stop offset="1" stop-color="#FE860A"/>
</linearGradient>
<linearGradient id="paint27_linear_313_11372" x1="47.5958" y1="60.6603" x2="44.2745" y2="74.4813" gradientUnits="userSpaceOnUse">
<stop stop-color="#FE7701" stop-opacity="0"/>
<stop offset="0.193" stop-color="#F87105" stop-opacity="0.193"/>
<stop offset="0.447" stop-color="#E76010" stop-opacity="0.447"/>
<stop offset="0.7336" stop-color="#CC4522" stop-opacity="0.734"/>
<stop offset="1" stop-color="#AC2538"/>
</linearGradient>
<linearGradient id="paint28_linear_313_11372" x1="40.9044" y1="58.654" x2="56.4318" y2="74.7373" gradientUnits="userSpaceOnUse">
<stop stop-color="#FE7701" stop-opacity="0"/>
<stop offset="0.193" stop-color="#F87105" stop-opacity="0.193"/>
<stop offset="0.447" stop-color="#E76010" stop-opacity="0.447"/>
<stop offset="0.7336" stop-color="#CC4522" stop-opacity="0.734"/>
<stop offset="1" stop-color="#AC2538"/>
</linearGradient>
<linearGradient id="paint29_linear_313_11372" x1="45.5495" y1="70.1521" x2="44.3478" y2="76.9547" gradientUnits="userSpaceOnUse">
<stop stop-color="#FE7701" stop-opacity="0"/>
<stop offset="0.193" stop-color="#F87105" stop-opacity="0.193"/>
<stop offset="0.447" stop-color="#E76010" stop-opacity="0.447"/>
<stop offset="0.7336" stop-color="#CC4522" stop-opacity="0.734"/>
<stop offset="1" stop-color="#AC2538"/>
</linearGradient>
<linearGradient id="paint30_linear_313_11372" x1="58.1981" y1="72.1195" x2="46.9434" y2="85.0877" gradientUnits="userSpaceOnUse">
<stop stop-color="#FEE97D"/>
<stop offset="1" stop-color="#FE860A"/>
</linearGradient>
<linearGradient id="paint31_linear_313_11372" x1="62.3531" y1="80.0955" x2="46.2699" y2="64.5681" gradientUnits="userSpaceOnUse">
<stop stop-color="#FE7701" stop-opacity="0"/>
<stop offset="0.193" stop-color="#F87105" stop-opacity="0.193"/>
<stop offset="0.447" stop-color="#E76010" stop-opacity="0.447"/>
<stop offset="0.7336" stop-color="#CC4522" stop-opacity="0.734"/>
<stop offset="1" stop-color="#AC2538"/>
</linearGradient>
<linearGradient id="paint32_linear_313_11372" x1="50.8558" y1="75.4504" x2="44.0532" y2="76.652" gradientUnits="userSpaceOnUse">
<stop stop-color="#FE7701" stop-opacity="0"/>
<stop offset="0.193" stop-color="#F87105" stop-opacity="0.193"/>
<stop offset="0.447" stop-color="#E76010" stop-opacity="0.447"/>
<stop offset="0.7336" stop-color="#CC4522" stop-opacity="0.734"/>
<stop offset="1" stop-color="#AC2538"/>
</linearGradient>
<clipPath id="clip0_313_11372">
<rect width="69" height="69" fill="white" transform="translate(26 26)"/>
</clipPath>
</defs>
</svg>
