<svg width="87" height="59" viewBox="0 0 87 59" fill="none" xmlns="http://www.w3.org/2000/svg">
<path d="M86.2838 38.7592L82.5342 30.3228C81.6823 28.406 79.7763 27.1674 77.6787 27.1674H70.8603C69.4193 27.1674 68.2471 28.3396 68.2471 29.7806V43.2815C68.2471 43.9791 68.8127 44.5447 69.5103 44.5447C70.2079 44.5447 70.7734 43.9791 70.7734 43.2815V29.7806C70.7734 29.7326 70.8123 29.6937 70.8603 29.6937H73.6474V40.5814C73.6474 42.7668 75.4254 44.5447 77.6107 44.5447H84.4481V47.4186H65.373V27.0805C65.373 24.895 63.595 23.1172 61.4097 23.1172H48.7836C48.086 23.1172 47.5204 23.6827 47.5204 24.3804C47.5204 25.078 48.086 25.6435 48.7836 25.6435H61.4097C62.2021 25.6435 62.8467 26.2882 62.8467 27.0805V47.4188H4.70574C3.91331 47.4188 3.26876 46.7741 3.26876 45.9818V27.0805C3.26876 26.2881 3.91348 25.6435 4.70574 25.6435H17.333C18.0306 25.6435 18.5962 25.078 18.5962 24.3804C18.5962 23.6827 18.0306 23.1172 17.333 23.1172H4.70574C2.52046 23.117 0.742432 24.895 0.742432 27.0805V45.9818C0.742432 48.1672 2.52046 49.9451 4.70574 49.9451H10.9852C10.4834 50.7559 10.1931 51.7107 10.1931 52.7322C10.1931 55.662 12.5766 58.0457 15.5065 58.0457C17.128 58.0457 18.5813 57.3147 19.5567 56.1659C20.5322 57.3147 21.9855 58.0457 23.6071 58.0457C26.5369 58.0457 28.9204 55.662 28.9204 52.7322C28.9204 51.7107 28.6299 50.7559 28.1283 49.9451H43.9453V52.7322C43.9453 54.1732 45.1176 55.3456 46.5586 55.3456H50.0355C50.9493 56.956 52.6789 58.0457 54.659 58.0457C56.6391 58.0457 58.3687 56.956 59.2825 55.3456H70.2867C71.2006 56.956 72.9301 58.0457 74.9102 58.0457C76.8904 58.0457 78.6199 56.956 79.5337 55.3456H84.3607C85.8017 55.3456 86.9739 54.1732 86.9739 52.7322V42.014C86.9744 40.8854 86.742 39.7903 86.2838 38.7592ZM77.6107 42.0183C76.8183 42.0183 76.1737 41.3736 76.1737 40.5814V29.6937H77.6787C78.779 29.6937 79.7788 30.3433 80.2256 31.3488L83.9752 39.7854C84.289 40.4914 84.4481 41.2412 84.4481 42.014V42.0183H77.6107ZM15.5065 55.5194C13.9696 55.5194 12.7194 54.269 12.7194 52.7322C12.7194 51.1953 13.9696 49.9451 15.5065 49.9451C17.0433 49.9451 18.2935 51.1953 18.2935 52.7322C18.2935 54.269 17.0433 55.5194 15.5065 55.5194ZM26.3943 52.7322C26.3943 54.269 25.1441 55.5194 23.6072 55.5194C22.0704 55.5194 20.82 54.269 20.82 52.7322C20.82 51.1953 22.0704 49.9451 23.6072 49.9451C25.1441 49.9451 26.3943 51.1953 26.3943 52.7322ZM46.5586 52.8191C46.5106 52.8191 46.4717 52.78 46.4717 52.732V49.9449H50.1379C49.6362 50.7557 49.3458 51.7105 49.3458 52.732C49.3458 52.7611 49.3475 52.7899 49.348 52.8191H46.5586ZM54.6592 55.5194C53.1223 55.5194 51.8721 54.269 51.8721 52.7322C51.8721 51.1953 53.1223 49.9451 54.6592 49.9451C56.196 49.9451 57.4462 51.1953 57.4462 52.7322C57.4462 54.269 56.196 55.5194 54.6592 55.5194ZM59.9704 52.8191C59.9709 52.7899 59.9725 52.7613 59.9725 52.732C59.9725 51.7105 59.682 50.7557 59.1805 49.9449H70.3893C69.8875 50.7557 69.5972 51.7105 69.5972 52.732C69.5972 52.7611 69.5989 52.7899 69.5994 52.8191H59.9704ZM74.9106 55.5194C73.3737 55.5194 72.1235 54.269 72.1235 52.7322C72.1235 51.1953 73.3737 49.9451 74.9106 49.9451C76.4474 49.9451 77.6976 51.1953 77.6976 52.7322C77.6976 54.269 76.4474 55.5194 74.9106 55.5194ZM84.3612 52.8191H80.2217C80.2222 52.7899 80.2239 52.7613 80.2239 52.732C80.2239 51.7105 79.9334 50.7557 79.4318 49.9449H84.4481V52.732C84.4481 52.78 84.4092 52.8191 84.3612 52.8191Z" fill="#9B9B9B"/>
<path d="M32.6569 0.879104C26.0049 0.879103 20.593 6.291 20.593 12.943C20.593 15.8867 21.8671 19.7218 24.3798 24.3421C24.7131 24.955 25.4801 25.1814 26.093 24.8484C26.7059 24.5151 26.9324 23.7481 26.5993 23.1352C24.3227 18.9493 23.1193 15.4247 23.1193 12.943C23.1193 7.68402 27.3979 3.40543 32.6569 3.40543C37.916 3.40543 42.1945 7.68402 42.1945 12.943C42.1945 19.1072 35.2732 28.9616 32.6561 32.467C31.9152 31.4758 30.8309 29.9782 29.662 28.205C29.278 27.6226 28.4944 27.4615 27.9121 27.8456C27.3297 28.2296 27.1687 29.0131 27.5527 29.5955C29.7415 32.9156 31.5925 35.2363 31.6703 35.3335C31.91 35.6331 32.2729 35.8076 32.6566 35.8076C33.0402 35.8076 33.4032 35.6331 33.6428 35.3335C34.0952 34.7681 44.7205 21.3895 44.7205 12.943C44.7208 6.291 39.3089 0.879104 32.6569 0.879104Z" fill="#9B9B9B"/>
<circle cx="32.648" cy="12.9522" r="3.44928" fill="#9B9B9B"/>
</svg>
