<svg width="120" height="121" viewBox="0 0 120 121" fill="none" xmlns="http://www.w3.org/2000/svg">
<ellipse cx="60" cy="60.5" rx="60" ry="60.5" fill="#353535"/>
<g clip-path="url(#clip0_313_11374)">
<path d="M74.0437 76.2305C77.5185 72.7557 82.2314 70.8035 87.1454 70.8035C87.8246 70.8035 88.1649 69.9823 87.6846 69.502C82.885 64.7025 75.1036 64.7025 70.304 69.502L68.8096 70.9965L74.0437 76.2305Z" fill="url(#paint0_linear_313_11374)"/>
<path d="M64.5048 85.77L81.1342 69.1406C84.6091 65.6659 89.3219 63.7137 94.2361 63.7137C94.9154 63.7137 95.2555 62.8925 94.7752 62.4122C89.9757 57.6126 82.1942 57.6126 77.3947 62.4122L55.9033 83.9032L64.5048 85.77Z" fill="url(#paint1_linear_313_11374)"/>
<path d="M37.6736 93.0107C34.8558 95.8285 32.1482 93.9308 29.3078 91.0905C26.4675 88.2501 24.5698 85.5426 27.3876 82.7247C30.2055 79.9068 37.3505 77.3669 40.191 80.2073C43.0314 83.0476 40.4914 90.1928 37.6736 93.0107Z" fill="url(#paint2_linear_313_11374)"/>
<path d="M81.9939 63.3037C72.1394 73.1583 61.6626 72.4875 54.7871 65.612C47.9116 58.7365 47.2408 48.2596 57.0953 38.4052C66.9498 28.5506 82.3212 27.9446 87.3878 33.0113C92.4545 38.0779 91.8485 53.4492 81.9939 63.3037Z" fill="url(#paint3_linear_313_11374)"/>
<path d="M54.7565 87.4412L52.8665 85.5513C51.4524 84.1372 51.5206 81.8916 53.011 80.7854L55.1513 79.1969C56.7223 78.031 59.0038 78.2727 60.4943 79.7631L60.5448 79.8136C62.0353 81.3041 62.2771 83.5856 61.111 85.1566L59.5225 87.2969C58.4162 88.7873 56.1706 88.8553 54.7565 87.4412Z" fill="url(#paint4_linear_313_11374)"/>
<path d="M59.1837 83.0135L57.2938 81.1236C55.8797 79.7095 55.9479 77.4639 57.4383 76.3577L59.5785 74.7692C61.1495 73.6032 63.431 73.845 64.9215 75.3354L64.972 75.3857C66.4625 76.8763 66.7043 79.1577 65.5382 80.7288L63.9497 82.869C62.8434 84.3594 60.5978 84.4276 59.1837 83.0135Z" fill="url(#paint5_linear_313_11374)"/>
<path d="M63.5699 78.6268L61.68 76.7368C60.2659 75.3228 60.3341 73.0771 61.8245 71.971L63.9647 70.3825C65.5358 69.2165 67.8172 69.4583 69.3078 70.9487L69.3582 70.999C70.8488 72.4896 71.0905 74.771 69.9244 76.3421L68.3359 78.4823C67.2297 79.9727 64.9839 80.0407 63.5699 78.6268Z" fill="url(#paint6_linear_313_11374)"/>
<path d="M67.9972 74.1992L66.1073 72.3092C64.6932 70.8952 64.7614 68.6495 66.2518 67.5432L68.392 65.9548C69.963 64.7888 72.2445 65.0306 73.735 66.521L73.7855 66.5714C75.276 68.062 75.5178 70.3434 74.3517 71.9145L72.7632 74.0547C71.6569 75.5452 69.4113 75.6133 67.9972 74.1992Z" fill="url(#paint7_linear_313_11374)"/>
<path d="M72.3048 69.8925L70.4149 68.0026C69.0008 66.5885 69.069 64.3429 70.5594 63.2366L72.6996 61.6481C74.2706 60.4821 76.5521 60.7239 78.0426 62.2143L78.0931 62.2648C79.5836 63.7553 79.8254 66.0368 78.6593 67.6078L77.0708 69.748C75.9645 71.2386 73.7189 71.3066 72.3048 69.8925Z" fill="url(#paint8_linear_313_11374)"/>
<path d="M77.4923 64.7049L75.6024 62.815C74.1883 61.4009 74.2565 59.1553 75.7469 58.0491L77.8871 56.4606C79.4581 55.2946 81.7396 55.5364 83.2301 57.0268L83.2806 57.0771C84.7711 58.5677 85.0129 60.8491 83.8468 62.4202L82.2583 64.5604C81.1519 66.0508 78.9063 66.119 77.4923 64.7049Z" fill="url(#paint9_linear_313_11374)"/>
<path d="M82.6798 59.5174L80.7899 57.6275C79.3758 56.2134 79.444 53.9678 80.9344 52.8616L83.0746 51.2731C84.6456 50.1071 86.9271 50.3489 88.4176 51.8393L88.4681 51.8897C89.9586 53.3802 90.2004 55.6616 89.0343 57.2327L87.4458 59.3729C86.3395 60.8634 84.0939 60.9315 82.6798 59.5174Z" fill="url(#paint10_linear_313_11374)"/>
<path d="M86.7091 53.1717L84.8192 51.2818C83.4051 49.8677 83.4733 47.6221 84.9637 46.5159L87.1039 44.9274C88.6749 43.7614 90.9564 44.0032 92.4469 45.4936L92.4974 45.5439C93.9879 47.0345 94.2297 49.3159 93.0636 50.887L91.4751 53.0272C90.3688 54.5177 88.1232 54.5858 86.7091 53.1717Z" fill="url(#paint11_linear_313_11374)"/>
<path d="M54.7562 87.4407C54.8649 87.5494 54.9791 87.6483 55.0968 87.7396L93.7748 49.0617C93.9121 47.8308 93.4716 46.5184 92.4974 45.5442L92.4469 45.4937C90.9563 44.0032 88.6749 43.7614 87.1039 44.9275L84.9636 46.516C83.674 47.4732 83.4501 49.283 84.329 50.6695C83.8832 50.7887 83.4575 50.9887 83.0744 51.2731L80.9342 52.8616C80.0166 53.5425 79.639 54.6553 79.8135 55.7399C79.1256 55.7988 78.4591 56.036 77.8869 56.4605L75.7467 58.049C74.8292 58.7301 74.4516 59.8427 74.6259 60.9274C73.938 60.9862 73.2715 61.2234 72.6994 61.648L70.5591 63.2365C69.8359 63.7733 69.4486 64.5784 69.4021 65.4266C69.0452 65.5484 68.7043 65.7237 68.3919 65.9556L66.2516 67.5441C65.5052 68.0981 65.1156 68.9379 65.0901 69.8157C64.6912 69.9376 64.3106 70.1259 63.9646 70.3828L61.8244 71.9713C61.086 72.5194 60.6973 73.347 60.6643 74.2146C60.2799 74.3368 59.913 74.5207 59.5785 74.7688L57.4383 76.3573C56.6919 76.9113 56.3024 77.7511 56.2768 78.629C55.8778 78.7509 55.4974 78.9392 55.1513 79.1962L53.0111 80.7847C51.5206 81.891 51.4525 84.1366 52.8666 85.5507L54.7562 87.4407Z" fill="url(#paint12_linear_313_11374)"/>
<path d="M34.8478 67.5332L32.9579 65.6432C31.5438 64.2291 31.6119 61.9835 33.1024 60.8772L35.2426 59.2887C36.8136 58.1228 39.0951 58.3645 40.5855 59.8549L40.636 59.9054C42.1265 61.3959 42.3683 63.6774 41.2022 65.2484L39.6137 67.3887C38.5075 68.8791 36.2619 68.9471 34.8478 67.5332Z" fill="url(#paint13_linear_313_11374)"/>
<path d="M39.275 63.1054L37.3851 61.2155C35.971 59.8014 36.0392 57.5558 37.5296 56.4495L39.6698 54.861C41.2408 53.695 43.5223 53.9368 45.0128 55.4272L45.0633 55.4777C46.5538 56.9682 46.7956 59.2497 45.6295 60.8207L44.041 62.9609C42.9347 64.4513 40.6891 64.5195 39.275 63.1054Z" fill="url(#paint14_linear_313_11374)"/>
<path d="M43.6613 58.7187L41.7713 56.8288C40.3572 55.4147 40.4254 53.1691 41.9158 52.0628L44.056 50.4743C45.6271 49.3083 47.9085 49.5501 49.3991 51.0405L49.4495 51.091C50.9401 52.5814 51.1818 54.863 50.0157 56.434L48.4273 58.5742C47.321 60.0646 45.0753 60.1328 43.6613 58.7187Z" fill="url(#paint15_linear_313_11374)"/>
<path d="M48.0885 54.293L46.1986 52.4031C44.7845 50.989 44.8527 48.7434 46.3431 47.637L48.4833 46.0486C50.0543 44.8825 52.3358 45.1244 53.8263 46.6148L53.8768 46.6652C55.3672 48.1556 55.6091 50.4371 54.443 52.0083L52.8545 54.1485C51.7482 55.639 49.5026 55.7071 48.0885 54.293Z" fill="url(#paint16_linear_313_11374)"/>
<path d="M52.3961 49.9844L50.5062 48.0945C49.0921 46.6804 49.1603 44.4348 50.6507 43.3285L52.7909 41.74C54.3619 40.5739 56.6434 40.8158 58.1339 42.3062L58.1844 42.3566C59.6748 43.847 59.9167 46.1285 58.7506 47.6995L57.1621 49.8398C56.0558 51.3303 53.8102 51.3983 52.3961 49.9844Z" fill="url(#paint17_linear_313_11374)"/>
<path d="M57.5836 44.7969L55.6937 42.907C54.2796 41.4929 54.3478 39.2473 55.8382 38.141L57.9784 36.5525C59.5494 35.3864 61.8309 35.6282 63.3214 37.1187L63.3719 37.1692C64.8624 38.6597 65.1042 40.9412 63.9381 42.5122L62.3496 44.6524C61.2432 46.143 58.9977 46.211 57.5836 44.7969Z" fill="url(#paint18_linear_313_11374)"/>
<path d="M62.7712 39.6093L60.8812 37.7194C59.4671 36.3053 59.5352 34.0597 61.0257 32.9535L63.166 31.365C64.737 30.1989 67.0185 30.4407 68.509 31.9312L68.5595 31.9817C70.05 33.4721 70.2918 35.7535 69.1257 37.3247L67.5372 39.4649C66.4309 40.9552 64.1853 41.0233 62.7712 39.6093Z" fill="url(#paint19_linear_313_11374)"/>
<path d="M69.1169 35.58L67.2269 33.6901C65.8128 32.276 65.8809 30.0304 67.3714 28.9241L69.5117 27.3356C71.0827 26.1696 73.3642 26.4114 74.8547 27.9018L74.9052 27.9523C76.3957 29.4428 76.6375 31.7243 75.4714 33.2953L73.8829 35.4355C72.7766 36.9259 70.531 36.9941 69.1169 35.58Z" fill="url(#paint20_linear_313_11374)"/>
<path d="M38.3259 74.41L36.4359 72.52C35.0218 71.106 35.0899 68.8603 36.5804 67.7542L38.7206 66.1657C40.2917 64.9997 42.5731 65.2415 44.0637 66.7319L44.1141 66.7822C45.6047 68.2728 45.8464 70.5542 44.6803 72.1253L43.0919 74.2655C41.9856 75.756 39.7399 75.8241 38.3259 74.41Z" fill="url(#paint21_linear_313_11374)"/>
<path d="M42.7532 69.9824L40.8632 68.0923C39.4491 66.6782 39.5171 64.4326 41.0077 63.3264L43.1479 61.738C44.7189 60.572 47.0004 60.8138 48.4909 62.3042L48.5414 62.3545C50.0319 63.845 50.2737 66.1265 49.1076 67.6975L47.5191 69.8377C46.4128 71.3283 44.1672 71.3963 42.7532 69.9824Z" fill="url(#paint22_linear_313_11374)"/>
<path d="M47.1393 65.5956L45.2494 63.7057C43.8353 62.2916 43.9034 60.0459 45.3939 58.9398L47.5341 57.3513C49.1052 56.1852 51.3866 56.4271 52.8772 57.9175L52.9276 57.9678C54.4182 59.4584 54.6599 61.7398 53.4938 63.3109L51.9053 65.4511C50.7989 66.9415 48.5533 67.0095 47.1393 65.5956Z" fill="url(#paint23_linear_313_11374)"/>
<path d="M51.5666 61.1699L49.6767 59.28C48.2626 57.8659 48.3306 55.6202 49.8211 54.5139L51.9614 52.9255C53.5324 51.7595 55.8139 52.0013 57.3044 53.4917L57.3549 53.5421C58.8454 55.0327 59.0872 57.3141 57.9211 58.8852L56.3326 61.0254C55.2263 62.5159 52.9807 62.584 51.5666 61.1699Z" fill="url(#paint24_linear_313_11374)"/>
<path d="M55.8742 56.8613L53.9843 54.9714C52.5702 53.5573 52.6382 51.3117 54.1288 50.2054L56.269 48.6169C57.84 47.4509 60.1215 47.6927 61.612 49.1831L61.6623 49.2335C63.1529 50.7241 63.3947 53.0055 62.2286 54.5766L60.6401 56.7168C59.5339 58.2073 57.2883 58.2754 55.8742 56.8613Z" fill="url(#paint25_linear_313_11374)"/>
<path d="M61.0617 51.6738L59.1718 49.7839C57.7577 48.3698 57.8257 46.1242 59.3163 45.0179L61.4565 43.4294C63.0275 42.2634 65.309 42.5052 66.7995 43.9956L66.85 44.046C68.3405 45.5366 68.5823 47.818 67.4162 49.3891L65.8277 51.5293C64.7214 53.0197 62.4758 53.0877 61.0617 51.6738Z" fill="url(#paint26_linear_313_11374)"/>
<path d="M66.2492 46.4863L64.3593 44.5964C62.9452 43.1823 63.0132 40.9367 64.5038 39.8304L66.644 38.2419C68.215 37.0759 70.4965 37.3177 71.987 38.8081L72.0375 38.8584C73.528 40.3489 73.7698 42.6304 72.6037 44.2014L71.0152 46.3417C69.9089 47.8323 67.6633 47.9004 66.2492 46.4863Z" fill="url(#paint27_linear_313_11374)"/>
<path d="M71.4367 41.2986L69.5468 39.4087C68.1327 37.9946 68.2007 35.749 69.6913 34.6429L71.8315 33.0544C73.4025 31.8884 75.684 32.1302 77.1745 33.6206L77.225 33.671C78.7155 35.1616 78.9573 37.443 77.7912 39.0141L76.2027 41.1543C75.0964 42.6446 72.8508 42.7127 71.4367 41.2986Z" fill="url(#paint28_linear_313_11374)"/>
<path d="M76.6242 36.1115L74.7343 34.2215C73.3202 32.8074 73.3882 30.5618 74.8788 29.4557L76.9659 27.9065C78.5674 26.718 80.8931 26.9644 82.4125 28.4837C83.903 29.9742 84.1448 32.2557 82.9787 33.8267L81.3901 35.967C80.2839 37.4575 78.0383 37.5255 76.6242 36.1115Z" fill="url(#paint29_linear_313_11374)"/>
<path d="M47.88 83.9628L45.9901 82.0729C44.576 80.6588 44.6441 78.4132 46.1346 77.3069L48.2748 75.7184C49.8459 74.5525 52.1273 74.7942 53.6179 76.2846L53.6683 76.3351C55.1589 77.8256 55.4006 80.1071 54.2345 81.6781L52.6461 83.8184C51.5396 85.3088 49.294 85.3768 47.88 83.9628Z" fill="url(#paint30_linear_313_11374)"/>
<path d="M52.3073 79.535L50.4174 77.6451C49.0033 76.231 49.0713 73.9853 50.5619 72.8792L52.7021 71.2907C54.2731 70.1247 56.5546 70.3665 58.0451 71.8569L58.0955 71.9074C59.586 73.3979 59.8278 75.6794 58.6617 77.2504L57.0732 79.3906C55.967 80.881 53.7214 80.9491 52.3073 79.535Z" fill="url(#paint31_linear_313_11374)"/>
<path d="M56.6935 75.1483L54.8036 73.2584C53.3895 71.8443 53.4576 69.5987 54.9481 68.4925L57.0883 66.904C58.6593 65.7381 60.9408 65.9797 62.4314 67.4702L62.4817 67.5207C63.9722 69.0112 64.214 71.2927 63.0479 72.8637L61.4594 75.0039C60.3532 76.4943 58.1076 76.5624 56.6935 75.1483Z" fill="url(#paint32_linear_313_11374)"/>
<path d="M61.1208 70.7225L59.2308 68.8326C57.8168 67.4185 57.8848 65.1728 59.3753 64.0667L61.5156 62.4782C63.0866 61.3122 65.3681 61.554 66.8586 63.0444L66.9091 63.0947C68.3996 64.5853 68.6414 66.8667 67.4753 68.4378L65.8868 70.578C64.7803 72.0684 62.5347 72.1366 61.1208 70.7225Z" fill="url(#paint33_linear_313_11374)"/>
<path d="M65.4284 66.4139L63.5385 64.524C62.1244 63.1099 62.1924 60.8643 63.683 59.7581L65.8232 58.1696C67.3942 57.0036 69.6757 57.2454 71.1662 58.7358L71.2167 58.7861C72.7072 60.2767 72.949 62.5581 71.7829 64.1292L70.1944 66.2694C69.088 67.7598 66.8423 67.8278 65.4284 66.4139Z" fill="url(#paint34_linear_313_11374)"/>
<path d="M70.6158 61.2264L68.7259 59.3365C67.3118 57.9224 67.38 55.6768 68.8704 54.5706L71.0106 52.9821C72.5817 51.8161 74.8631 52.0579 76.3537 53.5483L76.404 53.5988C77.8945 55.0893 78.1363 57.3708 76.9702 58.9418L75.3817 61.082C74.2755 62.5724 72.0299 62.6405 70.6158 61.2264Z" fill="url(#paint35_linear_313_11374)"/>
<path d="M75.8034 56.0389L73.9135 54.149C72.4994 52.7349 72.5674 50.4893 74.058 49.3831L76.1982 47.7946C77.7692 46.6286 80.0507 46.8704 81.5412 48.3608L81.5915 48.4113C83.0821 49.9018 83.3238 52.1833 82.1577 53.7543L80.5693 55.8945C79.4631 57.3848 77.2175 57.453 75.8034 56.0389Z" fill="url(#paint36_linear_313_11374)"/>
<path d="M80.9909 50.8514L79.101 48.9615C77.6869 47.5474 77.7549 45.3018 79.2455 44.1956L81.3857 42.6071C82.9567 41.4411 85.2382 41.6829 86.7287 43.1733L86.779 43.2238C88.2696 44.7143 88.5114 46.9958 87.3453 48.5668L85.7568 50.707C84.6506 52.1974 82.405 52.2655 80.9909 50.8514Z" fill="url(#paint37_linear_313_11374)"/>
<path d="M86.1784 45.6643L84.2885 43.7744C82.8744 42.3603 82.9424 40.1147 84.433 39.0084L86.5201 37.4593C88.1216 36.2707 90.4473 36.5171 91.9667 38.0364C93.4572 39.527 93.699 41.8084 92.5329 43.3795L90.9444 45.5197C89.8381 47.0102 87.5925 47.0784 86.1784 45.6643Z" fill="url(#paint38_linear_313_11374)"/>
<path d="M47.9498 84.0292L92.7979 39.181C92.5886 38.7695 92.3114 38.3816 91.9661 38.0365C90.4467 36.5171 88.121 36.2706 86.5196 37.4593L84.4325 39.0085C83.5149 39.6894 83.1373 40.8022 83.3117 41.8868C82.6238 41.9458 81.9573 42.1829 81.3851 42.6074L79.2449 44.1959C78.3274 44.8768 77.9498 45.9896 78.1242 47.0743C77.4362 47.1333 76.7697 47.3703 76.1976 47.7949L74.0573 49.3833C73.1398 50.0643 72.7622 51.1771 72.9366 52.2617C72.2486 52.3206 71.5821 52.5576 71.01 52.9823L68.8698 54.5708C67.9522 55.2517 67.5746 56.3645 67.749 57.4492C67.061 57.5082 66.3946 57.7451 65.8224 58.1698L63.6822 59.7582C62.9589 60.295 62.5717 61.1002 62.5251 61.9484C62.1682 62.0701 61.8273 62.2455 61.5149 62.4774L59.3747 64.0659C58.6283 64.6199 58.2388 65.4595 58.2132 66.3375C57.8142 66.4594 57.4338 66.6477 57.0877 66.9046L54.9475 68.4931C54.209 69.0412 53.8203 69.8688 53.7873 70.7364C53.4029 70.8586 53.036 71.0424 52.7016 71.2907L50.5614 72.8792C49.8149 73.4332 49.4254 74.2729 49.3999 75.1508C49.0009 75.2727 48.6203 75.461 48.2744 75.7179L46.1341 77.3064C44.6436 78.4127 44.5755 80.6583 45.9896 82.0723L47.8796 83.9622C47.9026 83.9855 47.9264 84.007 47.9498 84.0292Z" fill="url(#paint39_linear_313_11374)"/>
<path d="M39.6144 82.6757L37.7245 80.7858C36.3104 79.3717 36.3785 77.1261 37.869 76.0198L40.0092 74.4313C41.5802 73.2654 43.8617 73.5071 45.3522 74.9975L45.4026 75.048C46.8931 76.5385 47.1349 78.82 45.9688 80.391L44.3803 82.5312C43.2741 84.0216 41.0285 84.0898 39.6144 82.6757Z" fill="url(#paint40_linear_313_11374)"/>
<path d="M44.0417 78.248L42.1517 76.3581C40.7377 74.944 40.8057 72.6984 42.2962 71.5921L44.4365 70.0036C46.0075 68.8376 48.289 69.0794 49.7795 70.5698L49.83 70.6203C51.3205 72.1108 51.5623 74.3923 50.3962 75.9633L48.8077 78.1035C47.7014 79.594 45.4558 79.6621 44.0417 78.248Z" fill="url(#paint41_linear_313_11374)"/>
<path d="M48.4279 73.8611L46.538 71.9712C45.1239 70.5571 45.1919 68.3115 46.6825 67.2054L48.8227 65.6169C50.3937 64.4509 52.6752 64.6927 54.1657 66.1831L54.2162 66.2335C55.7067 67.7241 55.9485 70.0055 54.7824 71.5766L53.1939 73.7168C52.0876 75.2072 49.842 75.2752 48.4279 73.8611Z" fill="url(#paint42_linear_313_11374)"/>
<path d="M52.8551 69.4354L50.9652 67.5454C49.5511 66.1313 49.6192 63.8857 51.1097 62.7796L53.2499 61.1911C54.821 60.0251 57.1024 60.2669 58.593 61.7573L58.6434 61.8078C60.134 63.2983 60.3757 65.5798 59.2096 67.1508L57.6212 69.291C56.5149 70.7813 54.2692 70.8495 52.8551 69.4354Z" fill="url(#paint43_linear_313_11374)"/>
<path d="M57.1628 65.1268L55.2728 63.2368C53.8587 61.8228 53.9268 59.5771 55.4173 58.471L57.5576 56.8825C59.1286 55.7165 61.4101 55.9583 62.9006 57.4487L62.9511 57.4992C64.4416 58.9897 64.6834 61.2712 63.5173 62.8422L61.9288 64.9824C60.8225 66.4727 58.5769 66.5409 57.1628 65.1268Z" fill="url(#paint44_linear_313_11374)"/>
<path d="M62.3503 59.9394L60.4603 58.0495C59.0462 56.6354 59.1143 54.3898 60.6048 53.2835L62.7451 51.695C64.3161 50.529 66.5976 50.7708 68.0881 52.2612L68.1386 52.3117C69.6291 53.8022 69.8709 56.0837 68.7048 57.6547L67.1163 59.7949C66.01 61.2853 63.7644 61.3534 62.3503 59.9394Z" fill="url(#paint45_linear_313_11374)"/>
<path d="M67.5378 54.7519L65.6478 52.862C64.2337 51.4479 64.3018 49.2023 65.7923 48.096L67.9326 46.5075C69.5036 45.3415 71.7851 45.5833 73.2756 47.0737L73.3261 47.1242C74.8166 48.6147 75.0584 50.8962 73.8923 52.4672L72.3038 54.6074C71.1975 56.0979 68.9519 56.166 67.5378 54.7519Z" fill="url(#paint46_linear_313_11374)"/>
<path d="M72.7253 49.5645L70.8353 47.6745C69.4212 46.2604 69.4893 44.0148 70.9798 42.9085L73.1201 41.32C74.6911 40.1539 76.9726 40.3959 78.4631 41.8863L78.5134 41.9367C80.004 43.4273 80.2457 45.7087 79.0796 47.2798L77.4911 49.42C76.385 50.9104 74.1394 50.9784 72.7253 49.5645Z" fill="url(#paint47_linear_313_11374)"/>
<path d="M77.9128 44.3768L76.0228 42.4868C74.6087 41.0728 74.6768 38.8271 76.1673 37.721L78.3076 36.1325C79.8786 34.9665 82.1601 35.2083 83.6506 36.6987L83.7009 36.749C85.1915 38.2396 85.4332 40.521 84.2671 42.0921L82.6786 44.2323C81.5723 45.7227 79.3267 45.7909 77.9128 44.3768Z" fill="url(#paint48_linear_313_11374)"/>
<path d="M83.1003 39.1893L81.2103 37.2993C79.7962 35.8853 79.8643 33.6396 81.3548 32.5335L83.4951 30.945C85.0661 29.779 87.3476 30.0208 88.8381 31.5112L88.8884 31.5617C90.379 33.0522 90.6207 35.3337 89.4546 36.9047L87.8661 39.0449C86.76 40.5352 84.5144 40.6034 83.1003 39.1893Z" fill="url(#paint49_linear_313_11374)"/>
<path d="M38.9228 51.0775C24.8846 65.1158 24.7052 78.9055 33.0998 87.3001C33.7304 87.9307 34.3921 88.5119 35.0814 89.0436C48.1556 81.1586 55.9281 67.6036 50.2832 53.1423C49.2723 50.5525 47.8455 48.3192 46.1284 46.4306C45.7167 45.9778 44.9366 45.9941 44.2916 46.4686C42.4326 47.8362 40.6305 49.3699 38.9228 51.0775Z" fill="url(#paint50_linear_313_11374)"/>
<path d="M47.6373 53.1842C47.2589 50.5845 46.5945 48.3396 45.7214 46.4379C45.5121 45.982 45.0352 45.9936 44.5988 46.4648C43.3407 47.823 42.1018 49.3481 40.9047 51.0478C31.0633 65.0209 29.6891 78.8291 34.0339 87.2864C34.3602 87.9218 34.7101 88.5079 35.0814 89.0444C43.7709 81.2273 49.7502 67.7002 47.6373 53.1842Z" fill="url(#paint51_linear_313_11374)"/>
<path d="M50.2832 53.1415C49.2723 50.5517 47.8455 48.3184 46.1284 46.4298C45.9543 46.2382 45.7125 46.1358 45.4448 46.1113L35.0815 89.0429C48.1556 81.1576 55.9281 67.6027 50.2832 53.1415Z" fill="url(#paint52_linear_313_11374)"/>
<path d="M51.9776 65.6406L28.0093 68.9486C26.3727 76.161 28.3823 82.5828 33.1 87.3007C33.7306 87.9313 34.3923 88.5125 35.0816 89.0442C44.2801 83.4966 50.8541 75.1425 51.9776 65.6406Z" fill="url(#paint53_linear_313_11374)"/>
<path d="M32.0884 86.2121C32.4106 86.5838 32.7471 86.9472 33.1001 87.3002C40.5309 94.7309 52.1892 95.4414 64.5049 85.7704C62.7303 84.2574 60.6731 82.9912 58.3176 82.0716C48.7082 78.3207 39.4998 80.4956 32.0884 86.2121Z" fill="url(#paint54_linear_313_11374)"/>
<path d="M47.0863 80.2637C41.6405 80.625 36.5401 82.7785 32.0884 86.2122C32.4106 86.5838 32.7471 86.9472 33.1001 87.3002C39.0375 93.2376 47.6748 94.8775 57.1888 90.3662L47.0863 80.2637Z" fill="url(#paint55_linear_313_11374)"/>
</g>
<defs>
<linearGradient id="paint0_linear_313_11374" x1="82.2823" y1="74.2929" x2="79.1772" y2="71.1878" gradientUnits="userSpaceOnUse">
<stop stop-color="#A2E62E"/>
<stop offset="0.1231" stop-color="#97DE30"/>
<stop offset="0.3395" stop-color="#79CB36"/>
<stop offset="0.6234" stop-color="#4AAB3F"/>
<stop offset="0.9609" stop-color="#09804C"/>
<stop offset="1" stop-color="#017B4E"/>
</linearGradient>
<linearGradient id="paint1_linear_313_11374" x1="80.7818" y1="78.6077" x2="73.505" y2="71.331" gradientUnits="userSpaceOnUse">
<stop stop-color="#A2E62E"/>
<stop offset="0.1231" stop-color="#97DE30"/>
<stop offset="0.3395" stop-color="#79CB36"/>
<stop offset="0.6234" stop-color="#4AAB3F"/>
<stop offset="0.9609" stop-color="#09804C"/>
<stop offset="1" stop-color="#017B4E"/>
</linearGradient>
<linearGradient id="paint2_linear_313_11374" x1="33.7103" y1="80.8864" x2="33.7103" y2="91.2196" gradientUnits="userSpaceOnUse">
<stop stop-color="#A2E62E"/>
<stop offset="0.1231" stop-color="#97DE30"/>
<stop offset="0.3395" stop-color="#79CB36"/>
<stop offset="0.6234" stop-color="#4AAB3F"/>
<stop offset="0.9609" stop-color="#09804C"/>
<stop offset="1" stop-color="#017B4E"/>
</linearGradient>
<linearGradient id="paint3_linear_313_11374" x1="60.3657" y1="38.6" x2="81.2689" y2="59.5031" gradientUnits="userSpaceOnUse">
<stop stop-color="#FEE97D"/>
<stop offset="1" stop-color="#FAC600"/>
</linearGradient>
<linearGradient id="paint4_linear_313_11374" x1="56.8386" y1="78.4151" x2="56.8386" y2="85.5041" gradientUnits="userSpaceOnUse">
<stop stop-color="#FEE97D"/>
<stop offset="1" stop-color="#FE860A"/>
</linearGradient>
<linearGradient id="paint5_linear_313_11374" x1="61.2653" y1="73.9879" x2="61.2653" y2="81.0769" gradientUnits="userSpaceOnUse">
<stop stop-color="#FEE97D"/>
<stop offset="1" stop-color="#FE860A"/>
</linearGradient>
<linearGradient id="paint6_linear_313_11374" x1="65.6508" y1="69.6018" x2="65.6508" y2="76.6908" gradientUnits="userSpaceOnUse">
<stop stop-color="#FEE97D"/>
<stop offset="1" stop-color="#FE860A"/>
</linearGradient>
<linearGradient id="paint7_linear_313_11374" x1="70.0775" y1="65.1749" x2="70.0775" y2="72.2639" gradientUnits="userSpaceOnUse">
<stop stop-color="#FEE97D"/>
<stop offset="1" stop-color="#FE860A"/>
</linearGradient>
<linearGradient id="paint8_linear_313_11374" x1="74.3845" y1="60.8688" x2="74.3845" y2="67.9579" gradientUnits="userSpaceOnUse">
<stop stop-color="#FEE97D"/>
<stop offset="1" stop-color="#FE860A"/>
</linearGradient>
<linearGradient id="paint9_linear_313_11374" x1="79.5712" y1="55.6819" x2="79.5712" y2="62.7709" gradientUnits="userSpaceOnUse">
<stop stop-color="#FEE97D"/>
<stop offset="1" stop-color="#FE860A"/>
</linearGradient>
<linearGradient id="paint10_linear_313_11374" x1="84.758" y1="50.4952" x2="84.7579" y2="57.5843" gradientUnits="userSpaceOnUse">
<stop stop-color="#FEE97D"/>
<stop offset="1" stop-color="#FE860A"/>
</linearGradient>
<linearGradient id="paint11_linear_313_11374" x1="88.7867" y1="44.1505" x2="88.7867" y2="51.2395" gradientUnits="userSpaceOnUse">
<stop stop-color="#FEE97D"/>
<stop offset="1" stop-color="#FE860A"/>
</linearGradient>
<linearGradient id="paint12_linear_313_11374" x1="74.2003" y1="67.0738" x2="70.6063" y2="63.4797" gradientUnits="userSpaceOnUse">
<stop stop-color="#FE7701" stop-opacity="0"/>
<stop offset="0.398" stop-color="#E05915" stop-opacity="0.398"/>
<stop offset="1" stop-color="#AC2538"/>
</linearGradient>
<linearGradient id="paint13_linear_313_11374" x1="36.9328" y1="58.5098" x2="36.9328" y2="65.5988" gradientUnits="userSpaceOnUse">
<stop stop-color="#FEE97D"/>
<stop offset="1" stop-color="#FE860A"/>
</linearGradient>
<linearGradient id="paint14_linear_313_11374" x1="41.3594" y1="54.0827" x2="41.3594" y2="61.1717" gradientUnits="userSpaceOnUse">
<stop stop-color="#FEE97D"/>
<stop offset="1" stop-color="#FE860A"/>
</linearGradient>
<linearGradient id="paint15_linear_313_11374" x1="45.745" y1="49.6966" x2="45.745" y2="56.7856" gradientUnits="userSpaceOnUse">
<stop stop-color="#FEE97D"/>
<stop offset="1" stop-color="#FE860A"/>
</linearGradient>
<linearGradient id="paint16_linear_313_11374" x1="50.1716" y1="45.2716" x2="50.1716" y2="52.3606" gradientUnits="userSpaceOnUse">
<stop stop-color="#FEE97D"/>
<stop offset="1" stop-color="#FE860A"/>
</linearGradient>
<linearGradient id="paint17_linear_313_11374" x1="54.4787" y1="41.7263" x2="54.4787" y2="50.5157" gradientUnits="userSpaceOnUse">
<stop stop-color="#FEE97D"/>
<stop offset="1" stop-color="#FE860A"/>
</linearGradient>
<linearGradient id="paint18_linear_313_11374" x1="59.6654" y1="37.4979" x2="59.6654" y2="45.7442" gradientUnits="userSpaceOnUse">
<stop stop-color="#FEE97D"/>
<stop offset="1" stop-color="#FE860A"/>
</linearGradient>
<linearGradient id="paint19_linear_313_11374" x1="64.8522" y1="31.6884" x2="64.8523" y2="40.213" gradientUnits="userSpaceOnUse">
<stop stop-color="#FEE97D"/>
<stop offset="1" stop-color="#FE860A"/>
</linearGradient>
<linearGradient id="paint20_linear_313_11374" x1="71.197" y1="27.9242" x2="71.1971" y2="34.494" gradientUnits="userSpaceOnUse">
<stop stop-color="#FEE97D"/>
<stop offset="1" stop-color="#FE860A"/>
</linearGradient>
<linearGradient id="paint21_linear_313_11374" x1="40.4103" y1="65.3857" x2="40.4103" y2="72.4747" gradientUnits="userSpaceOnUse">
<stop stop-color="#FEE97D"/>
<stop offset="1" stop-color="#FE860A"/>
</linearGradient>
<linearGradient id="paint22_linear_313_11374" x1="44.837" y1="60.9587" x2="44.837" y2="68.0477" gradientUnits="userSpaceOnUse">
<stop stop-color="#FEE97D"/>
<stop offset="1" stop-color="#FE860A"/>
</linearGradient>
<linearGradient id="paint23_linear_313_11374" x1="49.2225" y1="56.5725" x2="49.2225" y2="63.6615" gradientUnits="userSpaceOnUse">
<stop stop-color="#FEE97D"/>
<stop offset="1" stop-color="#FE860A"/>
</linearGradient>
<linearGradient id="paint24_linear_313_11374" x1="53.6492" y1="53.617" x2="53.6492" y2="61.7544" gradientUnits="userSpaceOnUse">
<stop stop-color="#FEE97D"/>
<stop offset="1" stop-color="#FE860A"/>
</linearGradient>
<linearGradient id="paint25_linear_313_11374" x1="57.9562" y1="49.9134" x2="57.9563" y2="58.2474" gradientUnits="userSpaceOnUse">
<stop stop-color="#FEE97D"/>
<stop offset="1" stop-color="#FE860A"/>
</linearGradient>
<linearGradient id="paint26_linear_313_11374" x1="63.143" y1="46.5685" x2="63.1431" y2="52.0015" gradientUnits="userSpaceOnUse">
<stop stop-color="#FEE97D"/>
<stop offset="1" stop-color="#FE860A"/>
</linearGradient>
<linearGradient id="paint27_linear_313_11374" x1="68.3297" y1="39.0387" x2="68.3297" y2="46.4698" gradientUnits="userSpaceOnUse">
<stop stop-color="#FEE97D"/>
<stop offset="1" stop-color="#FE860A"/>
</linearGradient>
<linearGradient id="paint28_linear_313_11374" x1="73.5165" y1="32.3456" x2="73.5165" y2="40.1344" gradientUnits="userSpaceOnUse">
<stop stop-color="#FEE97D"/>
<stop offset="1" stop-color="#FE860A"/>
</linearGradient>
<linearGradient id="paint29_linear_313_11374" x1="78.7032" y1="28.6288" x2="78.7032" y2="40.9334" gradientUnits="userSpaceOnUse">
<stop stop-color="#FEE97D"/>
<stop offset="1" stop-color="#FE860A"/>
</linearGradient>
<linearGradient id="paint30_linear_313_11374" x1="49.9631" y1="74.9371" x2="49.9631" y2="82.0261" gradientUnits="userSpaceOnUse">
<stop stop-color="#FEE97D"/>
<stop offset="1" stop-color="#FE860A"/>
</linearGradient>
<linearGradient id="paint31_linear_313_11374" x1="54.3897" y1="70.51" x2="54.3897" y2="77.599" gradientUnits="userSpaceOnUse">
<stop stop-color="#FEE97D"/>
<stop offset="1" stop-color="#FE860A"/>
</linearGradient>
<linearGradient id="paint32_linear_313_11374" x1="58.7754" y1="66.1239" x2="58.7754" y2="73.2129" gradientUnits="userSpaceOnUse">
<stop stop-color="#FEE97D"/>
<stop offset="1" stop-color="#FE860A"/>
</linearGradient>
<linearGradient id="paint33_linear_313_11374" x1="63.202" y1="61.6986" x2="63.202" y2="68.7876" gradientUnits="userSpaceOnUse">
<stop stop-color="#FEE97D"/>
<stop offset="1" stop-color="#FE860A"/>
</linearGradient>
<linearGradient id="paint34_linear_313_11374" x1="67.5089" y1="57.3906" x2="67.5089" y2="64.4797" gradientUnits="userSpaceOnUse">
<stop stop-color="#FEE97D"/>
<stop offset="1" stop-color="#FE860A"/>
</linearGradient>
<linearGradient id="paint35_linear_313_11374" x1="72.6957" y1="52.2039" x2="72.6957" y2="59.293" gradientUnits="userSpaceOnUse">
<stop stop-color="#FEE97D"/>
<stop offset="1" stop-color="#FE860A"/>
</linearGradient>
<linearGradient id="paint36_linear_313_11374" x1="77.8826" y1="47.0171" x2="77.8826" y2="54.1061" gradientUnits="userSpaceOnUse">
<stop stop-color="#FEE97D"/>
<stop offset="1" stop-color="#FE860A"/>
</linearGradient>
<linearGradient id="paint37_linear_313_11374" x1="83.0693" y1="41.8304" x2="83.0693" y2="48.9194" gradientUnits="userSpaceOnUse">
<stop stop-color="#FEE97D"/>
<stop offset="1" stop-color="#FE860A"/>
</linearGradient>
<linearGradient id="paint38_linear_313_11374" x1="88.2561" y1="36.6693" x2="88.2561" y2="43.7405" gradientUnits="userSpaceOnUse">
<stop stop-color="#FEE97D"/>
<stop offset="1" stop-color="#FE860A"/>
</linearGradient>
<linearGradient id="paint39_linear_313_11374" x1="70.1083" y1="61.193" x2="66.0235" y2="57.1082" gradientUnits="userSpaceOnUse">
<stop stop-color="#FE7701" stop-opacity="0"/>
<stop offset="0.398" stop-color="#E05915" stop-opacity="0.398"/>
<stop offset="1" stop-color="#AC2538"/>
</linearGradient>
<linearGradient id="paint40_linear_313_11374" x1="41.6987" y1="73.6503" x2="41.6987" y2="80.7393" gradientUnits="userSpaceOnUse">
<stop stop-color="#FEE97D"/>
<stop offset="1" stop-color="#FE860A"/>
</linearGradient>
<linearGradient id="paint41_linear_313_11374" x1="46.1253" y1="70.7476" x2="46.1254" y2="78.8518" gradientUnits="userSpaceOnUse">
<stop stop-color="#FEE97D"/>
<stop offset="1" stop-color="#FE860A"/>
</linearGradient>
<linearGradient id="paint42_linear_313_11374" x1="50.511" y1="67.8377" x2="50.511" y2="75.004" gradientUnits="userSpaceOnUse">
<stop stop-color="#FEE97D"/>
<stop offset="1" stop-color="#FE860A"/>
</linearGradient>
<linearGradient id="paint43_linear_313_11374" x1="54.9375" y1="63.583" x2="54.9376" y2="72.2065" gradientUnits="userSpaceOnUse">
<stop stop-color="#FEE97D"/>
<stop offset="1" stop-color="#FE860A"/>
</linearGradient>
<linearGradient id="paint44_linear_313_11374" x1="59.2445" y1="58.9495" x2="59.2445" y2="66.6706" gradientUnits="userSpaceOnUse">
<stop stop-color="#FEE97D"/>
<stop offset="1" stop-color="#FE860A"/>
</linearGradient>
<linearGradient id="paint45_linear_313_11374" x1="64.4314" y1="53.1401" x2="64.4314" y2="62.3639" gradientUnits="userSpaceOnUse">
<stop stop-color="#FEE97D"/>
<stop offset="1" stop-color="#FE860A"/>
</linearGradient>
<linearGradient id="paint46_linear_313_11374" x1="69.6181" y1="48.7722" x2="69.6181" y2="57.3808" gradientUnits="userSpaceOnUse">
<stop stop-color="#FEE97D"/>
<stop offset="1" stop-color="#FE860A"/>
</linearGradient>
<linearGradient id="paint47_linear_313_11374" x1="74.805" y1="43.7533" x2="74.8049" y2="53.832" gradientUnits="userSpaceOnUse">
<stop stop-color="#FEE97D"/>
<stop offset="1" stop-color="#FE860A"/>
</linearGradient>
<linearGradient id="paint48_linear_313_11374" x1="79.9917" y1="37.8507" x2="79.9916" y2="47.2661" gradientUnits="userSpaceOnUse">
<stop stop-color="#FEE97D"/>
<stop offset="1" stop-color="#FE860A"/>
</linearGradient>
<linearGradient id="paint49_linear_313_11374" x1="85.1784" y1="33.3431" x2="85.1784" y2="42.6163" gradientUnits="userSpaceOnUse">
<stop stop-color="#FEE97D"/>
<stop offset="1" stop-color="#FE860A"/>
</linearGradient>
<linearGradient id="paint50_linear_313_11374" x1="39.791" y1="47.9609" x2="39.791" y2="92.2776" gradientUnits="userSpaceOnUse">
<stop stop-color="#A2E62E"/>
<stop offset="0.1231" stop-color="#97DE30"/>
<stop offset="0.3395" stop-color="#79CB36"/>
<stop offset="0.6234" stop-color="#4AAB3F"/>
<stop offset="0.9609" stop-color="#09804C"/>
<stop offset="1" stop-color="#017B4E"/>
</linearGradient>
<linearGradient id="paint51_linear_313_11374" x1="44.7011" y1="63.6798" x2="17.7958" y2="85.9345" gradientUnits="userSpaceOnUse">
<stop stop-color="#017B4E" stop-opacity="0"/>
<stop offset="0.4829" stop-color="#01754A" stop-opacity="0.483"/>
<stop offset="1" stop-color="#026841"/>
</linearGradient>
<linearGradient id="paint52_linear_313_11374" x1="46.6677" y1="63.6949" x2="27.6265" y2="75.1064" gradientUnits="userSpaceOnUse">
<stop stop-color="#017B4E" stop-opacity="0"/>
<stop offset="0.4829" stop-color="#01754A" stop-opacity="0.483"/>
<stop offset="1" stop-color="#026841"/>
</linearGradient>
<linearGradient id="paint53_linear_313_11374" x1="39.7011" y1="69.5527" x2="39.9653" y2="83.8242" gradientUnits="userSpaceOnUse">
<stop stop-color="#017B4E" stop-opacity="0"/>
<stop offset="0.8674" stop-color="#016B43" stop-opacity="0.867"/>
<stop offset="1" stop-color="#026841"/>
</linearGradient>
<linearGradient id="paint54_linear_313_11374" x1="48.2889" y1="76.4629" x2="48.2889" y2="93.2626" gradientUnits="userSpaceOnUse">
<stop stop-color="#A2E62E"/>
<stop offset="0.1231" stop-color="#97DE30"/>
<stop offset="0.3395" stop-color="#79CB36"/>
<stop offset="0.6234" stop-color="#4AAB3F"/>
<stop offset="0.9609" stop-color="#09804C"/>
<stop offset="1" stop-color="#017B4E"/>
</linearGradient>
<linearGradient id="paint55_linear_313_11374" x1="48.1475" y1="84.7667" x2="39.8638" y2="93.0504" gradientUnits="userSpaceOnUse">
<stop stop-color="#017B4E" stop-opacity="0"/>
<stop offset="0.5209" stop-color="#017449" stop-opacity="0.521"/>
<stop offset="1" stop-color="#026841"/>
</linearGradient>
<clipPath id="clip0_313_11374">
<rect width="69" height="69" fill="white" transform="translate(26 26)"/>
</clipPath>
</defs>
</svg>
