<svg width="121" height="121" viewBox="0 0 121 121" fill="none" xmlns="http://www.w3.org/2000/svg">
<circle cx="60.5" cy="60.5" r="60.5" fill="#353535"/>
<g clip-path="url(#clip0_313_11375)">
<path d="M76.9523 30.3178C74.7451 35.1643 72.1564 44.2616 72.7192 48.7684C72.7742 49.2086 73.1838 49.394 73.5525 49.1456C77.3263 46.6016 82.505 38.6768 84.7121 33.8303C86.9193 28.9838 85.7999 27.9954 85.237 23.4885C85.1821 23.0483 84.7724 22.8629 84.4038 23.1113C80.63 25.6554 79.1595 25.4712 76.9523 30.3178Z" fill="url(#paint0_linear_313_11375)"/>
<path d="M73.5525 49.1449C77.3262 46.601 82.505 38.6761 84.7121 33.8296C86.9193 28.9831 85.7998 27.9948 85.237 23.4879C85.2096 23.2678 85.0933 23.1114 84.938 23.041L73.0181 49.2145C73.1735 49.285 73.3681 49.2693 73.5525 49.1449Z" fill="url(#paint1_linear_313_11375)"/>
<path d="M89.1515 38.3082C84.3061 40.5177 76.3838 45.6851 73.8518 49.4555C73.6045 49.8238 73.792 50.2325 74.2332 50.2869C78.7502 50.843 87.858 48.2597 92.7034 46.0502C97.5488 43.8407 97.3524 42.3603 99.8845 38.5898C100.132 38.2215 99.9443 37.8128 99.5031 37.7584C94.9859 37.2025 93.9969 36.0987 89.1515 38.3082Z" fill="url(#paint2_linear_313_11375)"/>
<path d="M74.2331 50.2871C78.7501 50.8432 87.8579 48.2598 92.7033 46.0504C97.5487 43.8409 97.3523 42.3605 99.8844 38.59C100.008 38.4058 100.023 38.2116 99.952 38.0566L73.7842 49.9892C73.8553 50.1442 74.0126 50.2599 74.2331 50.2871Z" fill="url(#paint3_linear_313_11375)"/>
<path d="M83.6533 33.3288C79.8935 37.1003 74.2926 44.7222 73.2472 49.142C73.145 49.5737 73.4642 49.8904 73.8965 49.7862C78.3207 48.7194 85.9397 43.1001 89.6995 39.3287C93.4593 35.5572 92.7553 34.2403 93.8007 29.8205C93.9028 29.3888 93.5837 29.072 93.1514 29.1762C88.727 30.2431 87.4132 29.5573 83.6533 33.3288Z" fill="url(#paint4_linear_313_11375)"/>
<path d="M73.8962 49.7857C78.3204 48.7189 85.9394 43.0996 89.6992 39.3281C93.459 35.5567 92.755 34.2397 93.8004 29.8199C93.8514 29.6041 93.7971 29.417 93.6762 29.2969L73.3711 49.6646C73.4922 49.7847 73.6801 49.8378 73.8962 49.7857Z" fill="url(#paint5_linear_313_11375)"/>
<path d="M74.5895 36.7793C73.2922 41.1099 72.3586 45.8803 72.7192 48.7674C72.7583 49.0809 72.9775 49.2641 73.2334 49.2545C73.2111 49.5754 73.4281 49.8093 73.7421 49.8056C73.7501 50.0465 73.9325 50.248 74.233 50.2849C77.124 50.6409 81.8946 49.7102 86.2255 48.4151L74.5895 36.7793Z" fill="url(#paint6_linear_313_11375)"/>
<path d="M75.2735 69.5397C62.7698 82.0435 38.4293 96.6203 32.4073 90.5984C26.3853 84.5763 40.9621 60.236 53.4659 47.7322C65.9696 35.2285 71.6654 39.2964 77.6873 45.3184C83.7094 51.3404 87.7773 57.036 75.2735 69.5397Z" fill="url(#paint7_linear_313_11375)"/>
<path d="M63.8583 55.1511C64.4164 55.3536 65.1908 55.6808 66.057 56.1573C66.4933 56.3944 66.9495 56.6722 67.4198 56.9816C67.8852 57.2975 68.3704 57.6401 68.8402 58.0276C69.3181 58.409 69.7854 58.8305 70.2409 59.2771C70.6939 59.7273 71.1309 60.2058 71.5423 60.706C71.7472 60.9567 71.9447 61.2133 72.1338 61.475C72.3319 61.7298 72.5032 62.0031 72.6784 62.2699C72.8594 62.5323 73.0134 62.8113 73.1692 63.0832C73.3296 63.3519 73.4643 63.6338 73.6011 63.9069C73.8682 64.4572 74.0925 65.0085 74.276 65.5456C74.3728 65.8104 74.4444 66.081 74.5185 66.3383C74.593 66.5952 74.6529 66.8493 74.702 67.0969C74.8135 67.5837 74.8664 68.0519 74.9171 68.4609C74.9526 68.8764 74.967 69.243 74.9745 69.5448C74.9704 69.8509 74.6821 69.9719 74.5792 69.7168C74.4635 69.4687 74.323 69.1671 74.1616 68.8209C73.9862 68.4831 73.8103 68.0935 73.5818 67.6884C73.4735 67.4827 73.3645 67.2669 73.2334 67.0539C73.1051 66.8391 72.992 66.607 72.8454 66.3854C72.5748 65.9293 72.2735 65.4591 71.9544 64.9784C71.7842 64.7447 71.6353 64.4919 71.4562 64.2543C71.2786 64.0158 71.112 63.7661 70.9273 63.5252C70.7474 63.2813 70.5609 63.0394 70.3722 62.7974C70.1878 62.5522 69.9932 62.313 69.7951 62.0765C69.4133 61.5926 69.0021 61.1315 68.6069 60.6693C68.4034 60.4428 68.2018 60.2183 68.0025 59.9965C67.7997 59.7773 67.5995 59.5607 67.4025 59.3478C66.6099 58.5004 65.8479 57.7257 65.1857 57.0668C64.535 56.4246 63.9905 55.8874 63.603 55.5049C63.1944 55.1013 63.3016 54.9499 63.8583 55.1511Z" fill="url(#paint8_linear_313_11375)"/>
<path d="M47.7191 54.895C48.2693 54.9595 49.0442 55.0902 49.9393 55.3347C50.3894 55.4554 50.8676 55.6077 51.3665 55.7855C51.8627 55.97 52.3833 56.1741 52.9019 56.4212C53.4259 56.6614 53.9508 56.9393 54.4719 57.2421C54.9915 57.5484 55.5042 57.8832 55.9998 58.2427C56.247 58.4232 56.4892 58.6104 56.7253 58.8039C56.9674 58.9894 57.1907 59.1968 57.4157 59.3977C57.6447 59.5935 57.854 59.8098 58.0632 60.0194C58.2755 60.2252 58.4685 60.4479 58.6611 60.6624C59.0414 61.0966 59.3841 61.5406 59.6869 61.9806C59.8419 62.1961 59.9758 62.4221 60.1087 62.6358C60.2417 62.8492 60.3612 63.063 60.4693 63.2732C60.6952 63.6837 60.8641 64.0897 61.0157 64.4438C61.1555 64.8068 61.264 65.1307 61.3492 65.398C61.4254 65.6718 61.2008 65.8403 61.0428 65.6345C60.8753 65.4375 60.6719 65.198 60.4383 64.9231C60.1943 64.6588 59.9365 64.3481 59.6279 64.0349C59.4781 63.8742 59.3251 63.7048 59.153 63.5423C58.9831 63.3778 58.8221 63.1945 58.6341 63.0277C58.2749 62.6778 57.8847 62.322 57.476 61.9603C57.2639 61.7877 57.0657 61.5935 56.8447 61.4193C56.6249 61.2439 56.4117 61.0561 56.1849 60.8803C55.9614 60.7006 55.7329 60.5239 55.5019 60.3477C55.2742 60.1678 55.0391 59.9954 54.8014 59.8261C54.336 59.4746 53.8503 59.1497 53.3786 58.8205C53.1388 58.6613 52.901 58.5033 52.666 58.3473C52.4286 58.1943 52.1941 58.0431 51.9636 57.8946C51.0382 57.305 50.1588 56.7737 49.398 56.3246C48.6519 55.888 48.0275 55.5228 47.5832 55.2627C47.114 54.9882 47.1707 54.8313 47.7191 54.895Z" fill="url(#paint9_linear_313_11375)"/>
<path d="M60.2055 42.5199C60.7556 42.5845 61.5306 42.7152 62.4257 42.9596C62.8758 43.0803 63.354 43.2327 63.8529 43.4104C64.3491 43.595 64.8697 43.799 65.3883 44.0462C65.9122 44.2863 66.4372 44.5642 66.9583 44.867C67.478 45.1733 67.9906 45.5082 68.4862 45.8677C68.7334 46.0481 68.9756 46.2354 69.2117 46.4289C69.4538 46.6143 69.6771 46.8218 69.9021 47.0227C70.1311 47.2184 70.3404 47.4348 70.5496 47.6442C70.7619 47.85 70.9549 48.0727 71.1475 48.2873C71.5278 48.7214 71.8705 49.1655 72.1733 49.6054C72.3283 49.821 72.4622 50.0469 72.5951 50.2607C72.7281 50.474 72.8476 50.6878 72.9555 50.898C73.1815 51.3085 73.3503 51.7145 73.502 52.0686C73.6417 52.4316 73.7502 52.7555 73.8355 53.0228C73.9116 53.2967 73.6871 53.4651 73.529 53.2593C73.3615 53.0623 73.1582 52.8229 72.9245 52.5479C72.6806 52.2836 72.4226 51.9729 72.1141 51.6597C71.9644 51.499 71.8113 51.3296 71.6392 51.1671C71.4693 51.0026 71.3083 50.8193 71.1204 50.6525C70.7612 50.3026 70.371 49.9468 69.9623 49.5851C69.7501 49.4125 69.5521 49.2183 69.331 49.0441C69.1111 48.8688 68.8979 48.681 68.6712 48.5051C68.4477 48.3254 68.219 48.1487 67.9882 47.9726C67.7605 47.7926 67.5252 47.6203 67.2876 47.4509C66.8222 47.0994 66.3365 46.7745 65.8649 46.4452C65.6252 46.286 65.3873 46.128 65.1523 45.972C64.9149 45.8189 64.6804 45.6678 64.4499 45.5193C63.5244 44.9297 62.645 44.3984 61.8843 43.9493C61.1381 43.5127 60.5137 43.1474 60.0694 42.8874C59.6004 42.6133 59.6569 42.4563 60.2055 42.5199Z" fill="url(#paint10_linear_313_11375)"/>
<path d="M51.7906 67.573C52.2728 67.7652 52.9444 68.0715 53.7015 68.5089C54.0826 68.7269 54.4827 68.9802 54.8964 69.2612C55.3063 69.5475 55.7343 69.8573 56.1521 70.2053C56.5761 70.5481 56.9935 70.9252 57.4026 71.3235C57.8097 71.7246 58.205 72.1496 58.5802 72.5925C58.7672 72.8145 58.9482 73.0414 59.1226 73.2722C59.304 73.4975 59.4642 73.7378 59.6272 73.9728C59.7948 74.2041 59.9408 74.449 60.088 74.6878C60.2388 74.924 60.3689 75.1708 60.5001 75.4102C60.7575 75.8922 60.9792 76.374 61.1659 76.8427C61.2633 77.0739 61.3399 77.3093 61.4178 77.5336C61.4959 77.7575 61.5619 77.9786 61.6182 78.1938C61.7416 78.6176 61.8148 79.0235 61.8826 79.3786C61.9379 79.7389 61.9727 80.0564 61.9976 80.3177C62.0131 80.5826 61.7789 80.6799 61.6768 80.4565C61.5645 80.2387 61.4281 79.974 61.2715 79.6703C61.1035 79.3735 60.932 79.0317 60.7155 78.6754C60.6122 78.4946 60.5074 78.3052 60.3845 78.1174C60.2638 77.9283 60.1546 77.7245 60.0181 77.529C59.7633 77.1274 59.4818 76.713 59.1847 76.289C59.0277 76.0824 58.8873 75.86 58.7225 75.6498C58.5591 75.4388 58.4039 75.2185 58.2344 75.0054C58.0685 74.7897 57.8974 74.5755 57.7242 74.3612C57.5545 74.1443 57.3767 73.9323 57.1961 73.7225C56.8463 73.2939 56.473 72.8841 56.1131 72.4739C55.9285 72.2726 55.7455 72.0729 55.5647 71.8757C55.3812 71.6806 55.1999 71.488 55.0215 71.2984C54.3045 70.544 53.6173 69.8531 53.0208 69.2648C52.435 68.6912 51.9447 68.2113 51.5956 67.8695C51.2276 67.5087 51.3093 67.3818 51.7906 67.573Z" fill="url(#paint11_linear_313_11375)"/>
<path d="M38.8178 67.4326C39.2995 67.5152 39.9789 67.6653 40.7665 67.9175C41.1624 68.0423 41.5837 68.1955 42.0238 68.3711C42.4616 68.5523 42.9213 68.751 43.3806 68.9863C43.8444 69.2158 44.3102 69.4771 44.7736 69.7594C45.2358 70.0444 45.6928 70.3534 46.136 70.6822C46.3571 70.8473 46.5741 71.0177 46.786 71.1932C47.0029 71.3622 47.2042 71.5489 47.4069 71.7302C47.6128 71.9073 47.8023 72.1008 47.9916 72.2886C48.1834 72.4734 48.3591 72.6716 48.5341 72.8627C48.8802 73.2493 49.1941 73.6424 49.4733 74.0303C49.6159 74.2207 49.7407 74.4189 49.8641 74.6068C49.9876 74.7943 50.0993 74.9816 50.2011 75.1653C50.4127 75.5248 50.5749 75.8779 50.7202 76.186C50.8555 76.5012 50.9621 76.7818 51.0465 77.0133C51.1234 77.2499 50.9351 77.3826 50.79 77.2C50.6371 77.0244 50.4514 76.811 50.238 76.5661C50.0161 76.3297 49.7805 76.0532 49.5008 75.7722C49.3647 75.6284 49.2253 75.4772 49.0699 75.3308C48.9162 75.1828 48.7695 75.0193 48.6 74.8686C48.275 74.5541 47.923 74.233 47.5546 73.9061C47.364 73.7492 47.1847 73.5748 46.9862 73.4162C46.7888 73.2567 46.5967 73.0869 46.3934 72.9266C46.1926 72.7632 45.9876 72.6022 45.7806 72.4413C45.5762 72.2776 45.3655 72.1197 45.153 71.9644C44.7359 71.6433 44.302 71.3439 43.8801 71.0415C43.666 70.8946 43.4536 70.7489 43.2437 70.605C43.0318 70.4634 42.8225 70.3237 42.6168 70.1864C41.7909 69.6406 41.0069 69.1463 40.3289 68.7277C39.6641 68.3204 39.1076 67.9794 38.7116 67.7369C38.2932 67.4807 38.3374 67.3507 38.8178 67.4326Z" fill="url(#paint12_linear_313_11375)"/>
<path d="M39.2444 77.1018C39.6844 77.2414 40.3022 77.4693 41.0111 77.8053C41.3676 77.9724 41.7451 78.169 42.1381 78.3887C42.5286 78.6132 42.9376 78.8569 43.3432 79.1338C43.7534 79.4061 44.1625 79.7081 44.5676 80.029C44.9713 80.3524 45.3683 80.697 45.7505 81.0581C45.9411 81.2391 46.1274 81.4247 46.3087 81.6141C46.4951 81.7983 46.6655 81.9968 46.8377 82.1904C47.0133 82.3806 47.1721 82.5838 47.3314 82.7816C47.4932 82.977 47.6389 83.1827 47.7846 83.382C48.0721 83.7837 48.3292 84.1874 48.5546 84.5817C48.6704 84.776 48.769 84.9751 48.8672 85.1645C48.9656 85.3537 49.0531 85.5411 49.1316 85.724C49.2969 86.0833 49.4169 86.4305 49.5252 86.7339C49.6235 87.0427 49.6983 87.3157 49.7568 87.5406C49.8077 87.7692 49.6219 87.8674 49.5031 87.6798C49.3765 87.4977 49.2225 87.2765 49.0458 87.0225C48.8605 86.7752 48.6658 86.4893 48.4305 86.1934C48.3167 86.043 48.2006 85.8851 48.069 85.7297C47.9393 85.573 47.8174 85.4031 47.6733 85.2418C47.399 84.9091 47.1003 84.5668 46.787 84.2171C46.6238 84.0474 46.4725 83.8631 46.3023 83.6908C46.1331 83.5177 45.9696 83.336 45.7948 83.1615C45.6229 82.9845 45.4466 82.8091 45.2685 82.6337C45.0931 82.4559 44.9115 82.2828 44.7278 82.1116C44.3687 81.7609 43.9922 81.428 43.6272 81.0938C43.4413 80.9302 43.2569 80.768 43.0746 80.6078C42.8903 80.4495 42.7082 80.2933 42.5292 80.1396C41.8104 79.5279 41.126 78.9694 40.5333 78.4944C39.9516 78.0314 39.465 77.6441 39.1185 77.3682C38.7528 77.0769 38.8054 76.963 39.2444 77.1018Z" fill="url(#paint13_linear_313_11375)"/>
</g>
<defs>
<linearGradient id="paint0_linear_313_11375" x1="74.5089" y1="30.9354" x2="80.8448" y2="41.5227" gradientUnits="userSpaceOnUse">
<stop stop-color="#C4D143"/>
<stop offset="1" stop-color="#7C8A1A"/>
</linearGradient>
<linearGradient id="paint1_linear_313_11375" x1="80.347" y1="37.18" x2="67.3031" y2="24.5381" gradientUnits="userSpaceOnUse">
<stop stop-color="#7C8A1A" stop-opacity="0"/>
<stop offset="0.3152" stop-color="#768319" stop-opacity="0.315"/>
<stop offset="0.7806" stop-color="#646F15" stop-opacity="0.781"/>
<stop offset="1" stop-color="#5A6313"/>
</linearGradient>
<linearGradient id="paint2_linear_313_11375" x1="86.9119" y1="37.2162" x2="84.7394" y2="49.3609" gradientUnits="userSpaceOnUse">
<stop stop-color="#C4D143"/>
<stop offset="1" stop-color="#7C8A1A"/>
</linearGradient>
<linearGradient id="paint3_linear_313_11375" x1="87.2267" y1="45.7617" x2="85.6902" y2="27.6557" gradientUnits="userSpaceOnUse">
<stop stop-color="#7C8A1A" stop-opacity="0"/>
<stop offset="0.3152" stop-color="#768319" stop-opacity="0.315"/>
<stop offset="0.7806" stop-color="#646F15" stop-opacity="0.781"/>
<stop offset="1" stop-color="#5A6313"/>
</linearGradient>
<linearGradient id="paint4_linear_313_11375" x1="81.1737" y1="33.0656" x2="83.4152" y2="45.1925" gradientUnits="userSpaceOnUse">
<stop stop-color="#C4D143"/>
<stop offset="1" stop-color="#7C8A1A"/>
</linearGradient>
<linearGradient id="paint5_linear_313_11375" x1="84.4696" y1="40.9501" x2="76.6642" y2="24.5529" gradientUnits="userSpaceOnUse">
<stop stop-color="#7C8A1A" stop-opacity="0"/>
<stop offset="0.3152" stop-color="#768319" stop-opacity="0.315"/>
<stop offset="0.7806" stop-color="#646F15" stop-opacity="0.781"/>
<stop offset="1" stop-color="#5A6313"/>
</linearGradient>
<linearGradient id="paint6_linear_313_11375" x1="79.2669" y1="43.7296" x2="77.4359" y2="45.5606" gradientUnits="userSpaceOnUse">
<stop stop-color="#5A6313" stop-opacity="0"/>
<stop offset="1" stop-color="#544F43"/>
</linearGradient>
<linearGradient id="paint7_linear_313_11375" x1="49.1664" y1="62.0681" x2="60.8609" y2="73.7626" gradientUnits="userSpaceOnUse">
<stop stop-color="#FFA325"/>
<stop offset="0.3186" stop-color="#FF972C"/>
<stop offset="0.8959" stop-color="#FF7740"/>
<stop offset="1" stop-color="#FF7044"/>
</linearGradient>
<linearGradient id="paint8_linear_313_11375" x1="71.3977" y1="60.213" x2="68.7111" y2="62.8712" gradientUnits="userSpaceOnUse">
<stop stop-color="#FF7044" stop-opacity="0"/>
<stop offset="0.5132" stop-color="#F85E33" stop-opacity="0.513"/>
<stop offset="1" stop-color="#F35227"/>
</linearGradient>
<linearGradient id="paint9_linear_313_11375" x1="55.7521" y1="57.8657" x2="53.9978" y2="60.8318" gradientUnits="userSpaceOnUse">
<stop stop-color="#FF7044" stop-opacity="0"/>
<stop offset="0.5132" stop-color="#F85E33" stop-opacity="0.513"/>
<stop offset="1" stop-color="#F35227"/>
</linearGradient>
<linearGradient id="paint10_linear_313_11375" x1="68.2464" y1="45.4848" x2="66.4921" y2="48.4508" gradientUnits="userSpaceOnUse">
<stop stop-color="#FF7044" stop-opacity="0"/>
<stop offset="0.5132" stop-color="#F85E33" stop-opacity="0.513"/>
<stop offset="1" stop-color="#F35227"/>
</linearGradient>
<linearGradient id="paint11_linear_313_11375" x1="58.4494" y1="72.1721" x2="56.2455" y2="74.4318" gradientUnits="userSpaceOnUse">
<stop stop-color="#FF7044" stop-opacity="0"/>
<stop offset="0.5132" stop-color="#F85E33" stop-opacity="0.513"/>
<stop offset="1" stop-color="#F35227"/>
</linearGradient>
<linearGradient id="paint12_linear_313_11375" x1="45.9264" y1="70.3441" x2="44.4264" y2="72.8357" gradientUnits="userSpaceOnUse">
<stop stop-color="#FF7044" stop-opacity="0"/>
<stop offset="0.5132" stop-color="#F85E33" stop-opacity="0.513"/>
<stop offset="1" stop-color="#F35227"/>
</linearGradient>
<linearGradient id="paint13_linear_313_11375" x1="45.6231" y1="80.6925" x2="43.9763" y2="82.8195" gradientUnits="userSpaceOnUse">
<stop stop-color="#FF7044" stop-opacity="0"/>
<stop offset="0.5132" stop-color="#F85E33" stop-opacity="0.513"/>
<stop offset="1" stop-color="#F35227"/>
</linearGradient>
<clipPath id="clip0_313_11375">
<rect width="69" height="69" fill="white" transform="translate(31 23)"/>
</clipPath>
</defs>
</svg>
