<svg width="80" height="48" viewBox="0 0 80 48" fill="none" xmlns="http://www.w3.org/2000/svg">
<path d="M78.8306 45.0529L67.048 36.216C66.1364 35.5323 64.9368 35.4242 63.9177 35.9337C63.8157 35.9847 63.7186 36.0421 63.6246 36.1031L54.7429 29.4419V27.4824H61.334C63.1025 27.4824 64.5972 26.2161 64.8879 24.4716L68.0682 5.38998H68.3228C68.957 5.38998 69.4711 4.87583 69.4711 4.24165C69.4711 3.60747 68.957 3.09333 68.3228 3.09333H54.8219C53.8829 3.09333 53.0062 3.36357 52.2639 3.82902C52.0584 2.03611 50.5324 0.638672 48.6852 0.638672H8.98891C7.371 0.638672 5.8497 1.26872 4.70536 2.41291L1.23405 5.88437C0.78559 6.33283 0.78559 7.05995 1.23405 7.50825L4.91603 11.1902C5.14019 11.4144 5.43416 11.5266 5.72798 11.5266C6.02179 11.5266 6.31576 11.4145 6.53992 11.1902L9.88567 7.84448H25.4447V10.4571H15.5468C14.2367 10.4571 13.1711 11.5228 13.1711 12.8328V25.1852H13.0921C11.7821 25.1852 10.7164 26.2509 10.7164 27.5609V36.1954C9.22822 37.3002 8.26179 39.07 8.26179 41.0617C8.26179 44.4019 10.9793 47.1195 14.3194 47.1195C17.2669 47.1195 19.7283 45.0029 20.2665 42.21H40.9752C42.3347 45.1073 45.2787 47.1195 48.6851 47.1195C52.7736 47.1195 56.1971 44.2217 57.0123 40.3724L62.265 42.9987V44.13C62.265 45.7784 63.6059 47.1193 65.2543 47.1193H78.1416C78.6358 47.1193 79.0746 46.803 79.231 46.3342C79.3873 45.8658 79.2261 45.3495 78.8306 45.0529ZM63.2589 20.2762H57.2767C57.2331 20.2762 57.1977 20.2409 57.1977 20.1972V10.2994H64.9218L63.2589 20.2762ZM52.2882 7.92379C52.2882 6.52667 53.4248 5.38998 54.8219 5.38998H65.7398L65.3044 8.0028H56.0494C55.4152 8.0028 54.901 8.51694 54.901 9.15112V20.1972C54.901 21.5072 55.9667 22.5729 57.2767 22.5729H62.8761L62.6225 24.094C62.5172 24.7265 61.9752 25.1856 61.334 25.1856H52.2882V7.92379ZM9.41012 5.54814C9.10558 5.54814 8.81345 5.6691 8.59817 5.88452L5.72813 8.75457L3.67003 6.69646L6.32955 4.03695C7.03997 3.32652 7.98451 2.93532 8.98906 2.93532H25.4449V5.54814H9.41012ZM14.3194 44.8233C12.2456 44.8233 10.5584 43.136 10.5584 41.0621C10.5584 38.9883 12.2457 37.3011 14.3194 37.3011C16.3931 37.3011 18.0804 38.9884 18.0804 41.0621C18.0804 43.1358 16.3933 44.8233 14.3194 44.8233ZM40.2732 39.9138H20.2667C19.7283 37.1211 17.2671 35.0045 14.3196 35.0045C13.871 35.0045 13.4343 35.055 13.0132 35.148V27.5614C13.0132 27.5177 13.0486 27.4824 13.0923 27.4824H16.7742C17.4084 27.4824 17.9226 26.9682 17.9226 26.334C17.9226 25.6998 17.4084 25.1857 16.7742 25.1857H15.4679V12.8333C15.4679 12.7896 15.5033 12.7543 15.5469 12.7543H43.7761C44.4103 12.7543 44.9244 12.2401 44.9244 11.6059C44.9244 10.9718 44.4103 10.4576 43.7761 10.4576H27.7413V2.93532H48.6852C49.4056 2.93532 49.9916 3.52142 49.9916 4.24165V7.92379V10.4575H48.6846C48.0504 10.4575 47.5363 10.9716 47.5363 11.6058C47.5363 12.24 48.0504 12.7541 48.6846 12.7541H49.9916V25.1856H21.6839C21.0497 25.1856 20.5355 25.6997 20.5355 26.3339C20.5355 26.9681 21.0497 27.4822 21.6839 27.4822H52.4462V30.9736C51.3112 30.4121 50.0348 30.095 48.6852 30.095C43.9915 30.095 40.1728 33.9136 40.1728 38.6075C40.1728 39.0516 40.2072 39.4879 40.2732 39.9138ZM48.6852 44.8233C45.2579 44.8233 42.4694 42.0348 42.4694 38.6075C42.4694 35.1801 45.2577 32.3917 48.6852 32.3917C52.1128 32.3917 54.901 35.18 54.901 38.6075C54.901 42.035 52.1126 44.8233 48.6852 44.8233ZM62.2652 38.6075V40.4315L57.1645 37.8813C56.9915 35.8448 56.0997 34.0105 54.7429 32.6345V32.3127L62.3269 38.0005C62.2866 38.1974 62.2652 38.4005 62.2652 38.6075ZM65.2545 44.8233C64.8725 44.8233 64.5618 44.5125 64.5618 44.1306V38.6075C64.5618 38.2212 64.8296 38.0456 64.9447 37.988C65.0064 37.9571 65.1214 37.9116 65.2626 37.9116C65.3848 37.9116 65.5267 37.9457 65.6702 38.0534L74.6966 44.8233H65.2545Z" fill="#9B9B9B"/>
</svg>
