<svg width="120" height="121" viewBox="0 0 120 121" fill="none" xmlns="http://www.w3.org/2000/svg">
<ellipse cx="60" cy="60.5" rx="60" ry="60.5" fill="#353535"/>
<g clip-path="url(#clip0_313_11376)">
<path d="M60.5464 41.7909C54.9419 41.7909 50.3984 37.1806 50.3984 31.4937C50.3984 30.9876 50.4344 30.4899 50.504 30.0034C50.7095 28.5671 49.2166 27.5121 47.9751 28.2326C44.8343 30.0552 42.7458 33.5319 42.8631 37.4932C43.0242 42.9328 47.4115 47.3487 52.7734 47.4707C56.8911 47.5643 60.4671 45.1684 62.1422 41.6632C61.6222 41.7466 61.0895 41.7909 60.5464 41.7909Z" fill="url(#paint0_linear_313_11376)"/>
<path d="M60.5464 41.7909C54.9419 41.7909 50.3984 37.1806 50.3984 31.4937C50.3984 30.9876 50.4344 30.4899 50.504 30.0034C50.7095 28.5671 49.2166 27.5121 47.9751 28.2326C44.8343 30.0552 42.7458 33.5319 42.8631 37.4932C43.0242 42.9328 47.4115 47.3487 52.7734 47.4707C56.8911 47.5643 60.4671 45.1684 62.1422 41.6632C61.6222 41.7466 61.0895 41.7909 60.5464 41.7909Z" fill="url(#paint1_linear_313_11376)"/>
<path d="M61.4536 41.7909C67.0582 41.7909 71.6016 37.1806 71.6016 31.4937C71.6016 30.9876 71.5656 30.4899 71.496 30.0034C71.2906 28.5671 72.7835 27.5121 74.025 28.2326C77.1658 30.0552 79.2543 33.5319 79.137 37.4932C78.9759 42.9328 74.5886 47.3487 69.2267 47.4707C65.109 47.5643 61.533 45.1684 59.8579 41.6632C60.3778 41.7466 60.9106 41.7909 61.4536 41.7909Z" fill="url(#paint2_linear_313_11376)"/>
<path d="M61.4536 41.7909C67.0582 41.7909 71.6016 37.1806 71.6016 31.4937C71.6016 30.9876 71.5656 30.4899 71.496 30.0034C71.2906 28.5671 72.7835 27.5121 74.025 28.2326C77.1658 30.0552 79.2543 33.5319 79.137 37.4932C78.9759 42.9328 74.5886 47.3487 69.2267 47.4707C65.109 47.5643 61.533 45.1684 59.8579 41.6632C60.3778 41.7466 60.9106 41.7909 61.4536 41.7909Z" fill="url(#paint3_linear_313_11376)"/>
<path d="M29.7528 42.1589L35.6889 41.3794C44.2 40.2619 51.7412 46.9877 51.7412 55.6957C51.7412 58.0049 49.7413 59.7885 47.4844 59.4922L40.9582 58.6353C34.109 57.736 28.698 52.6478 27.0944 46.1081C26.6389 44.2505 27.8817 42.4046 29.7528 42.1589Z" fill="url(#paint4_linear_313_11376)"/>
<path d="M33.0276 47.7521L36.6454 47.956C41.8326 48.2482 45.9872 51.9327 45.4889 55.7986C45.3568 56.8237 44.0509 57.4303 42.7093 57.0897L38.8298 56.1048C34.7585 55.071 31.7924 52.311 31.2013 49.2593C31.0334 48.3922 31.8873 47.6879 33.0276 47.7521Z" fill="url(#paint5_linear_313_11376)"/>
<path d="M92.2472 42.1589L86.3111 41.3794C77.8 40.2619 70.2588 46.9877 70.2588 55.6959C70.2588 58.0051 72.2587 59.7886 74.5156 59.4923L81.0417 58.6354C87.8909 57.7361 93.302 52.648 94.9056 46.1082C95.3612 44.2505 94.1183 42.4046 92.2472 42.1589Z" fill="url(#paint6_linear_313_11376)"/>
<path d="M86.626 41.4208L86.3111 41.3794C77.8 40.2619 70.2588 46.9877 70.2588 55.6959C70.2588 58.0051 72.2587 59.7886 74.5156 59.4923L81.0417 58.6354C86.8916 57.8673 91.6901 54.0424 93.9656 48.8684L86.626 41.4208Z" fill="url(#paint7_linear_313_11376)"/>
<path d="M88.9721 47.7521L85.3543 47.956C80.1671 48.2482 76.0125 51.9327 76.5108 55.7986C76.6429 56.8237 77.9488 57.4303 79.2904 57.0897L83.1699 56.1048C87.2412 55.071 90.2073 52.311 90.7984 49.2593C90.9663 48.3922 90.1125 47.6879 88.9721 47.7521Z" fill="url(#paint8_linear_313_11376)"/>
<path d="M88.9721 47.7521L85.3543 47.956C80.1671 48.2482 76.0125 51.9327 76.5108 55.7986C76.6429 56.8237 77.9488 57.4303 79.2904 57.0897L83.1699 56.1048C87.2412 55.071 90.2073 52.311 90.7984 49.2593C90.9663 48.3922 90.1125 47.6879 88.9721 47.7521Z" fill="url(#paint9_linear_313_11376)"/>
<path d="M78.6609 70.1741C81.4668 66.7406 83.1312 62.4633 83.1313 57.8257C83.1316 46.499 73.2611 37.3493 61.0265 37.336C48.7915 37.3227 38.8687 46.5012 38.8687 57.8253C38.8687 62.469 40.5375 66.7515 43.35 70.1874C46.6799 74.2553 47.1669 79.7202 44.6608 84.2664C44.0471 85.3797 43.6644 86.4879 43.6959 87.4964C43.8409 92.1402 47.9308 95.9214 52.9468 96.0501C54.3169 96.0853 55.6237 95.8522 56.8108 95.4034C59.5015 94.3864 62.4983 94.3864 65.1889 95.4034C66.376 95.852 67.6828 96.0851 69.0529 96.0501C74.0691 95.9216 78.1589 92.1402 78.3039 87.4964C78.3353 86.488 77.9527 85.3798 77.3391 84.2665C74.8304 79.7149 75.3307 74.2493 78.6609 70.1741Z" fill="url(#paint10_linear_313_11376)"/>
<path d="M82.5976 62.3145H39.4028C40.1044 65.22 41.4718 67.8928 43.3502 70.1876C46.68 74.2555 47.1671 79.7204 44.661 84.2667C44.0472 85.3801 43.6646 86.4883 43.696 87.4967C43.8411 92.1406 47.931 95.9218 52.947 96.0504C54.3171 96.0855 55.6239 95.8524 56.811 95.4037C59.5016 94.3867 62.4984 94.3867 65.1891 95.4037C66.3762 95.8524 67.683 96.0855 69.0531 96.0504C74.0692 95.9219 78.1591 92.1406 78.304 87.4967C78.3355 86.4884 77.953 85.3802 77.3392 84.2669C74.8303 79.7152 75.3306 74.2496 78.6608 70.1744C80.534 67.8825 81.8974 65.2143 82.5976 62.3145Z" fill="url(#paint11_linear_313_11376)"/>
<path d="M69.4003 44.1657C69.4003 40.6986 66.7363 37.7613 63.2246 37.4378C62.5019 37.3713 61.7687 37.3368 61.027 37.336C48.7919 37.3227 38.8691 46.5012 38.8691 57.8253C38.8691 59.9389 39.215 61.9776 39.8573 63.8957C41.0218 67.3738 44.3473 69.7093 48.0723 69.7093C52.8559 69.7093 56.7338 65.8974 56.7338 61.1951V59.8084C56.7338 56.4131 58.1059 53.1568 60.5483 50.7559C61.5207 49.7999 62.8397 49.2629 64.215 49.2629C67.0787 49.2631 69.4003 46.9809 69.4003 44.1657Z" fill="url(#paint12_linear_313_11376)"/>
<path d="M71.0207 65.0791C68.9284 65.0791 67.2324 63.3582 67.2324 61.2351V59.2639C67.2324 57.1409 68.9284 55.4199 71.0207 55.4199C73.113 55.4199 74.809 57.1409 74.809 59.2639V61.2351C74.809 63.358 73.113 65.0791 71.0207 65.0791Z" fill="url(#paint13_linear_313_11376)"/>
<path d="M50.9797 65.0791C48.8874 65.0791 47.1914 63.3582 47.1914 61.2351V59.2639C47.1914 57.1409 48.8874 55.4199 50.9797 55.4199C53.0719 55.4199 54.7679 57.1409 54.7679 59.2639V61.2351C54.7679 63.358 53.0719 65.0791 50.9797 65.0791Z" fill="url(#paint14_linear_313_11376)"/>
<path d="M63.6834 74.3809H58.3164C49.2952 74.3809 41.8326 79.7587 41.6693 86.513C41.6674 86.5897 41.6665 86.6665 41.6665 86.7436C41.6665 86.9646 41.6741 87.1841 41.6893 87.4025C42.1049 93.3798 49.0158 97.6274 56.9533 96.924C58.2701 96.8072 59.6218 96.7466 60.9998 96.7466C62.3778 96.7466 63.7294 96.8074 65.0464 96.924C72.9838 97.6275 79.8948 93.3799 80.3104 87.4025C80.3256 87.1841 80.3332 86.9646 80.3332 86.7436C80.3332 86.6666 80.3322 86.5898 80.3304 86.5131C80.1672 79.7587 72.7046 74.3809 63.6834 74.3809Z" fill="url(#paint15_linear_313_11376)"/>
<path d="M41.6693 86.5124C41.6674 86.5892 41.6665 86.666 41.6665 86.7431C41.6665 86.9641 41.6741 87.1836 41.6893 87.402C42.1049 93.3793 49.0158 97.6269 56.9533 96.9235C58.2701 96.8067 59.6218 96.7461 60.9998 96.7461C62.3778 96.7461 63.7294 96.8068 65.0464 96.9235C72.9838 97.627 79.8948 93.3794 80.3104 87.402C80.3256 87.1836 80.3332 86.9641 80.3332 86.7431C80.3332 86.6661 80.3322 86.5893 80.3304 86.5126C80.3188 86.0321 80.2689 85.5589 80.1856 85.0938H41.8141C41.7308 85.5588 41.6809 86.032 41.6693 86.5124Z" fill="url(#paint16_linear_313_11376)"/>
<path d="M52.9999 91.2957C50.5718 91.2957 48.6035 89.2984 48.6035 86.8347V84.547C48.6035 82.0831 50.5718 80.0859 52.9999 80.0859C55.4279 80.0859 57.3963 82.0833 57.3963 84.547V86.8347C57.3963 89.2985 55.428 91.2957 52.9999 91.2957Z" fill="url(#paint17_linear_313_11376)"/>
<path d="M68.9999 91.2957C66.5718 91.2957 64.6035 89.2984 64.6035 86.8347V84.547C64.6035 82.0831 66.5718 80.0859 68.9999 80.0859C71.4279 80.0859 73.3963 82.0833 73.3963 84.547V86.8347C73.3963 89.2985 71.428 91.2957 68.9999 91.2957Z" fill="url(#paint18_linear_313_11376)"/>
<path d="M78.5917 91.8944L67.297 80.4336V86.1935C67.297 90.1676 65.7411 93.9791 62.9717 96.7892C63.6715 96.8189 64.3637 96.8636 65.0461 96.9241C70.7898 97.4333 75.995 95.3495 78.5917 91.8944Z" fill="url(#paint19_linear_313_11376)"/>
<path d="M57.2876 83.5605L66.9552 93.3703H58.3564C56.3797 93.3703 54.7773 91.7444 54.7773 89.7386V86.1077C54.7775 84.7009 55.9013 83.5605 57.2876 83.5605Z" fill="url(#paint20_linear_313_11376)"/>
<path d="M67.2972 80.4336C66.0039 80.9842 65.0266 82.1451 64.7119 83.5602C65.7292 84.5506 66.3612 85.9428 66.3612 87.4851C66.3612 88.351 66.1612 89.1709 65.8052 89.8974C64.9306 91.6914 63.1066 92.9253 60.9999 92.9253C58.8932 92.9253 57.0692 91.6914 56.1946 89.8974C55.8386 89.1709 55.6386 88.351 55.6386 87.4851C55.6386 85.9428 56.2706 84.5506 57.2879 83.5602C57.1026 82.7241 56.6852 81.9773 56.1079 81.3928C55.7079 80.987 55.2319 80.6595 54.7026 80.4336C52.8106 82.1748 51.6226 84.6886 51.6226 87.4851C51.6226 88.8232 51.8946 90.0963 52.3866 91.2517C53.8239 94.6327 57.1399 97.0004 60.9999 97.0004C64.8599 97.0004 68.1759 94.6327 69.6132 91.2517C70.1052 90.0963 70.3772 88.8232 70.3772 87.4851C70.3772 84.6886 69.1892 82.1748 67.2972 80.4336Z" fill="url(#paint21_linear_313_11376)"/>
<path d="M66.0304 81.2598C65.3822 81.8628 64.9123 82.6599 64.7119 83.5611C65.7292 84.5515 66.3612 85.9436 66.3612 87.486C66.3612 88.3519 66.1612 89.1718 65.8052 89.8983C64.9306 91.6923 63.1066 92.9262 60.9999 92.9262C58.8932 92.9262 57.0692 91.6923 56.1946 89.8983C55.8386 89.1718 55.6386 88.3519 55.6386 87.486C55.6386 85.9436 56.2706 84.5515 57.2879 83.5611C57.1026 82.725 56.6852 81.9782 56.1079 81.3937C56.0628 81.348 56.0164 81.3035 55.9694 81.2598C54.4992 82.6565 53.5776 84.6556 53.5776 86.8783C53.5776 87.953 53.793 88.9756 54.1823 89.9036C55.3199 92.6192 57.9446 94.5209 60.9998 94.5209C64.055 94.5209 66.6796 92.6192 67.8172 89.9036C68.2067 88.9756 68.4219 87.953 68.4219 86.8783C68.4222 84.6556 67.5006 82.6564 66.0304 81.2598Z" fill="url(#paint22_linear_313_11376)"/>
<path d="M67.2972 80.4336C66.0039 80.9842 65.0266 82.1451 64.7119 83.5602C65.7292 84.5506 66.3612 85.9428 66.3612 87.4851C66.3612 88.351 66.2748 89.2407 65.8052 89.8974L69.6132 91.2517C70.1052 90.0963 70.3772 88.8232 70.3772 87.4851C70.3772 84.6886 69.1892 82.1748 67.2972 80.4336Z" fill="url(#paint23_linear_313_11376)"/>
<path d="M65.9378 89.6037C65.8964 89.7028 65.8524 89.8008 65.8053 89.8968C64.9306 91.6908 63.1066 92.9247 61 92.9247C58.8933 92.9247 57.0693 91.6908 56.1946 89.8968C56.1476 89.8008 56.1037 89.703 56.0621 89.6037H51.8589C51.9868 90.1735 52.1626 90.725 52.3866 91.2511C53.824 94.632 57.14 96.9996 61 96.9996C64.86 96.9996 68.176 94.632 69.6133 91.251C69.8373 90.725 70.013 90.1735 70.141 89.6035H65.9378V89.6037Z" fill="url(#paint24_linear_313_11376)"/>
<path d="M56.1946 89.8974C55.8386 89.1709 55.6386 88.351 55.6386 87.4851C55.6386 85.9428 56.2706 84.5506 57.2879 83.5602C57.1026 82.7241 56.6852 81.9773 56.1079 81.3928C55.7079 80.987 55.2319 80.6595 54.7026 80.4336C52.8106 82.1748 51.6226 84.6886 51.6226 87.4851C51.6226 88.8232 51.8946 90.0963 52.3866 91.2517L56.1946 89.8974Z" fill="url(#paint25_linear_313_11376)"/>
</g>
<defs>
<linearGradient id="paint0_linear_313_11376" x1="43.0499" y1="34.4876" x2="48.2763" y2="36.8648" gradientUnits="userSpaceOnUse">
<stop stop-color="#FEE97D"/>
<stop offset="1" stop-color="#FAC600"/>
</linearGradient>
<linearGradient id="paint1_linear_313_11376" x1="45.5346" y1="31.334" x2="51.9896" y2="40.1062" gradientUnits="userSpaceOnUse">
<stop stop-color="#FAC600" stop-opacity="0"/>
<stop offset="0.6899" stop-color="#D68C3D" stop-opacity="0.69"/>
<stop offset="1" stop-color="#C5715A"/>
</linearGradient>
<linearGradient id="paint2_linear_313_11376" x1="71.5332" y1="37.7367" x2="78.0352" y2="37.7367" gradientUnits="userSpaceOnUse">
<stop stop-color="#FEE97D"/>
<stop offset="1" stop-color="#FAC600"/>
</linearGradient>
<linearGradient id="paint3_linear_313_11376" x1="74.2794" y1="34.0223" x2="69.5202" y2="40.7896" gradientUnits="userSpaceOnUse">
<stop stop-color="#FAC600" stop-opacity="0"/>
<stop offset="0.6899" stop-color="#D68C3D" stop-opacity="0.69"/>
<stop offset="1" stop-color="#C5715A"/>
</linearGradient>
<linearGradient id="paint4_linear_313_11376" x1="25.9333" y1="50.3911" x2="58.6696" y2="50.3911" gradientUnits="userSpaceOnUse">
<stop stop-color="#C5715A"/>
<stop offset="1" stop-color="#883F2E"/>
</linearGradient>
<linearGradient id="paint5_linear_313_11376" x1="30.1998" y1="52.4664" x2="50.8062" y2="52.4664" gradientUnits="userSpaceOnUse">
<stop stop-color="#FDB4BA"/>
<stop offset="1" stop-color="#FE93BB"/>
</linearGradient>
<linearGradient id="paint6_linear_313_11376" x1="69.5971" y1="50.3911" x2="98.0696" y2="50.3911" gradientUnits="userSpaceOnUse">
<stop stop-color="#EAF6FF"/>
<stop offset="1" stop-color="#B3DAFE"/>
</linearGradient>
<linearGradient id="paint7_linear_313_11376" x1="87.5661" y1="47.4448" x2="80.7329" y2="50.4818" gradientUnits="userSpaceOnUse">
<stop stop-color="#D8ECFE" stop-opacity="0"/>
<stop offset="0.7867" stop-color="#9BD1FE" stop-opacity="0.787"/>
<stop offset="1" stop-color="#8AC9FE"/>
</linearGradient>
<linearGradient id="paint8_linear_313_11376" x1="75.9332" y1="52.4664" x2="96.7759" y2="52.4664" gradientUnits="userSpaceOnUse">
<stop stop-color="#FDB4BA"/>
<stop offset="1" stop-color="#FE93BB"/>
</linearGradient>
<linearGradient id="paint9_linear_313_11376" x1="87.802" y1="50.194" x2="82.1769" y2="52.5699" gradientUnits="userSpaceOnUse">
<stop stop-color="#FE93BB" stop-opacity="0"/>
<stop offset="1" stop-color="#F07281"/>
</linearGradient>
<linearGradient id="paint10_linear_313_11376" x1="50.4864" y1="66.6948" x2="84.5323" y2="66.6948" gradientUnits="userSpaceOnUse">
<stop stop-color="#EAF6FF"/>
<stop offset="1" stop-color="#B3DAFE"/>
</linearGradient>
<linearGradient id="paint11_linear_313_11376" x1="61.0002" y1="64.6636" x2="61.0002" y2="76.5469" gradientUnits="userSpaceOnUse">
<stop stop-color="#D8ECFE" stop-opacity="0"/>
<stop offset="0.7867" stop-color="#9BD1FE" stop-opacity="0.787"/>
<stop offset="1" stop-color="#8AC9FE"/>
</linearGradient>
<linearGradient id="paint12_linear_313_11376" x1="45.4905" y1="47.8272" x2="64.852" y2="59.0903" gradientUnits="userSpaceOnUse">
<stop stop-color="#C5715A"/>
<stop offset="1" stop-color="#883F2E"/>
</linearGradient>
<linearGradient id="paint13_linear_313_11376" x1="67.2324" y1="60.2494" x2="74.809" y2="60.2494" gradientUnits="userSpaceOnUse">
<stop stop-color="#838383"/>
<stop offset="1" stop-color="#5A5A5A"/>
</linearGradient>
<linearGradient id="paint14_linear_313_11376" x1="47.1914" y1="60.2494" x2="54.7679" y2="60.2494" gradientUnits="userSpaceOnUse">
<stop stop-color="#838383"/>
<stop offset="1" stop-color="#5A5A5A"/>
</linearGradient>
<linearGradient id="paint15_linear_313_11376" x1="54.1194" y1="79.4992" x2="71.6095" y2="96.7356" gradientUnits="userSpaceOnUse">
<stop stop-color="#FDB4BA"/>
<stop offset="1" stop-color="#FE93BB"/>
</linearGradient>
<linearGradient id="paint16_linear_313_11376" x1="60.9998" y1="87.6642" x2="60.9998" y2="96.1877" gradientUnits="userSpaceOnUse">
<stop stop-color="#FE93BB" stop-opacity="0"/>
<stop offset="1" stop-color="#F07281"/>
</linearGradient>
<linearGradient id="paint17_linear_313_11376" x1="64.5077" y1="97.3679" x2="48.5279" y2="81.6195" gradientUnits="userSpaceOnUse">
<stop stop-color="#FE93BB" stop-opacity="0"/>
<stop offset="1" stop-color="#F07281"/>
</linearGradient>
<linearGradient id="paint18_linear_313_11376" x1="80.5076" y1="97.3679" x2="64.5279" y2="81.6195" gradientUnits="userSpaceOnUse">
<stop stop-color="#FE93BB" stop-opacity="0"/>
<stop offset="1" stop-color="#F07281"/>
</linearGradient>
<linearGradient id="paint19_linear_313_11376" x1="78.333" y1="88.717" x2="67.1979" y2="88.717" gradientUnits="userSpaceOnUse">
<stop stop-color="#FE93BB" stop-opacity="0"/>
<stop offset="1" stop-color="#F07281"/>
</linearGradient>
<linearGradient id="paint20_linear_313_11376" x1="63.5792" y1="91.5522" x2="54.4613" y2="87.1254" gradientUnits="userSpaceOnUse">
<stop stop-color="#FE93BB" stop-opacity="0"/>
<stop offset="1" stop-color="#F07281"/>
</linearGradient>
<linearGradient id="paint21_linear_313_11376" x1="56.8223" y1="83.2454" x2="68.1391" y2="94.3982" gradientUnits="userSpaceOnUse">
<stop stop-color="#FEE97D"/>
<stop offset="1" stop-color="#FAC600"/>
</linearGradient>
<linearGradient id="paint22_linear_313_11376" x1="60.9999" y1="90.3266" x2="60.9999" y2="83.2842" gradientUnits="userSpaceOnUse">
<stop stop-color="#FEE97D"/>
<stop offset="1" stop-color="#FAC600"/>
</linearGradient>
<linearGradient id="paint23_linear_313_11376" x1="67.5558" y1="86.3231" x2="64.3678" y2="82.5129" gradientUnits="userSpaceOnUse">
<stop stop-color="#FAC600" stop-opacity="0"/>
<stop offset="0.6899" stop-color="#D68C3D" stop-opacity="0.69"/>
<stop offset="1" stop-color="#C5715A"/>
</linearGradient>
<linearGradient id="paint24_linear_313_11376" x1="61" y1="91.4526" x2="61" y2="98.9015" gradientUnits="userSpaceOnUse">
<stop stop-color="#FAC600" stop-opacity="0"/>
<stop offset="0.6899" stop-color="#D68C3D" stop-opacity="0.69"/>
<stop offset="1" stop-color="#C5715A"/>
</linearGradient>
<linearGradient id="paint25_linear_313_11376" x1="54.3524" y1="86.3884" x2="60.0452" y2="79.9767" gradientUnits="userSpaceOnUse">
<stop stop-color="#FAC600" stop-opacity="0"/>
<stop offset="0.6899" stop-color="#D68C3D" stop-opacity="0.69"/>
<stop offset="1" stop-color="#C5715A"/>
</linearGradient>
<clipPath id="clip0_313_11376">
<rect width="68" height="69" fill="white" transform="translate(27 28)"/>
</clipPath>
</defs>
</svg>
