<svg width="70" height="70" viewBox="0 0 70 70" fill="none" xmlns="http://www.w3.org/2000/svg">
<path d="M53.2162 64.4643C48.1589 65.4638 38.5154 67.141 30.7485 67.141C19.4531 67.141 6.02693 63.4886 4.97286 64.0153C4.02407 64.4894 2.88144 64.0921 2.698 63.1098C6.67836 56.6631 3.75208 65.4961 3.75208 42.3042C3.75208 40.5447 4.19995 36.8708 5.04791 31.6796C5.07076 31.5397 5.06582 31.3966 5.03337 31.2585C5.00092 31.1205 4.9416 30.9902 4.85879 30.8751C4.77598 30.76 4.67131 30.6623 4.55075 30.5876C4.43019 30.5129 4.2961 30.4627 4.15615 30.4399C4.01619 30.417 3.87311 30.422 3.73506 30.4544C3.59701 30.4869 3.46671 30.5462 3.35159 30.629C3.23647 30.7118 3.13878 30.8165 3.06411 30.937C2.98944 31.0576 2.93925 31.1917 2.9164 31.3316C2.03781 36.7116 1.59236 40.4034 1.59236 42.3042C1.59236 53.5241 2.28658 57.9708 2.59002 59.3783L0.693922 62.2226C0.239302 62.9048 0.594305 64.8529 2.16523 65.8237C2.67119 66.1318 3.24183 66.3182 3.83214 66.3681C4.42245 66.418 5.01627 66.33 5.56678 66.1112C25.437 70.4171 36.0282 70.063 53.6352 66.5836C53.7743 66.5561 53.9067 66.5015 54.0247 66.4229C54.1428 66.3443 54.2442 66.2431 54.3231 66.1253C54.4021 66.0075 54.4571 65.8753 54.485 65.7362C54.5128 65.5971 54.513 65.4539 54.4855 65.3148C54.4581 65.1756 54.4035 65.0433 54.3248 64.9252C54.2462 64.8072 54.1451 64.7058 54.0273 64.6268C53.9094 64.5478 53.7772 64.4928 53.6381 64.465C53.4991 64.4371 53.3559 64.4369 53.2167 64.4644L53.2162 64.4643Z" fill="#9B9B9B"/>
<path d="M3.75245 28.2644H28.5892C28.8756 28.2644 29.1502 28.1506 29.3527 27.9481C29.5553 27.7456 29.669 27.4709 29.669 27.1845C29.669 26.8981 29.5553 26.6235 29.3527 26.421C29.1502 26.2185 28.8756 26.1047 28.5892 26.1047H3.75245C3.46605 26.1047 3.19139 25.9909 2.98887 25.7884C2.78636 25.5859 2.67259 25.3112 2.67259 25.0248C2.67259 24.7384 2.78636 24.4638 2.98887 24.2612C3.19139 24.0587 3.46605 23.945 3.75245 23.945H12.3913C12.6777 23.945 12.9524 23.8312 13.1549 23.6287C13.3574 23.4262 13.4712 23.1515 13.4712 22.8651C13.4712 22.5787 13.3574 22.304 13.1549 22.1015C12.9524 21.899 12.6777 21.7853 12.3913 21.7853H3.75245C3.46605 21.7853 3.19139 21.6715 2.98887 21.469C2.78636 21.2665 2.67259 20.9918 2.67259 20.7054C2.67259 20.419 2.78636 20.1443 2.98887 19.9418C3.19139 19.7393 3.46605 19.6255 3.75245 19.6255H50.1863C50.4727 19.6255 50.7474 19.5118 50.9499 19.3093C51.1524 19.1067 51.2662 18.8321 51.2662 18.5457C51.2662 18.2593 51.1524 17.9846 50.9499 17.7821C50.7474 17.5796 50.4727 17.4658 50.1863 17.4658H3.75245C0.94482 17.4658 -0.512988 20.7976 1.33978 22.8651C-0.511908 24.9316 0.94293 28.2644 3.75245 28.2644Z" fill="#9B9B9B"/>
<path d="M12.6242 14.9592C20.1323 6.8269 26.5689 2.34819 30.7485 2.34819C34.9281 2.34819 41.3647 6.8269 48.8728 14.9592C49.0671 15.1696 49.337 15.2942 49.6232 15.3057C49.9094 15.3171 50.1884 15.2143 50.3988 15.0201C50.6092 14.8258 50.7339 14.5558 50.7453 14.2697C50.7567 13.9835 50.654 13.7045 50.4597 13.4941C44.8556 7.42352 36.887 0.188477 30.7485 0.188477C24.61 0.188477 16.6414 7.42352 11.0373 13.4941C10.9411 13.5983 10.8664 13.7204 10.8174 13.8535C10.7684 13.9865 10.7461 14.128 10.7517 14.2697C10.7631 14.5558 10.8878 14.8258 11.0982 15.0201C11.3086 15.2143 11.5876 15.3171 11.8738 15.3057C12.0155 15.3 12.1547 15.2665 12.2834 15.207C12.4122 15.1476 12.528 15.0634 12.6242 14.9592Z" fill="#9B9B9B"/>
<path d="M21.0301 21.7871C20.7437 21.7871 20.469 21.9009 20.2665 22.1034C20.064 22.3059 19.9502 22.5806 19.9502 22.867C19.9502 23.1534 20.064 23.428 20.2665 23.6305C20.469 23.8331 20.7437 23.9468 21.0301 23.9468H30.7488C31.0352 23.9468 31.3098 23.8331 31.5123 23.6305C31.7149 23.428 31.8286 23.1534 31.8286 22.867C31.8286 22.5806 31.7149 22.3059 31.5123 22.1034C31.3098 21.9009 31.0352 21.7871 30.7488 21.7871H21.0301Z" fill="#9B9B9B"/>
<path d="M16.7107 23.9468C17.3071 23.9468 17.7906 23.4634 17.7906 22.867C17.7906 22.2706 17.3071 21.7871 16.7107 21.7871C16.1143 21.7871 15.6309 22.2706 15.6309 22.867C15.6309 23.4634 16.1143 23.9468 16.7107 23.9468Z" fill="#9B9B9B"/>
<path d="M25.3482 10.9869C25.9446 10.9869 26.428 10.5034 26.428 9.90701C26.428 9.31062 25.9446 8.82715 25.3482 8.82715C24.7518 8.82715 24.2683 9.31062 24.2683 9.90701C24.2683 10.5034 24.7518 10.9869 25.3482 10.9869Z" fill="#9B9B9B"/>
<path d="M28.5906 6.66753C29.187 6.66753 29.6705 6.18406 29.6705 5.58767C29.6705 4.99128 29.187 4.50781 28.5906 4.50781C27.9942 4.50781 27.5107 4.99128 27.5107 5.58767C27.5107 6.18406 27.9942 6.66753 28.5906 6.66753Z" fill="#9B9B9B"/>
<path d="M30.7466 9.90679C31.343 9.90679 31.8265 9.42332 31.8265 8.82693C31.8265 8.23054 31.343 7.74707 30.7466 7.74707C30.1502 7.74707 29.6667 8.23054 29.6667 8.82693C29.6667 9.42332 30.1502 9.90679 30.7466 9.90679Z" fill="#9B9B9B"/>
<path d="M33.9889 7.74761C34.5853 7.74761 35.0688 7.26414 35.0688 6.66775C35.0688 6.07136 34.5853 5.58789 33.9889 5.58789C33.3925 5.58789 32.9091 6.07136 32.9091 6.66775C32.9091 7.26414 33.3925 7.74761 33.9889 7.74761Z" fill="#9B9B9B"/>
<path d="M36.1491 12.0669C36.7455 12.0669 37.2289 11.5835 37.2289 10.9871C37.2289 10.3907 36.7455 9.90723 36.1491 9.90723C35.5527 9.90723 35.0692 10.3907 35.0692 10.9871C35.0692 11.5835 35.5527 12.0669 36.1491 12.0669Z" fill="#9B9B9B"/>
<path d="M40.4684 15.3062C41.0648 15.3062 41.5483 14.8227 41.5483 14.2263C41.5483 13.63 41.0648 13.1465 40.4684 13.1465C39.872 13.1465 39.3885 13.63 39.3885 14.2263C39.3885 14.8227 39.872 15.3062 40.4684 15.3062Z" fill="#9B9B9B"/>
<path d="M32.9099 15.3062C33.5063 15.3062 33.9898 14.8227 33.9898 14.2263C33.9898 13.63 33.5063 13.1465 32.9099 13.1465C32.3135 13.1465 31.8301 13.63 31.8301 14.2263C31.8301 14.8227 32.3135 15.3062 32.9099 15.3062Z" fill="#9B9B9B"/>
<path d="M27.5075 15.3062C28.1039 15.3062 28.5873 14.8227 28.5873 14.2263C28.5873 13.63 28.1039 13.1465 27.5075 13.1465C26.9111 13.1465 26.4276 13.63 26.4276 14.2263C26.4276 14.8227 26.9111 15.3062 27.5075 15.3062Z" fill="#9B9B9B"/>
<path d="M21.0301 15.3062C21.6264 15.3062 22.1099 14.8227 22.1099 14.2263C22.1099 13.63 21.6264 13.1465 21.0301 13.1465C20.4337 13.1465 19.9502 13.63 19.9502 14.2263C19.9502 14.8227 20.4337 15.3062 21.0301 15.3062Z" fill="#9B9B9B"/>
<path d="M69.618 36.9046C69.6162 36.6495 69.5242 36.4032 69.3582 36.2095C69.1922 36.0157 68.9629 35.887 68.7111 35.8462C69.2766 34.467 69.584 32.9956 69.618 31.5053C69.6164 31.2211 69.5027 30.949 69.3018 30.748C69.1008 30.5471 68.8287 30.4334 68.5445 30.4318C68.0588 30.4401 67.5743 30.4807 67.094 30.5533C67.5923 29.0998 67.6052 27.0867 67.4283 26.3772C67.4958 26.116 67.4505 26.3398 67.4637 20.7079C67.4637 20.4215 67.3499 20.1469 67.1474 19.9444C66.9449 19.7418 66.6702 19.6281 66.3838 19.6281C66.0974 19.6281 65.8228 19.7418 65.6203 19.9444C65.4178 20.1469 65.304 20.4215 65.304 20.7079V25.4933C64.5766 25.4898 63.8511 25.5699 63.142 25.7318C63.1023 23.2012 61.6291 21.1102 60.9846 20.3151V15.3084C60.9846 15.022 60.8708 14.7473 60.6683 14.5448C60.4658 14.3423 60.1911 14.2285 59.9047 14.2285C59.6183 14.2285 59.3436 14.3423 59.1411 14.5448C58.9386 14.7473 58.8248 15.022 58.8248 15.3084V20.3149C58.18 21.1102 56.7056 23.2025 56.6674 25.7344C55.9583 25.5723 55.2328 25.4922 54.5054 25.4956V20.7077C54.5054 20.4213 54.3916 20.1466 54.1891 19.9441C53.9866 19.7416 53.7119 19.6278 53.4256 19.6278C53.1392 19.6278 52.8645 19.7416 52.662 19.9441C52.4595 20.1466 52.3457 20.4213 52.3457 20.7077C52.3592 26.3208 52.3155 26.1182 52.38 26.3727C52.2427 26.9074 52.147 28.9047 52.7104 30.5514C51.7329 30.4098 50.6553 30.1948 50.273 31.0864C49.8382 31.3201 49.4199 31.5834 49.0211 31.8743C48.7897 30.3589 47.8697 28.5673 47.3835 28.0201C47.3222 27.7574 47.3858 27.9765 44.7888 22.9791C44.6562 22.7253 44.4282 22.5346 44.1549 22.4489C43.8816 22.3632 43.5855 22.3895 43.3316 22.5222C43.0778 22.6548 42.8871 22.8828 42.8014 23.1561C42.7157 23.4294 42.742 23.7255 42.8747 23.9794L45.0913 28.2205C44.445 28.5544 43.8391 28.9613 43.2856 29.4333C42.0784 27.2091 39.8042 26.0381 38.8647 25.6321L36.5458 21.1949C36.4124 20.9424 36.1844 20.753 35.9117 20.6681C35.639 20.5833 35.3438 20.6099 35.0907 20.7422C34.8376 20.8745 34.6472 21.1016 34.5612 21.374C34.4751 21.6463 34.5005 21.9416 34.6317 22.1953L36.9506 26.6322C36.7481 27.6355 36.4106 30.1722 37.5483 32.4338C36.8447 32.6185 36.1647 32.8836 35.5218 33.2239L33.3044 28.9813C33.1718 28.7274 32.9437 28.5367 32.6705 28.451C32.3972 28.3653 32.1011 28.3916 31.8472 28.5243C31.5934 28.6569 31.4026 28.885 31.3169 29.1582C31.2312 29.4315 31.2576 29.7276 31.3902 29.9815C34.02 34.9841 33.8657 34.785 34.0444 34.9851C34.178 35.5572 35.0392 37.3651 36.2734 38.5368C35.8137 38.6944 35.3654 38.8834 34.9318 39.1026C34.6806 39.2357 34.4921 39.4625 34.4071 39.7337C34.322 40.0049 34.3474 40.2987 34.4776 40.5514C35.198 41.8563 36.1517 43.0179 37.2914 43.9786C37.0873 44.1315 36.9439 44.3517 36.8866 44.6002C36.8293 44.8488 36.8618 45.1095 36.9784 45.3364C37.6999 46.6434 38.6555 47.8067 39.7975 48.7683C39.5926 48.9209 39.4485 49.1412 39.3908 49.39C39.3331 49.6389 39.3656 49.9001 39.4824 50.1273C40.2018 51.4305 41.1539 52.5908 42.2915 53.5507C42.0881 53.7038 41.9453 53.9239 41.8884 54.1721C41.8315 54.4202 41.864 54.6806 41.9804 54.907C42.0614 55.0645 44.0091 58.7771 47.6151 59.9076C49.7118 60.5649 52.063 60.2413 54.1056 59.4559C59.3642 69.5178 58.9701 68.8674 59.2544 69.0816C59.3749 69.1731 59.5133 69.2381 59.6607 69.2725C59.808 69.3068 59.961 69.3097 60.1095 69.2811C60.2581 69.2524 60.3989 69.1927 60.5229 69.1059C60.6468 69.0192 60.7511 68.9073 60.8289 68.7775C61.1642 68.2218 60.8907 68.2511 60.9846 57.3503C62.4445 57.1817 65.0659 56.6193 66.9401 54.7452C69.6128 52.0725 69.6186 47.8807 69.6176 47.7034C69.6158 47.4487 69.5241 47.2029 69.3586 47.0093C69.1931 46.8157 68.9645 46.6868 68.7132 46.6454C69.2772 45.2679 69.5837 43.7986 69.6176 42.3105C69.6158 42.0549 69.5235 41.8083 69.357 41.6144C69.1905 41.4206 68.9606 41.292 68.7082 41.2517C69.2754 39.8707 69.5837 38.3971 69.618 36.9046ZM58.7124 38.9589C57.4236 37.4383 55.61 36.5628 53.6731 36.1294C52.9191 34.9764 52.5924 33.6361 52.4521 32.6983C56.17 33.2555 58.1548 35.2362 58.7124 38.9589ZM58.7133 44.3648C57.4278 42.8476 55.6163 41.9697 53.6765 41.5346C52.9206 40.3801 52.5926 39.0374 52.4521 38.0976C56.175 38.6556 58.158 40.6417 58.7133 44.3648ZM58.7113 49.7554C57.4259 48.2388 55.6116 47.3608 53.6687 46.927C52.9168 45.7744 52.5912 44.4358 52.4515 43.4997C56.2366 44.0596 58.1622 46.1066 58.7113 49.7558V49.7554ZM44.0606 31.7345C44.6352 30.9724 45.5161 30.4252 46.151 30.1026C47.4144 32.4815 46.7465 33.4602 46.7686 33.9783C45.9185 34.9882 45.3311 36.1925 45.0584 37.4841L43.9786 35.4171C44.2235 34.2041 44.2513 32.9572 44.0606 31.7345ZM38.9272 28.0832C41.256 29.4451 42.2134 31.2718 42.0015 33.9655C39.6726 32.6039 38.7156 30.7773 38.9272 28.0832ZM36.4594 35.1705C37.0887 34.833 38.043 34.4206 38.9977 34.3855C39.8917 35.2381 40.9296 35.9256 42.0633 36.4162L43.1475 38.4906C41.9299 37.975 40.6037 37.7685 39.287 37.8894C38.8943 37.5908 37.6928 37.5711 36.4594 35.1705ZM42.0433 50.1353C43.1847 49.7407 45.0433 49.3094 46.7708 49.8511C46.9063 49.8941 47.0489 49.91 47.1905 49.8978C47.3321 49.8855 47.4699 49.8455 47.596 49.7799C47.7221 49.7143 47.834 49.6244 47.9253 49.5155C48.0166 49.4065 48.0855 49.2806 48.128 49.145C48.1705 49.0094 48.1859 48.8667 48.1731 48.7251C48.1604 48.5835 48.1198 48.4459 48.0537 48.32C47.9877 48.1942 47.8974 48.0826 47.7882 47.9917C47.6789 47.9008 47.5527 47.8324 47.417 47.7904C45.5407 47.2022 43.6362 47.4444 42.2169 47.8234C41.0099 47.1499 40.0965 46.1092 39.537 45.3411C40.9938 44.834 42.7406 44.5817 44.2671 45.061C44.4024 45.1035 44.5448 45.1189 44.686 45.1063C44.8273 45.0938 44.9647 45.0535 45.0904 44.9879C45.2161 44.9222 45.3276 44.8325 45.4186 44.7237C45.5097 44.615 45.5784 44.4894 45.6208 44.354C45.6633 44.2187 45.6787 44.0764 45.6661 43.9351C45.6536 43.7939 45.6133 43.6565 45.5477 43.5308C45.482 43.4051 45.3923 43.2936 45.2835 43.2025C45.1748 43.1115 45.0491 43.0428 44.9138 43.0004C43.036 42.411 41.1288 42.654 39.7088 43.0337C38.5054 42.3602 37.5946 41.3221 37.0361 40.5559C38.1726 40.1604 40.0259 39.7295 41.7667 40.2762C44.5012 41.1325 46.1132 44.1754 46.129 44.2062C46.1459 44.239 46.1645 44.2709 46.1847 44.3017C47.1277 45.8175 47.181 46.9744 48.2364 46.9744C48.4219 46.9738 48.6042 46.9256 48.7657 46.8342C48.9271 46.7429 49.0624 46.6115 49.1584 46.4528C49.2544 46.294 49.308 46.1133 49.314 45.9279C49.32 45.7424 49.2781 45.5586 49.1925 45.394C48.8564 44.5485 46.1987 40.9261 47.3107 37.3786C47.8829 35.5518 49.4308 34.2268 50.4049 33.543C50.554 34.3326 50.7843 35.1047 51.0922 35.8469C50.8405 35.8877 50.6113 36.0164 50.4454 36.2101C50.2795 36.4038 50.1876 36.6501 50.186 36.9051C50.2201 38.3977 50.5281 39.8713 51.0947 41.2525C50.8426 41.293 50.6129 41.4215 50.4466 41.6152C50.2802 41.8089 50.1879 42.0553 50.186 42.3106C50.2201 43.7987 50.5266 45.268 51.0904 46.6456C50.839 46.687 50.6103 46.8159 50.4448 47.0096C50.2793 47.2033 50.1876 47.4493 50.186 47.7041C50.1852 47.8556 50.1912 50.9377 51.8598 53.4988C49.6852 52.0847 47.2825 51.9156 44.7057 52.6056C43.5081 51.9331 42.6007 50.8997 42.0433 50.1353ZM44.5393 54.9122C46.0376 54.3906 47.7559 54.1563 49.2693 54.6314C50.9991 55.1738 52.2794 56.5915 52.991 57.5668C49.4629 58.7933 46.769 57.9695 44.5393 54.9122ZM52.4525 48.8971C56.1716 49.4544 58.1541 51.4338 58.7124 55.1569C54.9931 54.599 53.0106 52.6196 52.4525 48.8965V48.8971ZM58.8248 63.8235C55.6198 57.7265 55.5286 57.3067 54.5166 55.9988C56.0784 56.8967 57.7615 57.229 58.8248 57.3513V63.8235ZM58.8248 33.6955C57.9845 32.6743 56.9046 31.8767 55.6814 31.3738C55.4709 30.9261 54.4161 30.3535 54.4347 27.6545C55.1479 27.6479 56.1853 27.7236 57.0481 28.1347C57.4456 29.3045 58.0471 30.3946 58.8248 31.3547V33.6955ZM59.9047 29.1535C58.4715 26.8684 58.4696 24.8055 59.9047 22.5166C61.3378 24.8017 61.34 26.8642 59.9047 29.1532V29.1535ZM60.9846 31.3549C61.7634 30.3937 62.3655 29.3018 62.7629 28.1302C63.6236 27.7223 64.655 27.647 65.3681 27.652C65.3944 30.3813 64.3557 30.8795 64.1237 31.3738C62.9027 31.8746 61.8244 32.6692 60.9846 33.6871V31.3549ZM61.0913 55.1566C61.6485 51.4378 63.628 49.4546 67.3511 48.8968C66.7939 52.6152 64.8144 54.5986 61.0913 55.1563V55.1566ZM66.1352 46.9257C64.1851 47.3618 62.3741 48.2436 61.0927 49.7553C61.6415 46.107 63.5611 44.0715 67.3518 43.5036C67.2117 44.4392 66.8858 45.7749 66.1352 46.9254V46.9257ZM66.1262 41.5351C64.2054 41.966 62.3835 42.8375 61.0913 44.3637C61.6407 40.6812 63.5858 38.6619 67.3523 38.0977C67.2111 39.0373 66.8833 40.3805 66.1262 41.5354V41.5351ZM66.129 36.1307C64.1838 36.5659 62.375 37.4436 61.0917 38.9579C61.6488 35.2394 63.6294 33.256 67.3518 32.6984C67.2113 33.6367 66.8841 34.9776 66.129 36.1305V36.1307Z" fill="#9B9B9B"/>
</svg>
