<svg width="80" height="82" viewBox="0 0 80 82" fill="none" xmlns="http://www.w3.org/2000/svg">
<path d="M74.7094 53.123V51.5138C74.7095 51.2299 74.6628 50.948 74.5713 50.68L72.3908 41.8143H74.7094C74.9983 41.8143 75.2753 41.6966 75.4796 41.4871C75.6839 41.2776 75.7986 40.9934 75.7986 40.6971C75.7986 40.4008 75.6839 40.1167 75.4796 39.9072C75.2753 39.6977 74.9983 39.58 74.7094 39.58H55.821C55.6843 39.5742 55.548 39.5976 55.4206 39.6486C55.2931 39.6996 55.1774 39.7772 55.0807 39.8763C54.984 39.9755 54.9083 40.0942 54.8585 40.2249C54.8088 40.3555 54.7859 40.4954 54.7915 40.6355V63.0409H29.657C28.669 62.5417 27.5824 62.282 26.481 62.282C25.3797 62.282 24.293 62.5417 23.3051 63.0409H16.4913C15.5031 62.5417 14.4162 62.282 13.3146 62.282C12.213 62.282 11.1261 62.5417 10.1379 63.0409H3.44241C2.98363 63.0521 2.54736 63.2471 2.22709 63.5842C1.90682 63.9214 1.72802 64.3737 1.72901 64.8444V69.2305C1.72869 69.6997 1.9081 70.1503 2.22858 70.4852C2.54906 70.8201 2.98497 71.0124 3.44241 71.0208H6.21224C6.48746 72.5391 7.20696 73.9353 8.27499 75.0237C9.1078 75.8545 10.1238 76.467 11.2367 76.809C12.3496 77.151 13.5265 77.2126 14.6675 76.9884C15.8086 76.7642 16.88 76.2609 17.7909 75.5213C18.7018 74.7817 19.4252 73.8275 19.8997 72.7399C20.3754 73.8263 21.0993 74.7792 22.0101 75.5179C22.921 76.2565 23.992 76.7592 25.1324 76.9833C26.2728 77.2073 27.4491 77.1463 28.5616 76.8052C29.6742 76.4641 30.6902 75.8531 31.5237 75.0239C32.5916 73.9354 33.311 72.5391 33.5861 71.0208H59.2624C59.5374 72.5388 60.2567 73.9349 61.3246 75.0233C62.6742 76.3694 64.4824 77.1228 66.365 77.1236C68.2476 77.1243 70.0563 76.3724 71.407 75.0274C72.4753 73.9377 73.1946 72.5402 73.4693 71.0208H77.5086C77.801 71.0132 78.079 70.8885 78.2829 70.6733C78.4868 70.4582 78.6004 70.1697 78.5996 69.8697V59.7481C78.5982 58.3857 78.2354 57.0494 77.5501 55.8823C76.8648 54.7153 75.8828 53.7614 74.7094 53.123ZM6.17007 68.7865H3.90753V65.2753H7.52449C6.79437 66.3925 6.32957 67.5097 6.17007 68.7865ZM18.3446 69.8424C18.3132 71.1899 17.7689 72.4713 16.8282 73.4125C15.8874 74.3538 14.6249 74.88 13.3107 74.8787C11.9964 74.8774 10.7349 74.3487 9.79592 73.4056C8.85692 72.4626 8.31504 71.1801 8.28619 69.8325C8.2851 69.7961 8.28526 69.7586 8.28526 69.7222C8.28437 68.421 8.76383 67.1677 9.62723 66.2144L9.64792 66.1932C9.65523 66.1858 9.66224 66.1781 9.66939 66.1703C10.0315 65.777 10.4522 65.4451 10.9158 65.187C11.6523 64.7783 12.4765 64.5642 13.3139 64.5642C14.1513 64.5642 14.9755 64.7783 15.712 65.187L15.7166 65.1896C16.1796 65.4472 16.5997 65.7784 16.9615 66.171C16.9687 66.1788 16.9758 66.1869 16.9831 66.194L17.0042 66.2155C17.8679 67.1685 18.3474 68.4218 18.346 69.723C18.3458 69.7586 18.346 69.7961 18.3446 69.8424ZM19.9006 66.664C19.6767 66.178 19.4111 65.7133 19.107 65.2755H20.6927C20.3897 65.7137 20.1246 66.1782 19.9005 66.6638L19.9006 66.664ZM31.4502 69.7222V69.8548C31.4502 72.6272 29.1575 74.8807 26.4513 74.8807C25.1395 74.8716 23.8827 74.3391 22.947 73.3962C22.0112 72.4533 21.47 71.1738 21.4379 69.8288C21.4365 69.7937 21.4444 69.7575 21.4444 69.7222C21.4449 68.7936 21.6897 67.8823 22.1529 67.0844C22.6161 66.2865 23.2806 65.6316 24.0764 65.1886C24.0778 65.1886 24.0814 65.187 24.0825 65.1862C24.818 64.7748 25.6429 64.5607 26.4807 64.5638C27.3175 64.5638 28.1411 64.7778 28.8771 65.1862L28.8821 65.189C29.6197 65.6007 30.2437 66.1973 30.6959 66.9231C31.1481 67.6489 31.4138 68.4803 31.4683 69.3398C31.4767 69.4584 31.4502 69.5835 31.4502 69.7222ZM54.7915 68.7865H33.6287C33.4675 67.5097 32.9988 66.3925 32.281 65.2753H54.7915V68.7865ZM64.5948 41.8143H70.144L72.4703 51.2728C72.4795 51.3044 72.4903 51.3354 72.5027 51.3658C72.5213 51.4128 72.5308 51.463 72.5308 51.5138V52.3582C72.1208 52.2651 71.7038 52.2082 71.2843 52.1882H66.6577C65.5423 52.1882 64.5948 51.3163 64.5948 50.1722V41.8143ZM56.97 41.8143H62.4163V50.1722C62.4163 52.1831 63.8168 53.8771 65.6841 54.3497V57.2954H56.97V41.8143ZM71.3949 69.8433C71.364 71.1907 70.8202 72.4722 69.8798 73.4137C68.9394 74.3551 67.6772 74.8817 66.3631 74.8809C65.0491 74.8801 63.7875 74.3518 62.8483 73.4092C61.909 72.4666 61.3668 71.1844 61.3375 69.8369C61.3365 69.7988 61.3375 69.7597 61.3375 69.722C61.3375 68.3867 61.8424 67.1034 62.746 66.142C63.6496 65.1806 64.8815 64.6161 66.1826 64.5671C67.4837 64.5181 68.7526 64.9886 69.7225 65.8794C70.6924 66.7703 71.2876 68.0122 71.3831 69.3439C71.3921 69.4656 71.3966 69.5928 71.3966 69.722C71.3949 69.7608 71.3949 69.8012 71.3949 69.8433ZM76.4211 68.7865H73.5112C73.2824 67.0092 72.4316 65.3778 71.1172 64.196C69.8029 63.0142 68.1145 62.3627 66.3667 62.3627C64.6188 62.3627 62.9304 63.0142 61.6161 64.196C60.3017 65.3778 59.4509 67.0092 59.2221 68.7865H56.97V64.2271C56.97 64.2199 56.9711 64.2129 56.9711 64.2055C56.9711 64.1982 56.97 64.1912 56.97 64.1838V59.5298H66.7162C67.3178 59.5298 67.8626 59.1075 67.8626 58.4903V54.4226H71.2843C74.1163 54.4226 76.4211 56.844 76.4211 59.7481V68.7865Z" fill="#9B9B9B"/>
<path d="M11.0655 40.8203C10.7766 40.8203 10.4995 40.938 10.2952 41.1475C10.091 41.357 9.9762 41.6412 9.9762 41.9375V54.7904C9.9762 55.0867 10.091 55.3709 10.2952 55.5804C10.4995 55.7899 10.7766 55.9076 11.0655 55.9076C11.3543 55.9076 11.6314 55.7899 11.8357 55.5804C12.04 55.3709 12.1547 55.0867 12.1547 54.7904V41.9375C12.1547 41.6412 12.04 41.357 11.8357 41.1475C11.6314 40.938 11.3543 40.8203 11.0655 40.8203Z" fill="#9B9B9B"/>
<path d="M19.4683 40.8203C19.1794 40.8203 18.9023 40.938 18.6981 41.1475C18.4938 41.357 18.379 41.6412 18.379 41.9375V54.7904C18.379 55.0867 18.4938 55.3709 18.6981 55.5804C18.9023 55.7899 19.1794 55.9076 19.4683 55.9076C19.7572 55.9076 20.0342 55.7899 20.2385 55.5804C20.4428 55.3709 20.5575 55.0867 20.5575 54.7904V41.9375C20.5575 41.6412 20.4428 41.357 20.2385 41.1475C20.0342 40.938 19.7572 40.8203 19.4683 40.8203Z" fill="#9B9B9B"/>
<path d="M27.7156 40.8203C27.4267 40.8203 27.1497 40.938 26.9454 41.1475C26.7411 41.357 26.6263 41.6412 26.6263 41.9375V54.7904C26.6263 55.0867 26.7411 55.3709 26.9454 55.5804C27.1497 55.7899 27.4267 55.9076 27.7156 55.9076C28.0045 55.9076 28.2815 55.7899 28.4858 55.5804C28.6901 55.3709 28.8049 55.0867 28.8049 54.7904V41.9375C28.8049 41.6412 28.6901 41.357 28.4858 41.1475C28.2815 40.938 28.0045 40.8203 27.7156 40.8203Z" fill="#9B9B9B"/>
<path d="M35.9628 40.8203C35.6739 40.8203 35.3968 40.938 35.1926 41.1475C34.9883 41.357 34.8735 41.6412 34.8735 41.9375V54.7904C34.8735 55.0867 34.9883 55.3709 35.1926 55.5804C35.3968 55.7899 35.6739 55.9076 35.9628 55.9076C36.2517 55.9076 36.5287 55.7899 36.733 55.5804C36.9373 55.3709 37.0521 55.0867 37.0521 54.7904V41.9375C37.0521 41.6412 36.9373 41.357 36.733 41.1475C36.5287 40.938 36.2517 40.8203 35.9628 40.8203Z" fill="#9B9B9B"/>
<path d="M44.3656 40.8203C44.0767 40.8203 43.7997 40.938 43.5954 41.1475C43.3911 41.357 43.2764 41.6412 43.2764 41.9375V54.7904C43.2764 55.0867 43.3911 55.3709 43.5954 55.5804C43.7997 55.7899 44.0767 55.9076 44.3656 55.9076C44.6545 55.9076 44.9316 55.7899 45.1358 55.5804C45.3401 55.3709 45.4549 55.0867 45.4549 54.7904V41.9375C45.4549 41.6412 45.3401 41.357 45.1358 41.1475C44.9316 40.938 44.6545 40.8203 44.3656 40.8203Z" fill="#9B9B9B"/>
<path d="M4.37427 60.9664H51.0568C51.6584 60.9664 52.1461 60.3883 52.1461 59.7713V36.9548C52.1461 36.9183 52.1461 36.8817 52.1461 36.8455V36.8418C52.1433 36.8091 52.1375 36.7767 52.1288 36.7451C52.1146 36.6713 52.0932 36.5992 52.065 36.5298C52.0643 36.5288 52.0638 36.5278 52.0633 36.5268C52.0527 36.5011 52.0401 36.4762 52.028 36.4514C52.0242 36.4439 52.0208 36.4355 52.0171 36.4284C52.0073 36.4101 51.9964 36.3927 51.9859 36.375C51.9779 36.3616 51.9704 36.3477 51.9617 36.3346C51.953 36.3215 51.9461 36.3127 51.9383 36.3027C51.9253 36.284 51.9123 36.2653 51.898 36.2475C51.8943 36.2427 51.8899 36.2384 51.8862 36.2337C51.8174 36.1506 51.737 36.0784 51.6476 36.0194C51.6235 36.0034 51.5988 35.9875 51.5731 35.9733C51.5712 35.9722 51.5689 35.9714 51.5669 35.9702C51.5365 35.9536 51.5054 35.9385 51.4735 35.9249L51.4939 35.9241L29.116 26.4542V25.1761C30.6721 24.595 31.9594 22.9773 31.9594 21.0764C31.9537 20.1206 31.6418 19.1933 31.0718 18.4372C30.5018 17.6811 29.7052 17.1381 28.8048 16.8918V13.2465H29.282C29.5244 13.2478 29.7601 13.1659 29.9517 13.0137C30.1432 12.8615 30.2795 12.6478 30.3388 12.4068L31.9053 5.98345C31.9453 5.82145 31.9483 5.65215 31.9139 5.48879C31.8795 5.32543 31.8087 5.17245 31.7071 5.04182C31.6044 4.91009 31.4736 4.80429 31.3247 4.73257C31.1759 4.66085 31.013 4.62512 30.8486 4.62814H24.5825C24.418 4.6248 24.2549 4.66047 24.1061 4.73238C23.9572 4.80428 23.8265 4.91048 23.7243 5.04269C23.622 5.1749 23.5509 5.32955 23.5164 5.49459C23.482 5.65963 23.4852 5.83059 23.5258 5.99415L25.0923 12.41C25.1516 12.6507 25.288 12.864 25.4796 13.0157C25.6712 13.1673 25.907 13.2486 26.149 13.2465H26.6263V17.863C26.6263 18.0097 26.6545 18.155 26.7092 18.2905C26.7639 18.4261 26.8442 18.5492 26.9453 18.653C27.0465 18.7567 27.1665 18.839 27.2987 18.8952C27.4309 18.9513 27.5725 18.9802 27.7155 18.9802C28.1198 18.9802 28.5149 19.1031 28.851 19.3335C29.1871 19.5638 29.449 19.8912 29.6037 20.2742C29.7584 20.6572 29.7989 21.0787 29.72 21.4853C29.6412 21.8919 29.4465 22.2654 29.1607 22.5586C28.8749 22.8517 28.5107 23.0514 28.1143 23.1322C27.7178 23.2131 27.3069 23.1716 26.9334 23.013C26.56 22.8543 26.2408 22.5856 26.0162 22.2409C25.7916 21.8962 25.6718 21.4909 25.6718 21.0764C25.6718 20.7801 25.557 20.4959 25.3527 20.2864C25.1485 20.0769 24.8714 19.9592 24.5825 19.9592C24.4406 19.9596 24.3002 19.989 24.1695 20.0456C24.0387 20.1021 23.9203 20.1848 23.8209 20.2887C23.7216 20.3927 23.6434 20.5159 23.5909 20.6511C23.5384 20.7863 23.5126 20.9308 23.515 21.0764C23.5048 22.0848 23.8428 23.0645 24.4692 23.8419C25.0955 24.6193 25.9699 25.1444 26.9375 25.3241V26.4478L3.98899 35.92C3.98743 35.92 3.97498 35.9216 3.97342 35.9224C3.94822 35.9329 3.91849 35.9449 3.89438 35.9573C3.88566 35.9618 3.87384 35.9656 3.86543 35.9704C3.84551 35.9812 3.82513 35.9935 3.80599 36.0055C3.79401 36.0132 3.78078 36.02 3.76911 36.028C3.75744 36.036 3.74577 36.0456 3.73425 36.0542C3.71651 36.0673 3.69862 36.08 3.68213 36.0941C3.68057 36.0952 3.67932 36.0966 3.67777 36.0979C3.49758 36.2502 3.37063 36.4586 3.31613 36.6915C3.31349 36.7028 3.31007 36.714 3.30758 36.7255C3.30462 36.7414 3.3026 36.7574 3.30026 36.7725C3.29668 36.7939 3.29295 36.8152 3.29061 36.8364C3.28953 36.8468 3.28937 36.8574 3.28844 36.8683C3.28641 36.8954 3.2847 36.9227 3.28455 36.9502C3.28455 36.9521 3.28455 36.9538 3.28455 36.9558V59.7713C3.28501 60.3883 3.77269 60.9664 4.37427 60.9664ZM26.9997 11.0121L25.9779 6.86252H29.4538L28.4313 11.0121H26.9997ZM27.9788 28.4788L45.5556 35.9094H9.99345L27.9788 28.4788ZM5.46353 38.1438H49.9675V58.732H5.46353V38.1438Z" fill="#9B9B9B"/>
</svg>
