<svg width="121" height="121" viewBox="0 0 121 121" fill="none" xmlns="http://www.w3.org/2000/svg">
<circle cx="60.5" cy="60.5" r="60.5" fill="#353535"/>
<g clip-path="url(#clip0_313_11377)">
<path d="M70.5558 38.8057C66.7656 39.6216 63.2122 42.9739 60.6316 42.9739C58.0511 42.9739 54.4971 39.6216 50.7074 38.8057C42.6678 37.7539 31.2559 43.3709 31.2559 60.6393C31.2559 77.9072 43.7601 91.9997 49.1197 91.9997C55.0741 91.9997 55.868 89.2207 60.6316 89.2207C65.3953 89.2207 66.1891 91.9997 72.1435 91.9997C77.5031 91.9997 90.0074 77.9072 90.0074 60.6393C90.0074 43.3709 78.5954 37.7539 70.5558 38.8057Z" fill="url(#paint0_radial_313_11377)"/>
<path d="M74.6509 38.8395C73.2396 38.6405 71.8535 38.6352 70.5558 38.8053C66.7661 39.6212 63.2122 42.9735 60.6316 42.9735C60.5663 42.9735 60.4995 42.9698 60.4326 42.9656V47.1681L63.9486 47.8235L88.1475 52.3355L74.6509 38.8395Z" fill="url(#paint1_linear_313_11377)"/>
<path d="M70.5556 38.8057C66.7653 39.6216 63.2119 42.9739 60.6314 42.9739C60.4993 42.9739 60.364 42.9629 60.2266 42.946C60.7962 44.3079 61.3837 45.2707 61.5932 45.5971C61.5884 45.6182 61.5826 45.6392 61.5774 45.6608L61.7701 45.7777L88.1804 72.176C89.3122 68.602 90.0071 64.7086 90.0071 60.6393C90.0071 43.3709 78.5952 37.7539 70.5556 38.8057Z" fill="url(#paint2_linear_313_11377)"/>
<path d="M61.6741 45.7197C61.6741 45.7197 49.552 28.0285 76.3109 23.0359C77.4275 22.8279 78.5061 23.5449 78.7599 24.652C79.9801 29.9752 81.4552 44.4952 61.6741 45.7197Z" fill="url(#paint3_linear_313_11377)"/>
<path d="M78.7596 24.6515C78.619 24.0377 78.2242 23.5444 77.7104 23.2617C68.8448 32.929 61.6738 45.7191 61.6738 45.7191C81.4549 44.4947 79.9798 29.9747 78.7596 24.6515Z" fill="url(#paint4_linear_313_11377)"/>
<path d="M74.3425 31.2094C74.1356 31.2831 73.9229 31.3421 73.7134 31.4026C73.5044 31.4642 73.2965 31.5253 73.0859 31.5748C72.8764 31.629 72.6579 31.6527 72.4431 31.6806C72.2283 31.7069 72.0267 31.7664 71.8319 31.8569C71.6393 31.9501 71.4503 32.0517 71.2608 32.1786C71.4182 31.9264 71.5756 31.6748 71.7324 31.4221L72.5158 30.1987C72.7753 29.7886 73.0569 29.3985 73.3228 28.9926C73.8676 28.1919 74.4388 27.4175 75.0653 26.679L74.9126 26.5137L74.353 26.9959L74.0714 27.2391C73.9798 27.3223 73.895 27.4102 73.8066 27.4955C73.4628 27.845 73.0985 28.1846 72.7737 28.5504C72.0988 29.2669 71.464 30.0139 70.8233 30.7588C70.7038 30.9051 70.5843 31.052 70.4648 31.1984C70.4653 31.041 70.4537 30.8846 70.4174 30.7283C70.369 30.5177 70.3158 30.304 70.2942 30.0892C70.2679 29.8739 70.2532 29.658 70.2384 29.4406C70.2226 29.2232 70.2042 29.0032 70.2021 28.7836C70.1763 28.3409 70.1926 27.8982 70.1958 27.4412L70.0747 27.4112C69.8778 27.8255 69.711 28.2583 69.582 28.7041C69.5146 28.9268 69.463 29.1527 69.4088 29.3806C69.3667 29.6091 69.324 29.8391 69.294 30.0707C69.2619 30.3024 69.2156 30.5361 69.1803 30.772C69.1498 31.0078 69.1593 31.2442 69.2182 31.4747C69.2303 31.52 69.2435 31.5653 69.2572 31.6106C69.4072 32.1007 69.2988 32.6339 68.9834 33.0377L68.9776 33.0456C68.428 33.7489 67.8958 34.4622 67.3589 35.1739C67.3541 34.9528 67.331 34.7444 67.2983 34.538C67.2615 34.3264 67.1952 34.1269 67.0946 33.9353C66.9951 33.7436 66.8898 33.5504 66.8156 33.3472C66.7361 33.1456 66.6682 32.9403 66.5992 32.7334C66.5297 32.5265 66.4571 32.3186 66.3997 32.1064C66.2639 31.6848 66.1686 31.2515 66.0581 30.8088L65.9328 30.8099C65.8459 31.2599 65.7927 31.7206 65.7791 32.1849C65.7701 32.417 65.777 32.6487 65.7812 32.8829C65.7975 33.1146 65.8138 33.3483 65.8428 33.5799C65.8696 33.8126 65.8833 34.05 65.908 34.2874C65.9375 34.5228 66.006 34.7496 66.1207 34.9586C66.1728 35.0497 66.2286 35.1403 66.2892 35.2287C66.5861 35.6577 66.5524 36.2347 66.2334 36.6474C65.9591 37.0017 65.6833 37.3555 65.4116 37.7113C65.0668 38.162 64.7457 38.6284 64.4435 39.1064C64.4356 38.9158 64.4146 38.7342 64.3861 38.5541C64.3498 38.342 64.2835 38.143 64.1829 37.9509C64.0829 37.7592 63.9781 37.566 63.9034 37.3628C63.8239 37.1617 63.756 36.9559 63.687 36.749C63.6175 36.5427 63.5449 36.3342 63.4875 36.1226C63.3517 35.7004 63.2564 35.2671 63.1459 34.8244L63.0206 34.8254C62.9337 35.2755 62.8805 35.7367 62.8674 36.2005C62.8579 36.4326 62.8648 36.6648 62.8695 36.8985C62.8853 37.1302 62.9016 37.3639 62.9306 37.596C62.9574 37.8282 62.9711 38.0656 62.9958 38.303C63.0258 38.5389 63.0938 38.7658 63.209 38.9742C63.3254 39.1801 63.4612 39.3801 63.6328 39.5596C63.8292 39.7655 63.8797 40.0687 63.7492 40.3214C63.4112 40.9757 62.8095 42.1633 62.5331 42.8172C62.1551 43.73 61.8087 44.6623 61.5776 45.662L61.7703 45.7783C62.551 45.1171 63.2327 44.3975 63.8823 43.6594C64.5293 42.9198 65.1379 42.1581 65.7138 41.3758C65.7243 41.3621 65.7343 41.3484 65.7443 41.3342C65.9307 41.082 66.2602 41.0026 66.5503 41.121C66.764 41.2084 66.9835 41.2616 67.202 41.2974C67.4373 41.3326 67.6737 41.3184 67.9053 41.2647C68.1364 41.2058 68.3638 41.1363 68.5912 41.081C68.8187 41.0278 69.0434 40.9625 69.2666 40.8973C69.4877 40.8209 69.7078 40.7467 69.9221 40.6577C70.3527 40.4846 70.767 40.275 71.1592 40.0376L71.117 39.9202C70.6633 39.9697 70.2242 40.0297 69.781 40.0487C69.5625 40.0681 69.3419 40.0718 69.124 40.0787C68.906 40.0855 68.6897 40.0929 68.4733 40.0882C68.257 40.0882 68.039 40.0566 67.8248 40.0292C67.61 40.0013 67.3999 40.0081 67.1888 40.0471C66.9604 40.0929 66.7324 40.1518 66.4971 40.2387C66.7719 39.8107 67.0325 39.3733 67.2789 38.9269C67.4726 38.5684 67.7395 38.0883 67.9753 37.6671C68.2259 37.2191 68.735 36.9685 69.2377 37.0728C69.4835 37.1238 69.7346 37.138 69.9615 37.1749C70.1974 37.2107 70.4337 37.1965 70.6648 37.1423C70.8965 37.0833 71.1239 37.0143 71.3513 36.9591C71.5787 36.9059 71.8035 36.8401 72.0262 36.7753C72.2473 36.6985 72.4673 36.6248 72.6821 36.5353C73.1127 36.3621 73.5265 36.1531 73.9192 35.9157L73.8766 35.7978C73.4228 35.8472 72.9838 35.9078 72.541 35.9267C72.322 35.9462 72.1015 35.9499 71.8835 35.9562C71.6661 35.9631 71.4492 35.9704 71.2329 35.9657C71.0165 35.9662 70.7991 35.9341 70.5843 35.9073C70.37 35.8794 70.16 35.8862 69.9484 35.9246C69.5457 36.0052 69.1456 36.1241 68.7007 36.3795C69.2008 35.5514 69.6952 34.717 70.2079 33.8974L70.2269 33.8652C70.5274 33.3593 71.0797 33.0393 71.6666 33.074C71.8325 33.084 71.9967 33.0782 72.1578 33.0635C72.3947 33.0388 72.62 32.9661 72.8306 32.8561C73.0396 32.7408 73.2428 32.6171 73.4486 32.5065C73.656 32.3981 73.8571 32.2786 74.0566 32.1596C74.2514 32.0301 74.4462 31.9038 74.6315 31.7637C75.0052 31.4879 75.3537 31.1815 75.6738 30.8541L75.6038 30.7504C75.1763 30.912 74.7662 31.0804 74.3425 31.2094Z" fill="url(#paint5_linear_313_11377)"/>
<path d="M62.0813 47.3487C61.5633 47.3924 61.0295 47.4161 60.4862 47.4161C60.1025 47.4161 59.7266 47.405 59.356 47.3813C59.3102 44.7487 59.0217 41.518 58.1531 38.2873C57.6367 36.3632 56.9139 34.437 55.9126 32.6361C54.2191 29.5928 52.5056 28.3315 52.4877 28.3188C51.8807 27.8793 51.7391 27.0307 52.1729 26.42C52.6093 25.8115 53.4505 25.6641 54.0628 26.0947C54.3118 26.2694 58.7869 29.5254 60.9421 38.1472C61.587 40.7183 62.0234 43.7637 62.0813 47.3487Z" fill="url(#paint6_linear_313_11377)"/>
<path d="M34.0444 74.8848C38.0463 85.029 45.35 92.0005 49.1198 92.0005C55.0742 92.0005 55.868 89.2215 60.6317 89.2215C65.3953 89.2215 66.1892 92.0005 72.1436 92.0005C75.9134 92.0005 83.217 85.029 87.2189 74.8848H34.0444Z" fill="url(#paint7_linear_313_11377)"/>
<path d="M71.164 44.1055C70.7718 44.3976 70.3691 44.6451 69.9559 44.8635C69.5347 45.0715 69.1125 45.2605 68.6777 45.4194C67.8122 45.7432 66.9189 45.9748 66.0192 46.158C64.2178 46.5212 62.38 46.6744 60.5417 46.676C58.7071 46.6692 56.8636 46.5197 55.0637 46.157C54.162 45.978 53.2739 45.7358 52.4068 45.4157C51.9683 45.2631 51.5514 45.0662 51.1276 44.8619C50.9244 44.7493 50.7112 44.643 50.5164 44.5103C50.3059 44.3934 50.1232 44.2439 49.9189 44.1055C50.1916 44.5761 50.5501 44.9983 50.955 45.3763L68.4371 62.8579C68.8472 63.3038 69.3278 63.6944 69.8327 64.0313C70.6644 64.5872 71.5757 65.0184 72.5148 65.3495C74.4005 66.0091 76.3878 66.3002 78.3729 66.3039C80.3539 66.3007 82.348 66.0054 84.2305 65.3458C85.1681 65.0094 86.0819 64.5898 86.9126 64.0313C87.7375 63.4754 88.5046 62.7863 88.9952 61.9372L71.164 44.1055Z" fill="url(#paint8_linear_313_11377)"/>
<path d="M71.164 44.1055C70.6729 44.9551 69.9064 45.6437 69.0815 46.2001C68.2502 46.7581 67.3364 47.1777 66.3988 47.5141C64.5163 48.1742 62.5227 48.4696 60.5417 48.4722C58.5566 48.4685 56.5688 48.1774 54.6831 47.5178C53.744 47.1872 52.8327 46.7555 52.001 46.2001C51.174 45.6484 50.4101 44.9535 49.9189 44.1055C50.1232 44.2439 50.3059 44.3934 50.5164 44.5103C50.7112 44.643 50.9244 44.7493 51.1276 44.8619C51.5514 45.0662 51.9683 45.2631 52.4068 45.4157C53.2739 45.7358 54.162 45.978 55.0637 46.157C56.8636 46.5197 58.7071 46.6692 60.5417 46.676C62.38 46.6744 64.2178 46.5212 66.0192 46.158C66.9189 45.9748 67.8122 45.7432 68.6777 45.4194C69.1125 45.2605 69.5347 45.0715 69.9559 44.8635C70.3691 44.6451 70.7718 44.3976 71.164 44.1055Z" fill="url(#paint9_linear_313_11377)"/>
<path d="M65.8023 58.5851C65.8023 48.663 58.696 40.6191 49.93 40.6191C41.1639 40.6191 34.0576 48.663 34.0576 58.5851C34.0576 68.5077 41.1639 76.551 49.93 76.551C58.696 76.551 65.8023 68.5077 65.8023 58.5851Z" fill="url(#paint10_linear_313_11377)"/>
</g>
<defs>
<radialGradient id="paint0_radial_313_11377" cx="0" cy="0" r="1" gradientUnits="userSpaceOnUse" gradientTransform="translate(37.6169 40.2515) scale(60.8036 60.8036)">
<stop stop-color="#FF4B3E"/>
<stop offset="0.4462" stop-color="#FD4A3D"/>
<stop offset="0.6069" stop-color="#F64939"/>
<stop offset="0.7215" stop-color="#EB4533"/>
<stop offset="0.8141" stop-color="#DA412A"/>
<stop offset="0.8935" stop-color="#C43A1F"/>
<stop offset="0.9625" stop-color="#A93311"/>
<stop offset="1" stop-color="#972E07"/>
</radialGradient>
<linearGradient id="paint1_linear_313_11377" x1="73.5757" y1="47.2691" x2="70.244" y2="35.6899" gradientUnits="userSpaceOnUse">
<stop stop-color="#FF1D25" stop-opacity="0"/>
<stop offset="1" stop-color="#FF1D25"/>
</linearGradient>
<linearGradient id="paint2_linear_313_11377" x1="76.7483" y1="50.8918" x2="65.2892" y2="30.8076" gradientUnits="userSpaceOnUse">
<stop stop-color="#972E07" stop-opacity="0"/>
<stop offset="1" stop-color="#582707"/>
</linearGradient>
<linearGradient id="paint3_linear_313_11377" x1="67.7523" y1="33.0027" x2="81.1301" y2="43.1628" gradientUnits="userSpaceOnUse">
<stop stop-color="#ACC130"/>
<stop offset="1" stop-color="#97A03B"/>
</linearGradient>
<linearGradient id="paint4_linear_313_11377" x1="75.5988" y1="37.7753" x2="63.9901" y2="31.3196" gradientUnits="userSpaceOnUse">
<stop stop-color="#97A03B" stop-opacity="0"/>
<stop offset="1" stop-color="#575C55"/>
</linearGradient>
<linearGradient id="paint5_linear_313_11377" x1="65.6865" y1="33.9705" x2="68.9363" y2="36.6599" gradientUnits="userSpaceOnUse">
<stop stop-color="#97A03B"/>
<stop offset="1" stop-color="#6C7D47"/>
</linearGradient>
<linearGradient id="paint6_linear_313_11377" x1="51.9214" y1="36.6319" x2="62.0814" y2="36.6319" gradientUnits="userSpaceOnUse">
<stop stop-color="#C08552"/>
<stop offset="1" stop-color="#895738"/>
</linearGradient>
<linearGradient id="paint7_linear_313_11377" x1="60.6317" y1="82.1646" x2="60.6317" y2="105.239" gradientUnits="userSpaceOnUse">
<stop stop-color="#972E07" stop-opacity="0"/>
<stop offset="1" stop-color="#582707"/>
</linearGradient>
<linearGradient id="paint8_linear_313_11377" x1="71.8388" y1="58.1701" x2="60.3107" y2="33.249" gradientUnits="userSpaceOnUse">
<stop stop-color="#972E07" stop-opacity="0"/>
<stop offset="1" stop-color="#582707"/>
</linearGradient>
<linearGradient id="paint9_linear_313_11377" x1="60.5414" y1="42.7879" x2="60.5414" y2="49.1792" gradientUnits="userSpaceOnUse">
<stop stop-color="#972E07" stop-opacity="0"/>
<stop offset="1" stop-color="#582707"/>
</linearGradient>
<linearGradient id="paint10_linear_313_11377" x1="47.5721" y1="56.9959" x2="16.3612" y2="35.9588" gradientUnits="userSpaceOnUse">
<stop offset="0.0013" stop-color="#E7EEED" stop-opacity="0"/>
<stop offset="0.7731" stop-color="#F9FBFA" stop-opacity="0.772549"/>
<stop offset="1" stop-color="white"/>
</linearGradient>
<clipPath id="clip0_313_11377">
<rect width="69" height="69" fill="white" transform="translate(26 23)"/>
</clipPath>
</defs>
</svg>
