<svg width="120" height="121" viewBox="0 0 120 121" fill="none" xmlns="http://www.w3.org/2000/svg">
<ellipse cx="60" cy="60.5" rx="60" ry="60.5" fill="#353535"/>
<g clip-path="url(#clip0_313_11378)">
<path d="M92.9751 93.0377C92.7893 91.4396 92.3323 89.4335 91.7883 87.6489C91.3684 86.2719 91.2261 84.824 91.3974 83.3946C92.6441 72.9875 92.1667 62.5494 89.9632 52.166H33.0368C30.8361 62.5366 30.3572 72.9614 31.5981 83.3556C31.769 84.7873 31.6257 86.2374 31.2038 87.6162C30.6533 89.4156 30.1906 91.445 30.005 93.0558C29.8784 94.1544 30.7859 95.0984 31.8867 94.9926C33.7103 94.8174 36.0705 94.2847 38.0379 93.6695C41.5076 92.5847 45.1236 92.0442 48.7589 92.0442H74.2234C77.8587 92.0442 81.4748 92.5847 84.9444 93.6695C86.905 94.2824 89.2553 94.8136 91.0762 94.9907C92.1863 95.0985 93.1039 94.1456 92.9751 93.0377Z" fill="url(#paint0_linear_313_11378)"/>
<path d="M92.0555 73.8945H30.9447C31.0047 77.0495 31.2218 80.2038 31.5981 83.3554C31.769 84.7871 31.6257 86.2371 31.2038 87.6158C30.6533 89.4152 30.1906 91.4446 30.005 93.0554C29.8784 94.154 30.7859 95.098 31.8867 94.9922C33.7103 94.817 36.0705 94.2843 38.0379 93.6691C41.5076 92.5843 45.1236 92.044 48.7589 92.0438H74.2234C77.8587 92.0438 81.4748 92.5843 84.9444 93.6691C86.905 94.282 89.2553 94.8132 91.0762 94.9903C92.1863 95.0982 93.104 94.1454 92.9752 93.0374C92.7895 91.4393 92.3324 89.4332 91.7884 87.6487C91.3686 86.2716 91.2263 84.8237 91.3974 83.3943C91.7765 80.2298 91.9953 77.0624 92.0555 73.8945Z" fill="url(#paint1_linear_313_11378)"/>
<path d="M77.5677 81.2667H45.4321C42.6263 81.2667 40.3516 78.992 40.3516 76.1861V60.7603C40.3516 57.9544 42.6263 55.6797 45.4321 55.6797H77.5677C80.3736 55.6797 82.6483 57.9544 82.6483 60.7603V76.1861C82.6483 78.992 80.3737 81.2667 77.5677 81.2667Z" fill="url(#paint2_linear_313_11378)"/>
<path d="M92.9752 93.0377C92.7894 91.4396 92.3324 89.4335 91.7884 87.6489C91.3686 86.2719 91.2263 84.824 91.3974 83.3946C92.6441 72.9875 92.1667 62.5494 89.9631 52.166H33.0369C32.6388 54.0427 32.2977 55.9211 32.0122 57.8007L66.2556 92.0441H74.2236C77.8588 92.0441 81.4749 92.5846 84.9445 93.6694C86.9051 94.2823 89.2554 94.8134 91.0763 94.9905C92.1864 95.0985 93.104 94.1456 92.9752 93.0377Z" fill="url(#paint3_linear_313_11378)"/>
<path d="M91.7885 87.6489C91.3687 86.2719 91.2264 84.824 91.3975 83.3946C92.6442 72.9875 92.1668 62.5494 89.9633 52.166H61.2295V92.0441H74.2234C77.8586 92.0441 81.4748 92.5846 84.9444 93.6694C86.9049 94.2823 89.2553 94.8134 91.0762 94.9905C92.1863 95.0985 93.104 94.1456 92.9752 93.0377C92.7894 91.4396 92.3325 89.4335 91.7885 87.6489Z" fill="url(#paint4_linear_313_11378)"/>
<path d="M57.634 58.4031C56.028 57.4797 53.452 56.8679 51.0439 57.3693C49.7405 57.6407 48.5555 58.272 47.6112 59.1725C47.3654 59.407 47.2684 59.7579 47.3569 60.0859C47.5401 60.7652 47.7369 61.4065 47.8461 61.7529C47.8998 61.9235 47.9581 62.0922 48.0279 62.257C48.9336 64.3931 50.7763 66.4971 52.4323 67.4493C55.2394 69.0635 59.3052 67.9769 60.4094 65.3386C61.4108 62.9453 60.441 60.0172 57.634 58.4031Z" fill="url(#paint5_linear_313_11378)"/>
<path d="M60.0625 65.9786C59.1186 64.4507 56.8017 61.0723 54.1875 60.011C51.784 59.0353 48.8634 59.3823 47.3419 59.6737C47.317 59.8084 47.3199 59.9487 47.3568 60.0853C47.54 60.7646 47.7368 61.4059 47.846 61.7523C47.8997 61.9229 47.958 62.0916 48.0278 62.2564C48.9334 64.3925 50.7761 66.4965 52.4322 67.4487C54.9994 68.925 58.6181 68.1415 60.0625 65.9786Z" fill="url(#paint6_linear_313_11378)"/>
<path d="M57.6339 58.4023C57.0776 58.0825 56.4033 57.8016 55.6615 57.5898L49.085 64.1664C50.0393 65.5662 51.2805 66.7862 52.4324 67.4485C55.2395 69.0627 59.3052 67.9761 60.4095 65.3377C61.4108 62.9445 60.441 60.0163 57.6339 58.4023Z" fill="url(#paint7_linear_313_11378)"/>
<path d="M60.7113 65.5922C60.1335 64.6302 59.4341 63.7319 58.6196 62.9187L57.2166 61.5144C55.6916 59.9893 53.7217 59.0737 51.5985 58.8871C51.2543 58.8568 50.9565 59.1243 50.9565 59.4698C50.9565 59.7691 51.1821 60.0245 51.48 60.0513C53.3548 60.2196 55.1151 61.0676 56.4563 62.4075L57.8322 63.7834C59.6654 65.6329 60.645 68.1642 60.5787 70.7673L60.3798 73.7204V73.7501C60.3798 74.3752 60.8858 74.8852 61.5149 74.8852C62.144 74.8852 62.4565 74.3765 62.4565 73.7488V72.6533C62.4565 70.1272 61.9763 67.7041 60.7113 65.5922Z" fill="url(#paint8_linear_313_11378)"/>
<path d="M65.3658 56.1512C66.9717 55.2278 69.5477 54.616 71.9558 55.1174C73.2592 55.3888 74.4443 56.0201 75.3885 56.9206C75.6343 57.155 75.7313 57.506 75.6428 57.8339C75.4597 58.5133 75.2628 59.1545 75.1536 59.5009C75.0999 59.6715 75.0416 59.8404 74.9718 60.005C74.0661 62.1412 72.2234 64.2451 70.5674 65.1973C67.7603 66.8115 63.6945 65.725 62.5903 63.0866C61.5889 60.6935 62.5587 57.7652 65.3658 56.1512Z" fill="url(#paint9_linear_313_11378)"/>
<path d="M62.937 63.7266C63.881 62.1987 66.1979 58.8203 68.812 57.7591C71.2155 56.7833 74.1361 57.1304 75.6576 57.4218C75.6825 57.5564 75.6797 57.6967 75.6428 57.8333C75.4596 58.5127 75.2627 59.154 75.1535 59.5003C75.0998 59.6709 75.0415 59.8396 74.9717 60.0044C74.0662 62.1407 72.2235 64.2445 70.5673 65.1967C68.0001 66.6731 64.3814 65.8896 62.937 63.7266Z" fill="url(#paint10_linear_313_11378)"/>
<path d="M65.3658 56.1503C65.9222 55.8305 66.5965 55.5496 67.3383 55.3379L73.9148 61.9144C72.9604 63.3143 71.7192 64.5342 70.5673 65.1965C67.7603 66.8107 63.6945 65.7241 62.5903 63.0858C61.5889 60.6927 62.5587 57.7644 65.3658 56.1503Z" fill="url(#paint11_linear_313_11378)"/>
<path d="M60.3467 70.4012V73.8836C60.3467 74.5114 60.8554 75.0201 61.4845 75.0201C62.1136 75.0201 62.6196 74.5101 62.6196 73.885V73.8552L62.4207 68.5152C62.3544 65.9121 63.334 63.3808 65.1672 61.5313L66.5432 60.1554C67.8842 58.8155 69.6446 57.9676 71.5194 57.7992C71.8175 57.7724 72.0429 57.517 72.0429 57.2178C72.0429 56.8723 71.7451 56.605 71.4009 56.6351C69.2777 56.8217 67.3078 57.7374 65.7828 59.2624L64.3798 60.6668C63.5653 61.4799 62.8659 62.3782 62.2881 63.3402C61.0231 65.4521 60.3467 67.8752 60.3467 70.4012Z" fill="url(#paint12_linear_313_11378)"/>
<path d="M74.2219 75.4491C75.663 75.4491 76.202 73.5681 74.9842 72.7978C72.1322 70.9936 67.1588 69.7988 61.4998 69.7988C55.8409 69.7988 50.8675 70.9936 48.0155 72.7978C46.7977 73.5681 47.3367 75.4491 48.7777 75.4491H74.2219Z" fill="url(#paint13_linear_313_11378)"/>
<path d="M48.0155 72.7977C46.7977 73.5681 47.3367 75.4491 48.7777 75.4491H74.2219C75.663 75.4491 76.202 73.5681 74.9842 72.7977C74.3613 72.4037 73.6372 72.0388 72.8271 71.709H50.1727C49.3624 72.0388 48.6384 72.4037 48.0155 72.7977Z" fill="url(#paint14_linear_313_11378)"/>
<path d="M69.044 78.4134C69.044 77.9197 68.6438 77.5195 68.1501 77.5195H58.9618C58.4681 77.5195 58.0679 77.9197 58.0679 78.4134C58.0679 78.9071 58.4681 79.3073 58.9618 79.3073H68.1501C68.6438 79.3073 69.044 78.9071 69.044 78.4134Z" fill="white"/>
<path d="M54.8495 79.3073H55.8625C56.3562 79.3073 56.7564 78.9071 56.7564 78.4134C56.7564 77.9197 56.3562 77.5195 55.8625 77.5195H54.8495C54.3558 77.5195 53.9556 77.9197 53.9556 78.4134C53.9556 78.9071 54.3558 79.3073 54.8495 79.3073Z" fill="white"/>
<path d="M75.3885 56.9206C74.4441 56.0201 73.2592 55.3888 71.9558 55.1174C69.5478 54.616 66.9717 55.2278 65.3657 56.1512C62.6135 57.7338 61.6288 60.5793 62.5354 62.9455C62.4508 63.076 62.3682 63.2076 62.2882 63.3404C61.7587 64.2246 61.3337 65.1638 61.017 66.1415C60.9201 65.9565 60.8197 65.7727 60.7115 65.5921C60.6317 65.4591 60.5489 65.3276 60.4643 65.1972C61.3709 62.831 60.3862 59.9854 57.634 58.4029C56.028 57.4795 53.452 56.8677 51.0439 57.3691C49.7405 57.6405 48.5555 58.2718 47.6112 59.1723C47.3654 59.4067 47.2684 59.7577 47.3569 60.0856C47.5401 60.765 47.7369 61.4062 47.8461 61.7526C47.8998 61.9232 47.9581 62.0921 48.0279 62.2567C48.9336 64.3929 50.7763 66.4968 52.4323 67.449C54.7995 68.8102 58.0618 68.2509 59.6883 66.4598C60.0384 67.2152 60.2909 68.015 60.4358 68.8392C60.3779 69.3544 60.3469 69.8755 60.3469 70.4016V73.884C60.3469 74.5118 60.8556 75.0205 61.4847 75.0205C62.1138 75.0205 62.6198 74.5104 62.6198 73.8854V73.8556L62.4209 68.5156C62.3828 67.0169 62.6931 65.5429 63.3116 64.2082C64.9381 65.9992 68.2003 66.5587 70.5675 65.1975C72.2235 64.2453 74.0662 62.1413 74.9719 60.0051C75.0417 59.8405 75.1 59.6716 75.1537 59.501C75.2628 59.1547 75.4598 58.5134 75.643 57.8341C75.7313 57.506 75.6343 57.155 75.3885 56.9206Z" fill="url(#paint15_linear_313_11378)"/>
<path d="M40.6545 50.8998C45.332 50.8998 49.1239 47.1079 49.1239 42.4303C49.1239 37.7528 45.332 33.9609 40.6545 33.9609C35.9769 33.9609 32.1851 37.7528 32.1851 42.4303C32.1851 47.1079 35.9769 50.8998 40.6545 50.8998Z" fill="url(#paint16_linear_313_11378)"/>
<path d="M80.1222 50.8998C84.7998 50.8998 88.5917 47.1079 88.5917 42.4303C88.5917 37.7528 84.7998 33.9609 80.1222 33.9609C75.4447 33.9609 71.6528 37.7528 71.6528 42.4303C71.6528 47.1079 75.4447 50.8998 80.1222 50.8998Z" fill="url(#paint17_linear_313_11378)"/>
<path d="M68.1801 50.9003C73.8399 50.9003 78.4281 46.3121 78.4281 40.6523C78.4281 34.9925 73.8399 30.4043 68.1801 30.4043C62.5203 30.4043 57.9321 34.9925 57.9321 40.6523C57.9321 46.3121 62.5203 50.9003 68.1801 50.9003Z" fill="url(#paint18_linear_313_11378)"/>
<path d="M54.1211 49.8837C60.7164 49.8837 66.0629 44.5372 66.0629 37.9419C66.0629 31.3466 60.7164 26 54.1211 26C47.5258 26 42.1792 31.3466 42.1792 37.9419C42.1792 44.5372 47.5258 49.8837 54.1211 49.8837Z" fill="url(#paint19_linear_313_11378)"/>
<path d="M95.5964 46.5464C95.5964 43.8446 93.4062 41.6543 90.7043 41.6543H32.2954C29.5936 41.6543 27.4033 43.8446 27.4033 46.5464C27.4033 47.0031 27.4661 47.4452 27.5833 47.8643C27.9242 49.0834 27.9242 50.3839 27.5833 51.603C27.466 52.0223 27.4033 52.4642 27.4033 52.9209C27.4033 55.6227 29.5936 57.813 32.2954 57.813H90.7043C93.4062 57.813 95.5964 55.6227 95.5964 52.9209C95.5964 52.4642 95.5337 52.0222 95.4165 51.603C95.0756 50.3839 95.0756 49.0834 95.4165 47.8643C95.5337 47.4452 95.5964 47.0031 95.5964 46.5464Z" fill="url(#paint20_linear_313_11378)"/>
<path d="M27.4033 46.5474C27.4033 47.0041 27.4661 47.4461 27.5833 47.8653C27.9242 49.0844 27.9242 50.3849 27.5833 51.604C27.466 52.0233 27.4033 52.4651 27.4033 52.9219C27.4033 55.6237 29.5936 57.814 32.2954 57.814H90.7043C93.4062 57.814 95.5964 55.6237 95.5964 52.9219C95.5964 52.4651 95.5337 52.0231 95.4165 51.604C95.0756 50.3849 95.0756 49.0844 95.4165 47.8653C95.5338 47.446 95.5964 47.0041 95.5964 46.5474C95.5964 46.4627 95.5943 46.3785 95.5901 46.2949H27.4097C27.4055 46.3785 27.4033 46.4627 27.4033 46.5474Z" fill="url(#paint21_linear_313_11378)"/>
<path d="M27.5833 51.6041C27.466 52.0234 27.4033 52.4653 27.4033 52.922C27.4033 55.6238 29.5936 57.8141 32.2954 57.8141H90.7043C93.4062 57.8141 95.5964 55.6238 95.5964 52.922C95.5964 52.4653 95.5337 52.0233 95.4165 51.6041C95.3884 51.5036 95.3635 51.4024 95.3399 51.3008H27.6598C27.6363 51.4023 27.6114 51.5036 27.5833 51.6041Z" fill="url(#paint22_linear_313_11378)"/>
<path d="M27.5833 51.6041C27.466 52.0234 27.4033 52.4653 27.4033 52.922C27.4033 55.6238 29.5936 57.8141 32.2954 57.8141H90.7043C93.4062 57.8141 95.5964 55.6238 95.5964 52.922C95.5964 52.4653 95.5337 52.0233 95.4165 51.6041C95.3884 51.5036 95.3635 51.4024 95.3399 51.3008H27.6598C27.6363 51.4023 27.6114 51.5036 27.5833 51.6041Z" fill="url(#paint23_linear_313_11378)"/>
<path d="M95.5965 46.5464C95.5965 43.8446 93.4063 41.6543 90.7044 41.6543H79.6294V57.8131H90.7044C93.4063 57.8131 95.5965 55.6229 95.5965 52.921C95.5965 52.4643 95.5338 52.0223 95.4166 51.6031C95.0757 50.384 95.0757 49.0836 95.4166 47.8644C95.5339 47.4452 95.5965 47.0031 95.5965 46.5464Z" fill="url(#paint24_linear_313_11378)"/>
</g>
<defs>
<linearGradient id="paint0_linear_313_11378" x1="51.7625" y1="58.7143" x2="70.9742" y2="91.9966" gradientUnits="userSpaceOnUse">
<stop stop-color="#FEC165"/>
<stop offset="1" stop-color="#F46700"/>
</linearGradient>
<linearGradient id="paint1_linear_313_11378" x1="61.4902" y1="84.9886" x2="61.4902" y2="94.5533" gradientUnits="userSpaceOnUse">
<stop stop-color="#FE7701" stop-opacity="0"/>
<stop offset="1" stop-color="#6D3326"/>
</linearGradient>
<linearGradient id="paint2_linear_313_11378" x1="55.9065" y1="60.6208" x2="69.9771" y2="80.3737" gradientUnits="userSpaceOnUse">
<stop stop-color="#FFDFCF"/>
<stop offset="1" stop-color="#FFA78F"/>
</linearGradient>
<linearGradient id="paint3_linear_313_11378" x1="62.4998" y1="70.5574" x2="62.4998" y2="56.4865" gradientUnits="userSpaceOnUse">
<stop stop-color="#FEA613" stop-opacity="0"/>
<stop offset="0.26" stop-color="#F9911E" stop-opacity="0.26"/>
<stop offset="0.7954" stop-color="#EE5A39" stop-opacity="0.795"/>
<stop offset="1" stop-color="#E94444"/>
</linearGradient>
<linearGradient id="paint4_linear_313_11378" x1="79.6295" y1="73.5825" x2="94.106" y2="73.5825" gradientUnits="userSpaceOnUse">
<stop stop-color="#FE7701" stop-opacity="0"/>
<stop offset="1" stop-color="#6D3326"/>
</linearGradient>
<linearGradient id="paint5_linear_313_11378" x1="51.7422" y1="56.1225" x2="56.8383" y2="67.9381" gradientUnits="userSpaceOnUse">
<stop stop-color="#A2E62E"/>
<stop offset="0.1231" stop-color="#97DE30"/>
<stop offset="0.3395" stop-color="#79CB36"/>
<stop offset="0.6234" stop-color="#4AAB3F"/>
<stop offset="0.9609" stop-color="#09804C"/>
<stop offset="1" stop-color="#017B4E"/>
</linearGradient>
<linearGradient id="paint6_linear_313_11378" x1="51.6276" y1="64.9003" x2="55.957" y2="60.7062" gradientUnits="userSpaceOnUse">
<stop stop-color="#017B4E" stop-opacity="0"/>
<stop offset="0.4829" stop-color="#01754A" stop-opacity="0.483"/>
<stop offset="1" stop-color="#026841"/>
</linearGradient>
<linearGradient id="paint7_linear_313_11378" x1="54.4022" y1="62.2012" x2="57.4463" y2="66.5983" gradientUnits="userSpaceOnUse">
<stop stop-color="#017B4E" stop-opacity="0"/>
<stop offset="0.4829" stop-color="#01754A" stop-opacity="0.483"/>
<stop offset="1" stop-color="#026841"/>
</linearGradient>
<linearGradient id="paint8_linear_313_11378" x1="59.195" y1="61.0279" x2="57.0641" y2="65.8985" gradientUnits="userSpaceOnUse">
<stop stop-color="#A2E62E"/>
<stop offset="0.1231" stop-color="#97DE30"/>
<stop offset="0.3395" stop-color="#79CB36"/>
<stop offset="0.6234" stop-color="#4AAB3F"/>
<stop offset="0.9609" stop-color="#09804C"/>
<stop offset="1" stop-color="#017B4E"/>
</linearGradient>
<linearGradient id="paint9_linear_313_11378" x1="71.2576" y1="53.8705" x2="66.1614" y2="65.6861" gradientUnits="userSpaceOnUse">
<stop stop-color="#A2E62E"/>
<stop offset="0.1231" stop-color="#97DE30"/>
<stop offset="0.3395" stop-color="#79CB36"/>
<stop offset="0.6234" stop-color="#4AAB3F"/>
<stop offset="0.9609" stop-color="#09804C"/>
<stop offset="1" stop-color="#017B4E"/>
</linearGradient>
<linearGradient id="paint10_linear_313_11378" x1="71.3719" y1="62.6483" x2="67.0425" y2="58.4542" gradientUnits="userSpaceOnUse">
<stop stop-color="#017B4E" stop-opacity="0"/>
<stop offset="0.4829" stop-color="#01754A" stop-opacity="0.483"/>
<stop offset="1" stop-color="#026841"/>
</linearGradient>
<linearGradient id="paint11_linear_313_11378" x1="68.5976" y1="59.9493" x2="65.5535" y2="64.3463" gradientUnits="userSpaceOnUse">
<stop stop-color="#017B4E" stop-opacity="0"/>
<stop offset="0.4829" stop-color="#01754A" stop-opacity="0.483"/>
<stop offset="1" stop-color="#026841"/>
</linearGradient>
<linearGradient id="paint12_linear_313_11378" x1="61.7851" y1="59.7468" x2="65.7988" y2="65.1133" gradientUnits="userSpaceOnUse">
<stop stop-color="#A2E62E"/>
<stop offset="0.1231" stop-color="#97DE30"/>
<stop offset="0.3395" stop-color="#79CB36"/>
<stop offset="0.6234" stop-color="#4AAB3F"/>
<stop offset="0.9609" stop-color="#09804C"/>
<stop offset="1" stop-color="#017B4E"/>
</linearGradient>
<linearGradient id="paint13_linear_313_11378" x1="60.1741" y1="70.9291" x2="63.2531" y2="78.0768" gradientUnits="userSpaceOnUse">
<stop stop-color="#C5715A"/>
<stop offset="1" stop-color="#883F2E"/>
</linearGradient>
<linearGradient id="paint14_linear_313_11378" x1="61.4998" y1="73.1896" x2="61.4998" y2="74.9298" gradientUnits="userSpaceOnUse">
<stop stop-color="#883F2E" stop-opacity="0"/>
<stop offset="1" stop-color="#6D3326"/>
</linearGradient>
<linearGradient id="paint15_linear_313_11378" x1="61.4999" y1="62.5286" x2="61.4999" y2="57.026" gradientUnits="userSpaceOnUse">
<stop stop-color="#017B4E" stop-opacity="0"/>
<stop offset="1" stop-color="#026841"/>
</linearGradient>
<linearGradient id="paint16_linear_313_11378" x1="37.8115" y1="35.3906" x2="40.6527" y2="42.4259" gradientUnits="userSpaceOnUse">
<stop stop-color="#C5715A"/>
<stop offset="1" stop-color="#883F2E"/>
</linearGradient>
<linearGradient id="paint17_linear_313_11378" x1="80.1222" y1="33.0293" x2="80.1222" y2="38.1138" gradientUnits="userSpaceOnUse">
<stop stop-color="#C5715A"/>
<stop offset="1" stop-color="#883F2E"/>
</linearGradient>
<linearGradient id="paint18_linear_313_11378" x1="66.1867" y1="30.286" x2="67.4571" y2="36.8922" gradientUnits="userSpaceOnUse">
<stop stop-color="#C5715A"/>
<stop offset="1" stop-color="#883F2E"/>
</linearGradient>
<linearGradient id="paint19_linear_313_11378" x1="51.281" y1="31.5251" x2="55.8545" y2="41.8578" gradientUnits="userSpaceOnUse">
<stop stop-color="#C5715A"/>
<stop offset="1" stop-color="#883F2E"/>
</linearGradient>
<linearGradient id="paint20_linear_313_11378" x1="60.4194" y1="42.5302" x2="63.3959" y2="62.3734" gradientUnits="userSpaceOnUse">
<stop stop-color="#FEC165"/>
<stop offset="1" stop-color="#F46700"/>
</linearGradient>
<linearGradient id="paint21_linear_313_11378" x1="61.2922" y1="50.8408" x2="64.7196" y2="35.1467" gradientUnits="userSpaceOnUse">
<stop stop-color="#FEA613" stop-opacity="0"/>
<stop offset="0.26" stop-color="#F9911E" stop-opacity="0.26"/>
<stop offset="0.7954" stop-color="#EE5A39" stop-opacity="0.795"/>
<stop offset="1" stop-color="#E94444"/>
</linearGradient>
<linearGradient id="paint22_linear_313_11378" x1="62.0439" y1="56.0596" x2="59.338" y2="40.4556" gradientUnits="userSpaceOnUse">
<stop stop-color="#FEA613" stop-opacity="0"/>
<stop offset="0.26" stop-color="#F9911E" stop-opacity="0.26"/>
<stop offset="0.7954" stop-color="#EE5A39" stop-opacity="0.795"/>
<stop offset="1" stop-color="#E94444"/>
</linearGradient>
<linearGradient id="paint23_linear_313_11378" x1="61.4999" y1="53.0596" x2="61.4999" y2="59.4642" gradientUnits="userSpaceOnUse">
<stop stop-color="#FEA613" stop-opacity="0"/>
<stop offset="0.26" stop-color="#F9911E" stop-opacity="0.26"/>
<stop offset="0.7954" stop-color="#EE5A39" stop-opacity="0.795"/>
<stop offset="1" stop-color="#E94444"/>
</linearGradient>
<linearGradient id="paint24_linear_313_11378" x1="88.0176" y1="49.7338" x2="96.1353" y2="49.7338" gradientUnits="userSpaceOnUse">
<stop stop-color="#FE7701" stop-opacity="0"/>
<stop offset="1" stop-color="#6D3326"/>
</linearGradient>
<clipPath id="clip0_313_11378">
<rect width="69" height="69" fill="white" transform="translate(27 26)"/>
</clipPath>
</defs>
</svg>
