<svg width="96" height="96" viewBox="0 0 96 96" fill="none" xmlns="http://www.w3.org/2000/svg">
<path d="M60 50C60 51.104 60.8961 52.0001 62.0001 52.0001C63.1041 52.0001 64.0001 51.104 64.0001 50V34.0001C64.0001 33.74 63.9482 33.4801 63.8481 33.236C63.6441 32.7479 63.2561 32.3561 62.7641 32.1521C62.5202 32.0521 62.2601 32 62.0001 32H46.0001C44.8961 32 44.0001 32.8961 44.0001 34.0001C44.0001 35.1041 44.8959 35.9999 45.9999 35.9999H57.1719L37.1721 56H2.00006C0.896062 56 0 56.8959 0 57.9999V93.9999C0 95.1039 0.896062 95.9999 2.00006 95.9999H38.0001C39.1041 95.9999 40.0001 95.1039 40.0001 93.9999V58.8279L60 38.828V50ZM36 75.9999H29.556C28.452 75.9999 27.5559 76.8959 27.5559 77.9999C27.5559 79.1039 28.452 80 29.556 80H36V92H3.99994V59.9999H15.9999V66.4439C15.9999 67.5479 16.896 68.444 18 68.444C19.104 68.444 20.0001 67.5479 20.0001 66.4439V59.9999H36V75.9999Z" fill="white"/>
<path d="M93.9999 72C92.8959 72 91.9999 72.8961 91.9999 74.0001V76.0001H90C88.896 76.0001 87.9999 76.8962 87.9999 78.0002C87.9999 79.1042 88.896 80.0002 90 80.0002H93.9999C95.1039 80.0002 96 79.1042 96 78.0002V74.0002C96 72.8961 95.1039 72 93.9999 72Z" fill="white"/>
<path d="M67.3359 76H59.7759C58.6719 76 57.7759 76.8961 57.7759 78.0001C57.7759 79.1041 58.6719 80.0001 59.7759 80.0001H67.3359C68.4399 80.0001 69.336 79.1041 69.336 78.0001C69.336 76.8961 68.4399 76 67.3359 76Z" fill="white"/>
<path d="M52.224 76H44.6679C43.5639 76 42.6678 76.8961 42.6678 78.0001C42.6678 79.1041 43.5639 80.0001 44.6679 80.0001H52.224C53.328 80.0001 54.224 79.1041 54.224 78.0001C54.224 76.8961 53.328 76 52.224 76Z" fill="white"/>
<path d="M82.4439 76H74.8879C73.7839 76 72.8878 76.8961 72.8878 78.0001C72.8878 79.1041 73.7839 80.0001 74.8879 80.0001H82.4439C83.5479 80.0001 84.444 79.1041 84.444 78.0001C84.444 76.8961 83.5521 76 82.4439 76Z" fill="white"/>
<path d="M20.0001 74.0001C20.0001 72.8961 19.104 72 18 72C16.896 72 15.9999 72.8961 15.9999 74.0001V78C15.9999 79.104 16.896 80.0001 18 80.0001H21.9999C23.1039 80.0001 24 79.104 24 78C24 76.896 23.1039 75.9999 21.9999 75.9999H19.9999V74.0001H20.0001Z" fill="white"/>
<path d="M18 53.3316C19.104 53.3316 20.0001 52.4316 20.0001 51.3315V43.7755C20.0001 42.6715 19.104 41.7754 18 41.7754C16.896 41.7754 15.9999 42.6715 15.9999 43.7794V51.3313C15.9999 52.4357 16.896 53.3316 18 53.3316Z" fill="white"/>
<path d="M18 23.1117C19.104 23.1117 20.0001 22.2156 20.0001 21.1116V13.5557C20.0001 12.4517 19.104 11.5557 18 11.5557C16.896 11.5557 15.9999 12.4517 15.9999 13.5557V21.1118C15.9999 22.2156 16.896 23.1117 18 23.1117Z" fill="white"/>
<path d="M18 38.2242C19.104 38.2242 20.0001 37.3281 20.0001 36.2241V28.668C20.0001 27.564 19.104 26.668 18 26.668C16.896 26.668 15.9999 27.564 15.9999 28.668V36.2241C15.9999 37.3283 16.896 38.2242 18 38.2242Z" fill="white"/>
<path d="M18 8.00006C19.104 8.00006 20.0001 7.104 20.0001 6V3.99994H22.0001C23.1041 3.99994 24.0002 3.10388 24.0002 1.99988C24.0002 0.895875 23.1039 0 21.9999 0H18C16.896 0 15.9999 0.896063 15.9999 2.00006V6C15.9999 7.104 16.896 8.00006 18 8.00006Z" fill="white"/>
<path d="M82.4439 0H74.8839C73.7799 0 72.8839 0.896062 72.8839 2.00006C72.8839 3.10406 73.7799 4.00012 74.8839 4.00012H82.4439C83.5479 4.00012 84.444 3.10406 84.444 2.00006C84.444 0.896062 83.552 0 82.4439 0Z" fill="white"/>
<path d="M59.7759 3.99994H67.332C68.436 3.99994 69.3321 3.10388 69.3321 1.99988C69.3321 0.895875 68.436 0 67.332 0H59.7759C58.6719 0 57.7759 0.896062 57.7759 2.00006C57.7759 3.10406 58.6719 3.99994 59.7759 3.99994Z" fill="white"/>
<path d="M44.664 3.99994H52.224C53.328 3.99994 54.2241 3.10388 54.2241 1.99988C54.2241 0.895875 53.328 0 52.224 0H44.664C43.56 0 42.6639 0.896062 42.6639 2.00006C42.6639 3.10406 43.56 3.99994 44.664 3.99994Z" fill="white"/>
<path d="M29.556 3.99994H37.1079C38.2119 3.99994 39.108 3.10388 39.108 1.99988C39.108 0.895875 38.216 0 37.1079 0H29.556C28.452 0 27.5559 0.896062 27.5559 2.00006C27.5559 3.10406 28.448 3.99994 29.556 3.99994Z" fill="white"/>
<path d="M93.9999 0H90C88.896 0 87.9999 0.896063 87.9999 2.00006C87.9999 3.10406 88.896 3.99994 90 3.99994H92.0001V6C92.0001 7.104 92.8961 8.00006 94.0001 8.00006C95.1039 8.00006 96 7.104 96 6V2.00006C96 0.896063 95.1039 0 93.9999 0Z" fill="white"/>
<path d="M93.9999 11.5557C92.8959 11.5557 91.9999 12.4517 91.9999 13.5557V21.1118C91.9999 22.2158 92.8959 23.1119 93.9999 23.1119C95.1039 23.1119 96 22.2158 96 21.1118V13.5557C96 12.4476 95.1039 11.5557 93.9999 11.5557Z" fill="white"/>
<path d="M93.9999 41.7764C92.8959 41.7764 91.9999 42.6724 91.9999 43.7764V51.3325C91.9999 52.4365 92.8959 53.3326 93.9999 53.3326C95.1039 53.3326 96 52.4365 96 51.3325V43.7764C96 42.6724 95.1039 41.7764 93.9999 41.7764Z" fill="white"/>
<path d="M93.9999 56.8877C92.8959 56.8877 91.9999 57.7838 91.9999 58.8878V66.4478C91.9999 67.5518 92.8959 68.4478 93.9999 68.4478C95.1039 68.4478 96 67.5518 96 66.4478V58.8878C96 57.7796 95.1039 56.8877 93.9999 56.8877Z" fill="white"/>
<path d="M93.9999 26.668C92.8959 26.668 91.9999 27.564 91.9999 28.668V36.2241C91.9999 37.3281 92.8959 38.2242 93.9999 38.2242C95.1039 38.2242 96 37.3281 96 36.2241V28.668C96 27.5601 95.1039 26.668 93.9999 26.668Z" fill="white"/>
</svg>
