<svg width="36" height="36" viewBox="0 0 36 36" fill="none" xmlns="http://www.w3.org/2000/svg">
<path d="M24.0016 18.3316C23.3964 15.2859 26.2873 13.4996 26.2873 13.4996C26.2873 13.4996 25.1609 11.8701 23.268 11.4509C21.376 11.0307 20.429 11.5556 19.4839 11.9493C18.5379 12.344 18.0659 12.344 18.0659 12.344C16.7007 12.344 15.7027 10.8986 13.1017 11.5566C11.3098 12.0088 9.4234 14.0774 9.08258 16.5463C8.74175 19.0161 9.47724 22.1676 10.8953 24.61C12.3134 27.0544 13.7579 27.973 14.7832 27.9994C15.8085 28.0249 16.8319 27.2649 18.0659 27.0799C19.3008 26.8967 20.0608 27.5274 21.2721 27.8682C22.4787 28.2081 22.9017 27.8928 24.2914 26.7107C25.6849 25.5287 26.9463 22.1383 26.9463 22.1383C26.9463 22.1383 24.6067 21.3792 24.0016 18.3316Z" fill="white"/>
<path d="M21.3219 9.48095C22.6626 8.11485 22.2085 6 22.2085 6C22.2085 6 20.3259 6.33045 19.0645 7.64276C17.8041 8.95604 18.0128 11.0303 18.0128 11.0303C18.0128 11.0303 19.9813 10.8462 21.3219 9.48095Z" fill="white"/>
<circle cx="18" cy="18" r="17.5" stroke="#5A5A5A"/>
</svg>
