<svg width="138" height="41" viewBox="0 0 138 41" fill="none" xmlns="http://www.w3.org/2000/svg">
<path fill-rule="evenodd" clip-rule="evenodd" d="M4.83409 40.0956H133.09C135.276 40.0956 137.1 38.3005 137.1 36.1487V4.84415C137.1 2.69319 135.278 0.904412 133.09 0.904412H4.83409C2.66374 0.904412 0.9 2.67497 0.9 4.84415V36.1487C0.9 38.3187 2.6656 40.0956 4.83409 40.0956ZM4.83409 41H133.09C135.754 41 138 38.8188 138 36.1487V4.84415C138 2.173 135.754 0 133.09 0H4.83409C2.16916 0 0 2.173 0 4.84415V36.1487C0 38.8188 2.16916 41 4.83409 41Z" fill="#A6A6A6"/>
<path d="M30.7975 20.2786C30.7679 16.975 33.4952 15.3678 33.6199 15.293C32.0753 13.0349 29.6812 12.7264 28.84 12.7018C26.8292 12.4896 24.8788 13.9082 23.8546 13.9082C22.8099 13.9082 21.2326 12.7223 19.5326 12.7572C17.3451 12.791 15.2986 14.061 14.1762 16.0331C11.8598 20.0541 13.5874 25.9633 15.8066 29.2135C16.9168 30.8054 18.214 32.5827 19.9119 32.5202C21.573 32.4515 22.1935 31.4583 24.198 31.4583C26.1842 31.4583 26.7669 32.5202 28.4985 32.4802C30.2813 32.4515 31.4037 30.8812 32.475 29.275C33.7579 27.4505 34.2731 25.6537 34.2935 25.5615C34.2516 25.5471 30.8312 24.2382 30.7975 20.2786Z" fill="#171717"/>
<path d="M27.5264 10.5635C28.4198 9.44321 29.0311 7.91904 28.8614 6.37231C27.5683 6.42971 25.9511 7.26919 25.0199 8.36491C24.196 9.33046 23.46 10.9131 23.6501 12.4014C25.1027 12.51 26.5941 11.6664 27.5264 10.5635Z" fill="#171717"/>
<path d="M54.8372 32.2916H52.5157L51.2441 28.2849H46.824L45.6127 32.2916H43.3525L47.7317 18.6509H50.4365L54.8372 32.2916ZM50.8608 26.6039L49.7108 23.042C49.5891 22.6781 49.3612 21.8212 49.0248 20.4723H48.984C48.85 21.0525 48.6344 21.9094 48.3379 23.042L47.2084 26.6039H50.8608Z" fill="#171717"/>
<path d="M66.0989 27.2526C66.0989 28.9254 65.6481 30.2476 64.7465 31.2183C63.939 32.0824 62.9362 32.5139 61.7392 32.5139C60.4471 32.5139 59.5189 32.0486 58.9536 31.1179H58.9127V36.2992H56.7333V25.6936C56.7333 24.6419 56.7057 23.5626 56.6526 22.4556H58.5693L58.6909 24.0146H58.7318C59.4586 22.84 60.5616 22.2537 62.0417 22.2537C63.1989 22.2537 64.1649 22.7118 64.9377 23.6292C65.7125 24.5476 66.0989 25.7551 66.0989 27.2526ZM63.8787 27.3325C63.8787 26.3752 63.664 25.5859 63.2326 24.9648C62.7614 24.317 62.1286 23.9931 61.3354 23.9931C60.7977 23.9931 60.3091 24.1735 59.8726 24.5292C59.4351 24.8879 59.1489 25.3563 59.0149 25.9365C58.9475 26.2071 58.9137 26.4285 58.9137 26.6027V28.2427C58.9137 28.9582 59.1325 29.5619 59.57 30.0549C60.0075 30.548 60.5759 30.794 61.2751 30.794C62.0959 30.794 62.7348 30.4762 63.1917 29.8428C63.6497 29.2083 63.8787 28.3719 63.8787 27.3325Z" fill="#171717"/>
<path d="M77.3814 27.2526C77.3814 28.9254 76.9306 30.2476 76.0279 31.2183C75.2214 32.0824 74.2186 32.5139 73.0216 32.5139C71.7295 32.5139 70.8013 32.0486 70.2371 31.1179H70.1962V36.2992H68.0168V25.6936C68.0168 24.6419 67.9892 23.5626 67.936 22.4556H69.8527L69.9743 24.0146H70.0152C70.741 22.84 71.844 22.2537 73.3252 22.2537C74.4813 22.2537 75.4473 22.7118 76.2222 23.6292C76.9939 24.5476 77.3814 25.7551 77.3814 27.2526ZM75.1611 27.3325C75.1611 26.3752 74.9454 25.5859 74.514 24.9648C74.0428 24.317 73.4121 23.9931 72.6178 23.9931C72.0791 23.9931 71.5915 24.1735 71.154 24.5292C70.7165 24.8879 70.4313 25.3563 70.2974 25.9365C70.2309 26.2071 70.1962 26.4285 70.1962 26.6027V28.2427C70.1962 28.9582 70.4149 29.5619 70.8504 30.0549C71.2879 30.5469 71.8563 30.794 72.5575 30.794C73.3784 30.794 74.0172 30.4762 74.4742 29.8428C74.9321 29.2083 75.1611 28.3719 75.1611 27.3325Z" fill="#171717"/>
<path d="M89.9956 28.4662C89.9956 29.6265 89.5939 30.5705 88.7874 31.2993C87.9011 32.0957 86.6673 32.4934 85.0818 32.4934C83.618 32.4934 82.4445 32.2105 81.5562 31.6437L82.0611 29.8223C83.0179 30.4024 84.0678 30.6935 85.2116 30.6935C86.0325 30.6935 86.6714 30.507 87.1303 30.1359C87.5873 29.7649 87.8152 29.2667 87.8152 28.6456C87.8152 28.0921 87.6271 27.6257 87.2499 27.2475C86.8748 26.8693 86.2482 26.5177 85.3731 26.1928C82.9914 25.302 81.8015 23.9972 81.8015 22.2814C81.8015 21.16 82.2186 20.2406 83.0537 19.5251C83.8858 18.8087 84.9959 18.4509 86.3841 18.4509C87.622 18.4509 88.6504 18.6672 89.4712 19.0987L88.9264 20.8802C88.1597 20.462 87.2929 20.2529 86.3228 20.2529C85.5561 20.2529 84.9571 20.4425 84.5278 20.8197C84.1649 21.1569 83.9829 21.568 83.9829 22.0548C83.9829 22.594 84.1904 23.0399 84.6075 23.3904C84.9704 23.7143 85.6297 24.0649 86.5865 24.4431C87.757 24.9156 88.6166 25.4681 89.1697 26.1015C89.7206 26.7329 89.9956 27.5232 89.9956 28.4662Z" fill="#171717"/>
<path d="M97.2012 24.0957H94.7989V28.8711C94.7989 30.0858 95.2221 30.6926 96.0706 30.6926C96.46 30.6926 96.7831 30.6587 97.0386 30.5911L97.0989 32.2506C96.6696 32.4115 96.1043 32.4925 95.4041 32.4925C94.5434 32.4925 93.8708 32.229 93.3852 31.7032C92.9017 31.1764 92.6584 30.2928 92.6584 29.0515V24.0936H91.2273V22.4536H92.6584V20.6527L94.7989 20.0049V22.4536H97.2012V24.0957Z" fill="#171717"/>
<path d="M108.04 27.2925C108.04 28.8044 107.608 30.0457 106.748 31.0163C105.845 32.0157 104.647 32.5139 103.154 32.5139C101.714 32.5139 100.568 32.0352 99.7137 31.0778C98.8592 30.1205 98.4319 28.912 98.4319 27.4555C98.4319 25.9313 98.8714 24.6829 99.7536 23.7122C100.634 22.7405 101.822 22.2546 103.315 22.2546C104.754 22.2546 105.913 22.7333 106.787 23.6917C107.623 24.6214 108.04 25.8216 108.04 27.2925ZM105.779 27.3632C105.779 26.4561 105.585 25.6781 105.194 25.0293C104.737 24.2442 104.084 23.8526 103.237 23.8526C102.361 23.8526 101.696 24.2452 101.239 25.0293C100.847 25.6792 100.654 26.4694 100.654 27.4042C100.654 28.3114 100.847 29.0893 101.239 29.7371C101.71 30.5223 102.368 30.9138 103.218 30.9138C104.05 30.9138 104.703 30.5141 105.174 29.7166C105.576 29.0555 105.779 28.2693 105.779 27.3632Z" fill="#171717"/>
<path d="M115.124 24.3775C114.908 24.3375 114.678 24.317 114.437 24.317C113.67 24.317 113.077 24.6071 112.66 25.1882C112.297 25.7007 112.115 26.3485 112.115 27.1306V32.2915H109.937L109.958 25.5531C109.958 24.4195 109.93 23.3873 109.876 22.4566H111.774L111.854 24.3385H111.914C112.144 23.6917 112.507 23.171 113.004 22.7805C113.489 22.4289 114.014 22.2537 114.579 22.2537C114.78 22.2537 114.962 22.268 115.124 22.2936V24.3775Z" fill="#171717"/>
<path d="M124.871 26.9081C124.871 27.2996 124.845 27.6297 124.791 27.8993H118.253C118.278 28.871 118.594 29.6141 119.201 30.1266C119.752 30.5848 120.465 30.8144 121.34 30.8144C122.308 30.8144 123.191 30.6596 123.985 30.349L124.327 31.866C123.399 32.2719 122.303 32.4738 121.038 32.4738C119.517 32.4738 118.323 32.0249 117.454 31.128C116.588 30.2311 116.153 29.0268 116.153 27.5159C116.153 26.0327 116.557 24.7976 117.365 23.8126C118.212 22.7609 119.356 22.2351 120.795 22.2351C122.209 22.2351 123.279 22.7609 124.006 23.8126C124.581 24.648 124.871 25.6812 124.871 26.9081ZM122.792 26.3413C122.807 25.6935 122.665 25.1338 122.369 24.6613C121.992 24.0535 121.412 23.7501 120.632 23.7501C119.92 23.7501 119.34 24.0463 118.898 24.6408C118.535 25.1133 118.319 25.6801 118.253 26.3402H122.792V26.3413Z" fill="#171717"/>
<path d="M50.1399 10.2594C50.1399 11.4658 49.7791 12.374 49.0584 12.9839C48.3909 13.5466 47.4423 13.8285 46.2136 13.8285C45.6043 13.8285 45.083 13.8018 44.6465 13.7485V7.15673C45.2159 7.06448 45.8292 7.01733 46.4916 7.01733C47.662 7.01733 48.5442 7.27256 49.1392 7.78301C49.8056 8.36008 50.1399 9.18521 50.1399 10.2594ZM49.0104 10.2891C49.0104 9.50706 48.8039 8.90743 48.3909 8.48923C47.9779 8.07206 47.3748 7.86296 46.5805 7.86296C46.2432 7.86296 45.956 7.88551 45.7178 7.93266V12.9439C45.8496 12.9644 46.0909 12.9736 46.4415 12.9736C47.2613 12.9736 47.8941 12.745 48.3398 12.2879C48.7855 11.8307 49.0104 11.1645 49.0104 10.2891Z" fill="#171717"/>
<path d="M56.129 11.313C56.129 12.0561 55.9174 12.6649 55.4942 13.1426C55.0506 13.6336 54.4628 13.8785 53.7288 13.8785C53.0215 13.8785 52.4582 13.6438 52.0381 13.1723C51.619 12.7018 51.4094 12.1084 51.4094 11.3929C51.4094 10.6447 51.6251 10.0307 52.0585 9.55407C52.492 9.07745 53.0746 8.83862 53.8086 8.83862C54.516 8.83862 55.0843 9.07335 55.5147 9.54382C55.9236 10.001 56.129 10.5914 56.129 11.313ZM55.0179 11.3478C55.0179 10.9019 54.9218 10.5196 54.7306 10.2008C54.5057 9.81545 54.1858 9.62275 53.7697 9.62275C53.3394 9.62275 53.0123 9.81545 52.7874 10.2008C52.5952 10.5196 52.5001 10.9081 52.5001 11.3673C52.5001 11.8132 52.5962 12.1955 52.7874 12.5143C53.0194 12.8997 53.3424 13.0924 53.7595 13.0924C54.1684 13.0924 54.4894 12.8966 54.7204 12.504C54.9187 12.1791 55.0179 11.7937 55.0179 11.3478Z" fill="#171717"/>
<path d="M64.1598 8.93701L62.652 13.7689H61.6706L61.0461 11.6707C60.8876 11.1469 60.7588 10.6262 60.6586 10.1096H60.6392C60.5462 10.6406 60.4174 11.1602 60.2518 11.6707L59.5884 13.7689H58.5958L57.178 8.93701H58.2789L58.8238 11.234C58.9556 11.7773 59.064 12.2949 59.1509 12.7849H59.1703C59.25 12.381 59.3819 11.8665 59.5679 11.2443L60.2518 8.93804H61.1248L61.78 11.1951C61.9385 11.7455 62.0673 12.2754 62.1664 12.7859H62.1961C62.2686 12.2888 62.378 11.7588 62.5232 11.1951L63.1079 8.93804H64.1598V8.93701Z" fill="#171717"/>
<path d="M69.7133 13.7688H68.642V11.0013C68.642 10.1485 68.319 9.72207 67.6709 9.72207C67.353 9.72207 67.0964 9.83892 66.8971 10.0736C66.6998 10.3084 66.5996 10.5851 66.5996 10.9018V13.7677H65.5283V10.3176C65.5283 9.89325 65.5151 9.43302 65.4895 8.93487H66.431L66.4811 9.6903H66.5107C66.6354 9.45557 66.8215 9.26185 67.0658 9.10707C67.3561 8.92667 67.6811 8.83545 68.0369 8.83545C68.4867 8.83545 68.8608 8.981 69.1583 9.27312C69.5283 9.63085 69.7133 10.1649 69.7133 10.8742V13.7688Z" fill="#171717"/>
<path d="M72.6677 13.7689H71.5974V6.71997H72.6677V13.7689Z" fill="#171717"/>
<path d="M78.9747 11.313C78.9747 12.0561 78.7631 12.6649 78.3399 13.1426C77.8963 13.6336 77.3075 13.8785 76.5746 13.8785C75.8662 13.8785 75.3029 13.6438 74.8838 13.1723C74.4647 12.7018 74.2551 12.1084 74.2551 11.3929C74.2551 10.6447 74.4708 10.0307 74.9042 9.55407C75.3377 9.07745 75.9203 8.83862 76.6533 8.83862C77.3617 8.83862 77.929 9.07335 78.3604 9.54382C78.7693 10.001 78.9747 10.5914 78.9747 11.313ZM77.8625 11.3478C77.8625 10.9019 77.7665 10.5196 77.5753 10.2008C77.3514 9.81545 77.0305 9.62275 76.6154 9.62275C76.1841 9.62275 75.8569 9.81545 75.6331 10.2008C75.4409 10.5196 75.3458 10.9081 75.3458 11.3673C75.3458 11.8132 75.4419 12.1955 75.6331 12.5143C75.8651 12.8997 76.1882 13.0924 76.6052 13.0924C77.0141 13.0924 77.3341 12.8966 77.5651 12.504C77.7644 12.1791 77.8625 11.7937 77.8625 11.3478Z" fill="#171717"/>
<path d="M84.1594 13.7689H83.1975L83.1177 13.2123H83.0881C82.7589 13.6561 82.2897 13.8785 81.6805 13.8785C81.2256 13.8785 80.8576 13.732 80.5806 13.4409C80.3291 13.1764 80.2034 12.8474 80.2034 12.4569C80.2034 11.8665 80.4487 11.4165 80.9424 11.1049C81.4351 10.7933 82.1282 10.6406 83.0206 10.6477V10.5575C83.0206 9.92102 82.6874 9.60327 82.0199 9.60327C81.5445 9.60327 81.1254 9.7232 80.7636 9.961L80.5458 9.2558C80.9935 8.97802 81.5466 8.83862 82.1988 8.83862C83.4581 8.83862 84.0899 9.50487 84.0899 10.8374V12.6168C84.0899 13.0995 84.1134 13.4839 84.1594 13.7689ZM83.0472 12.1084V11.3632C81.8655 11.3427 81.2747 11.6676 81.2747 12.3369C81.2747 12.5891 81.3421 12.7777 81.4801 12.9038C81.6181 13.0298 81.7939 13.0924 82.0035 13.0924C82.2386 13.0924 82.4584 13.0175 82.6587 12.8689C82.8601 12.7193 82.9838 12.5296 83.0298 12.297C83.0411 12.2447 83.0472 12.1811 83.0472 12.1084Z" fill="#171717"/>
<path d="M90.2467 13.7689H89.2961L89.246 12.993H89.2163C88.9127 13.5834 88.3955 13.8786 87.6687 13.8786C87.0881 13.8786 86.6045 13.65 86.2212 13.1928C85.8379 12.7357 85.6467 12.1422 85.6467 11.4134C85.6467 10.6314 85.8542 9.99792 86.2713 9.51412C86.6751 9.06312 87.1698 8.83762 87.7586 8.83762C88.4057 8.83762 88.8585 9.05595 89.1161 9.49362H89.1366V6.71997H90.2089V12.4671C90.2089 12.9376 90.2212 13.3712 90.2467 13.7689ZM89.1366 11.7312V10.9255C89.1366 10.7861 89.1264 10.6734 89.1069 10.5873C89.0466 10.329 88.9168 10.1117 88.7195 9.93642C88.5202 9.76115 88.28 9.673 88.0029 9.673C87.6033 9.673 87.2905 9.83187 87.0605 10.1506C86.8325 10.4694 86.717 10.8763 86.717 11.3735C86.717 11.8511 86.8264 12.2386 87.0461 12.5368C87.2782 12.8546 87.591 13.0135 87.9825 13.0135C88.3341 13.0135 88.6153 12.8812 88.8289 12.6158C89.0354 12.3708 89.1366 12.0756 89.1366 11.7312Z" fill="#171717"/>
<path d="M99.4091 11.313C99.4091 12.0561 99.1975 12.6649 98.7743 13.1426C98.3306 13.6336 97.7439 13.8785 97.0089 13.8785C96.3025 13.8785 95.7393 13.6438 95.3181 13.1723C94.899 12.7018 94.6895 12.1084 94.6895 11.3929C94.6895 10.6447 94.9051 10.0307 95.3386 9.55407C95.772 9.07745 96.3547 8.83862 97.0896 8.83862C97.796 8.83862 98.3654 9.07335 98.7947 9.54382C99.2036 10.001 99.4091 10.5914 99.4091 11.313ZM98.2989 11.3478C98.2989 10.9019 98.2028 10.5196 98.0117 10.2008C97.7858 9.81545 97.4668 9.62275 97.0498 9.62275C96.6204 9.62275 96.2933 9.81545 96.0674 10.2008C95.8752 10.5196 95.7802 10.9081 95.7802 11.3673C95.7802 11.8132 95.8763 12.1955 96.0674 12.5143C96.2995 12.8997 96.6225 13.0924 97.0395 13.0924C97.4484 13.0924 97.7704 12.8966 98.0015 12.504C98.1987 12.1791 98.2989 11.7937 98.2989 11.3478Z" fill="#171717"/>
<path d="M105.169 13.7688H104.099V11.0013C104.099 10.1485 103.776 9.72207 103.127 9.72207C102.809 9.72207 102.552 9.83892 102.354 10.0736C102.156 10.3084 102.056 10.5851 102.056 10.9018V13.7677H100.984V10.3176C100.984 9.89325 100.972 9.43302 100.946 8.93487H101.887L101.937 9.6903H101.966C102.092 9.45557 102.278 9.26185 102.522 9.10707C102.813 8.92667 103.137 8.83545 103.494 8.83545C103.942 8.83545 104.317 8.981 104.614 9.27312C104.985 9.63085 105.169 10.1649 105.169 10.8742V13.7688Z" fill="#171717"/>
<path d="M112.379 9.74162H111.199V12.0889C111.199 12.6854 111.409 12.9837 111.824 12.9837C112.016 12.9837 112.175 12.9673 112.301 12.9335L112.329 13.7483C112.117 13.8283 111.839 13.8683 111.497 13.8683C111.074 13.8683 110.744 13.7391 110.506 13.4808C110.267 13.2225 110.148 12.7879 110.148 12.178V9.74162H109.444V8.93699H110.148V8.05139L111.198 7.73364V8.93597H112.378V9.74162H112.379Z" fill="#171717"/>
<path d="M118.05 13.7689H116.978V11.0219C116.978 10.1558 116.655 9.7222 116.008 9.7222C115.511 9.7222 115.172 9.97332 114.986 10.4756C114.954 10.5811 114.935 10.7103 114.935 10.862V13.7679H113.865V6.71997H114.935V9.632H114.956C115.293 9.10207 115.777 8.83762 116.403 8.83762C116.847 8.83762 117.214 8.98317 117.505 9.2753C117.868 9.63917 118.05 10.1804 118.05 10.8958V13.7689Z" fill="#171717"/>
<path d="M123.9 11.1243C123.9 11.317 123.886 11.479 123.86 11.6112H120.648C120.662 12.0888 120.815 12.4527 121.113 12.7049C121.385 12.9304 121.735 13.0431 122.165 13.0431C122.64 13.0431 123.073 12.9673 123.464 12.8145L123.632 13.5607C123.175 13.7596 122.637 13.859 122.014 13.859C121.268 13.859 120.68 13.6386 120.255 13.1979C119.828 12.7571 119.616 12.1657 119.616 11.4236C119.616 10.6948 119.814 10.088 120.211 9.60425C120.626 9.08765 121.187 8.82935 121.896 8.82935C122.589 8.82935 123.115 9.08765 123.471 9.60425C123.758 10.0142 123.9 10.5216 123.9 11.1243ZM122.878 10.8465C122.886 10.5278 122.816 10.2531 122.671 10.0214C122.485 9.72315 122.201 9.5735 121.818 9.5735C121.468 9.5735 121.183 9.71905 120.966 10.0112C120.788 10.2438 120.682 10.5216 120.648 10.8465H122.878Z" fill="#171717"/>
</svg>
