<svg width="19" height="19" viewBox="0 0 19 19" fill="none" xmlns="http://www.w3.org/2000/svg">
<path d="M17.972 0.0541316L5.606 5.00013H2.25C1.01 5.00013 0 6.01013 0 7.25013V10.0001C0 11.1781 0.925 12.0001 2.25 12.0001H3.1L4.008 18.3561C4.061 18.7261 4.377 19.0001 4.75 19.0001H7.75C7.964 19.0001 8.167 18.9091 8.31 18.7501C8.452 18.5911 8.52 18.3791 8.496 18.1661L7.906 12.9201L17.971 16.9461C18.062 16.9821 18.156 17.0001 18.25 17.0001C18.397 17.0001 18.545 16.9561 18.671 16.8711C18.877 16.7311 19 16.4991 19 16.2501V0.750132C19 0.501132 18.877 0.269132 18.671 0.129132C18.464 -0.0108684 18.202 -0.0388684 17.972 0.0541316ZM1.5 10.0001V7.25013C1.5 6.83713 1.837 6.50013 2.25 6.50013H5V10.5001H2.25C1.908 10.5001 1.5 10.4131 1.5 10.0001ZM6.911 17.5001H5.4L4.615 12.0001H5.606L6.327 12.2881L6.911 17.5001ZM17.5 15.1431L7.324 11.0721C7.281 11.0521 7.24 11.0311 7.193 11.0191L6.5 10.7421V6.25813L17.5 1.85813V15.1431Z" fill="#665CD1"/>
</svg>
