<svg width="745" height="475" viewBox="0 0 745 475" fill="none" xmlns="http://www.w3.org/2000/svg">
<path d="M744.671 389.693C743.501 474.165 707.825 564.621 633.042 638.401C580.283 690.454 510.307 723.049 437.356 736.403C357.262 751.066 280.036 741.486 206.786 705.652C134.54 670.308 80.0028 616.254 42.8986 544.905C12.0186 485.524 -1.65213 422.04 1.24983 355.343C5.34038 261.329 39.068 179.303 104.618 111.332C162.795 51.0071 233.931 15.2433 316.952 3.7941C392.538 -6.6299 465.042 4.28701 533.548 38.2592C604.352 73.3708 664.968 126.117 702.083 195.902C730.926 250.133 744.839 308.175 744.671 389.693ZM370.145 592.77C371.323 589.531 371.989 587.915 372.504 586.253C388.71 533.874 404.935 481.502 421.019 429.086C422.134 425.452 423.819 423.536 427.574 422.393C460.828 412.268 494.013 401.918 527.212 391.615C548.226 385.094 569.23 378.54 591.195 371.703C588.493 370.663 586.733 369.867 584.902 369.299C532.539 353.043 480.188 336.753 427.766 320.692C423.765 319.466 422.124 317.443 420.965 313.668C404.871 261.257 388.628 208.892 372.405 156.52C371.91 154.923 371.242 153.38 370.238 150.697C369.289 153.345 368.762 154.659 368.345 156.007C352.115 208.382 335.856 260.748 319.749 313.16C318.477 317.298 316.593 319.516 312.205 320.858C262.681 336.001 213.24 351.418 163.781 366.773C159.219 368.189 154.682 369.683 149.04 371.491C151.752 372.422 153.241 372.976 154.756 373.445C206.952 389.62 259.13 405.852 311.382 421.844C316.237 423.329 318.527 425.709 319.979 430.586C327.648 456.344 335.744 481.975 343.707 507.645C352.356 535.522 361.021 563.395 370.145 592.77Z" fill="white"/>
</svg>
