<svg width="46" height="46" viewBox="0 0 46 46" fill="none" xmlns="http://www.w3.org/2000/svg">
<path d="M15.6556 23.4167L17.1936 13.6029C16.5657 13.6029 15.5145 13.6029 15.5145 13.6029C14.7455 13.6029 13.7366 13.1866 13.4191 12.3823C13.3132 12.1001 13.1016 11.1618 14.3997 10.2516C14.8513 9.93416 15.1688 9.58846 15.204 9.30625C15.2746 9.02404 15.204 8.78416 14.9924 8.57251C14.7455 8.32558 14.1881 8.15625 13.4896 8.15625C12.3043 8.15625 11.4648 8.85472 11.3942 9.34153C11.3237 9.72251 11.6412 10.0047 11.881 10.1811C12.6148 10.7385 12.7912 11.5428 12.3326 12.3118C11.8458 13.0808 10.8298 13.6029 9.75036 13.6029C9.75036 13.6029 8.67091 13.6029 8.03594 13.6029C7.89484 14.5483 5.58778 29.2161 5.41846 30.3661H14.6467C14.682 29.8793 15.0982 27.0854 15.6556 23.4167Z" fill="white"/>
<path d="M27.9881 5.00879H18.6258L17.37 12.9388H18.9786C19.8534 12.9388 20.693 12.5579 21.0387 11.9582C21.1445 11.7818 21.2151 11.6054 21.2151 11.4714C21.2151 11.1539 21.0034 10.8787 20.7636 10.7376C20.1356 10.2861 20.0298 9.79222 20.0298 9.44652C20.0298 9.37597 20.0298 9.30542 20.0298 9.27014C20.1709 8.43057 21.2856 7.52045 22.7884 7.52045C23.6985 7.52045 24.3617 7.7321 24.778 8.11308C25.1307 8.46584 25.3001 8.95265 25.1942 9.43946C25.0531 10.0321 24.4605 10.5189 24.1148 10.7658C23.2047 11.3938 23.3105 11.9511 23.381 12.1275C23.5574 12.6143 24.2912 12.9318 24.8485 12.9318H27.2967C30.6126 12.9671 32.3976 14.4698 31.805 18.0327C31.2829 21.3134 28.7642 22.7456 25.7657 22.7809L24.5099 30.3582H26.2596C33.6958 30.3582 39.7421 25.5747 40.9626 18.0609C42.4442 8.74805 36.5108 5.00879 27.9881 5.00879Z" fill="#A4A4A4"/>
<path d="M4.9034 33.752H8.67794C10.2865 33.752 10.6675 34.5562 10.5617 35.3253C10.4559 35.9179 10.0749 36.3765 9.34113 36.6516C10.2513 37.0044 10.597 37.5265 10.4559 38.3661C10.2795 39.4173 9.37641 40.1793 8.18408 40.1793H3.88745L4.9034 33.752ZM7.37978 36.44C8.11352 36.44 8.45923 36.059 8.52978 35.6004C8.60033 35.1136 8.38868 34.7609 7.65494 34.7609H6.99175L6.70954 36.44H7.37978ZM6.96353 39.2339C7.73254 39.2339 8.1488 38.9164 8.25463 38.2885C8.32518 37.7664 8.04297 37.4136 7.30923 37.4136H6.57549L6.29328 39.2268H6.96353V39.2339Z" fill="#A4A4A4"/>
<path d="M15.6908 40.2495C14.7101 40.32 14.2233 40.2142 14.0116 39.7979C13.4895 40.1154 12.9322 40.2848 12.2972 40.2848C11.1825 40.2848 10.7944 39.7274 10.9003 39.0642C10.9356 38.7467 11.1119 38.4716 11.4224 38.2246C12.015 37.7025 13.553 37.632 14.1457 37.2087C14.181 36.7571 14.0046 36.5808 13.4472 36.5808C12.784 36.5808 12.2619 36.7924 11.3165 37.4203L11.5282 35.9529C12.3325 35.3602 13.1015 35.1133 14.0046 35.1133C15.1546 35.1133 16.1705 35.5648 15.9589 36.8277L15.7472 38.2599C15.6767 38.7467 15.6767 38.9231 16.234 38.9231L15.6908 40.2495ZM14.0187 38.0482C13.4966 38.3657 12.5159 38.3305 12.4101 38.9936C12.3748 39.3111 12.5512 39.551 12.8616 39.551C13.1721 39.551 13.5601 39.4099 13.8423 39.1983C13.807 39.0924 13.8423 38.9513 13.8776 38.7467L14.0187 38.0482Z" fill="#A4A4A4"/>
<path d="M17.5464 35.219H19.5007L19.3948 35.8822C20.0227 35.3601 20.4743 35.1484 21.1092 35.1484C22.1887 35.1484 22.7178 35.8116 22.5415 36.9264L22.0123 40.2141H20.058L20.4743 37.4908C20.5448 37.004 20.4037 36.757 20.0227 36.757C19.7053 36.757 19.4301 36.9334 19.1479 37.2791L18.6964 40.1788H16.7421L17.5464 35.219Z" fill="#A4A4A4"/>
<path d="M24.0724 33.752H26.0337L25.5469 36.9268L27.4307 35.2124H29.8435L27.4307 37.3431L29.3497 40.2145H26.8733L25.3705 37.9075H25.3353L24.9825 40.2145H23.0282L24.0724 33.752Z" fill="#A4A4A4"/>
<path d="M4.9034 33.752H8.67794C10.2865 33.752 10.6675 34.5562 10.5617 35.3253C10.4559 35.9179 10.0749 36.3765 9.34113 36.6516C10.2513 37.0044 10.597 37.5265 10.4559 38.3661C10.2795 39.4173 9.37641 40.1793 8.18408 40.1793H3.88745L4.9034 33.752ZM7.37978 36.44C8.11352 36.44 8.45923 36.059 8.52978 35.6004C8.60033 35.1136 8.38868 34.7609 7.65494 34.7609H6.99175L6.70954 36.44H7.37978ZM6.96353 39.2339C7.73254 39.2339 8.1488 38.9164 8.25463 38.2885C8.32518 37.7664 8.04297 37.4136 7.30923 37.4136H6.57549L6.29328 39.2268H6.96353V39.2339Z" fill="#A4A4A4"/>
<path d="M15.6908 40.2495C14.7101 40.32 14.2233 40.2142 14.0116 39.7979C13.4895 40.1154 12.9322 40.2848 12.2972 40.2848C11.1825 40.2848 10.7944 39.7274 10.9003 39.0642C10.9356 38.7467 11.1119 38.4716 11.4224 38.2246C12.015 37.7025 13.553 37.632 14.1457 37.2087C14.181 36.7571 14.0046 36.5808 13.4472 36.5808C12.784 36.5808 12.2619 36.7924 11.3165 37.4203L11.5282 35.9529C12.3325 35.3602 13.1015 35.1133 14.0046 35.1133C15.1546 35.1133 16.1705 35.5648 15.9589 36.8277L15.7472 38.2599C15.6767 38.7467 15.6767 38.9231 16.234 38.9231L15.6908 40.2495ZM14.0187 38.0482C13.4966 38.3657 12.5159 38.3305 12.4101 38.9936C12.3748 39.3111 12.5512 39.551 12.8616 39.551C13.1721 39.551 13.5601 39.4099 13.8423 39.1983C13.807 39.0924 13.8423 38.9513 13.8776 38.7467L14.0187 38.0482Z" fill="#A4A4A4"/>
<path d="M17.5464 35.219H19.5007L19.3948 35.8822C20.0227 35.3601 20.4743 35.1484 21.1092 35.1484C22.1887 35.1484 22.7178 35.8116 22.5415 36.9264L22.0123 40.2141H20.058L20.4743 37.4908C20.5448 37.004 20.4037 36.757 20.0227 36.757C19.7053 36.757 19.4301 36.9334 19.1479 37.2791L18.6964 40.1788H16.7421L17.5464 35.219Z" fill="#A4A4A4"/>
<path d="M24.0724 33.752H26.0337L25.5469 36.9268L27.4307 35.2124H29.8435L27.4307 37.3431L29.3497 40.2145H26.8733L25.3705 37.9075H25.3353L24.9825 40.2145H23.0282L24.0724 33.752Z" fill="#A4A4A4"/>
<path d="M30.9936 33.752H33.2654L32.2494 40.1793H29.9777L30.9936 33.752Z" fill="white"/>
<path d="M34.3448 33.752H37.5549C40.0313 33.752 40.7651 35.5651 40.5252 37.0679C40.3135 38.5354 39.1282 40.2145 36.9623 40.2145H33.3641L34.3448 33.752ZM36.4402 38.6765C37.5197 38.6765 38.1546 38.1544 38.324 36.9974C38.4651 36.1578 38.1828 35.3182 36.9976 35.3182H36.3697L35.8476 38.7047L36.4402 38.6765Z" fill="white"/>
</svg>
