<svg width="22" height="22" viewBox="0 0 22 22" fill="none" xmlns="http://www.w3.org/2000/svg">
<g clip-path="url(#clip0_456_20077)">
<circle cx="11" cy="11" r="6.6" fill="white"/>
<path d="M22 11L19.5095 8.23488L19.8994 4.53312L16.2577 3.76213L14.4 0.535065L11 2.05458L7.60001 0.535065L5.74235 3.76213L2.1006 4.53312L2.4905 8.23488L0 11L2.49046 13.7651L2.10056 17.4669L5.74231 18.2378L7.59997 21.4649L11 19.9454L14.4 21.4649L16.2577 18.2378L19.8994 17.4669L19.5095 13.7651L22 11ZM15.6115 8.59144L10.0899 14.7776L6.25301 10.9407L7.16562 10.0281L10.0366 12.899L14.6486 7.73201L15.6115 8.59144Z" fill="#8AC9FE"/>
</g>
<defs>
<clipPath id="clip0_456_20077">
<rect width="22" height="22" fill="white"/>
</clipPath>
</defs>
</svg>
