<svg width="20" height="20" viewBox="0 0 20 20" fill="none" xmlns="http://www.w3.org/2000/svg">
<path d="M19.3459 15.4203C19.7799 14.5049 19.9998 13.5231 19.9998 12.4987C19.9998 8.84219 17.0974 5.84714 13.463 5.67129C12.644 2.72097 9.95351 0.663086 6.87514 0.663086C3.08433 0.663086 0.000301026 3.72962 0.000301026 7.49886C0.000301026 8.52321 0.220218 9.50503 0.65427 10.4204L0.0116679 13.6338C-0.070127 14.0429 0.290724 14.4044 0.699855 14.3235L3.95287 13.6804C4.76777 14.0669 5.63462 14.2829 6.53757 14.326C7.67614 18.4256 12.249 20.4818 16.0472 18.6802C19.6099 19.3846 19.332 19.3345 19.4139 19.3345C19.7841 19.3345 20.0607 18.9952 19.9884 18.6337L19.3459 15.4203ZM4.30051 12.5454C4.18329 12.4855 4.04923 12.4668 3.92017 12.4923L1.33273 13.0039L1.84245 10.4551C1.86834 10.3256 1.84975 10.1911 1.78956 10.0735C1.37992 9.2721 1.17215 8.40591 1.17215 7.49886C1.17215 4.37577 3.73049 1.83493 6.87514 1.83493C9.3327 1.83493 11.4969 3.43294 12.2532 5.71832C8.671 6.17632 5.97305 9.40855 6.31918 13.1358C5.61314 13.0679 4.93675 12.8707 4.30051 12.5454ZM18.1577 15.455L18.6674 18.0038L16.08 17.4922C15.9509 17.4667 15.8169 17.4853 15.6997 17.5453C14.8983 17.9549 14.0321 18.1627 13.125 18.1627C10.0019 18.1627 7.4611 15.6218 7.4611 12.4987C7.4611 9.37566 10.0019 6.83482 13.125 6.83482C16.2697 6.83482 18.828 9.37566 18.828 12.4987C18.828 13.4058 18.6203 14.272 18.2106 15.0734C18.1504 15.191 18.1318 15.3255 18.1577 15.455Z" fill="white"/>
</svg>
