<svg width="20" height="20" viewBox="0 0 20 20" fill="none" xmlns="http://www.w3.org/2000/svg">
<path d="M19.3459 15.4206C19.7799 14.5052 19.9998 13.5233 19.9998 12.499C19.9998 8.84244 17.0974 5.84739 13.463 5.67153C12.644 2.72121 9.95351 0.66333 6.87514 0.66333C3.08433 0.66333 0.000301026 3.72986 0.000301026 7.49911C0.000301026 8.52346 0.220218 9.50527 0.65427 10.4207L0.0116679 13.6341C-0.070127 14.0431 0.290724 14.4047 0.699855 14.3238L3.95287 13.6806C4.76777 14.0672 5.63462 14.2832 6.53757 14.3263C7.67614 18.4258 12.249 20.4821 16.0472 18.6805C19.6099 19.3848 19.332 19.3348 19.4139 19.3348C19.7841 19.3348 20.0607 18.9955 19.9884 18.634L19.3459 15.4206ZM4.30051 12.5456C4.18329 12.4857 4.04923 12.467 3.92017 12.4925L1.33273 13.0041L1.84245 10.4554C1.86834 10.3259 1.84975 10.1913 1.78956 10.0737C1.37992 9.27235 1.17215 8.40616 1.17215 7.49911C1.17215 4.37602 3.73049 1.83518 6.87514 1.83518C9.3327 1.83518 11.4969 3.43319 12.2532 5.71856C8.671 6.17656 5.97305 9.40879 6.31918 13.136C5.61314 13.0682 4.93675 12.8709 4.30051 12.5456ZM18.1577 15.4553L18.6674 18.004L16.08 17.4924C15.9509 17.4669 15.8169 17.4856 15.6997 17.5455C14.8983 17.9552 14.0321 18.1629 13.125 18.1629C10.0019 18.1629 7.4611 15.6221 7.4611 12.499C7.4611 9.3759 10.0019 6.83506 13.125 6.83506C16.2697 6.83506 18.828 9.3759 18.828 12.499C18.828 13.406 18.6203 14.2722 18.2106 15.0736C18.1504 15.1912 18.1318 15.3257 18.1577 15.4553Z" fill="#665CD1"/>
</svg>
