<svg width="62" height="62" viewBox="0 0 62 62" fill="none" xmlns="http://www.w3.org/2000/svg">
<path fill-rule="evenodd" clip-rule="evenodd" d="M31 3.29167C15.6971 3.29167 3.29167 15.6971 3.29167 31C3.29167 46.3029 15.6971 58.7083 31 58.7083C46.3029 58.7083 58.7083 46.3029 58.7083 31C58.7083 15.6971 46.3029 3.29167 31 3.29167ZM0.375 31C0.375 14.0863 14.0863 0.375 31 0.375C47.9137 0.375 61.625 14.0863 61.625 31C61.625 47.9137 47.9137 61.625 31 61.625C14.0863 61.625 0.375 47.9137 0.375 31Z" fill="#86E0AF"/>
<path fill-rule="evenodd" clip-rule="evenodd" d="M45.1979 23.2355L29.1562 40.7356C28.6248 41.3152 27.7294 41.3691 27.1321 40.8572L16.9238 32.1072L18.822 29.8929L27.9592 37.7247L43.0477 21.2646L45.1979 23.2355Z" fill="#86E0AF"/>
</svg>
