<svg width="25" height="25" viewBox="0 0 25 25" fill="none" xmlns="http://www.w3.org/2000/svg">
<g clip-path="url(#clip0_23_8482)">
<path d="M21.6265 4.17236H3.37353C1.51335 4.17236 0 5.68571 0 7.54589V17.4546C0 19.3148 1.51335 20.8281 3.37353 20.8281H21.6265C23.4867 20.8281 25 19.3148 25 17.4546V7.54589C25 5.68571 23.4867 4.17236 21.6265 4.17236ZM3.37353 6.22582H21.6265C22.3544 6.22582 22.9465 6.81799 22.9465 7.54589V8.34444H2.05345V7.54589C2.05345 6.81799 2.64563 6.22582 3.37353 6.22582ZM21.6265 18.7747H3.37353C2.64563 18.7747 2.05345 18.1825 2.05345 17.4546V10.3979H22.9465V17.4546C22.9465 18.1825 22.3544 18.7747 21.6265 18.7747Z" fill="black"/>
<path d="M6.2419 13.0376H4.67736C4.11031 13.0376 3.65063 13.4973 3.65063 14.0643C3.65063 14.6314 4.11031 15.091 4.67736 15.091H6.2419C6.80894 15.091 7.26862 14.6314 7.26862 14.0643C7.26862 13.4973 6.80894 13.0376 6.2419 13.0376Z" fill="black"/>
</g>
<defs>
<clipPath id="clip0_23_8482">
<rect width="25" height="25" fill="white"/>
</clipPath>
</defs>
</svg>
