<svg width="22" height="22" viewBox="0 0 22 22" fill="none" xmlns="http://www.w3.org/2000/svg">
<path d="M22 3.46484L9.90013 3.46497C9.03934 3.46497 8.23006 3.80017 7.62141 4.40887L7.27624 4.75404L0 4.75386V14.624L4.89307 14.6242L9.34007 19.0711C9.717 19.4481 10.2122 19.6366 10.7073 19.6366C11.2025 19.6366 11.6976 19.4481 12.0746 19.0711C12.3137 18.832 12.4819 18.5411 12.57 18.2238C12.7069 18.2538 12.8465 18.2693 12.9861 18.2693C13.4812 18.2693 13.9764 18.0809 14.3533 17.7039C14.597 17.4602 14.7615 17.1669 14.8476 16.8564C14.9849 16.8865 15.1248 16.9021 15.2648 16.9021C15.7599 16.9021 16.2551 16.7136 16.632 16.3366C16.8709 16.0978 17.039 15.8073 17.1272 15.4905C17.2624 15.52 17.4018 15.5357 17.5436 15.5357C18.0601 15.5357 18.5456 15.3346 18.9108 14.9694C19.2761 14.6042 19.4772 14.1186 19.4772 13.6021C19.4772 13.512 19.4711 13.4229 19.459 13.3351L22 13.3349V3.46484ZM17.9994 14.0579C17.8776 14.1796 17.7158 14.2466 17.5436 14.2466C17.3714 14.2466 17.2096 14.1796 17.0879 14.0579L14.4271 11.3971L13.5156 12.3086L15.7206 14.5137C15.8423 14.6354 15.9094 14.7972 15.9094 14.9694C15.9094 15.1416 15.8423 15.3034 15.7205 15.4252C15.4693 15.6765 15.0604 15.6765 14.8091 15.4252L12.604 13.2201L11.6925 14.1316L13.4418 15.8809C13.6931 16.1322 13.6931 16.5411 13.4418 16.7924C13.1905 17.0437 12.7816 17.0437 12.5303 16.7924L10.781 15.0431L9.86949 15.9546L11.163 17.2481C11.2848 17.3699 11.3518 17.5317 11.3518 17.7039C11.3518 17.876 11.2847 18.0379 11.163 18.1596C10.9117 18.4109 10.5028 18.4109 10.2515 18.1596L5.42695 13.3351L1.28906 13.335V6.04297L5.98722 6.04305L3.92958 8.1007C3.56434 8.46589 3.36325 8.95148 3.36325 9.46797C3.36325 9.98445 3.56439 10.47 3.92958 10.8352C4.29477 11.2004 4.78036 11.4016 5.29684 11.4016C5.81333 11.4016 6.29888 11.2004 6.66407 10.8352L8.87807 8.62122H12.6733C13.1898 8.62122 13.6753 8.82236 14.0406 9.18755L17.9994 13.1464C18.1211 13.2681 18.1882 13.43 18.1882 13.6021C18.1881 13.7743 18.1211 13.9361 17.9994 14.0579ZM20.7109 12.046L18.722 12.046L14.9521 8.27601C14.3434 7.66732 13.5341 7.33212 12.6733 7.33212H8.3441L5.75253 9.92369C5.6308 10.0454 5.46893 10.1125 5.2968 10.1125C5.12463 10.1125 4.9628 10.0454 4.84103 9.92369C4.7193 9.80196 4.65227 9.6401 4.65227 9.46797C4.65227 9.29579 4.7193 9.13397 4.84103 9.01219L8.53286 5.32036C8.8981 4.95517 9.3836 4.75404 9.90009 4.75404L20.7109 4.75391V12.046Z" fill="#665CD1"/>
</svg>
