<svg width="91" height="91" viewBox="0 0 91 91" fill="none" xmlns="http://www.w3.org/2000/svg">
<mask id="mask0_351_29599" style="mask-type:alpha" maskUnits="userSpaceOnUse" x="0" y="0" width="91" height="91">
<path d="M45.5 90.5C65.328 90.5 76.352 90.5 83.551 83.3007C90.75 76.1016 90.75 65.0852 90.75 45.25C90.75 25.4148 90.75 14.3984 83.551 7.19923C76.352 0 65.328 0 45.5 0C25.6713 0 14.6484 0 7.44928 7.19923C0.250003 14.3984 0.25 25.4213 0.25 45.25C0.25 65.0787 0.250003 76.1016 7.44928 83.3007C14.6484 90.5 25.6713 90.5 45.5 90.5Z" fill="url(#paint0_linear_351_29599)"/>
</mask>
<g mask="url(#mask0_351_29599)">
<path d="M91.6457 -0.861328H-0.59375V91.3783H91.6457V-0.861328Z" fill="#171717"/>
<path d="M62.493 36.3008C59.0738 36.3008 56.537 38.9396 56.537 42.1953C56.537 44.8537 58.4064 46.928 60.7735 47.5419L55.9219 54.9725H60.4525L64.5773 48.0572H67.6643V54.9725H71.4469V36.3008H62.493ZM63.0134 44.8981C61.4579 44.8981 60.4935 43.6772 60.4935 42.2855C60.4935 40.8939 61.3773 39.568 63.0134 39.568H67.6685V44.8981H63.0134Z" fill="#FEFEFE"/>
<path d="M41.7791 36.3008L40.5234 39.7568L45.6749 39.7272L42.6247 50.9158C41.7551 54.1782 45.1545 56.6431 48.0561 54.7246L54.6556 50.248L52.7127 47.3925L46.1217 51.9578L50.5633 36.3008H41.7791Z" fill="#FEFEFE"/>
<path d="M48.8831 33.9001C50.3282 33.9001 51.5005 32.8442 51.5005 31.5418C51.5005 30.2395 50.3282 29.1836 48.8831 29.1836C47.4379 29.1836 46.2656 30.2395 46.2656 31.5418C46.2656 32.8442 47.4379 33.9001 48.8831 33.9001Z" fill="#FEFEFE"/>
<path d="M35.5349 51.5273V31.9629H21.0202V42.4048C21.0202 47.3181 19.5974 50.3556 18.7588 51.5191H17.0391V60.0525H20.7199V55.008H34.4814V60.0607H38.1608V51.5273H35.5349ZM24.6797 42.1898V35.4337H31.7607V51.5158H22.6202C23.449 50.1603 24.6797 46.7109 24.6797 42.1898Z" fill="#FEFEFE"/>
</g>
<defs>
<linearGradient id="paint0_linear_351_29599" x1="0.25" y1="27.7093" x2="90.75" y2="27.7093" gradientUnits="userSpaceOnUse">
<stop stop-color="#13C7FF"/>
<stop offset="1" stop-color="#FFFF36"/>
</linearGradient>
</defs>
</svg>
