<svg width="40" height="40" viewBox="0 0 40 40" fill="none" xmlns="http://www.w3.org/2000/svg">
<mask id="mask0_468_24301" style="mask-type:alpha" maskUnits="userSpaceOnUse" x="0" y="0" width="40" height="40">
<path d="M20 40C28.7638 40 33.6362 40 36.8181 36.818C40 33.6361 40 28.7669 40 20C40 11.2331 40 6.36394 36.8181 3.18198C33.6362 0 28.7638 0 20 0C11.2359 0 6.36394 0 3.182 3.18198C1.19209e-06 6.36394 0 11.2359 0 20C0 28.7641 1.19209e-06 33.6361 3.182 36.818C6.36394 40 11.2359 40 20 40Z" fill="url(#paint0_linear_468_24301)"/>
</mask>
<g mask="url(#mask0_468_24301)">
<path d="M40.3967 -0.378906H-0.37207V40.39H40.3967V-0.378906Z" fill="white"/>
<path d="M27.5113 16.0459C26.0001 16.0459 24.8788 17.2122 24.8788 18.6512C24.8788 19.8262 25.7051 20.743 26.7513 21.0143L24.6069 24.2986H26.6094L28.4326 21.2421H29.7969V24.2986H31.4688V16.0459H27.5113ZM27.7413 19.8458C27.0538 19.8458 26.6276 19.3062 26.6276 18.6911C26.6276 18.076 27.0182 17.49 27.7413 17.49H29.7988V19.8458H27.7413Z" fill="#171717"/>
<path d="M18.3553 16.0459L17.8003 17.5734L20.0772 17.5603L18.729 22.5056C18.3447 23.9475 19.8472 25.037 21.1297 24.189L24.0465 22.2104L23.1878 20.9483L20.2747 22.9661L22.2378 16.0459H18.3553Z" fill="#171717"/>
<path d="M21.4962 14.984C22.135 14.984 22.6531 14.5174 22.6531 13.9417C22.6531 13.3661 22.135 12.8994 21.4962 12.8994C20.8575 12.8994 20.3394 13.3661 20.3394 13.9417C20.3394 14.5174 20.8575 14.984 21.4962 14.984Z" fill="#171717"/>
<path d="M15.5945 22.7752V14.1279H9.17918V18.7431C9.17918 20.9147 8.55031 22.2573 8.17968 22.7716H7.41956V26.5432H9.04643V24.3136H15.1289V26.5469H16.7551V22.7752H15.5945ZM10.7966 18.6481V15.662H13.9264V22.7701H9.88637C10.2527 22.171 10.7966 20.6464 10.7966 18.6481Z" fill="#171717"/>
</g>
<defs>
<linearGradient id="paint0_linear_468_24301" x1="0" y1="12.2472" x2="40" y2="12.2472" gradientUnits="userSpaceOnUse">
<stop stop-color="#13C7FF"/>
<stop offset="1" stop-color="#FFFF36"/>
</linearGradient>
</defs>
</svg>
