<svg width="22" height="23" viewBox="0 0 22 23" fill="none" xmlns="http://www.w3.org/2000/svg">
<g opacity="0.5">
<path d="M11.3929 9.93359C11.3143 9.93359 11.3143 9.93359 11.2358 9.93359C11.1572 11.0385 10.2929 11.9066 9.27148 11.9856C9.42863 12.8537 10.1358 13.4851 11.0786 13.4851C12.1001 13.4851 12.8858 12.6959 12.8858 11.6699C12.8072 10.8017 12.1786 10.0914 11.3929 9.93359Z" fill="white"/>
<path d="M11 5.51367C5.89283 5.51367 1.88569 10.9593 1.72854 11.1961C1.49283 11.4328 1.49283 11.8274 1.72854 12.1431C1.88569 12.3799 5.89283 17.8255 11 17.8255C16.1071 17.8255 20.1143 12.3799 20.2714 12.1431C20.5071 11.9064 20.5071 11.5118 20.2714 11.1961C20.1143 10.9593 16.1071 5.51367 11 5.51367ZM11 15.0633C9.11426 15.0633 7.6214 13.5637 7.6214 11.6696C7.6214 9.77547 9.11426 8.27595 11 8.27595C12.8857 8.27595 14.3785 9.85439 14.3785 11.6696C14.3785 13.5637 12.8857 15.0633 11 15.0633Z" fill="white"/>
</g>
</svg>
