<svg width="22" height="18" viewBox="0 0 22 18" fill="none" xmlns="http://www.w3.org/2000/svg">
<path fill-rule="evenodd" clip-rule="evenodd" d="M0 6.91644C0 6.37855 0.288004 5.88184 0.754819 5.61463L10.2172 0.198192C10.6788 -0.0660641 11.2459 -0.0660636 11.7075 0.198191L21.1699 5.61463C21.6367 5.88184 21.9247 6.37855 21.9247 6.91644C21.9247 7.14345 21.8734 7.36312 21.779 7.56131V13.9631C21.779 14.3773 21.4432 14.7131 21.029 14.7131C20.6148 14.7131 20.279 14.3773 20.279 13.9631V8.7282L17.7523 10.1745V16.3795C17.7523 16.7937 17.4165 17.1295 17.0023 17.1295H4.92258C4.50836 17.1295 4.17258 16.7937 4.17258 16.3795V10.1746L0.754819 8.21825C0.288004 7.95103 0 7.45432 0 6.91644ZM20.279 6.83305V6.99983L10.9624 12.3329L1.5 6.91644L10.9624 1.5L20.279 6.83305ZM11.7075 13.6347L16.2523 11.0332V15.6295H5.67258V11.0333L10.2172 13.6347C10.6788 13.8989 11.2459 13.8989 11.7075 13.6347Z" fill="#665CD1"/>
</svg>
