<svg width="20" height="19" viewBox="0 0 20 19" fill="none" xmlns="http://www.w3.org/2000/svg">
<path fill-rule="evenodd" clip-rule="evenodd" d="M1.72794 10.1969L9.88623 18.3552L18.0405 10.2009L18.0445 10.1968C19.1445 9.0602 19.7725 7.58737 19.7725 6.00112C19.7725 2.68757 17.0849 0 13.7713 0C12.3863 0 11.0145 0.547951 9.88934 1.53712C8.78485 0.545088 7.38207 0 6.00112 0C2.68757 0 0 2.68757 0 6.00112C0 7.58737 0.627962 9.06023 1.72794 10.1969ZM0.53702 4.54219C1.18085 2.12734 3.38366 0.347656 6.00091 0.347656C7.38845 0.347656 8.81068 0.937362 9.88603 2.01271C10.9961 0.937362 12.3836 0.347656 13.7711 0.347656C16.8931 0.347656 19.4254 2.87992 19.4254 6.00189C19.4254 6.46774 19.3679 6.92345 19.257 7.36266C19.368 6.92321 19.4256 6.46724 19.4256 6.00112C19.4256 2.87915 16.8933 0.346885 13.7713 0.346885C12.3838 0.346885 10.9963 0.93659 9.88623 2.01193C8.81089 0.93659 7.38866 0.346885 6.00112 0.346885C3.38358 0.346885 1.18059 2.12695 0.53702 4.54219ZM1.37455 4.7719C1.26977 5.16463 1.21389 5.57695 1.21389 6.00189C1.21389 7.25067 1.69953 8.43009 2.56675 9.33199L9.88603 16.6513L17.2053 9.33199C17.7746 8.73992 18.1795 8.02825 18.3904 7.25588C18.1794 8.02796 17.7746 8.73934 17.2055 9.33121L9.88623 16.6505L2.56695 9.33121C1.69974 8.42931 1.2141 7.2499 1.2141 6.00112C1.2141 5.57646 1.2699 5.1644 1.37455 4.7719ZM1.56098 6.00112C1.56098 7.15706 2.00959 8.24989 2.81469 9.08838L9.88623 16.1599L16.9578 9.08836C17.7629 8.24987 18.2115 7.15705 18.2115 6.00112C18.2115 3.55637 16.2161 1.56098 13.7713 1.56098C12.5995 1.56098 11.3729 2.13303 10.4595 3.17695L10.4563 3.18058L9.88623 3.81395L9.31298 3.17695C8.39955 2.13303 7.173 1.56098 6.00112 1.56098C3.55637 1.56098 1.56098 3.55637 1.56098 6.00112Z" fill="#665CD1"/>
</svg>
