<svg width="42" height="42" viewBox="0 0 42 42" fill="none" xmlns="http://www.w3.org/2000/svg">
<path d="M24.8 26.71L21.71 29.68C21.5166 29.8584 21.2631 29.9575 21 29.9575C20.7369 29.9575 20.4834 29.8584 20.29 29.68L17.2 26.71C16.27 25.83 17.68 24.48 18.61 25.36L20 26.69V20.88C20.0105 20.6219 20.1205 20.3778 20.3069 20.1988C20.4933 20.0199 20.7416 19.92 21 19.92C21.2584 19.92 21.5068 20.0199 21.6931 20.1988C21.8795 20.3778 21.9895 20.6219 22 20.88V26.69L23.39 25.36C24.32 24.48 25.72 25.83 24.8 26.71ZM41.0714 21.0517C39.9729 47.6714 2.03119 47.6792 0.928711 21.0518C0.928703 18.416 1.44786 15.806 2.45653 13.3709C3.4652 10.9357 4.94363 8.72306 6.80742 6.85926C10.5715 3.09515 15.6767 0.980485 21 0.980469C26.3232 0.980453 31.4284 3.09509 35.1926 6.85918C38.9567 10.6233 41.0713 15.7285 41.0714 21.0517ZM24.64 14.05H28.54L24.64 10.33V14.05ZM30.99 17H31C31 16.54 31 16.21 30.99 16.05H23.64C23.5086 16.0505 23.3783 16.0249 23.2568 15.9748C23.1353 15.9247 23.0248 15.8511 22.9319 15.7582C22.8389 15.6652 22.7653 15.5548 22.7152 15.4333C22.6651 15.3117 22.6395 15.1815 22.64 15.05V8.00003H13C12.7373 7.99995 12.4772 8.05163 12.2345 8.15212C11.9919 8.2526 11.7714 8.39992 11.5856 8.58565C11.3999 8.77138 11.2526 8.99189 11.1521 9.23457C11.0516 9.47726 10.9999 9.73736 11 10V32C10.9999 32.2627 11.0516 32.5228 11.1521 32.7655C11.2526 33.0082 11.3999 33.2287 11.5856 33.4144C11.7714 33.6001 11.9919 33.7475 12.2346 33.8479C12.4772 33.9484 12.7373 34.0001 13 34H29C29.53 33.9985 30.0378 33.7873 30.4125 33.4125C30.7872 33.0378 30.9984 32.53 31 32C30.98 31.94 31.01 20.58 30.99 17Z" fill="white"/>
</svg>
