<svg xmlns="http://www.w3.org/2000/svg" xmlns:xlink="http://www.w3.org/1999/xlink" width="50" zoomAndPan="magnify" viewBox="0 0 37.5 37.499999" height="50" preserveAspectRatio="xMidYMid meet" version="1.0"><defs><clipPath id="id1"><path d="M 0 0.921875 L 37.007812 0.921875 L 37.007812 36 L 0 36 Z M 0 0.921875 " clip-rule="nonzero"/></clipPath><clipPath id="id2"><path d="M 2.015625 2.886719 L 35.765625 2.886719 L 35.765625 33.636719 L 2.015625 33.636719 Z M 2.015625 2.886719 " clip-rule="nonzero"/></clipPath></defs><g clip-path="url(#id1)"><path fill="#665cd1" d="M 3.238281 20.238281 L 18.535156 35.6875 L 33.824219 20.246094 L 33.832031 20.238281 C 35.894531 18.085938 37.074219 15.300781 37.074219 12.296875 C 37.074219 6.019531 32.035156 0.933594 25.820312 0.933594 C 23.222656 0.933594 20.652344 1.96875 18.542969 3.84375 C 16.472656 1.964844 13.839844 0.933594 11.253906 0.933594 C 5.039062 0.933594 0 6.019531 0 12.296875 C 0 15.300781 1.175781 18.085938 3.238281 20.238281 Z M 1.082031 9.269531 C 2.375 4.832031 6.441406 1.589844 11.25 1.589844 C 13.855469 1.589844 16.519531 2.707031 18.535156 4.742188 C 20.617188 2.707031 23.21875 1.589844 25.820312 1.589844 C 31.675781 1.589844 36.421875 6.382812 36.421875 12.296875 C 36.421875 13.242188 36.296875 14.164062 36.0625 15.050781 C 36.300781 14.164062 36.421875 13.242188 36.421875 12.296875 C 36.421875 6.382812 31.675781 1.589844 25.820312 1.589844 C 23.21875 1.589844 20.617188 2.707031 18.535156 4.742188 C 16.519531 2.707031 13.855469 1.589844 11.253906 1.589844 C 6.441406 1.589844 2.375 4.828125 1.082031 9.269531 Z M 2.585938 9.941406 C 2.382812 10.691406 2.277344 11.480469 2.277344 12.296875 C 2.277344 14.660156 3.1875 16.894531 4.8125 18.601562 L 18.535156 32.460938 L 32.261719 18.601562 C 33.335938 17.46875 34.101562 16.109375 34.492188 14.632812 C 34.101562 16.109375 33.335938 17.46875 32.261719 18.601562 L 18.535156 32.460938 L 4.8125 18.601562 C 3.1875 16.894531 2.277344 14.660156 2.277344 12.296875 C 2.277344 11.480469 2.382812 10.691406 2.585938 9.941406 Z M 2.925781 12.296875 C 2.925781 14.484375 3.769531 16.554688 5.277344 18.140625 L 18.535156 31.53125 L 31.796875 18.140625 C 33.304688 16.554688 34.148438 14.484375 34.148438 12.296875 C 34.148438 7.667969 30.40625 3.886719 25.820312 3.886719 C 23.625 3.886719 21.324219 4.972656 19.613281 6.949219 L 19.605469 6.953125 L 18.535156 8.152344 L 17.460938 6.949219 C 15.75 4.972656 13.449219 3.886719 11.253906 3.886719 C 6.667969 3.886719 2.925781 7.667969 2.925781 12.296875 Z M 2.925781 12.296875 " fill-opacity="1" fill-rule="evenodd"/></g><g clip-path="url(#id2)"><path fill="#665cd1" d="M 18.890625 33.535156 L 16.441406 31.347656 C 7.75 23.566406 2.015625 18.429688 2.015625 12.144531 C 2.015625 7.007812 6.089844 2.988281 11.296875 2.988281 C 14.230469 2.988281 17.050781 4.335938 18.890625 6.457031 C 20.730469 4.335938 23.546875 2.988281 26.484375 2.988281 C 31.6875 2.988281 35.765625 7.007812 35.765625 12.144531 C 35.765625 18.429688 30.027344 23.566406 21.335938 31.347656 Z M 18.890625 33.535156 " fill-opacity="1" fill-rule="nonzero"/></g></svg>
