<svg width="41" height="41" viewBox="0 0 41 41" fill="none" xmlns="http://www.w3.org/2000/svg">
    <path fill-rule="evenodd" clip-rule="evenodd" d="M20.125 1.91667C10.0688 1.91667 1.91667 10.0688 1.91667 20.125C1.91667 30.1812 10.0688 38.3333 20.125 38.3333C30.1812 38.3333 38.3333 30.1812 38.3333 20.125C38.3333 10.0688 30.1812 1.91667 20.125 1.91667ZM0 20.125C0 9.01027 9.01027 0 20.125 0C31.2397 0 40.25 9.01027 40.25 20.125C40.25 31.2397 31.2397 40.25 20.125 40.25C9.01027 40.25 0 31.2397 0 20.125Z" fill="#665CD1" />
    <path fill-rule="evenodd" clip-rule="evenodd" d="M29.4549 15.0227L18.9133 26.5227C18.564 26.9036 17.9756 26.939 17.5831 26.6027L10.8748 20.8527L12.1222 19.3975L18.1267 24.5442L28.042 13.7275L29.4549 15.0227Z" fill="#665CD1" />
</svg>