<svg width="30" height="20" viewBox="0 0 30 20" fill="none" xmlns="http://www.w3.org/2000/svg">
<path d="M15.8756 7.34644C15.7545 7.34644 15.7545 7.34644 15.6335 7.34644C15.5124 9.0486 14.181 10.386 12.6074 10.5076C12.8495 11.845 13.9389 12.8177 15.3914 12.8177C16.965 12.8177 18.1754 11.6018 18.1754 10.0213C18.0543 8.68385 17.086 7.5896 15.8756 7.34644V7.34644Z" fill="white"/>
<path d="M15.2703 0.537842C7.40256 0.537842 1.2294 8.92706 0.987311 9.29181C0.624184 9.65656 0.624184 10.2645 0.987311 10.7508C1.2294 11.1156 7.40256 19.5048 15.2703 19.5048C23.1381 19.5048 29.3112 11.1156 29.5533 10.7508C29.9165 10.3861 29.9165 9.77814 29.5533 9.29181C29.3112 8.92706 23.1381 0.537842 15.2703 0.537842V0.537842ZM15.2703 15.2494C12.3653 15.2494 10.0655 12.9393 10.0655 10.0213C10.0655 7.10332 12.3653 4.79324 15.2703 4.79324C18.1753 4.79324 20.4751 7.2249 20.4751 10.0213C20.4751 12.9393 18.1753 15.2494 15.2703 15.2494Z" fill="white"/>
</svg>
