<svg width="36" height="36" viewBox="0 0 36 36" fill="none" xmlns="http://www.w3.org/2000/svg">
<path d="M7 18C7 11.9346 11.9346 7 18 7C20.4496 7 22.7682 7.78812 24.7052 9.2792L22.149 12.5997C20.9514 11.6778 19.5166 11.1905 18 11.1905C14.2452 11.1905 11.1905 14.2452 11.1905 18C11.1905 21.7548 14.2452 24.8095 18 24.8095C21.0242 24.8095 23.5941 22.8282 24.4797 20.0952H18V15.9048H29V18C29 24.0654 24.0654 29 18 29C11.9346 29 7 24.0654 7 18Z" fill="white"/>
<circle cx="18" cy="18" r="17.5" stroke="#5A5A5A"/>
</svg>
