<svg width="138" height="41" viewBox="0 0 138 41" fill="none" xmlns="http://www.w3.org/2000/svg">
<path fill-rule="evenodd" clip-rule="evenodd" d="M132.887 0.818769C135.251 0.818769 137.185 2.74964 137.185 5.11412V35.7988C137.185 38.1633 135.263 40.0942 132.887 40.0942H5.11299C2.74944 40.0942 0.814931 38.1633 0.814931 35.7988V5.11412C0.814931 2.74964 2.73675 0.818769 5.11299 0.818769H132.887ZM132.887 0H5.11299C2.29501 0 0 2.30582 0 5.11412V35.7988C0 38.6173 2.29501 40.913 5.11299 40.913H132.887C135.703 40.913 138 38.6173 138 35.7988V5.11412C138 2.30582 135.703 0 132.887 0Z" fill="#A6A6A6"/>
<path d="M72.6991 13.5338C71.7775 13.5338 71.0007 13.2099 70.3863 12.5722C69.777 11.9524 69.4368 11.0979 69.4521 10.2256C69.4521 9.29461 69.7669 8.50645 70.3863 7.88153C70.9982 7.24386 71.775 6.91992 72.6966 6.91992C73.608 6.91992 74.3848 7.24386 75.0093 7.88153C75.6288 8.52685 75.9436 9.31501 75.9436 10.2256C75.9334 11.1592 75.6186 11.9473 75.0093 12.5697C74.3975 13.2125 73.6207 13.5338 72.6991 13.5338ZM45.2783 13.5338C44.3771 13.5338 43.5951 13.215 42.9554 12.585C42.3207 11.9575 41.9983 11.1643 41.9983 10.2282C41.9983 9.29206 42.3207 8.4988 42.9554 7.87133C43.5825 7.24131 44.3644 6.92247 45.2783 6.92247C45.7251 6.92247 46.1593 7.01175 46.5756 7.19285C46.9843 7.36884 47.3169 7.60861 47.5632 7.90194L47.6241 7.97591L46.9361 8.65439L46.865 8.57021C46.4766 8.10599 45.9562 7.87898 45.2682 7.87898C44.6538 7.87898 44.1181 8.09834 43.6764 8.53195C43.2321 8.96812 43.0062 9.53947 43.0062 10.2307C43.0062 10.9219 43.2321 11.4933 43.6764 11.9295C44.1181 12.3631 44.6538 12.5824 45.2682 12.5824C45.9232 12.5824 46.4741 12.3631 46.9031 11.9295C47.157 11.6744 47.3144 11.3173 47.3702 10.8658H45.1641V9.91187H48.3172L48.3299 9.9986C48.3527 10.1593 48.3756 10.3251 48.3756 10.4781C48.3756 11.3581 48.1115 12.0698 47.5886 12.5952C46.9945 13.2176 46.2177 13.5338 45.2783 13.5338ZM81.737 13.3987H80.7646L77.7867 8.61103L77.8121 9.47316V13.3961H76.8398V7.05766H77.9492L77.9797 7.10612L80.7799 11.6157L80.7545 10.7562V7.05766H81.737V13.3987ZM65.3927 13.3987H64.4076V8.01161H62.6991V7.05766H67.0987V8.01161H65.3901V13.3987H65.3927ZM61.8968 13.3987H60.9143V7.05766H61.8968V13.3987ZM56.3751 13.3987H55.3926V8.01161H53.684V7.05766H58.0837V8.01161H56.3751V13.3987ZM53.0621 13.3885H49.2946V7.05766H53.0621V8.01161H50.2796V9.75118H52.7904V10.6949H50.2796V12.4345H53.0621V13.3885ZM71.1073 11.9167C71.5465 12.358 72.0797 12.5799 72.6991 12.5799C73.3363 12.5799 73.8568 12.3631 74.2909 11.9167C74.7225 11.4831 74.9408 10.9143 74.9408 10.2282C74.9408 9.54202 74.7225 8.97067 74.2934 8.53961C73.8542 8.09834 73.3186 7.87643 72.7016 7.87643C72.0644 7.87643 71.544 8.09324 71.1124 8.53961C70.6808 8.97322 70.4625 9.54202 70.4625 10.2282C70.4625 10.9143 70.6783 11.4856 71.1073 11.9167Z" fill="#171717"/>
<path fill-rule="evenodd" clip-rule="evenodd" d="M69.3605 22.2521C66.9614 22.2521 65.0168 24.081 65.0168 26.6036C65.0168 29.1033 66.9741 30.9551 69.3605 30.9551C71.7596 30.9551 73.7043 29.1135 73.7043 26.6036C73.7043 24.081 71.7596 22.2521 69.3605 22.2521ZM69.3605 29.2308C68.048 29.2308 66.9183 28.1391 66.9183 26.5934C66.9183 25.0247 68.0505 23.956 69.3605 23.956C70.673 23.956 71.8028 25.0247 71.8028 26.5934C71.8053 28.1493 70.673 29.2308 69.3605 29.2308ZM59.8834 22.2521C57.4844 22.2521 55.5397 24.081 55.5397 26.6036C55.5397 29.1033 57.497 30.9551 59.8834 30.9551C62.2825 30.9551 64.2272 29.1135 64.2272 26.6036C64.2272 24.081 62.28 22.2521 59.8834 22.2521ZM59.8834 29.2308C58.5709 29.2308 57.4412 28.1391 57.4412 26.5934C57.4412 25.0247 58.5735 23.956 59.8834 23.956C61.196 23.956 62.3257 25.0247 62.3257 26.5934C62.3257 28.1493 61.196 29.2308 59.8834 29.2308ZM48.6064 23.581V25.4226H53.006C52.8715 26.4557 52.5313 27.2183 52.0109 27.7412C51.366 28.3891 50.3708 29.0931 48.6166 29.0931C45.9128 29.0931 43.7981 26.8995 43.7981 24.183C43.7981 21.4665 45.9128 19.2729 48.6166 19.2729C50.0763 19.2729 51.1401 19.8519 51.9296 20.5916L53.2294 19.2857C52.1327 18.2297 50.6729 17.4211 48.6267 17.4211C44.9177 17.4211 41.8052 20.4565 41.8052 24.1728C41.8052 27.8994 44.9151 30.9245 48.6267 30.9245C50.6298 30.9245 52.1327 30.2664 53.3208 29.0268C54.5318 27.8101 54.9152 26.0935 54.9152 24.7084C54.9152 24.2774 54.8822 23.8897 54.8136 23.5606H48.6039C48.6064 23.5581 48.6064 23.581 48.6064 23.581ZM94.7325 25.0145C94.3695 24.0376 93.2728 22.2419 91.0235 22.2419C88.7945 22.2419 86.9412 24.0045 86.9412 26.5934C86.9412 29.037 88.7741 30.9449 91.2393 30.9449C93.2195 30.9449 94.372 29.7282 94.8468 29.014L93.3769 28.0243C92.8894 28.7513 92.2116 29.2283 91.2494 29.2283C90.2771 29.2283 89.5967 28.7844 89.1448 27.9096L94.9356 25.4992C94.9356 25.5017 94.7325 25.0145 94.7325 25.0145ZM88.8275 26.4684C88.7818 24.7875 90.1273 23.933 91.0895 23.933C91.8485 23.933 92.4807 24.308 92.6965 24.8538L88.8275 26.4684ZM84.1232 30.6847H86.0247V17.9007H84.1232V30.6847ZM81.0006 23.2188H80.932C80.503 22.7062 79.688 22.2419 78.6472 22.2419C76.4867 22.2419 74.4963 24.1524 74.4963 26.6062C74.4963 29.0497 76.4766 30.9372 78.6472 30.9372C79.6754 30.9372 80.503 30.4704 80.932 29.9475H81.0006V30.5725C81.0006 32.233 80.1171 33.1283 78.6929 33.1283C77.5276 33.1283 76.8041 32.2865 76.5096 31.5825L74.8569 32.2763C75.3316 33.4241 76.5984 34.8449 78.6903 34.8449C80.9193 34.8449 82.8081 33.5262 82.8081 30.3097V22.5021H81.0107V23.2188C81.0133 23.2188 81.0006 23.2188 81.0006 23.2188ZM78.8173 29.2308C77.5047 29.2308 76.408 28.1289 76.408 26.6062C76.408 25.0706 77.5047 23.9585 78.8173 23.9585C80.1171 23.9585 81.125 25.0834 81.125 26.6062C81.1377 28.1289 80.1196 29.2308 78.8173 29.2308ZM103.636 17.9007H99.089V30.6847H100.99V25.8435H103.638C105.743 25.8435 107.812 24.3105 107.812 21.8772C107.812 19.4438 105.751 17.9007 103.636 17.9007ZM103.692 24.058H100.988V19.6708H103.692C105.116 19.6708 105.921 20.8518 105.921 21.8644C105.921 22.8669 105.106 24.058 103.692 24.058ZM115.433 22.2292C114.052 22.2292 112.628 22.8439 112.039 24.183L113.725 24.887C114.088 24.183 114.753 23.9432 115.456 23.9432C116.441 23.9432 117.436 24.535 117.459 25.591V25.7262C117.119 25.5323 116.373 25.2364 115.479 25.2364C113.659 25.2364 111.813 26.2363 111.813 28.1111C111.813 29.8277 113.306 30.9296 114.969 30.9296C116.246 30.9296 116.949 30.3506 117.388 29.6797H117.457V30.6694H119.29V25.7721C119.29 23.4918 117.604 22.2292 115.433 22.2292ZM115.195 29.2308C114.573 29.2308 113.702 28.9247 113.702 28.1391C113.702 27.1494 114.788 26.7745 115.715 26.7745C116.553 26.7745 116.949 26.9556 117.447 27.2056C117.309 28.3534 116.345 29.2206 115.195 29.2308ZM125.977 22.5021L123.793 28.0473H123.725L121.463 22.5021H119.417L122.811 30.2536L120.876 34.5617H122.857L128.079 22.5021H125.977ZM108.861 30.6847H110.762V17.9007H108.861V30.6847Z" fill="#171717"/>
<path fill-rule="evenodd" clip-rule="evenodd" d="M10.6213 7.70559C10.3268 8.02442 10.1567 8.5116 10.1567 9.14927V31.7662C10.1567 32.4039 10.3268 32.891 10.6315 33.1971L10.7102 33.266L23.3226 20.5942V20.3111L10.7 7.63672L10.6213 7.70559Z" fill="url(#paint0_linear_201_10418)"/>
<path fill-rule="evenodd" clip-rule="evenodd" d="M27.5201 24.8309L23.3135 20.6044V20.3085L27.5201 16.082L27.6115 16.1381L32.5874 18.9796C34.0117 19.7856 34.0117 21.1171 32.5874 21.9333L27.6115 24.7748L27.5201 24.8309Z" fill="url(#paint1_linear_201_10418)"/>
<path fill-rule="evenodd" clip-rule="evenodd" d="M27.6112 24.7748L23.3132 20.4565L10.6221 33.2074C11.0867 33.7073 11.866 33.7635 12.7368 33.2763L27.6112 24.7748Z" fill="url(#paint2_linear_201_10418)"/>
<path fill-rule="evenodd" clip-rule="evenodd" d="M27.6112 16.1381L12.7368 7.64942C11.866 7.14948 11.0841 7.21835 10.6221 7.71829L23.3132 20.4564L27.6112 16.1381Z" fill="url(#paint3_linear_201_10418)"/>
<path opacity="0.2" fill-rule="evenodd" clip-rule="evenodd" d="M27.5197 24.6829L12.7468 33.1154C11.9218 33.5924 11.1855 33.5592 10.7108 33.1256L10.6321 33.2047L10.7108 33.2736C11.1855 33.7046 11.9218 33.7403 12.7468 33.2634L27.6212 24.7747L27.5197 24.6829Z" fill="black"/>
<path opacity="0.12" fill-rule="evenodd" clip-rule="evenodd" d="M32.5871 21.7854L27.5071 24.683L27.5985 24.7748L32.5744 21.9334C33.2878 21.5253 33.6381 20.9896 33.6381 20.4565C33.5949 20.9463 33.2319 21.4105 32.5871 21.7854Z" fill="black"/>
<path opacity="0.25" fill-rule="evenodd" clip-rule="evenodd" d="M12.7361 7.79742L32.5864 19.1276C33.2312 19.4923 33.5943 19.9693 33.6501 20.4565C33.6501 19.9234 33.2998 19.3877 32.5864 18.9796L12.7361 7.64948C11.3119 6.83071 10.1567 7.51429 10.1567 9.14928V9.29722C10.1567 7.65968 11.3119 6.98885 12.7361 7.79742Z" fill="white"/>
<defs>
<linearGradient id="paint0_linear_201_10418" x1="22.1913" y1="8.90526" x2="1.97585" y2="14.2664" gradientUnits="userSpaceOnUse">
<stop stop-color="#00A0FF"/>
<stop offset="0.00657" stop-color="#00A1FF"/>
<stop offset="0.2601" stop-color="#00BEFF"/>
<stop offset="0.5122" stop-color="#00D2FF"/>
<stop offset="0.7604" stop-color="#00DFFF"/>
<stop offset="1" stop-color="#00E3FF"/>
</linearGradient>
<linearGradient id="paint1_linear_201_10418" x1="34.4448" y1="20.4565" x2="9.81164" y2="20.4565" gradientUnits="userSpaceOnUse">
<stop stop-color="#FFE000"/>
<stop offset="0.4087" stop-color="#FFBD00"/>
<stop offset="0.7754" stop-color="#FFA500"/>
<stop offset="1" stop-color="#FF9C00"/>
</linearGradient>
<linearGradient id="paint2_linear_201_10418" x1="25.2741" y1="22.8063" x2="8.94243" y2="50.165" gradientUnits="userSpaceOnUse">
<stop stop-color="#FF3A44"/>
<stop offset="1" stop-color="#C31162"/>
</linearGradient>
<linearGradient id="paint3_linear_201_10418" x1="7.42631" y1="0.182791" x2="14.7126" y2="12.4017" gradientUnits="userSpaceOnUse">
<stop stop-color="#32A071"/>
<stop offset="0.0685" stop-color="#2DA771"/>
<stop offset="0.4762" stop-color="#15CF74"/>
<stop offset="0.8009" stop-color="#06E775"/>
<stop offset="1" stop-color="#00F076"/>
</linearGradient>
</defs>
</svg>
