<svg width="20" height="19" viewBox="0 0 20 19" fill="none" xmlns="http://www.w3.org/2000/svg">
<path d="M18.846 0.0541316L6.48002 5.00013H3.12402C1.88402 5.00013 0.874023 6.01013 0.874023 7.25013V10.0001C0.874023 11.1781 1.79902 12.0001 3.12402 12.0001H3.97402L4.88202 18.3561C4.93502 18.7261 5.25102 19.0001 5.62402 19.0001H8.62402C8.83802 19.0001 9.04103 18.9091 9.18402 18.7501C9.32603 18.5911 9.39402 18.3791 9.37002 18.1661L8.78002 12.9201L18.845 16.9461C18.936 16.9821 19.03 17.0001 19.124 17.0001C19.271 17.0001 19.419 16.9561 19.545 16.8711C19.751 16.7311 19.874 16.4991 19.874 16.2501V0.750132C19.874 0.501132 19.751 0.269132 19.545 0.129132C19.338 -0.0108684 19.076 -0.0388684 18.846 0.0541316ZM2.37402 10.0001V7.25013C2.37402 6.83713 2.71102 6.50013 3.12402 6.50013H5.87402V10.5001H3.12402C2.78202 10.5001 2.37402 10.4131 2.37402 10.0001ZM7.78502 17.5001H6.27402L5.48902 12.0001H6.48002L7.20102 12.2881L7.78502 17.5001ZM18.374 15.1431L8.19802 11.0721C8.15502 11.0521 8.11402 11.0311 8.06702 11.0191L7.37402 10.7421V6.25813L18.374 1.85813V15.1431Z" fill="#665CD1"/>
</svg>
