<svg width="24" height="16" viewBox="0 0 24 16" fill="none" xmlns="http://www.w3.org/2000/svg">
<path d="M23.2 0H0.8C0.357816 0 0 0.357816 0 0.8V8.37422C0 8.8164 0.357816 9.17422 0.8 9.17422H4.52251C4.9312 10.4322 5.83526 12.7006 7.17188 13.2078C7.33672 13.2695 7.96406 13.593 9.1375 15.1344C9.50234 15.6141 10.0555 15.9125 10.6547 15.9531C10.7016 15.9562 10.7484 15.9578 10.7945 15.9578C11.3422 15.9578 11.8703 15.7406 12.2602 15.35C12.395 15.2151 12.5007 15.0609 12.5923 14.8995C12.9198 15.0899 13.2845 15.193 13.6523 15.193C14.1937 15.193 14.7352 14.9867 15.1476 14.5742C15.3221 14.4 15.4513 14.1994 15.552 13.9887C15.8186 14.0941 16.101 14.1484 16.3836 14.1484C16.9601 14.1484 17.5375 13.9289 17.9766 13.4898C18.1627 13.3037 18.3008 13.0894 18.408 12.8642C18.7313 13.0415 19.0909 13.1453 19.4695 13.1453C20.0633 13.1453 20.6219 12.9133 21.0422 12.493C21.4586 12.0766 21.6875 11.5172 21.6875 10.9164C21.6875 10.3344 21.4617 9.78047 21.0422 9.34844L20.8676 9.17422H23.2C23.6422 9.17422 24 8.81641 24 8.37422V0.8C24 0.357808 23.6422 0 23.2 0V0ZM4.31484 7.57422H1.6V1.6H4.31484V7.57422ZM18.0852 1.6V6.39678L16.3297 4.64453C15.1062 3.42109 13.1141 3.42109 11.8906 4.64453L11.4797 5.05546C10.8227 5.71094 9.68516 5.73437 9.00547 5.11406L12.5188 1.59999H18.0852V1.6ZM19.9109 11.3617C19.6742 11.5977 19.2656 11.5992 19.0289 11.3617L15.7211 8.04922C15.4086 7.73671 14.9023 7.73671 14.5898 8.04922C14.2773 8.36172 14.2773 8.86797 14.5898 9.18046L16.8445 11.4352C17.0992 11.6898 17.1 12.1039 16.8453 12.3586C16.5906 12.6133 16.1766 12.6133 15.9219 12.3586L13.2484 9.68438C12.9359 9.37187 12.4297 9.37187 12.1172 9.68438C11.8047 9.99688 11.8047 10.5031 12.1172 10.8156L14.0169 12.7156C14.2171 12.9165 14.217 13.2424 14.0164 13.443C13.8148 13.643 13.4898 13.643 13.2883 13.443L11.0461 11.2C10.7336 10.8875 10.2273 10.8875 9.91484 11.2C9.60234 11.5117 9.60234 12.0188 9.91484 12.3312L11.1289 13.5469C11.2187 13.6359 11.2687 13.7555 11.2687 13.882C11.2687 14.0094 11.2187 14.1289 11.1289 14.2188C10.9961 14.3508 10.8461 14.3617 10.7625 14.3563C10.6812 14.3508 10.5273 14.3188 10.4109 14.1656C9.37266 12.8016 8.49843 11.9992 7.73906 11.7117C7.19082 11.5037 6.35102 9.74576 5.91485 8.25514V1.6H10.2565L7.30703 4.55C6.99453 4.8625 6.99453 5.36875 7.30703 5.68125L7.8125 6.18672C9.13594 7.51016 11.2875 7.51016 12.6109 6.18672L13.0219 5.77578C13.6211 5.17657 14.5969 5.17422 15.1992 5.77657L19.9024 10.4711C20.0555 10.6289 20.0875 10.8 20.0875 10.9164C20.0875 11.0898 20.025 11.2477 19.9109 11.3617ZM22.4 7.57422H19.6852V1.6H22.4V7.57422Z" fill="#665CD1"/>
</svg>
