<svg width="25" height="19" viewBox="0 0 25 19" fill="none" xmlns="http://www.w3.org/2000/svg">
<path d="M24.3896 0.779297L11.1898 0.779437C10.2507 0.779437 9.3679 1.14511 8.70391 1.80914L8.32737 2.18569L0.389648 2.1855V12.953L5.72754 12.9531L10.5788 17.8043C10.99 18.2156 11.5302 18.4212 12.0704 18.4212C12.6105 18.4212 13.1507 18.2156 13.5619 17.8043C13.8228 17.5434 14.0063 17.2261 14.1024 16.88C14.2518 16.9127 14.404 16.9297 14.5563 16.9297C15.0964 16.9297 15.6366 16.7241 16.0478 16.3128C16.3137 16.047 16.4931 15.727 16.587 15.3882C16.7368 15.4211 16.8894 15.4381 17.0421 15.4381C17.5823 15.4381 18.1225 15.2325 18.5337 14.8213C18.7943 14.5607 18.9777 14.2438 19.0738 13.8982C19.2214 13.9304 19.3734 13.9475 19.5281 13.9475C20.0915 13.9475 20.6212 13.7281 21.0197 13.3297C21.4181 12.9313 21.6375 12.4016 21.6375 11.8381C21.6375 11.7398 21.6308 11.6426 21.6177 11.5469L24.3896 11.5467V0.779297ZM20.0253 12.3353C19.8925 12.4681 19.7159 12.5413 19.5281 12.5413C19.3403 12.5413 19.1637 12.4681 19.0309 12.3353L16.1283 9.43266L15.1339 10.427L17.5394 12.8325C17.6722 12.9653 17.7453 13.1419 17.7453 13.3297C17.7453 13.5175 17.6721 13.6941 17.5393 13.8269C17.2652 14.1011 16.8191 14.1011 16.545 13.8269L14.1395 11.4214L13.1451 12.4158L15.0535 14.3241C15.3276 14.5983 15.3276 15.0443 15.0535 15.3185C14.7793 15.5926 14.3332 15.5926 14.0591 15.3185L12.1508 13.4101L11.1564 14.4045L12.5675 15.8156C12.7003 15.9484 12.7734 16.125 12.7734 16.3128C12.7734 16.5006 12.7002 16.6771 12.5674 16.81C12.2933 17.0841 11.8472 17.0841 11.5731 16.81L6.30996 11.5469L1.7959 11.5468V3.5918L6.92116 3.59189L4.67646 5.83659C4.27802 6.23498 4.05865 6.76472 4.05865 7.32816C4.05865 7.89159 4.27807 8.42128 4.67646 8.81967C5.07485 9.21811 5.60459 9.43753 6.16802 9.43753C6.73146 9.43753 7.26115 9.21811 7.65954 8.81967L10.0748 6.40444H14.2151C14.7785 6.40444 15.3082 6.62386 15.7066 7.02225L20.0253 11.341C20.1581 11.4738 20.2313 11.6504 20.2313 11.8381C20.2312 12.026 20.1581 12.2025 20.0253 12.3353ZM22.9834 10.1405L20.8137 10.1406L16.701 6.02784C16.0369 5.36381 15.1541 4.99814 14.2151 4.99814H9.4923L6.66513 7.82531C6.53234 7.95811 6.35576 8.03128 6.16798 8.03128C5.98015 8.03128 5.80362 7.95811 5.67077 7.82531C5.53798 7.69252 5.46485 7.51594 5.46485 7.32816C5.46485 7.14033 5.53798 6.9638 5.67077 6.83095L9.69823 2.8035C10.0967 2.40511 10.6263 2.18569 11.1897 2.18569L22.9834 2.18555V10.1405Z" fill="#665CD1"/>
</svg>
