<svg width="17" height="17" viewBox="0 0 17 17" fill="none" xmlns="http://www.w3.org/2000/svg">
<path d="M14.0416 2.95898H13.2499V1.37565C13.2499 1.16569 13.1665 0.964324 13.018 0.815858C12.8696 0.667392 12.6682 0.583984 12.4583 0.583984C12.2483 0.583984 12.0469 0.667392 11.8985 0.815858C11.75 0.964324 11.6666 1.16569 11.6666 1.37565V2.95898H5.33325V1.37565C5.33325 1.16569 5.24984 0.964324 5.10138 0.815858C4.95291 0.667392 4.75155 0.583984 4.54158 0.583984C4.33162 0.583984 4.13026 0.667392 3.98179 0.815858C3.83333 0.964324 3.74992 1.16569 3.74992 1.37565V2.95898H2.95825C2.32836 2.95898 1.72427 3.20921 1.27887 3.65461C0.833475 4.1 0.583252 4.7041 0.583252 5.33398V6.12565H16.4166V5.33398C16.4166 4.7041 16.1664 4.1 15.721 3.65461C15.2756 3.20921 14.6715 2.95898 14.0416 2.95898Z" fill="#959595"/>
<path d="M0.583252 14.0423C0.583252 14.6722 0.833475 15.2763 1.27887 15.7217C1.72427 16.1671 2.32836 16.4173 2.95825 16.4173H14.0416C14.6715 16.4173 15.2756 16.1671 15.721 15.7217C16.1664 15.2763 16.4166 14.6722 16.4166 14.0423V7.70898H0.583252V14.0423Z" fill="#959595"/>
</svg>
