<svg width="20" height="20" viewBox="0 0 20 20" fill="none" xmlns="http://www.w3.org/2000/svg">
<path fill-rule="evenodd" clip-rule="evenodd" d="M6 1C6 0.585786 6.33579 0.25 6.75 0.25H12.75C13.1642 0.25 13.5 0.585786 13.5 1C13.5 1.41421 13.1642 1.75 12.75 1.75H6.75C6.33579 1.75 6 1.41421 6 1ZM1.61475 4.75H0.75C0.335787 4.75 0 4.41421 0 4C0 3.58579 0.335787 3.25 0.75 3.25L18.75 3.25C19.1642 3.25 19.5 3.58579 19.5 4C19.5 4.41421 19.1642 4.75 18.75 4.75H17.8855L15.4899 19.1234C15.4296 19.4851 15.1167 19.7501 14.7501 19.7501H4.75012C4.38349 19.7501 4.0706 19.4851 4.01032 19.1234L1.61475 4.75ZM16.3648 4.75L14.1148 18.2501H5.38546L3.13544 4.75L16.3648 4.75ZM8.5 8C8.5 7.58579 8.16421 7.25 7.75 7.25C7.33579 7.25 7 7.58579 7 8L7 15C7 15.4142 7.33579 15.75 7.75 15.75C8.16421 15.75 8.5 15.4142 8.5 15V8ZM11.75 7.25C12.1642 7.25 12.5 7.58579 12.5 8V15C12.5 15.4142 12.1642 15.75 11.75 15.75C11.3358 15.75 11 15.4142 11 15V8C11 7.58579 11.3358 7.25 11.75 7.25Z" fill="black"/>
</svg>
