<svg width="24" height="22" viewBox="0 0 24 22" fill="none" xmlns="http://www.w3.org/2000/svg">
<path  opacity="0.5" fill-rule="evenodd" clip-rule="evenodd" d="M2.22006 12.3583L11.6275 21.7658L21.0304 12.363L21.035 12.3583C22.3034 11.0476 23.0275 9.34924 23.0275 7.5201C23.0275 3.69918 19.9285 0.600098 16.1075 0.600098C14.5104 0.600098 12.9286 1.23195 11.6311 2.37257C10.3575 1.22865 8.73994 0.600098 7.14754 0.600098C3.32662 0.600098 0.227539 3.69918 0.227539 7.5201C0.227539 9.34924 0.951654 11.0476 2.22006 12.3583ZM20.7475 12.0801L11.6275 21.2001L2.50754 12.0801C1.30754 10.8401 0.627539 9.2401 0.627539 7.5201C0.627539 6.9734 0.694879 6.44239 0.821714 5.9349C0.694895 6.44236 0.627563 6.97334 0.627563 7.52C0.627563 9.24 1.30756 10.84 2.50756 12.08L11.6276 21.2L20.7476 12.08C21.346 11.4616 21.8151 10.7538 22.135 9.98614C21.8151 10.7538 21.346 11.4617 20.7475 12.0801ZM11.9875 4.0001L11.6275 4.4001L11.2675 4.0001C10.1475 2.7201 8.62754 2.0001 7.14754 2.0001C4.5692 2.0001 2.39369 3.78406 1.79239 6.18059C2.39365 3.78401 4.56919 2 7.14756 2C8.62756 2 10.1476 2.72 11.2676 4L11.6276 4.4L11.9876 4C13.1076 2.72 14.6276 2 16.1076 2C19.1476 2 21.6276 4.48 21.6276 7.52C21.6276 7.71973 21.6168 7.91792 21.5955 8.11394C21.6168 7.91796 21.6275 7.7198 21.6275 7.5201C21.6275 4.4801 19.1475 2.0001 16.1075 2.0001C14.6275 2.0001 13.1075 2.7201 11.9875 4.0001ZM2.02754 7.5201C2.02754 8.85304 2.54484 10.1132 3.47321 11.0801L11.6275 19.2344L19.7819 11.0801C20.7102 10.1132 21.2275 8.85302 21.2275 7.5201C21.2275 4.70101 18.9266 2.4001 16.1075 2.4001C14.7562 2.4001 13.3419 3.05974 12.2886 4.2635L12.2849 4.26768L11.6275 4.99804L10.9665 4.2635C9.91322 3.05974 8.49886 2.4001 7.14754 2.4001C4.32845 2.4001 2.02754 4.70101 2.02754 7.5201Z" fill="#171717"/>
</svg>
