<svg width="20" height="18" viewBox="0 0 20 18" fill="none" xmlns="http://www.w3.org/2000/svg">
    <path fill-rule="evenodd" clip-rule="evenodd" d="M1.69451 9.99957L9.69494 18L17.6915 10.0035L17.6953 9.99954C18.774 8.88489 19.3899 7.44056 19.3899 5.885C19.3899 2.63557 16.7543 0 13.5049 0C12.1466 0 10.8014 0.537349 9.69799 1.50737C8.61487 0.534541 7.23923 0 5.885 0C2.63557 0 0 2.63557 0 5.885C0 7.44056 0.615811 8.88492 1.69451 9.99957ZM18.8697 7.27724C18.9881 6.82875 19.0497 6.36231 19.0497 5.885C19.0497 2.82344 16.5664 0.340173 13.5049 0.340173C12.1442 0.340173 10.7835 0.918468 9.69494 1.97301C8.6404 0.918468 7.24569 0.340173 5.885 0.340173C3.31811 0.340173 1.15774 2.08579 0.526629 4.4543C1.158 2.08618 3.31819 0.340929 5.8848 0.340929C7.24549 0.340929 8.6402 0.919224 9.69474 1.97376C10.7833 0.919224 12.144 0.340929 13.5047 0.340929C16.5662 0.340929 19.0495 2.82419 19.0495 5.88575C19.0495 6.3628 18.988 6.82898 18.8697 7.27724ZM1.34795 4.67956C1.2452 5.0647 1.1904 5.46904 1.1904 5.88575C1.1904 7.11038 1.66665 8.26697 2.51708 9.15142L9.69474 16.3291L16.8724 9.15142C17.4389 8.56226 17.8393 7.85236 18.0436 7.08202C17.8393 7.85206 17.4389 8.5617 16.8726 9.15066L9.69494 16.3283L2.51728 9.15066C1.66685 8.26621 1.19061 7.10962 1.19061 5.885C1.19061 5.46855 1.24533 5.06447 1.34795 4.67956ZM1.53078 5.885C1.53078 7.01857 1.97071 8.09026 2.76023 8.91253L9.69494 15.8472L16.6297 8.9125C17.4192 8.09023 17.8591 7.01856 17.8591 5.885C17.8591 3.48755 15.9023 1.53078 13.5049 1.53078C12.3557 1.53078 11.1529 2.09176 10.2571 3.11548L10.2539 3.11904L9.69494 3.74015L9.13277 3.11548C8.23702 2.09176 7.0342 1.53078 5.885 1.53078C3.48755 1.53078 1.53078 3.48755 1.53078 5.885Z" fill="#665CD1"/>
    </svg>
