<svg width="252" height="252" viewBox="0 0 252 252" fill="none" xmlns="http://www.w3.org/2000/svg">
    <path d="M125.642 0.00226186C55.5127 0.00226186 0 55.6491 0 125.659C0 196.001 55.5127 252 125.642 252C196.169 252 251.996 195.96 251.996 125.659C252.126 109.141 248.948 92.7613 242.648 77.4723C236.347 62.1834 227.049 48.2898 215.294 36.5984C203.536 24.9072 189.558 15.6516 174.167 9.36913C158.777 3.08669 142.282 -0.0972337 125.642 0.00226186ZM192.552 128.233L141.846 143.821L126.228 193.905L123.908 201.315L121.461 193.759L105.862 143.821L59.214 129.478L48.0285 125.95L59.3397 122.463L105.946 108.141L121.461 58.2643L123.824 50.6885L126.145 58.0984L141.763 108.182L192.552 123.874L199.808 126.095L192.552 128.233Z" fill="url(#paint0_linear_23_10871)" />
    <defs>
        <linearGradient id="paint0_linear_23_10871" x1="-46.5015" y1="276.962" x2="398.949" y2="-99.0466" gradientUnits="userSpaceOnUse">
            <stop stop-color="#333333" />
            <stop offset="1" />
        </linearGradient>
    </defs>
</svg>