<svg width="99" height="22" viewBox="0 0 99 22" fill="none" xmlns="http://www.w3.org/2000/svg">
<path d="M75.1297 13.469V0.0891113H80.326V13.469C80.326 15.9579 81.1511 16.7363 82.3732 16.7363C83.5953 16.7363 84.4204 15.9579 84.4204 13.469V4.63121H89.6132V13.469C89.6132 15.9579 90.4385 16.7363 91.6604 16.7363C92.8825 16.7363 93.7076 15.9579 93.7076 13.469V0.0891113H98.9021V13.469C98.9021 19.3804 95.1742 21.8711 91.6003 21.8711C89.8575 21.8711 88.0847 21.2801 87.015 19.8483C85.9525 21.2766 84.1815 21.8711 82.4316 21.8711C78.856 21.8711 75.1279 19.3717 75.1279 13.469" fill="url(#paint0_linear_169_5617)"/>
<path d="M23.7742 8.48949V21.88H18.5779V8.48949C18.5779 6.00061 17.7526 5.22217 16.5307 5.22217C15.3087 5.22217 14.4834 6.00061 14.4834 8.48949V21.88H9.28899V8.48949C9.28899 6.00061 8.46368 5.22217 7.24169 5.22217C6.01968 5.22217 5.1944 6.00061 5.1944 8.48949V21.88H0V8.48949C0 2.57799 3.72799 0.0891113 7.30191 0.0891113C9.04459 0.0891113 10.8174 0.680084 11.8871 2.11198C12.9497 0.683654 14.7207 0.0891113 16.4705 0.0891113C20.0461 0.0891113 23.7742 2.57799 23.7742 8.48949Z" fill="url(#paint1_linear_169_5617)"/>
<path d="M37.3685 0.194286C31.4285 0.194286 26.7266 4.98099 26.7266 11.0032C26.7266 17.054 31.4285 21.8709 37.3685 21.8709C43.3422 21.8709 48.0708 17.0504 48.0708 11.0032C48.0818 9.5823 47.8127 8.17335 47.279 6.8582C46.7453 5.54306 45.9578 4.34794 44.9621 3.34226C43.9662 2.33659 42.7823 1.54043 41.4786 1.00002C40.1751 0.459606 38.7779 0.185728 37.3685 0.194286ZM43.0358 11.2246L38.741 12.5654L37.4182 16.8736L37.2216 17.511L37.0144 16.8611L35.6932 12.5654L31.742 11.3317L30.7946 11.0282L31.7527 10.7282L35.7003 9.4963L37.0144 5.20594L37.2145 4.55428L37.4111 5.19167L38.7339 9.49986L43.0358 10.8496L43.6504 11.0407L43.0358 11.2246Z" fill="url(#paint2_linear_169_5617)"/>
<path d="M50.8652 11.0032C50.8652 4.98097 55.5654 0.194276 61.509 0.194276C62.9184 0.185957 64.3154 0.46 65.6189 1.0005C66.9222 1.54099 68.1061 2.33716 69.102 3.34279C70.0977 4.34841 70.8852 5.54344 71.4189 6.85847C71.9528 8.17351 72.2221 9.58235 72.2113 11.0032C72.2113 17.0539 67.4809 21.8709 61.509 21.8709C55.5654 21.8709 50.8652 17.0504 50.8652 11.0032ZM67.1852 11.0621C67.1852 7.90191 64.6119 5.19165 61.5374 5.19165C58.4043 5.19165 55.8913 7.90191 55.8913 11.0621C55.8913 14.2544 58.4043 16.8736 61.5374 16.8736C64.6119 16.8736 67.1852 14.2544 67.1852 11.0621Z" fill="url(#paint3_linear_169_5617)"/>
<defs>
<linearGradient id="paint0_linear_169_5617" x1="70.7411" y1="24.0289" x2="109.668" y2="-11.8346" gradientUnits="userSpaceOnUse">
<stop stop-color="#333333"/>
<stop offset="1"/>
</linearGradient>
<linearGradient id="paint1_linear_169_5617" x1="-4.38692" y1="24.0387" x2="34.5544" y2="-11.8236" gradientUnits="userSpaceOnUse">
<stop stop-color="#333333"/>
<stop offset="1"/>
</linearGradient>
<linearGradient id="paint2_linear_169_5617" x1="22.7879" y1="24.0182" x2="61.0015" y2="-7.74389" gradientUnits="userSpaceOnUse">
<stop stop-color="#333333"/>
<stop offset="1"/>
</linearGradient>
<linearGradient id="paint3_linear_169_5617" x1="46.9262" y1="24.0182" x2="85.1404" y2="-7.74697" gradientUnits="userSpaceOnUse">
<stop stop-color="#333333"/>
<stop offset="1"/>
</linearGradient>
</defs>
</svg>
