<svg width="30" height="29" viewBox="0 0 30 29" fill="none" xmlns="http://www.w3.org/2000/svg">
<path d="M29.9999 15.2101C29.9527 18.5071 28.5138 22.0377 25.4976 24.9174C23.3696 26.9491 20.5473 28.2213 17.6049 28.7425C14.3745 29.3148 11.2597 28.9409 8.30531 27.5423C5.39137 26.1628 3.19172 24.053 1.69518 21.2682C0.449692 18.9505 -0.101691 16.4726 0.0153542 13.8694C0.18034 10.1999 1.54068 6.99837 4.18454 4.34539C6.53097 1.99086 9.40015 0.594962 12.7486 0.148088C15.7973 -0.258771 18.7216 0.167326 21.4847 1.49329C24.3404 2.86373 26.7852 4.92247 28.2822 7.64625C29.4455 9.76292 30.0067 12.0284 29.9999 15.2101ZM14.8941 23.1364C14.9416 23.01 14.9685 22.9469 14.9892 22.882C15.6429 20.8376 16.2973 18.7935 16.946 16.7476C16.991 16.6058 17.0589 16.531 17.2104 16.4864C18.5516 16.0912 19.8901 15.6872 21.2291 15.2851C22.0767 15.0306 22.9238 14.7748 23.8098 14.5079C23.7008 14.4673 23.6298 14.4363 23.5559 14.4141C21.444 13.7796 19.3325 13.1438 17.2181 12.5169C17.0567 12.4691 16.9906 12.3901 16.9438 12.2428C16.2947 10.1971 15.6396 8.15324 14.9852 6.10914C14.9653 6.0468 14.9383 5.98655 14.8978 5.88185C14.8596 5.98522 14.8383 6.03649 14.8215 6.08909C14.1669 8.13333 13.5111 10.1772 12.8614 12.2229C12.8102 12.3844 12.7342 12.471 12.5572 12.5234C10.5597 13.1144 8.5656 13.7162 6.57074 14.3155C6.38676 14.3708 6.20376 14.4291 5.9762 14.4997C6.08559 14.536 6.14564 14.5576 6.20676 14.5759C8.31199 15.2072 10.4165 15.8408 12.524 16.465C12.7198 16.5229 12.8122 16.6158 12.8707 16.8062C13.18 17.8115 13.5066 18.8119 13.8278 19.8139C14.1766 20.9019 14.5261 21.9898 14.8941 23.1364Z" fill="white"/>
</svg>
