<svg width="26" height="34" viewBox="0 0 26 34" fill="none" xmlns="http://www.w3.org/2000/svg">
<circle cx="12.7832" cy="12.5176" r="9.52929" fill="#171717"/>
<path d="M12.75 0C9.36986 0.00448382 6.12945 1.34922 3.73934 3.73934C1.34922 6.12945 0.00448382 9.36986 0 12.75C0 21.9034 11.8787 33.3678 12.3834 33.8512C12.4816 33.9466 12.6131 34 12.75 34C12.8869 34 13.0184 33.9466 13.1165 33.8512C13.6212 33.3678 25.5 21.9034 25.5 12.75C25.4955 9.36986 24.1508 6.12945 21.7606 3.73934C19.3705 1.34922 16.1301 0.00448382 12.75 0V0ZM12.75 18.5937C11.5942 18.5937 10.4644 18.251 9.50338 17.6089C8.54238 16.9668 7.79337 16.0541 7.35107 14.9863C6.90877 13.9185 6.79305 12.7435 7.01853 11.6099C7.24401 10.4764 7.80057 9.4351 8.61784 8.61784C9.4351 7.80057 10.4764 7.24401 11.6099 7.01853C12.7435 6.79305 13.9185 6.90877 14.9863 7.35107C16.0541 7.79337 16.9668 8.54238 17.6089 9.50338C18.251 10.4644 18.5937 11.5942 18.5937 12.75C18.5928 14.2996 17.9768 15.7854 16.8811 16.8811C15.7854 17.9768 14.2996 18.5928 12.75 18.5937Z" fill="#171717"/>
<path d="M12.7584 3.6525C7.89808 3.6525 4.05078 7.56776 4.05078 12.4936C4.05078 17.4428 7.89808 21.3828 12.7584 21.3828C17.6463 21.3828 21.5153 17.4398 21.5153 12.4936C21.5243 11.3314 21.3041 10.1789 20.8674 9.10321C20.4308 8.0275 19.7864 7.04996 18.9717 6.22737C18.1568 5.40479 17.1881 4.75357 16.1214 4.31155C15.0548 3.86952 13.9116 3.6455 12.7584 3.6525ZM17.3956 12.6747L13.8814 13.7714L12.799 17.2953L12.6382 17.8166L12.4686 17.285L11.3875 13.7714L8.1546 12.7623L7.37939 12.514L8.16331 12.2687L11.3933 11.261L12.4686 7.75176L12.6324 7.21873L12.7932 7.74008L13.8756 11.2639L17.3956 12.368L17.8984 12.5242L17.3956 12.6747Z" fill="white"/>
</svg>
