<svg width="37" height="37" viewBox="0 0 37 37" fill="none" xmlns="http://www.w3.org/2000/svg">
<path d="M27.8949 33.9597C25.2774 34.477 20.286 35.3451 16.266 35.3451C10.4196 35.3451 3.47041 33.4547 2.92483 33.7273C2.43375 33.9727 1.84234 33.767 1.7474 33.2586C3.80757 29.9219 2.29297 34.4937 2.29297 22.4899C2.29297 21.5792 2.52478 19.6776 2.96367 16.9908C2.9755 16.9183 2.97294 16.8443 2.95615 16.7728C2.93935 16.7014 2.90865 16.6339 2.86579 16.5743C2.82293 16.5148 2.76875 16.4642 2.70635 16.4256C2.64395 16.3869 2.57455 16.3609 2.50211 16.3491C2.42967 16.3373 2.35561 16.3398 2.28416 16.3566C2.21271 16.3734 2.14527 16.4041 2.08568 16.447C2.0261 16.4898 1.97554 16.544 1.93689 16.6064C1.89824 16.6688 1.87226 16.7382 1.86044 16.8107C1.40569 19.5953 1.17513 21.5061 1.17513 22.4899C1.17513 28.2972 1.53445 30.5987 1.6915 31.3272L0.710109 32.7994C0.474804 33.1525 0.658549 34.1608 1.47164 34.6633C1.73352 34.8228 2.02888 34.9192 2.33441 34.945C2.63994 34.9709 2.9473 34.9254 3.23224 34.8121C13.5168 37.0408 18.9987 36.8575 28.1118 35.0566C28.1838 35.0424 28.2523 35.0141 28.3134 34.9734C28.3745 34.9327 28.427 34.8804 28.4679 34.8194C28.5088 34.7584 28.5372 34.69 28.5516 34.618C28.5661 34.546 28.5662 34.4719 28.5519 34.3999C28.5377 34.3279 28.5095 34.2593 28.4688 34.1982C28.4281 34.1371 28.3757 34.0847 28.3147 34.0438C28.2538 34.0029 28.1853 33.9745 28.1133 33.96C28.0414 33.9456 27.9672 33.9455 27.8952 33.9597L27.8949 33.9597Z" fill="#D9D9D9"/>
<path d="M2.29258 15.224H15.1477C15.296 15.224 15.4381 15.1651 15.543 15.0603C15.6478 14.9554 15.7067 14.8133 15.7067 14.665C15.7067 14.5168 15.6478 14.3746 15.543 14.2698C15.4381 14.165 15.296 14.1061 15.1477 14.1061H2.29258C2.14434 14.1061 2.00218 14.0472 1.89736 13.9424C1.79254 13.8376 1.73366 13.6954 1.73366 13.5472C1.73366 13.399 1.79254 13.2568 1.89736 13.152C2.00218 13.0472 2.14434 12.9883 2.29258 12.9883H6.76394C6.91217 12.9883 7.05434 12.9294 7.15915 12.8246C7.26397 12.7198 7.32286 12.5776 7.32286 12.4294C7.32286 12.2811 7.26397 12.139 7.15915 12.0341C7.05434 11.9293 6.91217 11.8704 6.76394 11.8704H2.29258C2.14434 11.8704 2.00218 11.8116 1.89736 11.7067C1.79254 11.6019 1.73366 11.4598 1.73366 11.3115C1.73366 11.1633 1.79254 11.0211 1.89736 10.9163C2.00218 10.8115 2.14434 10.7526 2.29258 10.7526H26.3261C26.4744 10.7526 26.6165 10.6937 26.7214 10.5889C26.8262 10.4841 26.8851 10.3419 26.8851 10.1937C26.8851 10.0455 26.8262 9.90329 26.7214 9.79847C26.6165 9.69365 26.4744 9.63477 26.3261 9.63477H2.29258C0.839385 9.63477 0.0848424 11.3592 1.04381 12.4294C0.0854013 13.4989 0.838406 15.224 2.29258 15.224Z" fill="#D9D9D9"/>
<path d="M6.88513 8.3375C10.7712 4.12834 14.1027 1.81022 16.266 1.81022C18.4293 1.81022 21.7609 4.12834 25.647 8.3375C25.7475 8.44642 25.8872 8.51092 26.0353 8.51683C26.1835 8.52274 26.3279 8.46957 26.4368 8.36901C26.5457 8.26845 26.6102 8.12875 26.6161 7.98062C26.622 7.8325 26.5689 7.6881 26.4683 7.57919C23.5677 4.43715 19.4432 0.692383 16.266 0.692383C13.0889 0.692383 8.96438 4.43715 6.0638 7.57919C6.014 7.63312 5.97532 7.69632 5.94996 7.7652C5.92459 7.83408 5.91305 7.90728 5.91597 7.98062C5.92188 8.12875 5.98639 8.26845 6.0953 8.36901C6.20422 8.46957 6.34862 8.52274 6.49674 8.51683C6.57008 8.51391 6.64213 8.49656 6.70877 8.4658C6.77541 8.43502 6.83534 8.39143 6.88513 8.3375Z" fill="#D9D9D9"/>
<path d="M11.2362 11.8711C11.0879 11.8711 10.9458 11.93 10.8409 12.0348C10.7361 12.1396 10.6772 12.2818 10.6772 12.43C10.6772 12.5782 10.7361 12.7204 10.8409 12.8252C10.9458 12.93 11.0879 12.9889 11.2362 12.9889H16.2664C16.4147 12.9889 16.5568 12.93 16.6617 12.8252C16.7665 12.7204 16.8254 12.5782 16.8254 12.43C16.8254 12.2818 16.7665 12.1396 16.6617 12.0348C16.5568 11.93 16.4147 11.8711 16.2664 11.8711H11.2362Z" fill="#D9D9D9"/>
<path d="M8.99984 12.9889C9.30852 12.9889 9.55876 12.7387 9.55876 12.43C9.55876 12.1213 9.30852 11.8711 8.99984 11.8711C8.69116 11.8711 8.44092 12.1213 8.44092 12.43C8.44092 12.7387 8.69116 12.9889 8.99984 12.9889Z" fill="#D9D9D9"/>
<path d="M13.4715 6.2819C13.7802 6.2819 14.0304 6.03167 14.0304 5.72298C14.0304 5.4143 13.7802 5.16406 13.4715 5.16406C13.1628 5.16406 12.9126 5.4143 12.9126 5.72298C12.9126 6.03167 13.1628 6.2819 13.4715 6.2819Z" fill="#D9D9D9"/>
<path d="M15.1483 4.04557C15.457 4.04557 15.7072 3.79534 15.7072 3.48665C15.7072 3.17797 15.457 2.92773 15.1483 2.92773C14.8396 2.92773 14.5894 3.17797 14.5894 3.48665C14.5894 3.79534 14.8396 4.04557 15.1483 4.04557Z" fill="#D9D9D9"/>
<path d="M16.266 5.72233C16.5746 5.72233 16.8249 5.4721 16.8249 5.16341C16.8249 4.85473 16.5746 4.60449 16.266 4.60449C15.9573 4.60449 15.707 4.85473 15.707 5.16341C15.707 5.4721 15.9573 5.72233 16.266 5.72233Z" fill="#D9D9D9"/>
<path d="M17.9427 4.60514C18.2514 4.60514 18.5016 4.35491 18.5016 4.04622C18.5016 3.73754 18.2514 3.4873 17.9427 3.4873C17.634 3.4873 17.3838 3.73754 17.3838 4.04622C17.3838 4.35491 17.634 4.60514 17.9427 4.60514Z" fill="#D9D9D9"/>
<path d="M19.0604 6.8405C19.3691 6.8405 19.6193 6.59026 19.6193 6.28158C19.6193 5.97289 19.3691 5.72266 19.0604 5.72266C18.7517 5.72266 18.5015 5.97289 18.5015 6.28158C18.5015 6.59026 18.7517 6.8405 19.0604 6.8405Z" fill="#D9D9D9"/>
<path d="M21.2962 8.51725C21.6049 8.51725 21.8551 8.26702 21.8551 7.95833C21.8551 7.64965 21.6049 7.39941 21.2962 7.39941C20.9875 7.39941 20.7373 7.64965 20.7373 7.95833C20.7373 8.26702 20.9875 8.51725 21.2962 8.51725Z" fill="#D9D9D9"/>
<path d="M17.3836 8.51725C17.6923 8.51725 17.9425 8.26702 17.9425 7.95833C17.9425 7.64965 17.6923 7.39941 17.3836 7.39941C17.0749 7.39941 16.8247 7.64965 16.8247 7.95833C16.8247 8.26702 17.0749 8.51725 17.3836 8.51725Z" fill="#D9D9D9"/>
<path d="M14.5892 8.51725C14.8979 8.51725 15.1481 8.26702 15.1481 7.95833C15.1481 7.64965 14.8979 7.39941 14.5892 7.39941C14.2805 7.39941 14.0303 7.64965 14.0303 7.95833C14.0303 8.26702 14.2805 8.51725 14.5892 8.51725Z" fill="#D9D9D9"/>
<path d="M11.2362 8.51725C11.5448 8.51725 11.7951 8.26702 11.7951 7.95833C11.7951 7.64965 11.5448 7.39941 11.2362 7.39941C10.9275 7.39941 10.6772 7.64965 10.6772 7.95833C10.6772 8.26702 10.9275 8.51725 11.2362 8.51725Z" fill="#D9D9D9"/>
<path d="M36.3844 19.6948C36.3835 19.5628 36.3358 19.4353 36.2499 19.3351C36.164 19.2348 36.0453 19.1682 35.915 19.147C36.2077 18.4332 36.3668 17.6716 36.3844 16.9002C36.3836 16.7531 36.3247 16.6123 36.2207 16.5083C36.1167 16.4043 35.9759 16.3455 35.8288 16.3446C35.5774 16.3489 35.3266 16.3699 35.078 16.4075C35.3359 15.6552 35.3426 14.6132 35.2511 14.246C35.286 14.1108 35.2625 14.2266 35.2694 11.3117C35.2694 11.1634 35.2105 11.0213 35.1057 10.9165C35.0008 10.8116 34.8587 10.7527 34.7104 10.7527C34.5622 10.7527 34.4201 10.8116 34.3152 10.9165C34.2104 11.0213 34.1515 11.1634 34.1515 11.3117V13.7885C33.775 13.7867 33.3996 13.8281 33.0325 13.912C33.012 12.6021 32.2495 11.5199 31.9158 11.1084V8.51693C31.9158 8.36869 31.857 8.22653 31.7521 8.12171C31.6473 8.01689 31.5052 7.95801 31.3569 7.95801C31.2087 7.95801 31.0665 8.01689 30.9617 8.12171C30.8569 8.22653 30.798 8.36869 30.798 8.51693V11.1082C30.4643 11.5199 29.7011 12.6028 29.6814 13.9133C29.3143 13.8294 28.9388 13.7879 28.5623 13.7897V11.3115C28.5623 11.1633 28.5034 11.0211 28.3986 10.9163C28.2938 10.8115 28.1516 10.7526 28.0034 10.7526C27.8552 10.7526 27.713 10.8115 27.6082 10.9163C27.5034 11.0211 27.4445 11.1633 27.4445 11.3115C27.4515 14.2168 27.4288 14.1119 27.4622 14.2437C27.3912 14.5204 27.3416 15.5542 27.6333 16.4065C27.1273 16.3332 26.5696 16.2219 26.3717 16.6834C26.1466 16.8044 25.9301 16.9406 25.7237 17.0913C25.604 16.3069 25.1278 15.3796 24.8761 15.0963C24.8444 14.9604 24.8773 15.0738 23.5332 12.4872C23.4645 12.3558 23.3465 12.2571 23.205 12.2127C23.0636 12.1684 22.9103 12.182 22.7789 12.2507C22.6476 12.3193 22.5488 12.4374 22.5045 12.5788C22.4601 12.7203 22.4738 12.8735 22.5424 13.0049L23.6897 15.2001C23.3552 15.3729 23.0416 15.5835 22.7551 15.8278C22.1303 14.6766 20.9532 14.0705 20.4669 13.8603L19.2666 11.5637C19.1976 11.433 19.0796 11.335 18.9385 11.2911C18.7973 11.2471 18.6445 11.2609 18.5135 11.3294C18.3825 11.3979 18.284 11.5154 18.2394 11.6564C18.1949 11.7974 18.2081 11.9502 18.276 12.0815L19.4762 14.378C19.3714 14.8973 19.1967 16.2103 19.7855 17.3808C19.4214 17.4764 19.0694 17.6136 18.7366 17.7898L17.589 15.5938C17.5203 15.4625 17.4023 15.3637 17.2608 15.3194C17.1194 15.275 16.9661 15.2887 16.8347 15.3573C16.7034 15.426 16.6046 15.544 16.5603 15.6854C16.5159 15.8269 16.5296 15.9802 16.5982 16.1115C17.9593 18.7008 17.8795 18.5978 17.972 18.7014C18.0411 18.9974 18.4869 19.9332 19.1257 20.5396C18.8877 20.6212 18.6557 20.7191 18.4313 20.8325C18.3013 20.9014 18.2037 21.0188 18.1597 21.1592C18.1157 21.2995 18.1288 21.4516 18.1962 21.5824C18.569 22.2578 19.0627 22.859 19.6526 23.3563C19.5469 23.4354 19.4727 23.5494 19.4431 23.678C19.4134 23.8066 19.4302 23.9416 19.4906 24.059C19.864 24.7355 20.3586 25.3376 20.9497 25.8353C20.8437 25.9143 20.7691 26.0284 20.7392 26.1572C20.7093 26.286 20.7262 26.4212 20.7866 26.5387C21.159 27.2133 21.6517 27.8138 22.2406 28.3107C22.1353 28.3899 22.0614 28.5038 22.0319 28.6323C22.0025 28.7607 22.0193 28.8955 22.0796 29.0127C22.1215 29.0942 23.1296 31.0158 24.996 31.6009C26.0812 31.9411 27.2982 31.7736 28.3554 31.3671C31.0772 36.575 30.8732 36.2384 31.0203 36.3493C31.0827 36.3966 31.1544 36.4302 31.2306 36.448C31.3069 36.4658 31.3861 36.4673 31.4629 36.4525C31.5398 36.4376 31.6127 36.4067 31.6769 36.3618C31.741 36.3169 31.795 36.259 31.8353 36.1919C32.0088 35.9042 31.8673 35.9194 31.9158 30.2773C32.6715 30.19 34.0283 29.8989 34.9984 28.9289C36.3817 27.5456 36.3847 25.3759 36.3842 25.2842C36.3833 25.1524 36.3358 25.0251 36.2502 24.9249C36.1645 24.8247 36.0462 24.758 35.9161 24.7366C36.208 24.0236 36.3667 23.2631 36.3842 22.4929C36.3833 22.3606 36.3355 22.2329 36.2493 22.1326C36.1631 22.0323 36.0441 21.9657 35.9135 21.9448C36.2071 21.23 36.3667 20.4674 36.3844 19.6948ZM30.7398 20.7581C30.0727 19.9711 29.134 19.5179 28.1315 19.2936C27.7413 18.6968 27.5722 18.0031 27.4995 17.5177C29.4239 17.8061 30.4512 18.8313 30.7398 20.7581ZM30.7403 23.5561C30.0749 22.7709 29.1373 22.3165 28.1333 22.0913C27.742 21.4937 27.5723 20.7988 27.4995 20.3123C29.4265 20.6011 30.4529 21.6291 30.7403 23.5561ZM30.7393 26.3463C30.0739 25.5613 29.1349 25.1069 28.1292 24.8823C27.7401 24.2857 27.5716 23.5929 27.4993 23.1084C29.4583 23.3982 30.455 24.4577 30.7393 26.3465V26.3463ZM23.1562 17.0189C23.4537 16.6244 23.9096 16.3412 24.2382 16.1742C24.8921 17.4055 24.5464 17.9121 24.5579 18.1802C24.1179 18.7029 23.8138 19.3263 23.6727 19.9948L23.1138 18.9249C23.2406 18.2971 23.2549 17.6517 23.1562 17.0189ZM20.4993 15.129C21.7046 15.8339 22.2001 16.7794 22.0905 18.1736C20.8851 17.4689 20.3897 16.5235 20.4993 15.129ZM19.2219 18.7973C19.5476 18.6226 20.0416 18.4092 20.5357 18.391C20.9984 18.8323 21.5356 19.1881 22.1224 19.4421L22.6836 20.5158C22.0534 20.2489 21.367 20.142 20.6855 20.2046C20.4822 20.05 19.8604 20.0398 19.2219 18.7973ZM22.1121 26.5429C22.7029 26.3387 23.6649 26.1154 24.559 26.3958C24.6291 26.4181 24.7029 26.4263 24.7762 26.4199C24.8495 26.4136 24.9208 26.3929 24.9861 26.3589C25.0514 26.325 25.1093 26.2785 25.1565 26.2221C25.2038 26.1657 25.2394 26.1005 25.2615 26.0303C25.2835 25.9601 25.2914 25.8863 25.2848 25.813C25.2782 25.7397 25.2572 25.6685 25.223 25.6033C25.1888 25.5382 25.1421 25.4804 25.0856 25.4334C25.029 25.3864 24.9637 25.3509 24.8934 25.3292C23.9223 25.0248 22.9366 25.1501 22.202 25.3463C21.5772 24.9977 21.1044 24.459 20.8149 24.0615C21.5689 23.799 22.473 23.6684 23.2631 23.9165C23.3332 23.9385 23.4068 23.9465 23.48 23.94C23.5531 23.9335 23.6242 23.9126 23.6892 23.8787C23.7543 23.8447 23.812 23.7982 23.8591 23.7419C23.9062 23.6856 23.9418 23.6206 23.9638 23.5506C23.9858 23.4806 23.9937 23.4069 23.9872 23.3338C23.9807 23.2607 23.9599 23.1895 23.9259 23.1245C23.8919 23.0594 23.8455 23.0017 23.7892 22.9546C23.7329 22.9075 23.6679 22.8719 23.5979 22.8499C22.6259 22.5449 21.6388 22.6707 20.9038 22.8672C20.2809 22.5186 19.8095 21.9813 19.5205 21.5847C20.1087 21.38 21.0679 21.157 21.969 21.4399C23.3843 21.8832 24.2186 23.4581 24.2268 23.4741C24.2355 23.491 24.2452 23.5075 24.2556 23.5235C24.7437 24.308 24.7713 24.9068 25.3176 24.9068C25.4136 24.9066 25.5079 24.8816 25.5915 24.8343C25.6751 24.787 25.7451 24.719 25.7948 24.6369C25.8445 24.5547 25.8722 24.4611 25.8753 24.3652C25.8784 24.2692 25.8568 24.174 25.8124 24.0889C25.6385 23.6512 24.2629 21.7763 24.8385 19.9402C25.1346 18.9947 25.9358 18.3089 26.44 17.9549C26.5171 18.3636 26.6363 18.7632 26.7957 19.1474C26.6654 19.1685 26.5468 19.2351 26.4609 19.3354C26.3751 19.4357 26.3275 19.5631 26.3266 19.6951C26.3443 20.4676 26.5037 21.2304 26.797 21.9453C26.6665 21.9662 26.5476 22.0327 26.4615 22.133C26.3754 22.2332 26.3276 22.3608 26.3266 22.4929C26.3443 23.2632 26.5029 24.0236 26.7947 24.7367C26.6646 24.7581 26.5463 24.8248 26.4606 24.9251C26.375 25.0253 26.3275 25.1527 26.3266 25.2845C26.3262 25.3629 26.3294 26.9582 27.193 28.2838C26.0674 27.5519 24.8238 27.4643 23.4901 27.8215C22.8703 27.4734 22.4006 26.9385 22.1121 26.5429ZM23.404 29.0153C24.1795 28.7454 25.0689 28.6241 25.8522 28.87C26.7475 29.1507 27.4102 29.8845 27.7785 30.3894C25.9524 31.0242 24.5581 30.5978 23.404 29.0153ZM27.4997 25.902C29.4247 26.1905 30.4508 27.215 30.7398 29.142C28.8147 28.8532 27.7886 27.8287 27.4997 25.9017V25.902ZM30.798 33.6277C29.1391 30.472 29.0919 30.2547 28.5681 29.5777C29.3765 30.0425 30.2476 30.2145 30.798 30.2778V33.6277ZM30.798 18.0339C30.363 17.5053 29.8041 17.0925 29.171 16.8322C29.0621 16.6005 28.5161 16.3041 28.5257 14.9071C28.8949 14.9037 29.4318 14.9429 29.8784 15.1556C30.0841 15.7611 30.3955 16.3254 30.798 16.8223V18.0339ZM31.3569 15.683C30.6151 14.5002 30.6141 13.4325 31.3569 12.2478C32.0987 13.4305 32.0998 14.4981 31.3569 15.6828V15.683ZM31.9158 16.8224C32.319 16.3249 32.6306 15.7598 32.8363 15.1533C33.2818 14.9422 33.8156 14.9032 34.1847 14.9058C34.1983 16.3185 33.6607 16.5763 33.5406 16.8322C32.9087 17.0914 32.3505 17.5027 31.9158 18.0295V16.8224ZM31.9711 29.1418C32.2595 27.2171 33.2841 26.1905 35.2111 25.9019C34.9227 27.8264 33.8981 28.853 31.9711 29.1417V29.1418ZM34.5818 24.8816C33.5724 25.1074 32.635 25.5638 31.9718 26.3462C32.2559 24.4579 33.2494 23.4043 35.2115 23.1104C35.1389 23.5946 34.9703 24.286 34.5818 24.8815V24.8816ZM34.5771 22.0916C33.5829 22.3146 32.6399 22.7656 31.9711 23.5556C32.2555 21.6496 33.2622 20.6044 35.2117 20.3124C35.1387 20.7987 34.9689 21.4939 34.5771 22.0917V22.0916ZM34.5785 19.2943C33.5717 19.5196 32.6355 19.9738 31.9713 20.7576C32.2597 18.833 33.2848 17.8064 35.2115 17.5178C35.1387 18.0034 34.9694 18.6974 34.5785 19.2942V19.2943Z" fill="#D9D9D9"/>
</svg>
