<svg width="24" height="23" viewBox="0 0 24 23" fill="none" xmlns="http://www.w3.org/2000/svg">
<mask id="mask0_23_7508" style="mask-type:alpha" maskUnits="userSpaceOnUse" x="0" y="0" width="24" height="23">
<path d="M10.9113 0.743005C11.2442 -0.247669 12.6935 -0.247668 13.0264 0.743007L15.0896 6.88316C15.2384 7.3262 15.6654 7.62616 16.1471 7.62616L22.8236 7.62616C23.9008 7.62616 24.3487 8.95911 23.4772 9.57138L18.0758 13.3662C17.6861 13.64 17.523 14.1254 17.6719 14.5684L19.735 20.7086C20.0679 21.6992 18.8953 22.523 18.0238 21.9108L12.6225 18.1159C12.2327 17.8421 11.705 17.8421 11.3152 18.1159L5.91386 21.9108C5.04239 22.523 3.86982 21.6992 4.2027 20.7086L6.26584 14.5684C6.41471 14.1254 6.25162 13.64 5.86189 13.3662L0.460508 9.57138C-0.41097 8.95911 0.0369118 7.62616 1.11412 7.62616L7.79059 7.62616C8.27233 7.62616 8.69928 7.3262 8.84815 6.88316L10.9113 0.743005Z" fill="#171717"/>
</mask>
<g mask="url(#mask0_23_7508)">
<path d="M10.9113 0.743005C11.2442 -0.247669 12.6935 -0.247668 13.0264 0.743007L15.0896 6.88316C15.2384 7.3262 15.6654 7.62616 16.1471 7.62616L22.8236 7.62616C23.9008 7.62616 24.3487 8.95911 23.4772 9.57138L18.0758 13.3662C17.6861 13.64 17.523 14.1254 17.6719 14.5684L19.735 20.7086C20.0679 21.6992 18.8953 22.523 18.0238 21.9108L12.6225 18.1159C12.2327 17.8421 11.705 17.8421 11.3152 18.1159L5.91386 21.9108C5.04239 22.523 3.86982 21.6992 4.2027 20.7086L6.26584 14.5684C6.41471 14.1254 6.25162 13.64 5.86189 13.3662L0.460508 9.57138C-0.41097 8.95911 0.0369118 7.62616 1.11412 7.62616L7.79059 7.62616C8.27233 7.62616 8.69928 7.3262 8.84815 6.88316L10.9113 0.743005Z" fill="#959595"/>
<rect y="-2.32727" width="15.9585" height="26.5975" fill="#171717"/>
</g>
</svg>
