<svg width="25" height="24" viewBox="0 0 25 24" fill="none" xmlns="http://www.w3.org/2000/svg">
<path   opacity="0.5" fill-rule="evenodd" clip-rule="evenodd" d="M19.886 11.0922C19.886 15.8504 16.0287 19.7078 11.2704 19.7078C6.51214 19.7078 2.65481 15.8504 2.65481 11.0922C2.65481 6.33392 6.51214 2.47659 11.2704 2.47659C16.0287 2.47659 19.886 6.33392 19.886 11.0922ZM18.6112 18.5887C18.6112 18.5886 18.6112 18.5886 18.6112 18.5886L23.3368 23.3142L24.0979 22.5531L24.098 22.5531L23.3368 23.3143L18.6112 18.5887ZM18.32 18.8632C16.4573 20.554 13.9842 21.5843 11.2704 21.5843C5.47579 21.5843 0.77832 16.8868 0.77832 11.0922C0.77832 5.29756 5.47579 0.600098 11.2704 0.600098C17.065 0.600098 21.7625 5.29756 21.7625 11.0922C21.7625 13.4969 20.9535 15.7127 19.5928 17.4822L24.3808 22.2703C24.537 22.4265 24.537 22.6797 24.3808 22.8359L23.6196 23.5971C23.4634 23.7533 23.2102 23.7533 23.0539 23.5971L18.32 18.8632ZM18.3283 18.3058C18.3283 18.3058 18.3283 18.3058 18.3284 18.3057L18.3283 18.3057C18.3283 18.3057 18.3283 18.3058 18.3283 18.3058L18.3283 18.3058ZM19.3074 17.1969L19.3074 17.1969C19.5376 16.8943 19.751 16.5784 19.9464 16.2505C19.751 16.5784 19.5376 16.8944 19.3074 17.1969ZM18.0368 18.58L18.0368 18.58C16.2468 20.1986 13.8737 21.1843 11.2704 21.1843C5.6967 21.1843 1.17832 16.6659 1.17832 11.0922C1.17832 10.6745 1.20369 10.2628 1.25298 9.85848C1.2037 10.2628 1.17834 10.6745 1.17834 11.0921C1.17834 16.6658 5.69673 21.1842 11.2704 21.1842C13.8737 21.1842 16.2468 20.1985 18.0368 18.58ZM20.2763 11.5139C20.2828 11.3741 20.286 11.2335 20.286 11.0922C20.286 6.11301 16.2496 2.07659 11.2704 2.07659C7.1611 2.07659 3.69391 4.82587 2.60789 8.5854C3.69388 4.82582 7.16109 2.07649 11.2704 2.07649C16.2496 2.07649 20.286 6.11291 20.286 11.0921C20.286 11.2335 20.2828 11.3741 20.2763 11.5139Z" fill="#171717"/>
</svg>
