<svg width="18" height="18" viewBox="0 0 18 18" fill="none" xmlns="http://www.w3.org/2000/svg">
<g opacity="0.5">
<path fill-rule="evenodd" clip-rule="evenodd" d="M8.02356 14.9403C11.4404 14.9403 14.2103 12.0043 14.2103 8.38244C14.2103 4.76061 11.4404 1.82454 8.02356 1.82454C4.60674 1.82454 1.83686 4.76061 1.83686 8.38244C1.83686 12.0043 4.60674 14.9403 8.02356 14.9403ZM8.02356 15.7234C11.8484 15.7234 14.949 12.4367 14.949 8.38244C14.949 4.32815 11.8484 1.0415 8.02356 1.0415C4.19876 1.0415 1.09814 4.32815 1.09814 8.38244C1.09814 12.4367 4.19876 15.7234 8.02356 15.7234Z" fill="#665CD1"/>
<path fill-rule="evenodd" clip-rule="evenodd" d="M8.02375 14.2128C11.0616 14.2128 13.5242 11.6024 13.5242 8.3823C13.5242 5.1622 11.0616 2.55179 8.02375 2.55179C4.98591 2.55179 2.52326 5.1622 2.52326 8.3823C2.52326 11.6024 4.98591 14.2128 8.02375 14.2128ZM15.6354 8.3823C15.6354 12.8383 12.2275 16.4506 8.02375 16.4506C3.81995 16.4506 0.412109 12.8383 0.412109 8.3823C0.412109 3.92628 3.81995 0.313965 8.02375 0.313965C12.2275 0.313965 15.6354 3.92628 15.6354 8.3823ZM14.2104 8.3823C14.2104 12.0041 11.4406 14.9402 8.02375 14.9402C4.60692 14.9402 1.83704 12.0041 1.83704 8.3823C1.83704 4.76047 4.60692 1.82439 8.02375 1.82439C11.4406 1.82439 14.2104 4.76047 14.2104 8.3823ZM14.9492 8.3823C14.9492 12.4366 11.8485 15.7232 8.02375 15.7232C4.19894 15.7232 1.09833 12.4366 1.09833 8.3823C1.09833 4.32801 4.19894 1.04136 8.02375 1.04136C11.8485 1.04136 14.9492 4.32801 14.9492 8.3823Z" fill="#665CD1"/>
<path fill-rule="evenodd" clip-rule="evenodd" d="M13.0863 12.7549L16.826 16.719L16.3037 17.2727L12.564 13.3086L13.0863 12.7549Z" fill="#665CD1"/>
<path fill-rule="evenodd" clip-rule="evenodd" d="M13.086 12.0273C13.268 12.0273 13.4426 12.104 13.5712 12.2404L17.311 16.2045C17.579 16.4886 17.579 16.9491 17.311 17.2332L16.7886 17.7869C16.5206 18.0709 16.0861 18.0709 15.8182 17.7869L12.0784 13.8228C11.9497 13.6864 11.8774 13.5013 11.8774 13.3084C11.8774 13.1155 11.9497 12.9305 12.0784 12.7941L12.6008 12.2404C12.7295 12.104 12.904 12.0273 13.086 12.0273ZM13.086 12.7547L16.8257 16.7188L16.3034 17.2725L12.5637 13.3084L13.086 12.7547Z" fill="#665CD1"/>
</g>
</svg>
