<svg width="55" height="49" viewBox="0 0 55 49" fill="none" xmlns="http://www.w3.org/2000/svg">
<path d="M52.7742 10.0816L9.63993 0C9.40801 0.992141 4.8947 20.3024 4.59907 21.567L13.8421 23.7274L12.4018 29.8895L17.6379 31.1134L10.843 39.4512H3.57909V33.1231H0.415039V48.9433H3.57909V42.6152H12.3462L21.0667 31.9147L27.8071 33.4901L29.2473 27.3281L44.6524 30.9287L45.3725 27.8476L51.5345 29.2879L54.415 16.9638L50.5415 16.0585C52.2834 13.3429 52.4933 11.0268 52.7742 10.0816ZM12.0008 3.80108L48.8633 12.4168C46.8937 17.4605 41.4518 20.4323 36.0291 19.1651L9.84053 13.0441C10.1557 11.6958 11.7232 4.98897 12.0008 3.80108ZM25.4462 29.6889L16.2031 27.5286L16.9233 24.4476L26.1663 26.6079L25.4462 29.6889ZM8.40026 19.2061L9.1204 16.1251L35.309 22.2461C38.0781 22.8933 40.9295 22.6975 43.559 21.7042L42.2915 27.1274L8.40026 19.2061ZM49.1736 25.4867L46.0926 24.7666L47.2987 19.6065C47.6348 19.345 47.9593 19.0683 48.2715 18.7773L50.6137 19.3246L49.1736 25.4867Z" fill="#171717"/>
</svg>
