<svg width="30" height="30" viewBox="0 0 30 30" fill="none" xmlns="http://www.w3.org/2000/svg">
<g clip-path="url(#clip0_523_30519)">
<path d="M14.08 1.73212C14.4717 0.99471 15.5283 0.99471 15.92 1.73212L19.3638 8.21618C19.5143 8.49966 19.7872 8.6979 20.1033 8.75349L27.3342 10.0251C28.1566 10.1697 28.4831 11.1746 27.9028 11.7749L22.8003 17.0539C22.5772 17.2847 22.473 17.6054 22.5178 17.9233L23.5429 25.1932C23.6595 26.02 22.8047 26.6411 22.0544 26.2747L15.4571 23.0532C15.1686 22.9123 14.8314 22.9123 14.5429 23.0532L7.9456 26.2747C7.19531 26.641 6.34049 26.02 6.45707 25.1932L7.48221 17.9233C7.52702 17.6054 7.4228 17.2847 7.19972 17.0539L2.09721 11.7749C1.51692 11.1746 1.84343 10.1697 2.66578 10.0251L9.89668 8.75349C10.2128 8.6979 10.4857 8.49966 10.6362 8.21618L14.08 1.73212Z" fill="#665CD1"/>
</g>
<defs>
<clipPath id="clip0_523_30519">
<rect width="30" height="30" fill="white"/>
</clipPath>
</defs>
</svg>
