<svg width="45" height="29" viewBox="0 0 45 29" fill="none" xmlns="http://www.w3.org/2000/svg">
<path d="M44.341 26.7725H43.5911V11.9316C43.5911 11.5676 43.296 11.2725 42.9319 11.2725C42.5679 11.2725 42.2727 11.5676 42.2727 11.9316V26.7725H39.3639V16.1591C39.3639 15.7951 39.0688 15.4999 38.7047 15.4999H24.6139C24.2499 15.4999 23.9547 15.7951 23.9547 16.1591V26.7725H21.0458V16.1591C21.0458 15.7951 20.7507 15.4999 20.3866 15.4999H6.29601C5.93197 15.4999 5.63683 15.7951 5.63683 16.1591V26.7725H2.728V26.0225C2.728 25.6585 2.43286 25.3634 2.06882 25.3634C1.70478 25.3634 1.40964 25.6585 1.40964 26.0225V26.7725H0.659668C0.295625 26.7725 0.000488281 27.0676 0.000488281 27.4317C0.000488281 27.7957 0.295625 28.0909 0.659668 28.0909H44.341C44.705 28.0909 45.0002 27.7957 45.0002 27.4317C45.0002 27.0676 44.705 26.7725 44.341 26.7725ZM19.7276 26.7724H6.95519V25.2726H19.7276V26.7724ZM19.7276 23.9544H6.95519V22.4546H19.7276V23.9544ZM19.7276 21.1363H6.95519V19.6365H19.7276V21.1363ZM19.7276 18.318H6.95519V16.8183H19.7276V18.318ZM38.0455 26.7724H25.2731V25.2726H38.0455V26.7724ZM38.0455 23.9544H25.2731V22.4546H38.0455V23.9544ZM38.0455 21.1363H25.2731V19.6365H38.0455V21.1363ZM38.0455 18.318H25.2731V16.8183H38.0455V18.318Z" fill="#D9D9D9"/>
<path d="M20.3861 9.86328H6.29541C5.93137 9.86328 5.63623 10.1584 5.63623 10.5225V13.3406C5.63623 13.7046 5.93137 13.9998 6.29541 13.9998H20.3862C20.7503 13.9998 21.0454 13.7046 21.0454 13.3406V10.5225C21.0453 10.1584 20.7502 9.86328 20.3861 9.86328ZM9.86342 12.6814H6.95459V11.1816H9.86351V12.6814H9.86342ZM15.4998 12.6814H11.1818V11.1816H15.4998V12.6814ZM19.727 12.6814H16.8181V11.1816H19.727V12.6814Z" fill="#D9D9D9"/>
<path d="M38.7046 9.86328H24.6138C24.2497 9.86328 23.9546 10.1584 23.9546 10.5225V13.3406C23.9546 13.7046 24.2497 13.9998 24.6138 13.9998H38.7046C39.0686 13.9998 39.3638 13.7046 39.3638 13.3406V10.5225C39.3638 10.1584 39.0686 9.86328 38.7046 9.86328ZM28.1819 12.6814H25.2729V11.1816H28.1819V12.6814ZM33.8181 12.6814H29.5001V11.1816H33.8181V12.6814ZM38.0454 12.6814H35.1365V11.1816H38.0454V12.6814Z" fill="#D9D9D9"/>
<path d="M44.543 7.07724L22.7024 0.0318384C22.5708 -0.0106128 22.4292 -0.0106128 22.2976 0.0318384L0.456975 7.07724C0.11051 7.18895 -0.0797731 7.56047 0.0320238 7.90693C0.143821 8.2534 0.515071 8.44368 0.8618 8.33188L1.40936 8.15522V23.2044C1.40936 23.5684 1.7045 23.8636 2.06854 23.8636C2.43258 23.8636 2.72772 23.5684 2.72772 23.2044V7.73001L22.5 1.35178L42.2725 7.73001V9.11393C42.2725 9.47798 42.5676 9.77311 42.9316 9.77311C43.2957 9.77311 43.5908 9.47798 43.5908 9.11393V8.15531L44.1383 8.33188C44.2056 8.35359 44.2737 8.36387 44.3408 8.36387C44.6191 8.36387 44.878 8.18607 44.968 7.90693C45.0798 7.56047 44.8895 7.18895 44.543 7.07724Z" fill="#D9D9D9"/>
</svg>
