<svg width="99" height="99" viewBox="0 0 99 99" fill="none" xmlns="http://www.w3.org/2000/svg">
<circle cx="49.5" cy="49.5" r="49.5" fill="#665CD1"/>
<path d="M37.555 40.0742H57.0001V42.8521H37.555V40.0742Z" fill="white"/>
<path d="M37.555 45.6311H54.2222V48.409H37.555V45.6311Z" fill="white"/>
<path d="M37.555 51.1853H48.6665V53.9632H37.555V51.1853Z" fill="white"/>
<path d="M37.555 56.7424H48.6665V59.5203H37.555V56.7424Z" fill="white"/>
<path d="M65.3344 51.186V35.1472L56.1871 26H32V73.4089H63.7201C64.5848 73.3161 73.668 70.697 73.668 60.9085V51.186H65.3344ZM56.9871 30.7284L60.5923 34.3336H56.9871V30.7284ZM34.7779 28.7779H54.2092V37.1115H62.5565V51.186H54.2229V60.9085C54.2229 63.7581 55.1169 66.4358 56.8083 68.652C57.3596 69.3743 57.9883 70.0352 58.6819 70.631H34.7779V28.7779ZM70.8901 60.9085C70.8901 65.2842 68.2421 68.939 63.9454 70.547C59.6488 68.9391 57.0008 65.2843 57.0008 60.9085V53.9638H70.8901V60.9085Z" fill="white"/>
<path d="M60.6478 58.9694L58.6954 60.9449L63.4599 65.6531L69.2642 58.5507L67.1136 56.7932L63.241 61.532L60.6478 58.9694Z" fill="white"/>
</svg>
