<svg width="42" height="47" viewBox="0 0 42 47" fill="none" xmlns="http://www.w3.org/2000/svg">
<path d="M5.50781 13.9531H24.7852V16.707H5.50781V13.9531Z" fill="#171717"/>
<path d="M5.50781 19.4609H22.0313V22.2148H5.50781V19.4609Z" fill="#171717"/>
<path d="M5.50781 24.9688H16.5234V27.7227H5.50781V24.9688Z" fill="#171717"/>
<path d="M5.50781 30.4766H16.5234V33.2305H5.50781V30.4766Z" fill="#171717"/>
<path d="M33.0469 24.9688V9.06834L23.9785 0H0V47H31.4465C32.3038 46.908 41.3086 44.3115 41.3086 34.6074V24.9688H33.0469ZM24.7716 4.68761L28.3457 8.26172H24.7716V4.68761ZM2.75391 2.75391H22.0177V11.0156H30.293V24.9688H22.0312V34.6074C22.0312 37.4325 22.9175 40.0871 24.5943 42.2841C25.1409 43.0002 25.7642 43.6554 26.4517 44.2461H2.75391V2.75391ZM38.5547 34.6074C38.5547 38.9454 35.9295 42.5687 31.6699 44.1628C27.4104 42.5688 24.7852 38.9455 24.7852 34.6074V27.7227H38.5547V34.6074Z" fill="#171717"/>
<path d="M28.4003 32.6867L26.4648 34.6451L31.1883 39.3127L36.9425 32.2717L34.8104 30.5293L30.9712 35.2272L28.4003 32.6867Z" fill="#171717"/>
</svg>
