<svg width="41" height="25" viewBox="0 0 41 25" fill="none" xmlns="http://www.w3.org/2000/svg">
<path d="M40.6446 22.9882L34.5461 18.4144C34.0743 18.0605 33.4534 18.0045 32.9259 18.2682C32.8731 18.2946 32.8229 18.3244 32.7742 18.3559L28.1772 14.9081V13.8939H31.5886C32.504 13.8939 33.2776 13.2386 33.4281 12.3356L35.0742 2.45921H35.206C35.5342 2.45921 35.8003 2.1931 35.8003 1.86486C35.8003 1.53661 35.5342 1.2705 35.206 1.2705H28.2181C27.732 1.2705 27.2783 1.41037 26.8941 1.65128C26.7877 0.723293 25.9979 0 25.0418 0H4.49552C3.65811 0 2.8707 0.326104 2.27841 0.918322L0.481704 2.7151C0.249588 2.94722 0.249588 3.32357 0.481704 3.5556L2.38745 5.46135C2.50347 5.57737 2.65563 5.63546 2.8077 5.63546C2.95978 5.63546 3.11193 5.57745 3.22795 5.46135L4.95967 3.72963H13.0128V5.08191H7.88977C7.21173 5.08191 6.66017 5.63348 6.66017 6.31152V12.705H6.61928C5.94123 12.705 5.38967 13.2565 5.38967 13.9346V18.4037C4.61938 18.9755 4.11917 19.8916 4.11917 20.9224C4.11917 22.6513 5.52574 24.0578 7.25452 24.0578C8.78012 24.0578 10.0541 22.9623 10.3327 21.5168H21.0512C21.7549 23.0164 23.2786 24.0578 25.0417 24.0578C27.1579 24.0578 28.9299 22.558 29.3518 20.5656L32.0705 21.925V22.5105C32.0705 23.3637 32.7646 24.0578 33.6178 24.0578H40.288C40.5438 24.0578 40.771 23.894 40.8519 23.6514C40.9328 23.409 40.8493 23.1417 40.6446 22.9882ZM32.5849 10.1641H29.4886C29.4661 10.1641 29.4477 10.1458 29.4477 10.1233V5.00029H33.4456L32.5849 10.1641ZM26.9067 3.77068C26.9067 3.04755 27.4949 2.45921 28.2181 2.45921H33.8691L33.6437 3.81157H28.8534C28.5251 3.81157 28.259 4.07769 28.259 4.40593V10.1233C28.259 10.8013 28.8106 11.3529 29.4886 11.3529H32.3868L32.2556 12.1402C32.201 12.4676 31.9205 12.7051 31.5886 12.7051H26.9067V3.77068ZM4.71353 2.54108C4.5559 2.54108 4.4047 2.60368 4.29328 2.71518L2.80778 4.20068L1.74253 3.13543L3.11907 1.7589C3.48677 1.39119 3.97565 1.18871 4.4956 1.18871H13.0129V2.54108H4.71353ZM7.25452 22.8694C6.18112 22.8694 5.30789 21.9961 5.30789 20.9226C5.30789 19.8492 6.18119 18.976 7.25452 18.976C8.32786 18.976 9.20116 19.8493 9.20116 20.9226C9.20116 21.996 8.32793 22.8694 7.25452 22.8694ZM20.6879 20.3283H10.3327C10.0541 18.8828 8.7802 17.7873 7.2546 17.7873C7.02241 17.7873 6.79639 17.8134 6.57846 17.8615V13.9348C6.57846 13.9122 6.59677 13.8939 6.61935 13.8939H8.5251C8.85335 13.8939 9.11946 13.6278 9.11946 13.2996C9.11946 12.9713 8.85335 12.7052 8.5251 12.7052H7.84896V6.31176C7.84896 6.28917 7.86727 6.27087 7.88985 6.27087H22.5009C22.8291 6.27087 23.0953 6.00475 23.0953 5.67651C23.0953 5.34827 22.8291 5.08215 22.5009 5.08215H14.2015V1.18871H25.0418C25.4147 1.18871 25.718 1.49207 25.718 1.86486V3.77068V5.08207H25.0415C24.7133 5.08207 24.4471 5.34819 24.4471 5.67643C24.4471 6.00467 24.7133 6.27079 25.0415 6.27079H25.718V12.7051H11.0663C10.738 12.7051 10.4719 12.9713 10.4719 13.2995C10.4719 13.6277 10.738 13.8939 11.0663 13.8939H26.9885V15.7009C26.401 15.4103 25.7403 15.2462 25.0418 15.2462C22.6124 15.2462 20.6359 17.2227 20.6359 19.6521C20.6359 19.882 20.6537 20.1078 20.6879 20.3283ZM25.0418 22.8694C23.2679 22.8694 21.8246 21.4261 21.8246 19.6521C21.8246 17.8782 23.2678 16.4349 25.0418 16.4349C26.8159 16.4349 28.259 17.8781 28.259 19.6521C28.259 21.4262 26.8158 22.8694 25.0418 22.8694ZM32.0706 19.6521V20.5962L29.4306 19.2763C29.341 18.2222 28.8795 17.2728 28.1772 16.5606V16.394L32.1025 19.338C32.0817 19.4399 32.0706 19.545 32.0706 19.6521ZM33.6178 22.8694C33.4201 22.8694 33.2593 22.7085 33.2593 22.5108V19.6521C33.2593 19.4522 33.3979 19.3613 33.4575 19.3315C33.4895 19.3155 33.549 19.292 33.622 19.292C33.6853 19.292 33.7587 19.3096 33.833 19.3653L38.505 22.8694H33.6178Z" fill="#D9D9D9"/>
<path d="M26.3126 19.0577C25.9844 19.0577 25.7182 19.3238 25.7182 19.6521C25.7182 20.0249 25.4149 20.3282 25.0421 20.3282C24.6693 20.3282 24.366 20.0249 24.366 19.6521C24.366 19.4114 24.4957 19.1868 24.7044 19.066C24.9885 18.9017 25.0857 18.5381 24.9213 18.2539C24.757 17.9697 24.3933 17.8726 24.1092 18.037C23.5343 18.3695 23.1772 18.9884 23.1772 19.652C23.1772 20.6803 24.0139 21.5169 25.0421 21.5169C26.0703 21.5169 26.907 20.6802 26.907 19.652C26.907 19.3238 26.6408 19.0577 26.3126 19.0577Z" fill="#D9D9D9"/>
<path d="M7.2611 20.3281H7.25476C6.92652 20.3281 6.66357 20.5942 6.66357 20.9225C6.66357 21.2507 6.93286 21.5168 7.2611 21.5168C7.58935 21.5168 7.85546 21.2507 7.85546 20.9225C7.85546 20.5942 7.58935 20.3281 7.2611 20.3281Z" fill="#D9D9D9"/>
<path d="M18.6886 17.7871H11.0655C10.7373 17.7871 10.4712 18.0532 10.4712 18.3815C10.4712 18.7097 10.7373 18.9758 11.0655 18.9758H18.6886C19.0169 18.9758 19.283 18.7097 19.283 18.3815C19.283 18.0532 19.0169 17.7871 18.6886 17.7871Z" fill="#D9D9D9"/>
<path d="M13.6066 10.1641H9.79504C9.4668 10.1641 9.20068 10.4302 9.20068 10.7584C9.20068 11.0867 9.4668 11.3528 9.79504 11.3528H13.6066C13.9349 11.3528 14.201 11.0867 14.201 10.7584C14.201 10.4302 13.9349 10.1641 13.6066 10.1641Z" fill="#D9D9D9"/>
<path d="M13.6066 7.62305H9.79504C9.4668 7.62305 9.20068 7.88916 9.20068 8.2174C9.20068 8.54565 9.4668 8.81176 9.79504 8.81176H13.6066C13.9349 8.81176 14.201 8.54565 14.201 8.2174C14.201 7.88916 13.9349 7.62305 13.6066 7.62305Z" fill="#D9D9D9"/>
</svg>
