<svg width="21" height="19" viewBox="0 0 21 19" fill="none" xmlns="http://www.w3.org/2000/svg">
<path d="M19.8686 12.3814C19.7045 12.2173 19.482 12.1252 19.25 12.1252C19.018 12.1252 18.7955 12.2173 18.6314 12.3814L15.75 15.2628V1.625C15.75 1.39294 15.6578 1.17038 15.4937 1.00628C15.3296 0.842187 15.1071 0.75 14.875 0.75C14.6429 0.75 14.4204 0.842187 14.2563 1.00628C14.0922 1.17038 14 1.39294 14 1.625V15.2628L11.1186 12.3814C10.9536 12.222 10.7326 12.1338 10.5031 12.1358C10.2737 12.1378 10.0543 12.2298 9.89202 12.392C9.72979 12.5543 9.63777 12.7737 9.63578 13.0031C9.63378 13.2326 9.72198 13.4536 9.88136 13.6186L14.2564 17.9936C14.3376 18.0751 14.4342 18.1398 14.5405 18.1839C14.6468 18.228 14.7608 18.2507 14.8759 18.2507C14.991 18.2507 15.1049 18.228 15.2112 18.1839C15.3175 18.1398 15.4141 18.0751 15.4954 17.9936L19.8704 13.6186C20.0342 13.4543 20.126 13.2317 20.1257 12.9996C20.1254 12.7676 20.0329 12.5452 19.8686 12.3814Z" fill="#5A5A5A"/>
<path d="M11.1185 5.38123L6.74352 1.00623C6.66203 0.924579 6.56505 0.860024 6.45827 0.816358C6.24422 0.727881 6.00382 0.727881 5.78977 0.816358C5.68299 0.860024 5.58601 0.924579 5.50452 1.00623L1.12952 5.38123C0.965452 5.54553 0.873371 5.76828 0.873535 6.00048C0.873699 6.23267 0.966095 6.45529 1.1304 6.61936C1.2947 6.78343 1.51745 6.87551 1.74964 6.87534C1.98183 6.87518 2.20445 6.78278 2.36852 6.61848L5.2499 3.73711V17.3749C5.2499 17.6069 5.34208 17.8295 5.50618 17.9936C5.67027 18.1577 5.89283 18.2499 6.1249 18.2499C6.35696 18.2499 6.57952 18.1577 6.74361 17.9936C6.90771 17.8295 6.9999 17.6069 6.9999 17.3749V3.73711L9.88127 6.61848C10.0463 6.77787 10.2673 6.86607 10.4967 6.86407C10.7262 6.86208 10.9456 6.77006 11.1079 6.60782C11.2701 6.44559 11.3621 6.22613 11.3641 5.99671C11.3661 5.76729 11.2779 5.54626 11.1185 5.38123Z" fill="#5A5A5A"/>
</svg>
