<svg width="22" height="22" viewBox="0 0 22 22" fill="none" xmlns="http://www.w3.org/2000/svg">
<path d="M17.7892 13.0469C16.3935 13.0469 15.2581 14.1824 15.2581 15.5781C15.2581 16.9735 16.3935 18.109 17.7892 18.109C19.1851 18.109 20.3204 16.9735 20.3204 15.5781C20.3204 14.1824 19.1849 13.0469 17.7892 13.0469ZM17.7892 16.6894C17.1761 16.6894 16.6774 16.1908 16.6774 15.5778C16.6774 14.9647 17.1761 14.466 17.7892 14.466C18.4024 14.466 18.901 14.9649 18.901 15.5778C18.9011 16.1907 18.4024 16.6894 17.7892 16.6894Z" fill="#665CD1"/>
<path d="M14.1462 3.89062H0.709672C0.317711 3.89062 0 4.20834 0 4.60034V15.5294C0 15.9213 0.317711 16.239 0.709672 16.239H2.93335V14.8197H1.41934V5.31001H13.4365V15.5294H14.8559V4.60034C14.8559 4.20834 14.5382 3.89062 14.1462 3.89062Z" fill="#665CD1"/>
<path d="M15.9677 14.8203H6.41077V16.2397H15.9677V14.8203Z" fill="#665CD1"/>
<path d="M4.66023 13.0469C3.26452 13.0469 2.12903 14.1824 2.12903 15.5781C2.12903 16.9735 3.26452 18.109 4.66023 18.109C6.05594 18.109 7.19143 16.9735 7.19143 15.5781C7.19139 14.1824 6.05594 13.0469 4.66023 13.0469ZM4.66023 16.6894C4.04707 16.6894 3.54841 16.1908 3.54841 15.5778C3.54841 14.9647 4.04707 14.466 4.66023 14.466C5.2734 14.466 5.77205 14.9649 5.77205 15.5778C5.77205 16.1907 5.27314 16.6894 4.66023 16.6894Z" fill="#665CD1"/>
<path d="M21.2904 9.78125H14.1462V11.2006H20.5806V14.8199H19.5634V16.2393H21.2903C21.6823 16.2393 22 15.9218 22 15.5296V10.4909C22 10.099 21.6823 9.78125 21.2904 9.78125Z" fill="#665CD1"/>
<path d="M19.1445 6.8383C19.0199 6.61168 18.7814 6.4707 18.5226 6.4707H14.1462V7.89005H18.1029L19.7222 10.8343L20.966 10.1501L19.1445 6.8383Z" fill="#665CD1"/>
</svg>
