<svg width="45" height="30" viewBox="0 0 45 30" fill="none" xmlns="http://www.w3.org/2000/svg">
<path d="M44.2751 19.6059L42.3343 15.2393C41.8934 14.2472 40.9069 13.6061 39.8212 13.6061H36.2921C35.5463 13.6061 34.9395 14.2128 34.9395 14.9587V21.9465C34.9395 22.3076 35.2323 22.6003 35.5933 22.6003C35.9544 22.6003 36.2471 22.3076 36.2471 21.9465V14.9587C36.2471 14.9338 36.2673 14.9137 36.2921 14.9137H37.7346V20.549C37.7346 21.6801 38.6549 22.6003 39.786 22.6003H43.325V24.0879H33.4519V13.5611C33.4519 12.43 32.5316 11.5098 31.4006 11.5098H24.8655C24.5044 11.5098 24.2117 11.8025 24.2117 12.1636C24.2117 12.5246 24.5044 12.8174 24.8655 12.8174H31.4006C31.8107 12.8174 32.1443 13.1511 32.1443 13.5611V24.088H2.05135C1.64121 24.088 1.30759 23.7543 1.30759 23.3442V13.5611C1.30759 13.151 1.64129 12.8174 2.05135 12.8174H8.58706C8.94813 12.8174 9.24086 12.5246 9.24086 12.1636C9.24086 11.8025 8.94813 11.5098 8.58706 11.5098H2.05135C0.920285 11.5097 0 12.43 0 13.5611V23.3442C0 24.4753 0.920285 25.3955 2.05135 25.3955H5.30151C5.04182 25.8152 4.89154 26.3094 4.89154 26.8381C4.89154 28.3545 6.12521 29.5883 7.64167 29.5883C8.48097 29.5883 9.23318 29.21 9.738 28.6154C10.2429 29.21 10.9951 29.5883 11.8344 29.5883C13.3509 29.5883 14.5846 28.3545 14.5846 26.8381C14.5846 26.3094 14.4342 25.8152 14.1746 25.3955H22.3613V26.8381C22.3613 27.5839 22.968 28.1907 23.7138 28.1907H25.5134C25.9864 29.0243 26.8816 29.5883 27.9065 29.5883C28.9314 29.5883 29.8266 29.0243 30.2996 28.1907H35.9952C36.4682 29.0243 37.3634 29.5883 38.3883 29.5883C39.4132 29.5883 40.3083 29.0243 40.7813 28.1907H43.2797C44.0256 28.1907 44.6323 27.5839 44.6323 26.8381V21.2905C44.6326 20.7063 44.5123 20.1395 44.2751 19.6059ZM39.786 21.2927C39.3759 21.2927 39.0422 20.9591 39.0422 20.549V14.9137H39.8212C40.3907 14.9137 40.9082 15.2499 41.1394 15.7703L43.0802 20.137C43.2426 20.5024 43.325 20.8905 43.325 21.2905V21.2927H39.786ZM7.64167 28.2807C6.84622 28.2807 6.19913 27.6335 6.19913 26.8381C6.19913 26.0426 6.84622 25.3955 7.64167 25.3955C8.43712 25.3955 9.08421 26.0426 9.08421 26.8381C9.08421 27.6335 8.43712 28.2807 7.64167 28.2807ZM13.2771 26.8381C13.2771 27.6335 12.63 28.2807 11.8345 28.2807C11.0391 28.2807 10.3919 27.6335 10.3919 26.8381C10.3919 26.0426 11.0391 25.3955 11.8345 25.3955C12.63 25.3955 13.2771 26.0426 13.2771 26.8381ZM23.7138 26.8831C23.689 26.8831 23.6689 26.8628 23.6689 26.838V25.3955H25.5664C25.3067 25.8151 25.1565 26.3093 25.1565 26.838C25.1565 26.8531 25.1573 26.868 25.1576 26.8831H23.7138ZM27.9066 28.2807C27.1111 28.2807 26.4641 27.6335 26.4641 26.8381C26.4641 26.0426 27.1111 25.3955 27.9066 25.3955C28.702 25.3955 29.3491 26.0426 29.3491 26.8381C29.3491 27.6335 28.702 28.2807 27.9066 28.2807ZM30.6556 26.8831C30.6559 26.868 30.6567 26.8532 30.6567 26.838C30.6567 26.3093 30.5063 25.8151 30.2467 25.3955H36.0483C35.7886 25.8151 35.6383 26.3093 35.6383 26.838C35.6383 26.8531 35.6392 26.868 35.6394 26.8831H30.6556ZM38.3884 28.2807C37.593 28.2807 36.9459 27.6335 36.9459 26.8381C36.9459 26.0426 37.593 25.3955 38.3884 25.3955C39.1839 25.3955 39.831 26.0426 39.831 26.8381C39.831 27.6335 39.1839 28.2807 38.3884 28.2807ZM43.28 26.8831H41.1374C41.1377 26.868 41.1386 26.8532 41.1386 26.838C41.1386 26.3093 40.9882 25.8151 40.7286 25.3955H43.325V26.838C43.325 26.8628 43.3048 26.8831 43.28 26.8831Z" fill="#D9D9D9"/>
<path d="M16.5188 -0.000412533C13.0758 -0.000412834 10.2746 2.80072 10.2746 6.2437C10.2746 7.76731 10.9341 9.75232 12.2346 12.1437C12.4072 12.461 12.8041 12.5781 13.1214 12.4058C13.4386 12.2333 13.5558 11.8363 13.3834 11.5191C12.2051 9.35246 11.5822 7.52819 11.5822 6.2437C11.5822 3.52172 13.7968 1.30718 16.5188 1.30718C19.2408 1.30718 21.4553 3.52172 21.4553 6.2437C21.4553 9.43423 17.8729 14.5347 16.5183 16.349C16.1348 15.836 15.5736 15.0609 14.9686 14.1431C14.7699 13.8417 14.3643 13.7583 14.0629 13.9571C13.7615 14.1559 13.6781 14.5614 13.8769 14.8628C15.0098 16.5813 15.9678 17.7824 16.0081 17.8327C16.1321 17.9878 16.32 18.0781 16.5186 18.0781C16.7172 18.0781 16.905 17.9878 17.0291 17.8327C17.2632 17.5401 22.7627 10.6155 22.7627 6.2437C22.7629 2.80072 19.9617 -0.000412232 16.5188 -0.000412533Z" fill="#D9D9D9"/>
<circle cx="16.5138" cy="6.24819" r="1.7853" fill="#D9D9D9"/>
</svg>
