<svg width="45" height="45" viewBox="0 0 45 45" fill="none" xmlns="http://www.w3.org/2000/svg">
<path d="M42.3273 10.5198V7.91156H26.4041C26.0114 6.80185 25.1329 5.92124 24.0258 5.52766V0H21.4237V5.52766C20.3165 5.92124 19.438 6.80185 19.0453 7.91156H3.12213V10.5198H6.37477L0.52002 24.6041V24.8649C0.52002 28.4603 3.43829 31.3854 7.0253 31.3854H9.62741C13.2144 31.3854 16.1327 28.4603 16.1327 24.8649V24.6041L10.2779 10.5198H19.0453C19.438 11.6295 20.3165 12.5101 21.4237 12.9037V31.6036C18.8418 32.1311 16.8128 34.1967 16.3305 36.8001C13.3101 37.3623 11.0152 40.0214 11.0152 43.2093V44.5134H34.4343V43.2093C34.4343 40.0214 32.1394 37.3623 29.1191 36.8C28.6366 34.1965 26.6077 32.1309 24.0258 31.6035V12.9037C25.1329 12.5101 26.0114 11.6295 26.4041 10.5198H35.1715L29.3167 24.6041V24.8649C29.3167 28.4603 32.235 31.3854 35.822 31.3854H38.4241C42.0111 31.3854 44.9294 28.4603 44.9294 24.8649V24.6041L39.0746 10.5198H42.3273ZM8.32636 12.6063L12.8801 23.5608H3.77266L8.32636 12.6063ZM9.62741 28.7772H7.0253C5.32924 28.7772 3.88299 27.6868 3.34591 26.1681H13.3068C12.7697 27.6868 11.3235 28.7772 9.62741 28.7772ZM37.1231 12.6063L41.6768 23.5608H32.5694L37.1231 12.6063ZM38.4241 28.7772H35.822C34.126 28.7772 32.6797 27.6868 32.1426 26.1681H42.1035C41.5664 27.6868 40.1202 28.7772 38.4241 28.7772ZM31.6092 41.9052H13.8402C14.3772 40.3871 15.8243 39.297 17.5205 39.297H27.929C29.6253 39.297 31.0722 40.3871 31.6092 41.9052ZM26.4041 36.6888H19.0453C19.5824 35.1709 21.0287 34.0806 22.7248 34.0806C24.4209 34.0806 25.867 35.1709 26.4041 36.6888ZM22.7247 10.5198C22.0073 10.5198 21.4237 9.93474 21.4237 9.21566C21.4237 8.49658 22.0073 7.91156 22.7247 7.91156C23.4421 7.91156 24.0258 8.49658 24.0258 9.21566C24.0258 9.93474 23.4421 10.5198 22.7247 10.5198Z" fill="#171717"/>
</svg>
