<svg width="40" height="40" viewBox="0 0 40 40" fill="none" xmlns="http://www.w3.org/2000/svg">
    <g filter="url(#filter0_d_1_774)">
    <circle cx="20" cy="16" r="16" fill="#FEFEFE"/>
    <path d="M30.4829 26.4828C30.4829 23.7026 29.3784 21.0362 27.4125 19.0703C25.4466 17.1044 22.7803 16 20.0001 16C17.2199 16 14.5536 17.1044 12.5877 19.0703C10.6218 21.0362 9.51733 23.7026 9.51733 26.4828L20.0001 26.4828H30.4829Z" fill="#0E0E0E"/>
    <path d="M27.1727 10.8519C27.1382 13.0354 26.4365 14.7942 24.9608 16.2215C23.9229 17.2254 22.6791 17.8508 21.2497 18.0923C19.5072 18.3869 17.8539 18.1217 16.3334 17.2149C14.5531 16.1531 13.4479 14.5897 13.0086 12.5774C12.6453 10.9131 12.8228 9.29393 13.6038 7.7737C14.6762 5.68615 16.3878 4.39263 18.7143 3.98632C21.038 3.58049 23.1124 4.17104 24.8656 5.75292C26.1047 6.87094 26.8352 8.2769 27.083 9.92311C27.1365 10.2786 27.1529 10.6396 27.1727 10.8519ZM20.1592 7.17309C19.4119 7.17636 18.8481 7.30502 18.3253 7.58324C16.6922 8.4524 15.8938 10.2422 16.3356 12.0294C16.7956 13.8902 18.615 15.126 20.5088 14.8642C22.2179 14.6278 23.6162 13.161 23.7714 11.4431C23.8571 10.4948 23.634 9.62275 23.0854 8.84494C22.3391 7.78683 21.3144 7.21635 20.1592 7.17309Z" fill="#0E0E0E"/>
    <path d="M20 18.7578L21.0431 21.5768L23.8621 22.6199L21.0431 23.663L20 26.482L18.9569 23.663L16.1379 22.6199L18.9569 21.5768L20 18.7578Z" fill="#FEFEFE"/>
    <circle cx="20" cy="11.0349" r="3.86207" fill="#FEFEFE"/>
    </g>
    <defs>
    <filter id="filter0_d_1_774" x="0.14" y="0" width="39.72" height="45.5858" filterUnits="userSpaceOnUse" color-interpolation-filters="sRGB">
    <feFlood flood-opacity="0" result="BackgroundImageFix"/>
    <feColorMatrix in="SourceAlpha" type="matrix" values="0 0 0 0 0 0 0 0 0 0 0 0 0 0 0 0 0 0 127 0" result="hardAlpha"/>
    <feOffset dy="4.76"/>
    <feGaussianBlur stdDeviation="1.93"/>
    <feComposite in2="hardAlpha" operator="out"/>
    <feColorMatrix type="matrix" values="0 0 0 0 0 0 0 0 0 0 0 0 0 0 0 0 0 0 0.28 0"/>
    <feBlend mode="normal" in2="BackgroundImageFix" result="effect1_dropShadow_1_774"/>
    <feBlend mode="normal" in="SourceGraphic" in2="effect1_dropShadow_1_774" result="shape"/>
    </filter>
    </defs>
</svg>    