<svg width="24" height="24" viewBox="0 0 24 24" fill="none" xmlns="http://www.w3.org/2000/svg">
    <g opacity="0.5">
    <path fill-rule="evenodd" clip-rule="evenodd" d="M15.6346 6.24798C15.6346 8.33087 13.9461 10.0194 11.8632 10.0194C9.78033 10.0194 8.09182 8.33087 8.09182 6.24798C8.09182 4.1651 9.78033 2.47659 11.8632 2.47659C13.9461 2.47659 15.6346 4.1651 15.6346 6.24798ZM11.8632 11.8959C14.9825 11.8959 17.5111 9.36722 17.5111 6.24798C17.5111 3.12874 14.9825 0.600098 11.8632 0.600098C8.74398 0.600098 6.21533 3.12874 6.21533 6.24798C6.21533 9.36722 8.74398 11.8959 11.8632 11.8959ZM15.9081 7.27167C15.9907 6.94413 16.0346 6.60118 16.0346 6.24798C16.0346 3.94418 14.167 2.07659 11.8632 2.07659C9.90816 2.07659 8.26723 3.42157 7.81524 5.23672C8.2672 3.42152 9.90814 2.07649 11.8632 2.07649C14.167 2.07649 16.0346 3.94409 16.0346 6.24788C16.0346 6.60112 15.9907 6.9441 15.9081 7.27167ZM16.9459 7.55951C16.3634 9.82313 14.3087 11.4958 11.8632 11.4958C8.96491 11.4958 6.61536 9.14621 6.61536 6.24788C6.61536 5.80778 6.66953 5.38032 6.77158 4.97182C6.66952 5.38035 6.61533 5.80784 6.61533 6.24798C6.61533 9.14631 8.96489 11.4959 11.8632 11.4959C14.3087 11.4959 16.3635 9.82318 16.9459 7.55951Z" fill="#171717"/>
    <path fill-rule="evenodd" clip-rule="evenodd" d="M0.698242 23.2027V23.6027L23.028 23.6027V23.2027C23.028 22.8292 23.0093 22.4566 22.9721 22.0862C22.8632 21.0031 22.5963 19.9396 22.1782 18.9301C21.6171 17.5755 20.7947 16.3447 19.7579 15.308C18.7211 14.2712 17.4903 13.4488 16.1358 12.8877C14.7812 12.3266 13.3293 12.0378 11.8631 12.0378C10.3969 12.0378 8.9451 12.3266 7.59051 12.8877C6.23593 13.4488 5.00512 14.2712 3.96836 15.308C2.93161 16.3447 2.10921 17.5755 1.54812 18.9301C1.12998 19.9396 0.86307 21.0031 0.754206 22.0862C0.716988 22.4566 0.698242 22.8292 0.698242 23.2027ZM20.4445 19.6482C20.7216 20.3172 20.9189 21.0147 21.0334 21.7262L2.69283 21.7262C2.8074 21.0147 3.00467 20.3172 3.28177 19.6482C3.74855 18.5213 4.43273 17.4974 5.29524 16.6348C6.15775 15.7723 7.18169 15.0882 8.30862 14.6214C9.43554 14.1546 10.6434 13.9143 11.8631 13.9143C13.0829 13.9143 14.2907 14.1546 15.4177 14.6214C16.5446 15.0882 17.5685 15.7723 18.431 16.6348C19.2935 17.4973 19.9777 18.5213 20.4445 19.6482ZM20.8141 19.4951C21.1113 20.2128 21.3205 20.962 21.4384 21.7262C21.4589 21.8591 21.4766 21.9924 21.4915 22.1261H21.4916C21.3906 21.2234 21.1631 20.3376 20.8141 19.495C20.3272 18.3196 19.6135 17.2516 18.7139 16.3519C17.8142 15.4522 16.7462 14.7386 15.5708 14.2517C14.3953 13.7648 13.1355 13.5142 11.8632 13.5142C10.5909 13.5142 9.33102 13.7648 8.15557 14.2517C6.98012 14.7386 5.91207 15.4523 5.01242 16.3519C4.11277 17.2516 3.39913 18.3196 2.91224 19.495C2.82196 19.713 2.73981 19.9339 2.66587 20.1572C2.7398 19.9339 2.82195 19.7131 2.91222 19.4951C3.3991 18.3197 4.11275 17.2517 5.0124 16.352C5.91205 15.4523 6.98009 14.7387 8.15554 14.2518C9.33099 13.7649 10.5908 13.5143 11.8631 13.5143C13.1354 13.5143 14.3953 13.7649 15.5707 14.2518C16.7462 14.7387 17.8142 15.4523 18.7139 16.352C19.6135 17.2516 20.3272 18.3197 20.8141 19.4951ZM1.1522 22.1262C1.12962 22.351 1.11408 22.5766 1.10568 22.8027C1.10072 22.9359 1.09824 23.0693 1.09824 23.2027L22.628 23.2027V23.2026L1.09827 23.2026C1.09827 22.8425 1.11634 22.4832 1.15223 22.1261C1.17844 21.8654 1.21414 21.6057 1.25926 21.3478C1.21414 21.6058 1.17842 21.8654 1.1522 22.1262Z" fill="#171717"/>
    </g>
    </svg>
