<svg width="25" height="24" viewBox="0 0 25 24" fill="none" xmlns="http://www.w3.org/2000/svg">
<g clip-path="url(#clip0_468_24120)">
<path d="M19.7961 14.2324C18.2735 14.2324 17.0348 15.4711 17.0348 16.9937C17.0348 18.516 18.2735 19.7548 19.7961 19.7548C21.3189 19.7548 22.5574 18.516 22.5574 16.9937C22.5574 15.4711 21.3186 14.2324 19.7961 14.2324ZM19.7961 18.2061C19.1272 18.2061 18.5832 17.6621 18.5832 16.9935C18.5832 16.3245 19.1272 15.7806 19.7961 15.7806C20.465 15.7806 21.0089 16.3248 21.0089 16.9935C21.009 17.6621 20.465 18.2061 19.7961 18.2061Z" fill="#665CD1"/>
<path d="M15.8219 4.24512H1.16384C0.736242 4.24512 0.389648 4.59171 0.389648 5.01935V16.9419C0.389648 17.3695 0.736242 17.7161 1.16384 17.7161H3.58966V16.1677H1.93802V5.79354H15.0477V16.9419H16.5961V5.01935C16.5961 4.59171 16.2495 4.24512 15.8219 4.24512Z" fill="#665CD1"/>
<path d="M17.809 16.168H7.38318V17.7163H17.809V16.168Z" fill="#665CD1"/>
<path d="M5.47347 14.2324C3.95088 14.2324 2.71216 15.4711 2.71216 16.9937C2.71216 18.516 3.95088 19.7548 5.47347 19.7548C6.99606 19.7548 8.23478 18.516 8.23478 16.9937C8.23474 15.4711 6.99606 14.2324 5.47347 14.2324ZM5.47347 18.2061C4.80456 18.2061 4.26058 17.6621 4.26058 16.9935C4.26058 16.3245 4.80456 15.7806 5.47347 15.7806C6.14238 15.7806 6.68636 16.3248 6.68636 16.9935C6.68636 17.6621 6.1421 18.2061 5.47347 18.2061Z" fill="#665CD1"/>
<path d="M23.6155 10.6709H15.8219V12.2193H22.8412V16.1676H21.7316V17.716H23.6154C24.043 17.716 24.3896 17.3697 24.3896 16.9418V11.4451C24.3897 11.0175 24.0431 10.6709 23.6155 10.6709Z" fill="#665CD1"/>
<path d="M21.2746 7.45863C21.1386 7.21141 20.8784 7.05762 20.5961 7.05762H15.8219V8.60599H20.1383L21.9047 11.8179L23.2616 11.0715L21.2746 7.45863Z" fill="#665CD1"/>
</g>
<defs>
<clipPath id="clip0_468_24120">
<rect width="24" height="24" fill="white" transform="translate(0.389648)"/>
</clipPath>
</defs>
</svg>
