<svg width="28" height="27" viewBox="0 0 28 27" fill="none" xmlns="http://www.w3.org/2000/svg">
    <circle cx="13.9996" cy="13.3189" r="8.4" fill="white" />
    <path d="M28 13.319L24.8303 9.79977L25.3266 5.08843L20.6916 4.10718L18.3273 0L14 1.93392L9.67274 0L7.30845 4.10718L2.67349 5.08843L3.16973 9.79977L0 13.319L3.16967 16.8382L2.67344 21.5496L7.30839 22.5308L9.67268 26.638L14 24.704L18.3273 26.638L20.6916 22.5308L25.3265 21.5496L24.8302 16.8382L28 13.319ZM19.8691 10.2536L12.8417 18.1268L7.95838 13.2435L9.11988 12.082L12.7739 15.736L18.6437 9.15975L19.8691 10.2536Z" fill="#8AC9FE" />
</svg>