<svg width="43" height="43" viewBox="0 0 43 43" fill="none" xmlns="http://www.w3.org/2000/svg">
<g clip-path="url(#clip0_523_30502)">
<g clip-path="url(#clip1_523_30502)">
<circle cx="21.4294" cy="21.4294" r="12.8571" fill="#F1F0FF"/>
<path d="M42.8571 21.4292L38.0055 16.0426L38.7652 8.83138L31.6708 7.32947L28.052 1.04297L21.4286 4.00306L14.8052 1.04297L11.1864 7.32947L4.09208 8.83138L4.85163 16.0426L0 21.4292L4.85154 26.8158L4.09199 34.027L11.1863 35.5289L14.8051 41.8154L21.4285 38.8552L28.0519 41.8154L31.6708 35.5289L38.7651 34.027L38.0054 26.8158L42.8571 21.4292ZM30.412 16.7372L19.6557 28.7881L12.1812 21.3136L13.959 19.5358L19.5518 25.1286L28.5363 15.063L30.412 16.7372Z" fill="#665CD1"/>
</g>
</g>
<defs>
<clipPath id="clip0_523_30502">
<rect width="42.8571" height="42.8571" fill="white"/>
</clipPath>
<clipPath id="clip1_523_30502">
<rect width="42.8571" height="42.8571" fill="white"/>
</clipPath>
</defs>
</svg>
