<svg width="30" height="30" viewBox="0 0 30 30" fill="none" xmlns="http://www.w3.org/2000/svg">
<path d="M15 30C23.2843 30 30 23.2843 30 15C30 6.71573 23.2843 0 15 0C6.71573 0 0 6.71573 0 15C0 23.2843 6.71573 30 15 30Z" fill="#665CAC"/>
<path d="M16.579 7.10547H13.4211C11.9554 7.10547 10.5498 7.6877 9.5134 8.72409C8.47701 9.76047 7.89478 11.1661 7.89478 12.6318V15.0002C7.89434 16.0464 8.19086 17.0712 8.74988 17.9555C9.3089 18.8398 10.1074 19.5472 11.0527 19.9956V22.6344C11.0536 22.6859 11.0696 22.736 11.0986 22.7785C11.1276 22.8211 11.1683 22.8542 11.2159 22.8739C11.2635 22.8936 11.3158 22.899 11.3664 22.8894C11.4169 22.8798 11.4636 22.8557 11.5007 22.8199L13.7941 20.5265H16.579C18.0447 20.5265 19.4503 19.9443 20.4867 18.9079C21.5231 17.8715 22.1053 16.4659 22.1053 15.0002V12.6318C22.1053 11.1661 21.5231 9.76047 20.4867 8.72409C19.4503 7.6877 18.0447 7.10547 16.579 7.10547ZM18.6474 17.4634L17.8579 18.2528C17.0171 19.0759 14.8224 18.1364 12.8882 16.1607C10.954 14.1851 10.1053 11.9686 10.9145 11.1456L11.704 10.3561C11.8587 10.2172 12.0599 10.1414 12.2678 10.1436C12.4757 10.1458 12.6752 10.2258 12.827 10.368L13.9796 11.5522C14.0712 11.6466 14.1372 11.7628 14.1715 11.8898C14.2058 12.0168 14.2072 12.1505 14.1756 12.2782C14.144 12.4059 14.0805 12.5234 13.991 12.6198C13.9014 12.7162 13.7889 12.7882 13.6639 12.8292C13.4785 12.886 13.3222 13.0121 13.2274 13.1811C13.1326 13.3502 13.1065 13.5493 13.1546 13.737C13.352 14.6134 14.4652 15.7107 15.2941 15.9259C15.481 15.9704 15.6777 15.9453 15.8474 15.8551C16.0171 15.765 16.1481 15.6162 16.2158 15.4364C16.2596 15.311 16.3349 15.199 16.4345 15.1112C16.5341 15.0233 16.6547 14.9626 16.7845 14.9349C16.9144 14.9071 17.0492 14.9132 17.176 14.9527C17.3029 14.9921 17.4174 15.0635 17.5086 15.1601L18.6593 16.3443C18.7974 16.4986 18.8729 16.699 18.8707 16.9061C18.8685 17.1132 18.7888 17.312 18.6474 17.4634ZM15.7185 10.8555C15.64 10.8551 15.5615 10.8597 15.4836 10.8693C15.4492 10.873 15.4145 10.87 15.3813 10.8603C15.3482 10.8507 15.3172 10.8346 15.2903 10.8129C15.2634 10.7913 15.2409 10.7646 15.2243 10.7343C15.2077 10.704 15.1972 10.6707 15.1935 10.6364C15.1897 10.602 15.1927 10.5673 15.2024 10.5341C15.2121 10.501 15.2282 10.47 15.2498 10.4431C15.2714 10.4161 15.2982 10.3937 15.3285 10.3771C15.3587 10.3605 15.392 10.35 15.4264 10.3463C15.5233 10.3351 15.6209 10.3298 15.7185 10.3305C16.4169 10.3299 17.087 10.6068 17.5815 11.1001C18.0759 11.5934 18.3543 12.2629 18.3553 12.9614C18.356 13.059 18.3507 13.1565 18.3395 13.2535C18.3358 13.2878 18.3253 13.3211 18.3087 13.3514C18.292 13.3817 18.2696 13.4084 18.2427 13.43C18.2157 13.4517 18.1848 13.4678 18.1516 13.4774C18.1185 13.4871 18.0837 13.4901 18.0494 13.4864C18.015 13.4826 17.9818 13.4721 17.9515 13.4555C17.9212 13.4389 17.8945 13.4165 17.8728 13.3896C17.8512 13.3626 17.8351 13.3317 17.8254 13.2985C17.8158 13.2653 17.8127 13.2306 17.8165 13.1963C17.8251 13.1183 17.8297 13.0399 17.8303 12.9614C17.8293 12.4022 17.6062 11.8662 17.2102 11.4713C16.8143 11.0765 16.2777 10.8549 15.7185 10.8555ZM17.2974 12.9614C17.2917 13.0273 17.2615 13.0887 17.2127 13.1335C17.1639 13.1782 17.1001 13.203 17.0339 13.203C16.9677 13.203 16.9039 13.1782 16.8552 13.1335C16.8064 13.0887 16.7761 13.0273 16.7704 12.9614C16.7704 12.6824 16.6596 12.4148 16.4623 12.2175C16.265 12.0202 15.9975 11.9094 15.7185 11.9094C15.6819 11.9126 15.6452 11.9081 15.6105 11.8963C15.5758 11.8845 15.5439 11.8656 15.5169 11.8408C15.4899 11.8161 15.4683 11.7859 15.4535 11.7524C15.4388 11.7188 15.4312 11.6826 15.4312 11.6459C15.4312 11.6093 15.4388 11.573 15.4535 11.5395C15.4683 11.5059 15.4899 11.4758 15.5169 11.451C15.5439 11.4262 15.5758 11.4074 15.6105 11.3955C15.6452 11.3837 15.6819 11.3793 15.7185 11.3824C16.1372 11.3824 16.5388 11.5488 16.8349 11.8449C17.1311 12.141 17.2974 12.5426 17.2974 12.9614ZM19.3046 13.816C19.2988 13.8519 19.2856 13.8862 19.266 13.9167C19.2463 13.9473 19.2205 13.9735 19.1902 13.9936C19.16 14.0138 19.1259 14.0275 19.0901 14.0339C19.0543 14.0403 19.0176 14.0392 18.9823 14.0308C18.9469 14.0224 18.9137 14.0067 18.8846 13.9849C18.8556 13.963 18.8313 13.9354 18.8134 13.9038C18.7955 13.8721 18.7843 13.8371 18.7806 13.801C18.7768 13.7648 18.7805 13.7283 18.7915 13.6936C18.8485 13.4551 18.877 13.2106 18.8764 12.9653C18.8764 12.1278 18.5436 11.3246 17.9514 10.7324C17.3592 10.1401 16.556 9.80744 15.7185 9.80744C15.6375 9.80744 15.5546 9.80744 15.4737 9.80744C15.4393 9.81003 15.4046 9.80581 15.3718 9.79501C15.3389 9.78422 15.3085 9.76706 15.2823 9.74451C15.2294 9.69899 15.1967 9.6343 15.1915 9.56468C15.1863 9.49506 15.2089 9.42621 15.2544 9.37328C15.2999 9.32035 15.3646 9.28768 15.4342 9.28244C15.529 9.27455 15.6237 9.2706 15.7185 9.2706C16.6963 9.27217 17.6335 9.66171 18.3244 10.3537C19.0153 11.0457 19.4033 11.9836 19.4033 12.9614C19.4034 13.2491 19.3703 13.5359 19.3046 13.816Z" fill="white"/>
</svg>
