<svg width="27" height="29" viewBox="0 0 27 29" fill="none" xmlns="http://www.w3.org/2000/svg">
<path d="M25.7999 13.8122L14.3124 25.2997C12.9051 26.707 10.9964 27.4976 9.00612 27.4976C7.01589 27.4976 5.10718 26.707 3.69987 25.2997C2.29257 23.8924 1.50195 21.9836 1.50195 19.9934C1.50195 18.0032 2.29257 16.0945 3.69987 14.6872L15.1874 3.19966C16.1256 2.26145 17.3981 1.73437 18.7249 1.73438C20.0517 1.73438 21.3242 2.26145 22.2624 3.19966C23.2006 4.13786 23.7277 5.41034 23.7277 6.73715C23.7277 8.06397 23.2006 9.33645 22.2624 10.2747L10.7624 21.7622C10.2933 22.2313 9.65703 22.4948 8.99362 22.4948C8.33021 22.4948 7.69398 22.2313 7.22487 21.7622C6.75577 21.2931 6.49223 20.6568 6.49223 19.9934C6.49223 19.33 6.75577 18.6938 7.22487 18.2247L17.8374 7.62466" stroke="#171717" stroke-width="2" stroke-linecap="round" stroke-linejoin="round"/>
</svg>
